<?xml version="1.0" encoding="windows-1252"?>
<!-- Generator: Adobe Illustrator 16.0.0, SVG Export Plug-In . SVG Version: 6.00 Build 0)  -->
<!DOCTYPE svg PUBLIC "-//W3C//DTD SVG 1.1//EN" "http://www.w3.org/Graphics/SVG/1.1/DTD/svg11.dtd">
<svg version="1.1" id="Layer_1" xmlns="http://www.w3.org/2000/svg" xmlns:xlink="http://www.w3.org/1999/xlink" x="0px" y="0px" width="512px" height="512px" viewBox="0 0 512 512" style="enable-background:new 0 0 512 512;" xml:space="preserve">
<style type="text/css">
<![CDATA[
	.st0{fill:#4F4B48;}
	.st1{fill:#847E79;}
	.st2{fill:#FFFFFF;}
	.st3{fill:#3F3C3A;}
	.st4{fill:#DAD9D8;}
	.st5{fill:#78716B;}
]]>
</style>
<rect class="st1" width="512" height="512"/>
<g>
	<g>
		<g>
			<g>
				<g>
					<rect x="145.4" y="179.8" class="st4" width="13.5" height="4.5"/>
				</g>
			</g>
			<g>
				<g>
					<rect x="319.2" y="182.1" class="st4" width="54.2" height="9"/>
				</g>
			</g>
			<g>
				<g>
					<rect x="129.6" y="191.1" class="st4" width="252.9" height="162.5"/>
				</g>
			</g>
			<g>
				<g>
					<rect x="120.5" y="191.1" class="st3" width="270.9" height="54.2"/>
				</g>
			</g>
			<g>
				<g>
					<polygon class="st0" points="310.2,276.9 201.8,276.9 206.3,191.1 305.7,191.1      "/>
				</g>
			</g>
			<g>
				<g>
					<circle class="st4" cx="256" cy="281.4" r="54.2"/>
				</g>
			</g>
			<g>
				<rect x="120.5" y="329.9" class="st3" width="270.9" height="27.1"/>
			</g>
			<g>
				<g>
					<polygon class="st3" points="305.7,191.1 206.3,191.1 226.7,155 285.3,155      "/>
				</g>
			</g>
			<g>
				<g>
					<path class="st2" d="M256,236.2c24.9,0,45.2,20.3,45.2,45.2c0,24.9-20.3,45.2-45.2,45.2c-24.9,0-45.2-20.3-45.2-45.2       C210.8,256.5,231.1,236.2,256,236.2L256,236.2z M256,218.2c-34.9,0-63.2,28.3-63.2,63.2c0,34.9,28.3,63.2,63.2,63.2       c34.9,0,63.2-28.3,63.2-63.2C319.2,246.5,290.9,218.2,256,218.2L256,218.2z"/>
				</g>
			</g>
			<g>
				<g>
					<path class="st3" d="M256,245.3c19.9,0,36.1,16.2,36.1,36.1c0,19.9-16.2,36.1-36.1,36.1s-36.1-16.2-36.1-36.1       C219.9,261.5,236.1,245.3,256,245.3L256,245.3z M256,227.2c-29.9,0-54.2,24.3-54.2,54.2c0,29.9,24.3,54.2,54.2,54.2       c29.9,0,54.2-24.3,54.2-54.2C310.2,251.5,285.9,227.2,256,227.2L256,227.2z"/>
				</g>
			</g>
			<g>
				<g>
					<polygon class="st2" points="352.3,203.1 340.3,203.1 328.2,203.1 328.2,227.2 340.3,227.2 352.3,227.2 364.4,227.2        364.4,203.1      "/>
				</g>
			</g>
			<g>
				<g>
					<rect x="138.6" y="182.1" class="st3" width="27.1" height="9"/>
				</g>
			</g>
			<g>
				<g>
					<polygon class="st4" points="174.7,177.5 174.7,182.1 174.7,186.6 174.7,191.1 201.8,191.1 201.8,186.6 201.8,182.1        201.8,177.5      "/>
				</g>
			</g>
			<g>
				<g>
					<circle class="st2" cx="174.7" cy="265.2" r="7.1"/>
				</g>
			</g>
			<g>
				<g>
					<rect x="339.2" y="203.1" class="st3" width="2.3" height="24.1"/>
				</g>
			</g>
			<g>
				<g>
					<rect x="351.2" y="203.1" class="st3" width="2.3" height="24.1"/>
				</g>
			</g>
		</g>
	</g>
	<g>
		<g>
			<polygon class="st5" points="300.6,182.1 305.7,191.1 319.2,191.1 319.2,188.8 312.4,182.1 307.9,177.5 285.3,155 298,177.5         "/>
		</g>
		<g>
			<polygon class="st5" points="373.4,182.1 373.4,191.1 382.4,191.1    "/>
		</g>
		<g>
			<polygon class="st5" points="129.6,245.3 120.5,245.3 129.6,254.3    "/>
		</g>
		<g>
			<polygon class="st5" points="209.6,185.3 206.3,182.1 201.8,177.5 201.8,182.1 201.8,186.6 201.8,191.1 206.3,191.1    "/>
		</g>
		<g>
			<polygon class="st5" points="165.7,182.1 165.7,191.1 174.7,191.1    "/>
		</g>
		<g>
			<path class="st5" d="M445.6,245.3l-54.2-54.2v9v45.2h-9v6.8v77.9h9V357h-10.2h-40.6H232.3H120.5l155.8,155     c85.1,0,235.7,0,235.7,0s-0.5-199.8,0-202.3L445.6,245.3z"/>
		</g>
	</g>
</g>
</svg>