<?xml version="1.0" encoding="UTF-8"?>
<svg width="1600" height="1200" xmlns="http://www.w3.org/2000/svg">
 <title>camera1</title>
 <metadata id="metadata12390">image/svg+xmlOther map symbolsMohamed IbrahimPublic Domainclker.comother map symbols</metadata>
 <g>
  <title>Layer 1</title>
  <g id="layer1">
   <path d="m1067.564087,1167.231689c76.856812,0 139.332153,-62.073486 139.332153,-138.580322l0,-883.462402c0,-76.506554 -62.475342,-138.580095 -139.332153,-138.580095l-887.270813,0c-76.974586,0 -139.332264,62.073526 -139.332264,138.580095l0,883.462402c0,76.506836 62.357693,138.580322 139.332264,138.580322l887.270813,0z" id="path2776" fill-rule="nonzero" fill="#231f20"/>
   <path d="m180.293243,30.07715c-63.772217,0 -115.874458,51.630194 -115.874458,115.111845l0,883.462372c0,63.481689 52.102242,114.994629 115.874458,114.994629l887.270844,0c63.772217,0 115.520752,-51.512939 115.520752,-114.994629l0,-883.462402c0,-63.481651 -51.748535,-115.111843 -115.520752,-115.111843l-887.270813,0l-0.000031,0.000029z" id="path2778" fill-rule="nonzero" fill="#ffffff"/>
   <path d="m706.148743,419.180847c74.027832,0 138.271423,40.130737 173.752747,99.270813l209.116455,0.234558l0,-111.591522c0,-41.538788 -33.948975,-75.215729 -75.560242,-75.215729l-779.294067,0c-41.728958,0 -75.324295,33.676941 -75.324295,75.215729l0.235779,110.652863l373.203018,0.23468c35.717224,-58.905304 99.725098,-98.801392 173.870605,-98.801392" id="path2780" fill-rule="nonzero" fill="#231f20"/>
   <path d="m354.281738,296.441833l-69.312439,0l-8.015747,24.876373l83.104279,0l-5.776093,-24.876373z" id="path2782" fill-rule="nonzero" fill="#231f20"/>
   <path d="m979.390991,283.182312l-92.298828,0l-16.385071,38.370605l123.654419,0l-14.97052,-38.370605z" id="path2784" fill-rule="nonzero" fill="#231f20"/>
   <path d="m662.533813,308.293365l-79.450073,0l0,-38.253235l79.450073,0l0,38.253235zm72.848877,-53.624969l-224.322601,0l-46.208374,67.353882l312.849213,0l-42.318237,-67.353882z" id="path2786" fill-rule="nonzero" fill="#231f20"/>
   <path d="m890.746399,538.399597c11.552124,25.345642 18.388977,53.27301 18.388977,82.960205c0,111.591553 -90.884094,202.179199 -202.986633,202.179199c-112.220215,0 -203.104431,-90.587646 -203.104431,-202.179199c0,-29.687195 6.719116,-57.614563 18.389038,-83.077576l-362.593979,0l0,304.61792c0,41.304382 33.595337,74.98114 75.324295,74.98114l779.294037,0c41.611267,0 75.560242,-33.676758 75.560242,-74.98114l0.235718,-304.500549l-198.507263,0z" id="path2788" fill-rule="nonzero" fill="#231f20"/>
   <path d="m816.836548,554.944763c-3.182617,-5.632385 -7.19043,-10.912781 -11.552002,-15.958374c-23.693665,-28.396667 -59.174988,-47.053986 -99.135803,-47.053986c-40.078491,0 -75.559937,18.539948 -99.25354,46.819305c-4.36145,5.162964 -8.369446,10.443298 -11.787842,16.193054c-11.90564,19.478699 -19.096375,42.008179 -19.096375,66.415039c0,71.343567 58.232056,129.310242 130.137756,129.310242c71.552185,0 129.78418,-57.966675 129.78418,-129.310242c0,-24.40686 -7.072754,-46.93634 -19.096375,-66.415039" id="path2790" fill-rule="nonzero" fill="#231f20"/>
  </g>
 </g>
</svg>