<?xml version="1.0" encoding="UTF-8"?>
<!-- Generated by IcoMoon.io -->
<!DOCTYPE svg PUBLIC "-//W3C//DTD SVG 1.1//EN" "http://www.w3.org/Graphics/SVG/1.1/DTD/svg11.dtd">
<svg version="1.1" xmlns="http://www.w3.org/2000/svg" xmlns:xlink="http://www.w3.org/1999/xlink" width="512" height="512" viewBox="0 0 512 512">
<g>
</g>
	<path d="M192.512 263.629h-121.159c-30.74 0-55.654 24.883-55.654 55.623v121.18c0 30.7 24.914 55.623 55.654 55.623h121.159c30.74 0 55.654-24.924 55.654-55.623v-121.18c0-30.74-24.914-55.623-55.654-55.623zM168.469 424.93c-9.226 7.363-24.678 11.479-49.9 11.479-14.141 0-24.678-0.901-31.058-1.843v-124.498c7.516-1.495 22.569-2.837 37.079-2.837 17.52 0 28.262 1.7 37.499 7.158 8.827 4.721 15.042 13.384 15.042 25.017 0 11.141-6.595 21.504-20.715 26.962v0.399c14.51 3.717 25.232 14.858 25.232 31.242-0.010 11.684-5.263 20.726-13.179 26.921z" fill="#000000"/>
	<path d="M148.521 342.815c0-9.605-7.352-14.684-20.337-14.684-6.41 0-10.014 0.379-12.267 0.942v29.378h9.431c15.257 0 23.173-6.205 23.173-15.637z" fill="#000000"/>
	<path d="M125.747 378.993h-9.831v35.758c2.806 0.584 6.246 0.584 11.131 0.584 12.995 0 24.504-5.079 24.504-18.483-0.010-12.759-11.52-17.858-25.805-17.858z" fill="#000000"/>
	<path d="M440.678 263.629h-121.201c-30.72 0-55.623 24.883-55.623 55.623v121.18c0 30.7 24.904 55.623 55.623 55.623h121.201c30.72 0 55.623-24.924 55.623-55.623v-121.18c0-30.74-24.904-55.623-55.623-55.623zM401.264 413.266c8.858 0 18.258-1.7 24.105-4.158l4.158 22.62c-5.099 2.437-17.142 5.438-32.399 5.438-43.879 0-66.478-27.484-66.478-63.836 0-43.305 30.884-67.216 69.305-67.216 14.878 0 26.183 3.021 31.262 5.642l-6.021 22.62c-5.663-2.457-13.742-4.721-24.105-4.721-22.599 0-40.325 13.762-40.325 42.178-0.010 25.395 15.074 41.431 40.499 41.431z" fill="#000000"/>
	<path d="M269.302 106.486c-2.058-7.537-4.322-17.162-6.216-24.504h-0.574c-1.669 7.516-3.758 17.162-5.652 24.505l-7.71 26.941h28.047l-7.895-26.942z" fill="#000000"/>
	<path d="M204.37 248.371h121.211c30.72 0 55.623-24.883 55.623-55.603v-121.18c0-30.72-24.904-55.644-55.623-55.644h-121.211c-30.69 0-55.624 24.924-55.624 55.644v121.18c0 30.72 24.924 55.603 55.624 55.603zM245.197 60.508h37.488l39.536 126.935h-30.884l-9.8-32.583h-36.526l-8.847 32.584h-29.757l38.789-126.935z" fill="#000000"/>
</svg>