<?xml version="1.0" encoding="UTF-8"?>
<!-- Generator: Adobe Illustrator 16.0.0, SVG Export Plug-In . SVG Version: 6.00 Build 0)  -->
<!DOCTYPE svg PUBLIC "-//W3C//DTD SVG 1.1//EN" "http://www.w3.org/Graphics/SVG/1.1/DTD/svg11.dtd">
<svg version="1.1" id="Layer_1" xmlns="http://www.w3.org/2000/svg" xmlns:xlink="http://www.w3.org/1999/xlink" x="0px" y="0px" width="489.722px" height="253.514px" viewBox="48.453 300.678 489.722 253.514" enable-background="new 48.453 300.678 489.722 253.514" xml:space="preserve">
<path fill="#333333" d="M48.453,300.678V530.83c0,12.979,10.383,23.361,23.361,23.361h442.999c12.979,0,23.361-10.383,23.361-23.361  V300.678H48.453z M301.966,394.988c0-3.461,2.596-6.057,6.057-6.057h29.418c3.461,0,6.057,2.596,6.057,6.057v23.361  c0,3.461-2.596,6.057-6.057,6.057h-29.418c-3.461,0-6.057-2.596-6.057-6.057V394.988L301.966,394.988z M301.966,448.633  c0-3.461,2.596-6.057,6.057-6.057h29.418c3.461,0,6.057,2.596,6.057,6.057v23.361c0,3.461-2.596,6.057-6.057,6.057h-29.418  c-3.461,0-6.057-2.596-6.057-6.057V448.633L301.966,448.633z M243.13,394.988c0-3.461,2.596-6.057,6.057-6.057h29.418  c3.461,0,6.057,2.596,6.057,6.057v23.361c0,3.461-2.596,6.057-6.057,6.057h-29.418c-3.461,0-6.057-2.596-6.057-6.057V394.988z   M243.13,448.633c0-3.461,2.596-6.057,6.057-6.057h29.418c3.461,0,6.057,2.596,6.057,6.057v23.361c0,3.461-2.596,6.057-6.057,6.057  h-29.418c-3.461,0-6.057-2.596-6.057-6.057V448.633z M184.294,394.988c0-3.461,2.596-6.057,6.057-6.057h29.418  c3.461,0,6.057,2.596,6.057,6.057v23.361c0,3.461-2.596,6.057-6.057,6.057h-29.418c-3.461,0-6.057-2.596-6.057-6.057V394.988z   M184.294,448.633c0-3.461,2.596-6.057,6.057-6.057h29.418c3.461,0,6.057,2.596,6.057,6.057v23.361c0,3.461-2.596,6.057-6.057,6.057  h-29.418c-3.461,0-6.057-2.596-6.057-6.057V448.633z M65.758,394.988c0-3.461,2.596-6.057,6.057-6.057h29.418  c3.461,0,6.057,2.596,6.057,6.057v23.361c0,3.461-2.596,6.057-6.057,6.057H71.815c-3.461,0-6.057-2.596-6.057-6.057V394.988z   M107.289,525.639c0,3.461-2.596,6.057-6.057,6.057H71.815c-3.461,0-6.057-2.596-6.057-6.057v-23.361  c0-3.461,2.596-6.057,6.057-6.057h29.418c3.461,0,6.057,2.596,6.057,6.057V525.639z M166.124,525.639  c0,3.461-2.596,6.057-6.057,6.057h-29.417c-3.461,0-6.057-2.596-6.057-6.057v-23.361c0-3.461,2.596-6.057,6.057-6.057h29.417  c3.461,0,6.057,2.596,6.057,6.057V525.639z M166.124,471.994c0,3.461-2.596,6.057-6.057,6.057H71.815  c-3.461,0-6.057-2.596-6.057-6.057v-23.361c0-3.461,2.596-6.057,6.057-6.057h88.253c3.461,0,6.057,2.596,6.057,6.057V471.994z   M166.124,419.215c0,3.461-2.596,6.057-6.057,6.057h-29.417c-3.461,0-6.057-2.596-6.057-6.057v-23.361  c0-3.461,2.596-6.057,6.057-6.057h29.417c3.461,0,6.057,2.596,6.057,6.057V419.215z M402.333,525.639  c0,3.461-2.596,6.057-6.057,6.057H190.351c-3.461,0-6.057-2.596-6.057-6.057v-23.361c0-3.461,2.596-6.057,6.057-6.057h206.791  c3.461,0,6.057,2.596,6.057,6.057v23.361H402.333z M402.333,471.994c0,3.461-2.596,6.057-6.057,6.057h-29.418  c-3.461,0-6.057-2.596-6.057-6.057v-23.361c0-3.461,2.596-6.057,6.057-6.057h29.418c3.461,0,6.057,2.596,6.057,6.057V471.994z   M402.333,419.215c0,3.461-2.596,6.057-6.057,6.057h-29.418c-3.461,0-6.057-2.596-6.057-6.057v-23.361  c0-3.461,2.596-6.057,6.057-6.057h29.418c3.461,0,6.057,2.596,6.057,6.057V419.215z M462.034,525.639  c0,3.461-2.596,6.057-6.057,6.057H426.56c-3.461,0-6.057-2.596-6.057-6.057v-23.361c0-3.461,2.596-6.057,6.057-6.057h29.418  c3.461,0,6.057,2.596,6.057,6.057V525.639z M462.034,471.994c0,3.461-2.596,6.057-6.057,6.057H426.56  c-3.461,0-6.057-2.596-6.057-6.057v-23.361c0-3.461,2.596-6.057,6.057-6.057h29.418c3.461,0,6.057,2.596,6.057,6.057V471.994z   M462.034,419.215c0,3.461-2.596,6.057-6.057,6.057H426.56c-3.461,0-6.057-2.596-6.057-6.057v-23.361  c0-3.461,2.596-6.057,6.057-6.057h29.418c3.461,0,6.057,2.596,6.057,6.057V419.215z M520.87,525.639  c0,3.461-2.596,6.057-6.057,6.057h-29.418c-3.461,0-6.057-2.596-6.057-6.057v-23.361c0-3.461,2.596-6.057,6.057-6.057h29.418  c3.461,0,6.057,2.596,6.057,6.057V525.639z M520.87,471.994c0,3.461-2.596,6.057-6.057,6.057h-29.418  c-3.461,0-6.057-2.596-6.057-6.057v-23.361c0-3.461,2.596-6.057,6.057-6.057h29.418c3.461,0,6.057,2.596,6.057,6.057V471.994z   M520.87,419.215c0,3.461-2.596,6.057-6.057,6.057h-29.418c-3.461,0-6.057-2.596-6.057-6.057v-23.361  c0-3.461,2.596-6.057,6.057-6.057h29.418c3.461,0,6.057,2.596,6.057,6.057V419.215z"/>
</svg>