<?xml version="1.0" encoding="UTF-8" standalone="no"?>
<!-- Created with Inkscape (http://www.inkscape.org/) -->
<svg xmlns:dc="http://purl.org/dc/elements/1.1/" xmlns:cc="http://creativecommons.org/ns#" xmlns:rdf="http://www.w3.org/1999/02/22-rdf-syntax-ns#" xmlns:svg="http://www.w3.org/2000/svg" xmlns="http://www.w3.org/2000/svg" xmlns:xlink="http://www.w3.org/1999/xlink" xmlns:sodipodi="http://sodipodi.sourceforge.net/DTD/sodipodi-0.dtd" xmlns:inkscape="http://www.inkscape.org/namespaces/inkscape" width="413.91956" height="97.146103" id="svg2" version="1.1" inkscape:version="0.48.0 r9654" sodipodi:docname="New document 1">
  <defs id="defs4">
    <radialGradient gradientUnits="userSpaceOnUse" gradientTransform="matrix(1,0,0,0.399281,0,23.91614)" r="17.375" fy="39.8125" fx="24.25" cy="39.8125" cx="24.25" id="radialGradient4726" xlink:href="#linearGradient4720" inkscape:collect="always"/>
    <linearGradient id="linearGradient4710">
      <stop id="stop4712" offset="0" style="stop-color:#f2f4f1;stop-opacity:1;"/>
      <stop id="stop4714" offset="1" style="stop-color:#d3d7cf;stop-opacity:1;"/>
    </linearGradient>
    <linearGradient id="linearGradient4720" inkscape:collect="always">
      <stop id="stop4722" offset="0" style="stop-color:#000000;stop-opacity:1;"/>
      <stop id="stop4724" offset="1" style="stop-color:#000000;stop-opacity:0;"/>
    </linearGradient>
    <linearGradient id="linearGradient4728">
      <stop id="stop4730" offset="0" style="stop-color:#eeeeec;stop-opacity:1;"/>
      <stop id="stop4732" offset="1" style="stop-color:#ffffff;stop-opacity:1;"/>
    </linearGradient>
    <linearGradient id="linearGradient4750">
      <stop id="stop4752" offset="0" style="stop-color:#ffffff;stop-opacity:0;"/>
      <stop style="stop-color:#ffffff;stop-opacity:1;" offset="0.5" id="stop4758"/>
      <stop id="stop4754" offset="1" style="stop-color:#ffffff;stop-opacity:0;"/>
    </linearGradient>
    <linearGradient y2="609.50507" x2="302.85715" y1="366.64789" x1="302.85715" gradientTransform="matrix(2.774389,0,0,1.969706,-1892.179,-872.8854)" gradientUnits="userSpaceOnUse" id="linearGradient6715" xlink:href="#linearGradient5048" inkscape:collect="always"/>
    <linearGradient id="linearGradient5048">
      <stop id="stop5050" offset="0" style="stop-color:black;stop-opacity:0;"/>
      <stop style="stop-color:black;stop-opacity:1;" offset="0.5" id="stop5056"/>
      <stop id="stop5052" offset="1" style="stop-color:black;stop-opacity:0;"/>
    </linearGradient>
    <radialGradient r="117.14286" fy="486.64789" fx="605.71429" cy="486.64789" cx="605.71429" gradientTransform="matrix(2.774389,0,0,1.969706,-1891.633,-872.8854)" gradientUnits="userSpaceOnUse" id="radialGradient6717" xlink:href="#linearGradient5060" inkscape:collect="always"/>
    <linearGradient id="linearGradient5060" inkscape:collect="always">
      <stop id="stop5062" offset="0" style="stop-color:black;stop-opacity:1;"/>
      <stop id="stop5064" offset="1" style="stop-color:black;stop-opacity:0;"/>
    </linearGradient>
    <radialGradient r="117.14286" fy="486.64789" fx="605.71429" cy="486.64789" cx="605.71429" gradientTransform="matrix(-2.774389,0,0,1.969706,112.7623,-872.8854)" gradientUnits="userSpaceOnUse" id="radialGradient6719" xlink:href="#linearGradient5060" inkscape:collect="always"/>
    <inkscape:perspective id="perspective47" inkscape:persp3d-origin="24 : 16 : 1" inkscape:vp_z="48 : 24 : 1" inkscape:vp_y="0 : 1000 : 0" inkscape:vp_x="0 : 24 : 1" sodipodi:type="inkscape:persp3d"/>
    <linearGradient inkscape:collect="always" xlink:href="#linearGradient4750" id="linearGradient3074" gradientUnits="userSpaceOnUse" x1="8.1168785" y1="7.9334393" x2="9.0674801" y2="6.7843909" gradientTransform="translate(210.41071,487.35661)"/>
    <linearGradient inkscape:collect="always" xlink:href="#linearGradient4750" id="linearGradient3077" gradientUnits="userSpaceOnUse" x1="38.292995" y1="6.7174492" x2="39.4375" y2="8.161993" gradientTransform="translate(224.41071,487.35661)"/>
    <radialGradient inkscape:collect="always" xlink:href="#linearGradient4710" id="radialGradient3084" gradientUnits="userSpaceOnUse" gradientTransform="matrix(2.154119,0,0,2.154119,-287.18665,453.75951)" cx="24.500004" cy="29.500004" fx="24.500004" fy="29.500004" r="15.095438"/>
    <linearGradient inkscape:collect="always" xlink:href="#linearGradient4728" id="linearGradient3086" gradientUnits="userSpaceOnUse" gradientTransform="matrix(0.993678,0,0,0.993678,-258.35382,488.39454)" x1="24.095442" y1="12.595438" x2="24.095442" y2="34.09544"/>
    <linearGradient inkscape:collect="always" xlink:href="#linearGradient5048" id="linearGradient3123" gradientUnits="userSpaceOnUse" gradientTransform="matrix(2.774389,0,0,1.969706,-1892.179,-872.8854)" x1="302.85715" y1="366.64789" x2="302.85715" y2="609.50507"/>
    <radialGradient inkscape:collect="always" xlink:href="#linearGradient5060" id="radialGradient3125" gradientUnits="userSpaceOnUse" gradientTransform="matrix(2.774389,0,0,1.969706,-1891.633,-872.8854)" cx="605.71429" cy="486.64789" fx="605.71429" fy="486.64789" r="117.14286"/>
    <radialGradient inkscape:collect="always" xlink:href="#linearGradient5060" id="radialGradient3127" gradientUnits="userSpaceOnUse" gradientTransform="matrix(-2.774389,0,0,1.969706,112.7623,-872.8854)" cx="605.71429" cy="486.64789" fx="605.71429" fy="486.64789" r="117.14286"/>
    <radialGradient inkscape:collect="always" xlink:href="#linearGradient4710" id="radialGradient3129" gradientUnits="userSpaceOnUse" gradientTransform="matrix(2.154119,0,0,2.154119,-347.18665,453.75951)" cx="24.500004" cy="29.500004" fx="24.500004" fy="29.500004" r="15.095438"/>
    <linearGradient inkscape:collect="always" xlink:href="#linearGradient4728" id="linearGradient3131" gradientUnits="userSpaceOnUse" gradientTransform="matrix(0.993678,0,0,0.993678,-318.35382,488.39454)" x1="24.095442" y1="12.595438" x2="24.095442" y2="34.09544"/>
    <linearGradient inkscape:collect="always" xlink:href="#linearGradient4750" id="linearGradient3133" gradientUnits="userSpaceOnUse" gradientTransform="translate(284.41071,487.35661)" x1="38.292995" y1="6.7174492" x2="39.4375" y2="8.161993"/>
    <linearGradient inkscape:collect="always" xlink:href="#linearGradient4750" id="linearGradient3135" gradientUnits="userSpaceOnUse" gradientTransform="translate(270.41071,487.35661)" x1="8.1168785" y1="7.9334393" x2="9.0674801" y2="6.7843909"/>
    <linearGradient inkscape:collect="always" xlink:href="#linearGradient5048" id="linearGradient3163" gradientUnits="userSpaceOnUse" gradientTransform="matrix(2.774389,0,0,1.969706,-1892.179,-872.8854)" x1="302.85715" y1="366.64789" x2="302.85715" y2="609.50507"/>
    <radialGradient inkscape:collect="always" xlink:href="#linearGradient5060" id="radialGradient3165" gradientUnits="userSpaceOnUse" gradientTransform="matrix(2.774389,0,0,1.969706,-1891.633,-872.8854)" cx="605.71429" cy="486.64789" fx="605.71429" fy="486.64789" r="117.14286"/>
    <radialGradient inkscape:collect="always" xlink:href="#linearGradient5060" id="radialGradient3167" gradientUnits="userSpaceOnUse" gradientTransform="matrix(-2.774389,0,0,1.969706,112.7623,-872.8854)" cx="605.71429" cy="486.64789" fx="605.71429" fy="486.64789" r="117.14286"/>
    <radialGradient inkscape:collect="always" xlink:href="#linearGradient4710" id="radialGradient3169" gradientUnits="userSpaceOnUse" gradientTransform="matrix(2.154119,0,0,2.154119,-407.18665,453.75951)" cx="24.500004" cy="29.500004" fx="24.500004" fy="29.500004" r="15.095438"/>
    <linearGradient inkscape:collect="always" xlink:href="#linearGradient4728" id="linearGradient3171" gradientUnits="userSpaceOnUse" gradientTransform="matrix(0.993678,0,0,0.993678,-378.35382,488.39454)" x1="24.095442" y1="12.595438" x2="24.095442" y2="34.09544"/>
    <linearGradient inkscape:collect="always" xlink:href="#linearGradient4750" id="linearGradient3173" gradientUnits="userSpaceOnUse" gradientTransform="translate(344.41071,487.35661)" x1="38.292995" y1="6.7174492" x2="39.4375" y2="8.161993"/>
    <linearGradient inkscape:collect="always" xlink:href="#linearGradient4750" id="linearGradient3175" gradientUnits="userSpaceOnUse" gradientTransform="translate(330.41071,487.35661)" x1="8.1168785" y1="7.9334393" x2="9.0674801" y2="6.7843909"/>
    <linearGradient inkscape:collect="always" xlink:href="#linearGradient5048" id="linearGradient3270" gradientUnits="userSpaceOnUse" gradientTransform="matrix(2.774389,0,0,1.969706,-1892.179,-872.8854)" x1="302.85715" y1="366.64789" x2="302.85715" y2="609.50507"/>
    <radialGradient inkscape:collect="always" xlink:href="#linearGradient5060" id="radialGradient3272" gradientUnits="userSpaceOnUse" gradientTransform="matrix(2.774389,0,0,1.969706,-1891.633,-872.8854)" cx="605.71429" cy="486.64789" fx="605.71429" fy="486.64789" r="117.14286"/>
    <radialGradient inkscape:collect="always" xlink:href="#linearGradient5060" id="radialGradient3274" gradientUnits="userSpaceOnUse" gradientTransform="matrix(-2.774389,0,0,1.969706,112.7623,-872.8854)" cx="605.71429" cy="486.64789" fx="605.71429" fy="486.64789" r="117.14286"/>
    <radialGradient inkscape:collect="always" xlink:href="#linearGradient4710" id="radialGradient3276" gradientUnits="userSpaceOnUse" gradientTransform="matrix(2.154119,0,0,2.154119,-287.18665,453.75951)" cx="24.500004" cy="29.500004" fx="24.500004" fy="29.500004" r="15.095438"/>
    <linearGradient inkscape:collect="always" xlink:href="#linearGradient4728" id="linearGradient3278" gradientUnits="userSpaceOnUse" gradientTransform="matrix(0.993678,0,0,0.993678,-258.35382,488.39454)" x1="24.095442" y1="12.595438" x2="24.095442" y2="34.09544"/>
    <linearGradient inkscape:collect="always" xlink:href="#linearGradient4750" id="linearGradient3280" gradientUnits="userSpaceOnUse" gradientTransform="translate(224.41071,487.35661)" x1="38.292995" y1="6.7174492" x2="39.4375" y2="8.161993"/>
    <linearGradient inkscape:collect="always" xlink:href="#linearGradient4750" id="linearGradient3282" gradientUnits="userSpaceOnUse" gradientTransform="translate(210.41071,487.35661)" x1="8.1168785" y1="7.9334393" x2="9.0674801" y2="6.7843909"/>
    <linearGradient inkscape:collect="always" xlink:href="#linearGradient5048" id="linearGradient3284" gradientUnits="userSpaceOnUse" gradientTransform="matrix(2.774389,0,0,1.969706,-1892.179,-872.8854)" x1="302.85715" y1="366.64789" x2="302.85715" y2="609.50507"/>
    <radialGradient inkscape:collect="always" xlink:href="#linearGradient5060" id="radialGradient3286" gradientUnits="userSpaceOnUse" gradientTransform="matrix(2.774389,0,0,1.969706,-1891.633,-872.8854)" cx="605.71429" cy="486.64789" fx="605.71429" fy="486.64789" r="117.14286"/>
    <radialGradient inkscape:collect="always" xlink:href="#linearGradient5060" id="radialGradient3288" gradientUnits="userSpaceOnUse" gradientTransform="matrix(-2.774389,0,0,1.969706,112.7623,-872.8854)" cx="605.71429" cy="486.64789" fx="605.71429" fy="486.64789" r="117.14286"/>
    <radialGradient inkscape:collect="always" xlink:href="#linearGradient4710" id="radialGradient3290" gradientUnits="userSpaceOnUse" gradientTransform="matrix(2.154119,0,0,2.154119,-347.18665,453.75951)" cx="24.500004" cy="29.500004" fx="24.500004" fy="29.500004" r="15.095438"/>
    <linearGradient inkscape:collect="always" xlink:href="#linearGradient4728" id="linearGradient3292" gradientUnits="userSpaceOnUse" gradientTransform="matrix(0.993678,0,0,0.993678,-318.35382,488.39454)" x1="24.095442" y1="12.595438" x2="24.095442" y2="34.09544"/>
    <linearGradient inkscape:collect="always" xlink:href="#linearGradient4750" id="linearGradient3294" gradientUnits="userSpaceOnUse" gradientTransform="translate(284.41071,487.35661)" x1="38.292995" y1="6.7174492" x2="39.4375" y2="8.161993"/>
    <linearGradient inkscape:collect="always" xlink:href="#linearGradient4750" id="linearGradient3296" gradientUnits="userSpaceOnUse" gradientTransform="translate(270.41071,487.35661)" x1="8.1168785" y1="7.9334393" x2="9.0674801" y2="6.7843909"/>
    <linearGradient inkscape:collect="always" xlink:href="#linearGradient5048" id="linearGradient3298" gradientUnits="userSpaceOnUse" gradientTransform="matrix(2.774389,0,0,1.969706,-1892.179,-872.8854)" x1="302.85715" y1="366.64789" x2="302.85715" y2="609.50507"/>
    <radialGradient inkscape:collect="always" xlink:href="#linearGradient5060" id="radialGradient3300" gradientUnits="userSpaceOnUse" gradientTransform="matrix(2.774389,0,0,1.969706,-1891.633,-872.8854)" cx="605.71429" cy="486.64789" fx="605.71429" fy="486.64789" r="117.14286"/>
    <radialGradient inkscape:collect="always" xlink:href="#linearGradient5060" id="radialGradient3302" gradientUnits="userSpaceOnUse" gradientTransform="matrix(-2.774389,0,0,1.969706,112.7623,-872.8854)" cx="605.71429" cy="486.64789" fx="605.71429" fy="486.64789" r="117.14286"/>
    <radialGradient inkscape:collect="always" xlink:href="#linearGradient4710" id="radialGradient3304" gradientUnits="userSpaceOnUse" gradientTransform="matrix(2.154119,0,0,2.154119,-407.18665,453.75951)" cx="24.500004" cy="29.500004" fx="24.500004" fy="29.500004" r="15.095438"/>
    <linearGradient inkscape:collect="always" xlink:href="#linearGradient4728" id="linearGradient3306" gradientUnits="userSpaceOnUse" gradientTransform="matrix(0.993678,0,0,0.993678,-378.35382,488.39454)" x1="24.095442" y1="12.595438" x2="24.095442" y2="34.09544"/>
    <linearGradient inkscape:collect="always" xlink:href="#linearGradient4750" id="linearGradient3308" gradientUnits="userSpaceOnUse" gradientTransform="translate(344.41071,487.35661)" x1="38.292995" y1="6.7174492" x2="39.4375" y2="8.161993"/>
    <linearGradient inkscape:collect="always" xlink:href="#linearGradient4750" id="linearGradient3310" gradientUnits="userSpaceOnUse" gradientTransform="translate(330.41071,487.35661)" x1="8.1168785" y1="7.9334393" x2="9.0674801" y2="6.7843909"/>
  </defs>
  <sodipodi:namedview id="base" pagecolor="#ffffff" bordercolor="#666666" borderopacity="1.0" inkscape:pageopacity="0.0" inkscape:pageshadow="2" inkscape:zoom="1" inkscape:cx="279.96837" inkscape:cy="37.047868" inkscape:document-units="px" inkscape:current-layer="layer1" showgrid="false" fit-margin-top="0" fit-margin-left="0" fit-margin-right="0" fit-margin-bottom="0" inkscape:window-width="1280" inkscape:window-height="968" inkscape:window-x="-4" inkscape:window-y="-4" inkscape:window-maximized="1"/>
  <metadata id="metadata7">
    <rdf:RDF>
      <cc:Work rdf:about="">
        <dc:format>image/svg+xml</dc:format>
        <dc:type rdf:resource="http://purl.org/dc/dcmitype/StillImage"/>
        <dc:title/>
      </cc:Work>
    </rdf:RDF>
  </metadata>
  <g inkscape:label="Layer 1" inkscape:groupmode="layer" id="layer1" transform="translate(-94.700959,-463.78721)">
    <g id="g3225" transform="matrix(2.1498195,0,0,2.1498195,-346.85536,-589.12399)">
      <g id="g6707" transform="matrix(0.02873128,0,0,0.02452593,266.96534,525.31151)">
        <path id="rect6709" d="m -1559.2523,-150.69685 1339.63353,0 0,478.35717 -1339.63353,0 z" style="opacity:0.40206185;color:#000000;fill:url(#linearGradient3270);fill-opacity:1;fill-rule:nonzero;stroke:none;stroke-width:1;marker:none;visibility:visible;display:inline;overflow:visible" inkscape:connector-curvature="0"/>
        <path sodipodi:nodetypes="cccc" id="path6711" d="m -219.61876,-150.68038 c 0,0 0,478.33079 0,478.33079 142.874166,0.90045 345.40022,-107.16966 345.40014,-239.196175 0,-132.026537 -159.436816,-239.134595 -345.40014,-239.134615 z" style="opacity:0.40206185;color:#000000;fill:url(#radialGradient3272);fill-opacity:1;fill-rule:nonzero;stroke:none;stroke-width:1;marker:none;visibility:visible;display:inline;overflow:visible" inkscape:connector-curvature="0"/>
        <path style="opacity:0.40206185;color:#000000;fill:url(#radialGradient3274);fill-opacity:1;fill-rule:nonzero;stroke:none;stroke-width:1;marker:none;visibility:visible;display:inline;overflow:visible" d="m -1559.2523,-150.68038 c 0,0 0,478.33079 0,478.33079 -142.8742,0.90045 -345.4002,-107.16966 -345.4002,-239.196175 0,-132.026537 159.4368,-239.134595 345.4002,-239.134615 z" id="path6713" sodipodi:nodetypes="cccc" inkscape:connector-curvature="0"/>
      </g>
      <path id="rect2960" d="m 220.45248,491.87668 41.93144,0 c 2.51199,0 4.53428,2.07447 4.53428,4.65127 l 0,28.65733 c 0,2.5768 -2.02229,4.65127 -4.53428,4.65127 l -41.93144,0 c -2.51199,0 -4.53428,-2.07447 -4.53428,-4.65127 l 0,-28.65733 c 0,-2.5768 2.02229,-4.65127 4.53428,-4.65127 z" style="color:#000000;fill:#d3d7cf;fill-opacity:1;fill-rule:nonzero;stroke:#888a85;stroke-width:0.99999988;stroke-linecap:butt;stroke-linejoin:miter;stroke-miterlimit:4;stroke-opacity:1;stroke-dashoffset:0;marker:none;visibility:visible;display:block;overflow:visible" inkscape:connector-curvature="0"/>
      <path id="rect3835" d="m -260.09184,494.85345 36.63008,0 c 1.96902,0 3.55418,1.58517 3.55418,3.55419 l 0,21.89796 c 0,1.96902 -1.58516,3.55419 -3.55418,3.55419 l -36.63008,0 c -1.96902,0 -3.55419,-1.58517 -3.55419,-3.55419 l 0,-21.89796 c 0,-1.96902 1.58517,-3.55419 3.55419,-3.55419 z" style="color:#000000;fill:url(#radialGradient3276);fill-opacity:1;fill-rule:nonzero;stroke:url(#linearGradient3278);stroke-width:1.00000012;stroke-linecap:butt;stroke-linejoin:miter;stroke-miterlimit:4;stroke-opacity:1;stroke-dashoffset:0;marker:none;visibility:visible;display:block;overflow:visible" transform="scale(-1,1)" inkscape:connector-curvature="0"/>
      <path id="rect4740" d="m 220.40553,492.85101 41.925,0 c 1.95977,0 3.5375,1.57773 3.5375,3.5375 l 0,28.93621 c 0,1.95977 -1.57773,3.5375 -3.5375,3.5375 l -41.925,0 c -1.95978,0 -3.5375,-1.57773 -3.5375,-3.5375 l 0,-28.93621 c 0,-1.95977 1.57772,-3.5375 3.5375,-3.5375 z" style="opacity:0.48888891;color:#000000;fill:none;stroke:#ffffff;stroke-width:0.99999982;stroke-linecap:butt;stroke-linejoin:miter;stroke-miterlimit:4;stroke-opacity:1;stroke-dashoffset:0;marker:none;visibility:visible;display:block;overflow:visible" inkscape:connector-curvature="0"/>
      <path sodipodi:nodetypes="ccccc" inkscape:r_cy="true" inkscape:r_cx="true" id="path4742" d="m 216.34821,525.85661 c 0.0625,1.125 1.3125,2.9375 2.8125,3.3125 l 2.1875,-5.5 -0.9375,-0.6875 -4.0625,2.875 z" style="opacity:0.48888891;color:#000000;fill:#ffffff;fill-opacity:1;fill-rule:nonzero;stroke:none;stroke-width:1;marker:none;visibility:visible;display:block;overflow:visible" inkscape:connector-curvature="0"/>
      <path style="opacity:0.48888891;color:#000000;fill:#ffffff;fill-opacity:1;fill-rule:nonzero;stroke:none;stroke-width:1;marker:none;visibility:visible;display:block;overflow:visible" d="m 266.47321,525.85661 c -0.0625,1.125 -1.3125,2.9375 -2.8125,3.3125 l -2.1875,-5.5 0.9375,-0.6875 4.0625,2.875 z" id="path4744" inkscape:r_cx="true" inkscape:r_cy="true" sodipodi:nodetypes="ccccc" inkscape:connector-curvature="0"/>
      <path sodipodi:nodetypes="ccccc" inkscape:r_cy="true" inkscape:r_cx="true" id="path4746" d="m 265.91071,494.48161 c -0.4375,-0.5625 -1.1875,-1.625 -2.1875,-1.9375 l -1.9375,2.5625 0.9375,1 3.1875,-1.625 z" style="color:#000000;fill:url(#linearGradient3280);fill-opacity:1;fill-rule:nonzero;stroke:none;stroke-width:1;marker:none;visibility:visible;display:block;overflow:visible" inkscape:connector-curvature="0"/>
      <path style="color:#000000;fill:url(#linearGradient3282);fill-opacity:1;fill-rule:nonzero;stroke:none;stroke-width:1;marker:none;visibility:visible;display:block;overflow:visible" d="m 216.84821,494.48161 c 0.4375,-0.5625 1.125,-1.5625 2.125,-1.875 l 1.875,2.6875 -0.6875,1 -3.3125,-1.8125 z" id="path4748" inkscape:r_cx="true" inkscape:r_cy="true" sodipodi:nodetypes="ccccc" inkscape:connector-curvature="0"/>
      <path d="m 235.4327,503.33952 0.49868,3.46492 c -0.67477,-0.61565 -1.46158,-0.92348 -2.36043,-0.92349 -1.03924,1e-5 -1.91224,0.3534 -2.61901,1.06017 -0.67476,0.67723 -1.01214,1.50467 -1.01214,2.48233 0,0.0493 0,0.0997 0,0.15145 0.0591,1.02939 0.46297,1.85067 1.21161,2.46387 0.67476,0.57625 1.44064,0.86438 2.29764,0.86438 0.0813,0 0.16253,-0.005 0.2438,-0.0148 0.87669,-0.0616 1.63272,-0.36939 2.26809,-0.92348 l -0.46914,3.34302 c -0.5541,0.25365 -1.07864,0.40018 -1.57362,0.43958 -0.26104,0.0296 -0.51839,0.0443 -0.77203,0.0443 -0.69447,0 -1.37046,-0.1059 -2.02798,-0.31768 -0.88655,-0.28074 -1.67336,-0.72894 -2.36043,-1.3446 -0.68462,-0.60581 -1.20916,-1.31751 -1.57362,-2.1351 -0.37186,-0.80528 -0.55779,-1.65735 -0.55779,-2.55621 0,-0.82744 0.15145,-1.6241 0.45435,-2.38999 0.30291,-0.76587 0.72648,-1.44678 1.27072,-2.04275 0.53439,-0.5861 1.17467,-1.06015 1.92086,-1.42217 0.74617,-0.35461 1.5379,-0.55162 2.3752,-0.59103 l 0.65014,0 c 0.72647,1e-5 1.43817,0.11575 2.1351,0.34723 z" style="font-size:15.13041019px;font-style:normal;font-variant:normal;font-weight:normal;font-stretch:normal;text-align:start;line-height:125%;letter-spacing:0px;word-spacing:0px;writing-mode:lr-tb;text-anchor:start;fill:#000000;fill-opacity:1;stroke:none;font-family:Kabel;-inkscape-font-specification:Kabel" id="path3178" inkscape:connector-curvature="0"/>
      <path d="m 242.01162,509.04297 0,2.57469 c 0,0.41372 0.0456,0.69569 0.13668,0.84591 0.0813,0.16254 0.24256,0.30414 0.4839,0.4248 0.14037,0.0591 0.39771,0.10959 0.77204,0.15146 0.17238,-0.01 0.37924,-0.0357 0.62058,-0.0776 0.23148,-0.0296 0.39278,-0.0542 0.48391,-0.0739 l -0.83114,2.84434 c -0.0419,0 -0.11821,0 -0.22902,0 -0.11083,0.01 -0.24135,0.0148 -0.39156,0.0148 -0.94812,0 -1.72508,-0.18716 -2.33088,-0.56148 -1.06879,-0.6132 -1.60318,-1.57608 -1.60318,-2.88867 l 0,-3.25437 -1.52929,0 0.72771,-2.54143 0.89024,0 0,-1.7694 2.80001,-1.14882 0,2.91822 1.84698,0 0,2.54143 z" style="font-size:15.13041019px;font-style:normal;font-variant:normal;font-weight:normal;font-stretch:normal;text-align:start;line-height:125%;letter-spacing:0px;word-spacing:0px;writing-mode:lr-tb;text-anchor:start;fill:#000000;fill-opacity:1;stroke:none;font-family:Kabel;-inkscape-font-specification:Kabel" id="path3180" inkscape:connector-curvature="0"/>
      <path d="m 248.92669,511.61766 0,3.8417 -3.01057,0.28813 0,-9.2755 2.81479,-0.34723 0,1.52929 c 0.23149,-0.45558 0.57995,-0.81389 1.04539,-1.07494 0.45312,-0.26349 0.94195,-0.39524 1.4665,-0.39525 0.16006,1e-5 0.30659,0.005 0.43958,0.0148 0.13051,0.0222 0.22039,0.0382 0.26965,0.048 l -0.91979,2.88866 c -0.0222,-0.01 -0.0727,-0.0246 -0.15145,-0.0443 -0.0813,-0.01 -0.18717,-0.0148 -0.31768,-0.0148 -0.18224,1e-5 -0.3891,0.0296 -0.62058,0.0887 -0.41373,0.12068 -0.68708,0.34232 -0.82006,0.66491 -0.13052,0.33493 -0.20563,0.77451 -0.22533,1.31874 0.0197,0.10098 0.0296,0.25735 0.0296,0.46914 z" style="font-size:15.13041019px;font-style:normal;font-variant:normal;font-weight:normal;font-stretch:normal;text-align:start;line-height:125%;letter-spacing:0px;word-spacing:0px;writing-mode:lr-tb;text-anchor:start;fill:#000000;fill-opacity:1;stroke:none;font-family:Kabel;-inkscape-font-specification:Kabel" id="path3182" inkscape:connector-curvature="0"/>
      <path d="m 253.63647,515.70316 0,-12.4523 2.89237,-0.28812 0,12.46707 z" style="font-size:15.13041019px;font-style:normal;font-variant:normal;font-weight:normal;font-stretch:normal;text-align:start;line-height:125%;letter-spacing:0px;word-spacing:0px;writing-mode:lr-tb;text-anchor:start;fill:#000000;fill-opacity:1;stroke:none;font-family:Kabel;-inkscape-font-specification:Kabel" id="path3184" inkscape:connector-curvature="0"/>
      <g transform="matrix(0.02885441,0,0,0.02452593,327.19985,525.31151)" id="g3097">
        <path id="rect3099" d="m -1559.2523,-150.69685 1339.63353,0 0,478.35717 -1339.63353,0 z" style="opacity:0.40206185;color:#000000;fill:url(#linearGradient3284);fill-opacity:1;fill-rule:nonzero;stroke:none;stroke-width:1;marker:none;visibility:visible;display:inline;overflow:visible" inkscape:connector-curvature="0"/>
        <path inkscape:connector-curvature="0" style="opacity:0.40206185;color:#000000;fill:url(#radialGradient3286);fill-opacity:1;fill-rule:nonzero;stroke:none;stroke-width:1;marker:none;visibility:visible;display:inline;overflow:visible" d="m -219.61876,-150.68038 c 0,0 0,478.33079 0,478.33079 142.874166,0.90045 345.40022,-107.16966 345.40014,-239.196175 0,-132.026537 -159.436816,-239.134595 -345.40014,-239.134615 z" id="path3101" sodipodi:nodetypes="cccc"/>
        <path inkscape:connector-curvature="0" sodipodi:nodetypes="cccc" id="path3103" d="m -1559.2523,-150.68038 c 0,0 0,478.33079 0,478.33079 -142.8742,0.90045 -345.4002,-107.16966 -345.4002,-239.196175 0,-132.026537 159.4368,-239.134595 345.4002,-239.134615 z" style="opacity:0.40206185;color:#000000;fill:url(#radialGradient3288);fill-opacity:1;fill-rule:nonzero;stroke:none;stroke-width:1;marker:none;visibility:visible;display:inline;overflow:visible"/>
      </g>
      <path id="rect3105" d="m 280.45249,491.87668 41.93144,0 c 2.51199,0 4.53428,2.07447 4.53428,4.65127 l 0,28.65733 c 0,2.5768 -2.02229,4.65127 -4.53428,4.65127 l -41.93144,0 c -2.51199,0 -4.53428,-2.07447 -4.53428,-4.65127 l 0,-28.65733 c 0,-2.5768 2.02229,-4.65127 4.53428,-4.65127 z" style="color:#000000;fill:#d3d7cf;fill-opacity:1;fill-rule:nonzero;stroke:#888a85;stroke-width:0.99999988;stroke-linecap:butt;stroke-linejoin:miter;stroke-miterlimit:4;stroke-opacity:1;stroke-dashoffset:0;marker:none;visibility:visible;display:block;overflow:visible" inkscape:connector-curvature="0"/>
      <path id="rect3107" d="m -320.09184,494.85345 36.63008,0 c 1.96902,0 3.55418,1.58517 3.55418,3.55419 l 0,21.89796 c 0,1.96902 -1.58516,3.55419 -3.55418,3.55419 l -36.63008,0 c -1.96902,0 -3.55419,-1.58517 -3.55419,-3.55419 l 0,-21.89796 c 0,-1.96902 1.58517,-3.55419 3.55419,-3.55419 z" style="color:#000000;fill:url(#radialGradient3290);fill-opacity:1;fill-rule:nonzero;stroke:url(#linearGradient3292);stroke-width:1.00000012;stroke-linecap:butt;stroke-linejoin:miter;stroke-miterlimit:4;stroke-opacity:1;stroke-dashoffset:0;marker:none;visibility:visible;display:block;overflow:visible" transform="scale(-1,1)" inkscape:connector-curvature="0"/>
      <path id="rect3109" d="m 280.40554,492.85101 41.925,0 c 1.95978,0 3.5375,1.57773 3.5375,3.5375 l 0,28.93621 c 0,1.95977 -1.57772,3.5375 -3.5375,3.5375 l -41.925,0 c -1.95977,0 -3.5375,-1.57773 -3.5375,-3.5375 l 0,-28.93621 c 0,-1.95977 1.57773,-3.5375 3.5375,-3.5375 z" style="opacity:0.48888891;color:#000000;fill:none;stroke:#ffffff;stroke-width:0.99999982;stroke-linecap:butt;stroke-linejoin:miter;stroke-miterlimit:4;stroke-opacity:1;stroke-dashoffset:0;marker:none;visibility:visible;display:block;overflow:visible" inkscape:connector-curvature="0"/>
      <path inkscape:connector-curvature="0" style="opacity:0.48888891;color:#000000;fill:#ffffff;fill-opacity:1;fill-rule:nonzero;stroke:none;stroke-width:1;marker:none;visibility:visible;display:block;overflow:visible" d="m 276.34821,525.85661 c 0.0625,1.125 1.3125,2.9375 2.8125,3.3125 l 2.1875,-5.5 -0.9375,-0.6875 -4.0625,2.875 z" id="path3111" inkscape:r_cx="true" inkscape:r_cy="true" sodipodi:nodetypes="ccccc"/>
      <path inkscape:connector-curvature="0" sodipodi:nodetypes="ccccc" inkscape:r_cy="true" inkscape:r_cx="true" id="path3113" d="m 326.47321,525.85661 c -0.0625,1.125 -1.3125,2.9375 -2.8125,3.3125 l -2.1875,-5.5 0.9375,-0.6875 4.0625,2.875 z" style="opacity:0.48888891;color:#000000;fill:#ffffff;fill-opacity:1;fill-rule:nonzero;stroke:none;stroke-width:1;marker:none;visibility:visible;display:block;overflow:visible"/>
      <path inkscape:connector-curvature="0" style="color:#000000;fill:url(#linearGradient3294);fill-opacity:1;fill-rule:nonzero;stroke:none;stroke-width:1;marker:none;visibility:visible;display:block;overflow:visible" d="m 325.91071,494.48161 c -0.4375,-0.5625 -1.1875,-1.625 -2.1875,-1.9375 l -1.9375,2.5625 0.9375,1 3.1875,-1.625 z" id="path3115" inkscape:r_cx="true" inkscape:r_cy="true" sodipodi:nodetypes="ccccc"/>
      <path inkscape:connector-curvature="0" sodipodi:nodetypes="ccccc" inkscape:r_cy="true" inkscape:r_cx="true" id="path3117" d="m 276.84821,494.48161 c 0.4375,-0.5625 1.125,-1.5625 2.125,-1.875 l 1.875,2.6875 -0.6875,1 -3.3125,-1.8125 z" style="color:#000000;fill:url(#linearGradient3296);fill-opacity:1;fill-rule:nonzero;stroke:none;stroke-width:1;marker:none;visibility:visible;display:block;overflow:visible"/>
      <path d="m 288.59679,515.42981 6.67127,-13.08766 6.68605,13.08766 -3.12878,0.67969 -1.33351,-2.78155 -4.58419,0 -1.17837,2.81479 z m 7.82009,-4.67654 -1.24117,-2.73721 -1.20792,2.73721 z" style="font-size:15.13041019px;font-style:normal;font-variant:normal;font-weight:normal;font-stretch:normal;text-align:start;line-height:125%;letter-spacing:0px;word-spacing:0px;writing-mode:lr-tb;text-anchor:start;fill:#000000;fill-opacity:1;stroke:none;font-family:Kabel;-inkscape-font-specification:Kabel" id="path3187" inkscape:connector-curvature="0"/>
      <path d="m 303.81586,515.70316 0,-12.4523 2.89236,-0.28812 0,12.46707 z" style="font-size:15.13041019px;font-style:normal;font-variant:normal;font-weight:normal;font-stretch:normal;text-align:start;line-height:125%;letter-spacing:0px;word-spacing:0px;writing-mode:lr-tb;text-anchor:start;fill:#000000;fill-opacity:1;stroke:none;font-family:Kabel;-inkscape-font-specification:Kabel" id="path3189" inkscape:connector-curvature="0"/>
      <path d="m 313.34994,509.04297 0,2.57469 c -1e-5,0.41372 0.0455,0.69569 0.13667,0.84591 0.0813,0.16254 0.24256,0.30414 0.48391,0.4248 0.14036,0.0591 0.39771,0.10959 0.77203,0.15146 0.17238,-0.01 0.37924,-0.0357 0.62059,-0.0776 0.23148,-0.0296 0.39278,-0.0542 0.4839,-0.0739 l -0.83113,2.84434 c -0.0419,0 -0.11822,0 -0.22903,0 -0.11082,0.01 -0.24134,0.0148 -0.39156,0.0148 -0.94812,0 -1.72508,-0.18716 -2.33088,-0.56148 -1.06878,-0.6132 -1.60317,-1.57608 -1.60317,-2.88867 l 0,-3.25437 -1.5293,0 0.72771,-2.54143 0.89024,0 0,-1.7694 2.80002,-1.14882 0,2.91822 1.84697,0 0,2.54143 z" style="font-size:15.13041019px;font-style:normal;font-variant:normal;font-weight:normal;font-stretch:normal;text-align:start;line-height:125%;letter-spacing:0px;word-spacing:0px;writing-mode:lr-tb;text-anchor:start;fill:#000000;fill-opacity:1;stroke:none;font-family:Kabel;-inkscape-font-specification:Kabel" id="path3191" inkscape:connector-curvature="0"/>
      <g id="g3137" transform="matrix(0.02897754,0,0,0.02452593,387.43437,525.31151)">
        <path id="rect3139" d="m -1559.2523,-150.69685 1339.63353,0 0,478.35717 -1339.63353,0 z" style="opacity:0.40206185;color:#000000;fill:url(#linearGradient3298);fill-opacity:1;fill-rule:nonzero;stroke:none;stroke-width:1;marker:none;visibility:visible;display:inline;overflow:visible" inkscape:connector-curvature="0"/>
        <path sodipodi:nodetypes="cccc" id="path3141" d="m -219.61876,-150.68038 c 0,0 0,478.33079 0,478.33079 142.874166,0.90045 345.40022,-107.16966 345.40014,-239.196175 0,-132.026537 -159.436816,-239.134595 -345.40014,-239.134615 z" style="opacity:0.40206185;color:#000000;fill:url(#radialGradient3300);fill-opacity:1;fill-rule:nonzero;stroke:none;stroke-width:1;marker:none;visibility:visible;display:inline;overflow:visible" inkscape:connector-curvature="0"/>
        <path style="opacity:0.40206185;color:#000000;fill:url(#radialGradient3302);fill-opacity:1;fill-rule:nonzero;stroke:none;stroke-width:1;marker:none;visibility:visible;display:inline;overflow:visible" d="m -1559.2523,-150.68038 c 0,0 0,478.33079 0,478.33079 -142.8742,0.90045 -345.4002,-107.16966 -345.4002,-239.196175 0,-132.026537 159.4368,-239.134595 345.4002,-239.134615 z" id="path3143" sodipodi:nodetypes="cccc" inkscape:connector-curvature="0"/>
      </g>
      <path id="rect3145" d="m 340.45249,491.87668 41.93144,0 c 2.51199,0 4.53428,2.07447 4.53428,4.65127 l 0,28.65733 c 0,2.5768 -2.02229,4.65127 -4.53428,4.65127 l -41.93144,0 c -2.51199,0 -4.53428,-2.07447 -4.53428,-4.65127 l 0,-28.65733 c 0,-2.5768 2.02229,-4.65127 4.53428,-4.65127 z" style="color:#000000;fill:#d3d7cf;fill-opacity:1;fill-rule:nonzero;stroke:#888a85;stroke-width:0.99999988;stroke-linecap:butt;stroke-linejoin:miter;stroke-miterlimit:4;stroke-opacity:1;stroke-dashoffset:0;marker:none;visibility:visible;display:block;overflow:visible" inkscape:connector-curvature="0"/>
      <path id="rect3147" d="m -380.09184,494.85345 36.63008,0 c 1.96902,0 3.55418,1.58517 3.55418,3.55419 l 0,21.89796 c 0,1.96902 -1.58516,3.55419 -3.55418,3.55419 l -36.63008,0 c -1.96902,0 -3.55419,-1.58517 -3.55419,-3.55419 l 0,-21.89796 c 0,-1.96902 1.58517,-3.55419 3.55419,-3.55419 z" style="color:#000000;fill:url(#radialGradient3304);fill-opacity:1;fill-rule:nonzero;stroke:url(#linearGradient3306);stroke-width:1.00000012;stroke-linecap:butt;stroke-linejoin:miter;stroke-miterlimit:4;stroke-opacity:1;stroke-dashoffset:0;marker:none;visibility:visible;display:block;overflow:visible" transform="scale(-1,1)" inkscape:connector-curvature="0"/>
      <path id="rect3149" d="m 340.40554,492.85101 41.925,0 c 1.95978,0 3.5375,1.57773 3.5375,3.5375 l 0,28.93621 c 0,1.95977 -1.57772,3.5375 -3.5375,3.5375 l -41.925,0 c -1.95977,0 -3.5375,-1.57773 -3.5375,-3.5375 l 0,-28.93621 c 0,-1.95977 1.57773,-3.5375 3.5375,-3.5375 z" style="opacity:0.48888891;color:#000000;fill:none;stroke:#ffffff;stroke-width:0.99999982;stroke-linecap:butt;stroke-linejoin:miter;stroke-miterlimit:4;stroke-opacity:1;stroke-dashoffset:0;marker:none;visibility:visible;display:block;overflow:visible" inkscape:connector-curvature="0"/>
      <path sodipodi:nodetypes="ccccc" inkscape:r_cy="true" inkscape:r_cx="true" id="path3151" d="m 336.34821,525.85661 c 0.0625,1.125 1.3125,2.9375 2.8125,3.3125 l 2.1875,-5.5 -0.9375,-0.6875 -4.0625,2.875 z" style="opacity:0.48888891;color:#000000;fill:#ffffff;fill-opacity:1;fill-rule:nonzero;stroke:none;stroke-width:1;marker:none;visibility:visible;display:block;overflow:visible" inkscape:connector-curvature="0"/>
      <path style="opacity:0.48888891;color:#000000;fill:#ffffff;fill-opacity:1;fill-rule:nonzero;stroke:none;stroke-width:1;marker:none;visibility:visible;display:block;overflow:visible" d="m 386.47321,525.85661 c -0.0625,1.125 -1.3125,2.9375 -2.8125,3.3125 l -2.1875,-5.5 0.9375,-0.6875 4.0625,2.875 z" id="path3153" inkscape:r_cx="true" inkscape:r_cy="true" sodipodi:nodetypes="ccccc" inkscape:connector-curvature="0"/>
      <path sodipodi:nodetypes="ccccc" inkscape:r_cy="true" inkscape:r_cx="true" id="path3155" d="m 385.91071,494.48161 c -0.4375,-0.5625 -1.1875,-1.625 -2.1875,-1.9375 l -1.9375,2.5625 0.9375,1 3.1875,-1.625 z" style="color:#000000;fill:url(#linearGradient3308);fill-opacity:1;fill-rule:nonzero;stroke:none;stroke-width:1;marker:none;visibility:visible;display:block;overflow:visible" inkscape:connector-curvature="0"/>
      <path style="color:#000000;fill:url(#linearGradient3310);fill-opacity:1;fill-rule:nonzero;stroke:none;stroke-width:1;marker:none;visibility:visible;display:block;overflow:visible" d="m 336.84821,494.48161 c 0.4375,-0.5625 1.125,-1.5625 2.125,-1.875 l 1.875,2.6875 -0.6875,1 -3.3125,-1.8125 z" id="path3157" inkscape:r_cx="true" inkscape:r_cy="true" sodipodi:nodetypes="ccccc" inkscape:connector-curvature="0"/>
      <path d="m 351.81792,505.9733 0,6.61217 c 1.44309,0 2.47247,-0.30783 3.08814,-0.92349 0.61565,-0.61565 0.92347,-1.41724 0.92348,-2.40476 l 0,-0.0924 c -0.032,-1.20914 -0.39033,-2.04151 -1.07494,-2.4971 -0.69693,-0.44327 -1.67582,-0.67476 -2.93668,-0.69447 z m 0.25857,9.45651 -3.50925,0 0,-12.17895 3.69025,0 c 1.34213,2e-5 2.52173,0.22658 3.53881,0.67969 1.01952,0.45314 1.80633,1.12913 2.36043,2.02798 0.54669,0.90872 0.82497,2.01813 0.83483,3.32824 -10e-6,0.92842 -0.18224,1.78049 -0.5467,2.55622 -0.36202,0.77819 -0.85578,1.42956 -1.48128,1.95409 -0.62551,0.52455 -1.36676,0.9278 -2.22375,1.20977 -0.857,0.28197 -1.74478,0.42296 -2.66334,0.42296 z" style="font-size:15.13041019px;font-style:normal;font-variant:normal;font-weight:normal;font-stretch:normal;text-align:start;line-height:125%;letter-spacing:0px;word-spacing:0px;writing-mode:lr-tb;text-anchor:start;fill:#000000;fill-opacity:1;stroke:none;font-family:Kabel;-inkscape-font-specification:Kabel" id="path3194" inkscape:connector-curvature="0"/>
      <path d="m 369.87024,508.95432 -5.82536,3.6607 c 0.0813,0.10097 0.26842,0.22164 0.56148,0.36201 0.24133,0.12313 0.5898,0.1847 1.04539,0.1847 0.0591,0 0.12436,0 0.19578,0 0.3226,-0.032 0.65013,-0.11821 0.98259,-0.25858 0.3226,-0.14037 0.59964,-0.29182 0.83114,-0.45436 0.23394,-0.16006 0.35091,-0.25118 0.35092,-0.27335 l 1.45172,2.22376 c -0.13299,0.10097 -0.36571,0.25242 -0.69815,0.45435 -0.33247,0.20194 -0.77574,0.4088 -1.32982,0.62059 -0.56642,0.21178 -1.16114,0.3226 -1.78418,0.33245 -0.0222,0 -0.0431,0 -0.0628,0 -0.90625,0 -1.73862,-0.20686 -2.49711,-0.62058 -0.78558,-0.41126 -1.40555,-0.98505 -1.8599,-1.72138 -0.45436,-0.73632 -0.68646,-1.55884 -0.69631,-2.46756 0,-0.0197 0,-0.0406 0,-0.0628 0,-0.78558 0.18224,-1.53176 0.54671,-2.23854 0.37185,-0.71662 0.89024,-1.30642 1.55515,-1.7694 0.66737,-0.46296 1.41478,-0.74001 2.24222,-0.83114 0.21179,-0.0197 0.41865,-0.0295 0.62059,-0.0295 0.55408,10e-6 1.07862,0.0899 1.57362,0.26966 0.65505,0.26351 1.17959,0.58119 1.57362,0.95304 0.39155,0.38418 0.67845,0.72279 0.86069,1.01583 0.18223,0.29306 0.30289,0.50978 0.36201,0.65014 z m -6.6565,1.92085 3.31348,-2.0723 c -0.0714,-0.0517 -0.19702,-0.11205 -0.37679,-0.18101 -0.19209,-0.0714 -0.42973,-0.10711 -0.71293,-0.10712 -0.62551,10e-6 -1.15005,0.23765 -1.57362,0.71293 -0.43343,0.48268 -0.65014,1.03185 -0.65014,1.6475 z" style="font-size:15.13041019px;font-style:normal;font-variant:normal;font-weight:normal;font-stretch:normal;text-align:start;line-height:125%;letter-spacing:0px;word-spacing:0px;writing-mode:lr-tb;text-anchor:start;fill:#000000;fill-opacity:1;stroke:none;font-family:Kabel;-inkscape-font-specification:Kabel" id="path3196" inkscape:connector-curvature="0"/>
      <path d="m 371.91299,515.70316 0,-12.4523 2.89236,-0.28812 0,12.46707 z" style="font-size:15.13041019px;font-style:normal;font-variant:normal;font-weight:normal;font-stretch:normal;text-align:start;line-height:125%;letter-spacing:0px;word-spacing:0px;writing-mode:lr-tb;text-anchor:start;fill:#000000;fill-opacity:1;stroke:none;font-family:Kabel;-inkscape-font-specification:Kabel" id="path3198" inkscape:connector-curvature="0"/>
    </g>
  </g>
</svg>