<?xml version="1.0" encoding="UTF-8"?>
<!-- Generator: Adobe Illustrator 15.0.2, SVG Export Plug-In  -->
<!DOCTYPE svg PUBLIC "-//W3C//DTD SVG 1.1//EN" "http://www.w3.org/Graphics/SVG/1.1/DTD/svg11.dtd" [
	<!ENTITY ns_flows "http://ns.adobe.com/Flows/1.0/">
]>
<svg version="1.1" xmlns="http://www.w3.org/2000/svg" xmlns:xlink="http://www.w3.org/1999/xlink" xmlns:a="http://ns.adobe.com/AdobeSVGViewerExtensions/3.0/" x="0px" y="0px" width="603px" height="603px" viewBox="0 0 603 603" overflow="visible" enable-background="new 0 0 603 603" xml:space="preserve">
<defs>
	<symbol id="neg" viewBox="-10 -10 20 20">
		<path fill="#CCE3F2" d="M10,0c0-5.522-4.478-10-10-10S-10-5.522-10,0s4.478,10,10,10S10,5.522,10,0z"/>
		<line fill="none" stroke="#0071BC" stroke-width="3.25" stroke-miterlimit="10" x1="-5.722" y1="-0.09" x2="5.526" y2="-0.09"/>
	</symbol>
	<symbol id="pos" viewBox="-10 -10 20 20">
		<path fill="#F3D4D5" d="M0,10c5.523,0,10-4.478,10-10c0-5.523-4.477-10-10-10c-5.522,0-10,4.477-10,10C-10,5.522-5.522,10,0,10z"/>
		<line fill="none" stroke="#C1272D" stroke-width="3.25" stroke-miterlimit="10" x1="0.09" y1="-5.722" x2="0.09" y2="5.526"/>
		<line fill="none" stroke="#C1272D" stroke-width="3.25" stroke-miterlimit="10" x1="-5.536" y1="-0.099" x2="5.712" y2="-0.099"/>
	</symbol>
</defs>
<rect id="background_1_" x="1.7" y="1.699" fill="#FFFFFF" width="600" height="600"/>
<path fill="none" stroke="#000000" stroke-linecap="round" stroke-linejoin="round" d="M351.7,301.699l24.01-4.32l18.86-3.619  l18.14-3.73l18.061-3.959l18.17-4.23l18.38-4.531l18.62-4.83l18.88-5.158l19.13-5.471l19.38-5.801l19.63-6.129l19.86-6.451  l20.08-6.779 M0.5,236.689l20.08,6.779l19.86,6.451l19.63,6.129l19.38,5.801l19.13,5.471l18.88,5.158l18.62,4.83l18.38,4.531  l18.17,4.23l18.061,3.959l18.14,3.73l18.86,3.619l24.01,4.32"/>
<path id="arrow1_67_" d="M479.407,274.17l-7.882-4.09l16.824,1.768l-13.838,9.73L479.407,274.17z"/>
<path id="arrow1_66_" d="M125.526,274.568l-4.895-7.408l13.838,9.73l-16.824,1.768L125.526,274.568z"/>
<path fill="none" stroke="#000000" stroke-linecap="round" stroke-linejoin="round" d="M351.7,301.699l14.01-8.189l10.12-6.16  l9.2-5.891l8.75-5.889l8.47-5.992l8.261-6.139l8.09-6.32l7.93-6.51l7.8-6.711l7.65-6.91l7.52-7.119l7.37-7.32l7.23-7.52l7.069-7.721  l6.931-7.91l6.76-8.09l6.59-8.279l6.42-8.459l6.24-8.621l6.05-8.789l5.87-8.941l5.67-9.09l5.47-9.23l5.261-9.369l5.06-9.49  l4.84-9.609l4.62-9.73l4.41-9.82l4.17-9.93l3.95-10l3.72-10.09l3.48-10.16l3.25-10.23l3.01-10.279l2.76-10.32L578.23,0.5 M25.17,0.5  l2.53,10.369l2.76,10.32l3.01,10.279l3.25,10.23l3.48,10.16l3.72,10.09l3.95,10l4.17,9.93l4.41,9.82l4.62,9.73l4.84,9.609l5.06,9.49  l5.261,9.369l5.47,9.23l5.67,9.09l5.87,8.941l6.05,8.789l6.24,8.621l6.42,8.459l6.59,8.279l6.76,8.09l6.931,7.91l7.069,7.721  l7.23,7.52l7.37,7.32l7.52,7.119l7.65,6.91l7.8,6.711l7.93,6.51l8.091,6.32l8.26,6.139l8.47,5.992l8.75,5.889l9.2,5.891l10.12,6.16  l14.01,8.189"/>
<path id="arrow1_65_" d="M431.917,245.938l-8.879-0.131l15.837-5.947l-8.021,14.895L431.917,245.938z"/>
<path id="arrow1_64_" d="M547.039,91.41l-8.146,3.535l11.984-11.941L549.7,99.881L547.039,91.41z"/>
<path id="arrow1_63_" d="M57.026,92.846l2.572-8.498l1.355,16.863L48.845,89.396L57.026,92.846z"/>
<path id="arrow1_62_" d="M172.671,246.996l-1.138-8.807l8.148,14.824l-15.888-5.811L172.671,246.996z"/>
<path fill="none" stroke="#000000" stroke-linecap="round" stroke-linejoin="round" d="M351.7,301.699l8.78-10.59l5.909-7.49  l5.141-6.9l4.64-6.648l4.28-6.561l3.96-6.531l3.68-6.529l3.4-6.57l3.13-6.609l2.88-6.641l2.62-6.68l2.36-6.721l2.1-6.75l1.851-6.76  l1.59-6.779l1.319-6.779l1.07-6.771l0.82-6.75l0.55-6.719l0.3-6.682l0.04-6.629l-0.2-6.561l-0.46-6.49l-0.71-6.41l-0.939-6.309  l-1.19-6.201l-1.42-6.09l-1.65-5.949l-1.869-5.82l-2.091-5.68l-2.3-5.521l-2.5-5.35l-2.7-5.18l-2.89-5l-3.07-4.811l-3.24-4.609  l-3.409-4.42l-3.57-4.199l-3.72-3.99l-3.851-3.781l-3.989-3.539l-4.11-3.32l-4.22-3.09l-4.33-2.859l-4.42-2.609l-4.521-2.371  l-4.58-2.129l-4.659-1.881l-4.721-1.641l-4.77-1.389l-4.811-1.131l-4.85-0.891l-4.87-0.629l-4.89-0.381l-4.9-0.129l-4.9,0.129  l-4.89,0.381l-4.87,0.629l-4.85,0.891l-4.811,1.131l-4.77,1.389l-4.721,1.641l-4.659,1.881l-4.591,2.129l-4.5,2.371l-4.43,2.619  l-4.33,2.85l-4.22,3.09l-4.11,3.32l-3.989,3.551l-3.851,3.77l-3.72,3.99l-3.57,4.199l-3.409,4.42l-3.24,4.609l-3.07,4.811l-2.89,5  l-2.7,5.18l-2.5,5.361l-2.3,5.51l-2.091,5.68l-1.869,5.82l-1.65,5.949l-1.42,6.09l-1.19,6.201l-0.939,6.309l-0.71,6.41l-0.46,6.49  l-0.2,6.561l0.04,6.629l0.3,6.682l0.55,6.719l0.82,6.75l1.07,6.771l1.33,6.779l1.579,6.779l1.851,6.76l2.1,6.75l2.36,6.721  l2.62,6.68l2.88,6.641l3.13,6.609l3.4,6.57l3.68,6.539l3.96,6.531l4.28,6.551l4.64,6.658l5.141,6.891l5.909,7.49l8.78,10.59"/>
<path id="arrow1_61_" d="M398.732,227.391l-7.902,4.047l11.197-12.68l-0.099,16.916L398.732,227.391z"/>
<path id="arrow1_60_" d="M377.858,62.121L377.884,71l-6.226-15.729l15.033,7.758L377.858,62.121z"/>
<path id="arrow1_59_" d="M224.499,63.314l8.797-1.209l-14.76,8.268l5.685-15.934L224.499,63.314z"/>
<path id="arrow1_58_" d="M205.261,228.863l2.992-8.361l0.513,16.91l-11.505-12.404L205.261,228.863z"/>
<path fill="none" stroke="#000000" stroke-linecap="round" stroke-linejoin="round" d="M351.7,301.699l4.189-11.75l2.561-7.871  l2.02-6.959l1.631-6.49l1.289-6.199l1-5.98l0.711-5.811l0.439-5.68l0.18-5.539l-0.08-5.41l-0.319-5.291l-0.58-5.148l-0.81-5.021  l-1.041-4.869l-1.27-4.721l-1.49-4.549l-1.699-4.391l-1.9-4.199l-2.09-4.021l-2.271-3.82l-2.45-3.619l-2.609-3.4l-2.76-3.18  l-2.9-2.971l-3.02-2.73l-3.15-2.488l-3.25-2.262l-3.35-2.008l-3.431-1.771l-3.5-1.52l-3.569-1.27l-3.61-1.021l-3.65-0.76l-3.68-0.51  l-3.69-0.26h-3.699l-3.69,0.26l-3.68,0.51l-3.65,0.76l-3.62,1.021l-3.56,1.27l-3.5,1.52l-3.431,1.771l-3.35,2.008l-3.25,2.262  l-3.15,2.488l-3.02,2.742l-2.9,2.959l-2.76,3.18l-2.609,3.41l-2.45,3.609l-2.271,3.82l-2.09,4.021l-1.9,4.199l-1.699,4.391  l-1.49,4.549l-1.27,4.721l-1.041,4.869l-0.81,5.021l-0.58,5.148l-0.319,5.291l-0.08,5.41l0.18,5.549l0.439,5.67l0.711,5.811l1,5.98  l1.289,6.199l1.631,6.49l2.02,6.959l2.561,7.871l4.189,11.75"/>
<path id="arrow1_57_" d="M362.681,213.422l-4.088,7.883l1.764-16.824l9.734,13.836L362.681,213.422z"/>
<path id="arrow1_56_" d="M240.355,214.965l7.184-5.219l-9.108,14.256l-2.511-16.73L240.355,214.965z"/>
<path fill="none" stroke="#000000" stroke-linecap="round" stroke-linejoin="round" d="M351.7,301.699l-0.08-11.82l-0.27-7.49  l-0.471-6.359l-0.66-5.701l-0.859-5.258l-1.05-4.9l-1.24-4.6l-1.42-4.332l-1.601-4.078l-1.779-3.832l-1.94-3.6l-2.09-3.35  l-2.25-3.119l-2.37-2.881l-2.51-2.629l-2.62-2.391l-2.72-2.15l-2.811-1.9l-2.89-1.639l-2.96-1.4l-3.01-1.141l-3.061-0.891  l-3.1-0.629l-3.11-0.391l-3.13-0.119l-3.13,0.119l-3.11,0.391l-3.1,0.629l-3.061,0.891l-3.01,1.141l-2.96,1.4l-2.89,1.639  l-2.811,1.9l-2.72,2.141l-2.62,2.4l-2.51,2.629l-2.37,2.881l-2.25,3.119l-2.09,3.35l-1.94,3.6l-1.779,3.832l-1.601,4.078  l-1.42,4.332l-1.24,4.6l-1.05,4.9l-0.859,5.258l-0.66,5.701l-0.471,6.359l-0.27,7.49l-0.08,11.82"/>
<path id="arrow1_55_" d="M300.919,215.383l6.92,5.566l-16.146-5.053l15.486-6.811L300.919,215.383z"/>
<path fill="none" stroke="#000000" stroke-linecap="round" stroke-linejoin="round" d="M351.7,301.699l-4.05-10.9l-2.65-6.52  l-2.399-5.311l-2.33-4.559l-2.33-4.041l-2.36-3.609l-2.42-3.26l-2.47-2.922l-2.54-2.619l-2.601-2.34l-2.66-2.049l-2.709-1.791  l-2.761-1.52l-2.81-1.271l-2.83-1l-2.86-0.76l-2.88-0.5l-2.89-0.25h-2.9l-2.89,0.25l-2.88,0.5l-2.86,0.76L288.78,249l-2.8,1.26  l-2.761,1.52l-2.709,1.791l-2.66,2.059l-2.601,2.33l-2.54,2.619l-2.47,2.922l-2.42,3.26l-2.36,3.609l-2.33,4.041l-2.33,4.559  l-2.399,5.311l-2.65,6.52l-4.05,10.9"/>
<path id="arrow1_54_" d="M300.93,246.777l6.957,5.52l-16.179-4.943l15.439-6.914L300.93,246.777z"/>
<path fill="none" stroke="#000000" stroke-linecap="round" stroke-linejoin="round" d="M351.7,301.699l-7.72-9.09l-4.63-5.131  l-3.851-3.949l-3.51-3.279l-3.3-2.762l-3.17-2.359l-3.08-2l-3.03-1.68l-2.99-1.391l-2.96-1.119l-2.96-0.869l-2.93-0.602l-2.94-0.369  l-2.93-0.121l-2.93,0.121l-2.931,0.359l-2.95,0.611l-2.939,0.869l-2.97,1.119l-2.99,1.391l-3.03,1.68l-3.08,2l-3.17,2.359  l-3.3,2.762l-3.51,3.279l-3.851,3.949l-4.63,5.131l-7.72,9.09"/>
<path id="arrow1_53_" d="M300.93,267.287l6.95,5.525l-16.173-4.961l15.448-6.896L300.93,267.287z"/>
<path fill="none" stroke="#000000" stroke-linecap="round" stroke-linejoin="round" d="M351.7,301.699l-11.561-6.59l-6.5-3.471  l-5.18-2.529l-4.529-1.971l-4.131-1.529l-3.869-1.199l-3.69-0.891l-3.57-0.621l-3.51-0.359l-3.46-0.119l-3.47,0.119l-3.5,0.359  l-3.57,0.621l-3.69,0.9l-3.869,1.189l-4.131,1.529l-4.529,1.971l-5.19,2.529l-6.489,3.471l-11.561,6.59"/>
<path id="arrow1_52_" d="M300.919,282.641l6.837,5.666l-16.069-5.287l15.584-6.582L300.919,282.641z"/>
<path fill="none" stroke="#000000" stroke-linecap="round" stroke-linejoin="round" d="M351.7,301.699l-17.89-3.08l-9.431-1.42  l-7.34-0.879l-6.43-0.531l-5.98-0.26h-5.84l-5.99,0.26l-6.439,0.531l-7.34,0.879l-9.42,1.42l-17.9,3.08"/>
<path id="arrow1_51_" d="M300.908,295.594l6.704,5.822l-15.942-5.66l15.732-6.219L300.908,295.594z"/>
<path fill="none" stroke="#000000" stroke-linecap="round" stroke-linejoin="round" d="M351.7,301.699l-17.89,3.08l-9.431,1.42  l-7.34,0.879l-6.43,0.531l-5.98,0.26h-5.84l-5.99-0.26l-6.439-0.531l-7.34-0.879l-9.42-1.42l-17.9-3.08"/>
<path id="arrow1_50_" d="M300.908,307.805l6.494,6.057l-15.732-6.219l15.942-5.66L300.908,307.805z"/>
<path fill="none" stroke="#000000" stroke-linecap="round" stroke-linejoin="round" d="M351.7,301.699l-11.561,6.59l-6.5,3.471  l-5.18,2.529l-4.529,1.971l-4.131,1.529l-3.869,1.199l-3.69,0.891l-3.57,0.621l-3.51,0.359l-3.46,0.119l-3.47-0.119l-3.5-0.359  l-3.57-0.621l-3.69-0.9l-3.869-1.189l-4.131-1.529l-4.529-1.971l-5.19-2.529l-6.489-3.471l-11.561-6.59"/>
<path id="arrow1_49_" d="M300.919,320.758l6.352,6.203l-15.584-6.582l16.069-5.287L300.919,320.758z"/>
<path fill="none" stroke="#000000" stroke-linecap="round" stroke-linejoin="round" d="M351.7,301.699l-7.72,9.09l-4.63,5.131  l-3.851,3.949l-3.51,3.279l-3.3,2.762l-3.17,2.359l-3.08,2l-3.03,1.68l-2.99,1.391l-2.96,1.119l-2.96,0.869l-2.93,0.602l-2.94,0.369  l-2.93,0.121l-2.93-0.121l-2.931-0.359l-2.95-0.611l-2.939-0.869l-2.97-1.119l-2.99-1.391l-3.03-1.68l-3.08-2l-3.17-2.359  l-3.3-2.762l-3.51-3.279l-3.851-3.949l-4.63-5.131l-7.72-9.09"/>
<path id="arrow1_48_" d="M300.93,336.111l6.226,6.332l-15.448-6.896l16.173-4.961L300.93,336.111z"/>
<path fill="none" stroke="#000000" stroke-linecap="round" stroke-linejoin="round" d="M351.7,301.699l-4.05,10.9l-2.65,6.52  l-2.399,5.311l-2.33,4.559l-2.33,4.041l-2.36,3.609l-2.42,3.26l-2.47,2.922l-2.54,2.619l-2.601,2.34l-2.66,2.049l-2.709,1.791  l-2.761,1.52l-2.81,1.271l-2.83,1l-2.86,0.76l-2.88,0.5l-2.89,0.25h-2.9l-2.89-0.25l-2.88-0.5l-2.86-0.76l-2.84-1.012l-2.8-1.26  l-2.761-1.52l-2.709-1.791l-2.66-2.059l-2.601-2.33l-2.54-2.619l-2.47-2.922l-2.42-3.26l-2.36-3.609l-2.33-4.041l-2.33-4.559  l-2.399-5.311l-2.65-6.52l-4.05-10.9"/>
<path id="arrow1_47_" d="M300.93,356.621l6.218,6.338l-15.439-6.914l16.179-4.943L300.93,356.621z"/>
<path fill="none" stroke="#000000" stroke-linecap="round" stroke-linejoin="round" d="M351.7,301.699l-0.08,11.82l-0.27,7.49  l-0.471,6.359l-0.66,5.701l-0.859,5.258l-1.05,4.9l-1.24,4.6l-1.42,4.332l-1.601,4.078l-1.779,3.832l-1.94,3.6l-2.09,3.35  l-2.25,3.119l-2.37,2.881l-2.51,2.629l-2.62,2.391l-2.72,2.15l-2.811,1.9l-2.89,1.639l-2.96,1.4l-3.01,1.141l-3.061,0.891  l-3.1,0.629l-3.11,0.391l-3.13,0.119l-3.13-0.119l-3.11-0.391l-3.1-0.629l-3.061-0.891l-3.01-1.141l-2.96-1.4l-2.89-1.639  l-2.811-1.9l-2.72-2.141l-2.62-2.4l-2.51-2.629l-2.37-2.881l-2.25-3.119l-2.09-3.35l-1.94-3.6l-1.779-3.832l-1.601-4.078  l-1.42-4.332l-1.24-4.6l-1.05-4.9l-0.859-5.258l-0.66-5.701l-0.471-6.359l-0.27-7.49l-0.08-11.82"/>
<path id="arrow1_46_" d="M300.919,388.016l6.261,6.297l-15.486-6.811l16.146-5.053L300.919,388.016z"/>
<path fill="none" stroke="#000000" stroke-linecap="round" stroke-linejoin="round" d="M351.7,301.699l4.189,11.75l2.561,7.871  l2.02,6.959l1.631,6.49l1.289,6.199l1,5.98l0.711,5.811l0.439,5.68l0.18,5.539l-0.08,5.41l-0.319,5.291l-0.58,5.148l-0.81,5.021  l-1.041,4.869l-1.27,4.721l-1.49,4.549l-1.699,4.391l-1.9,4.199l-2.09,4.021l-2.271,3.82l-2.45,3.619l-2.609,3.4l-2.76,3.18  l-2.9,2.971l-3.02,2.73l-3.15,2.488l-3.25,2.262l-3.35,2.008l-3.431,1.771l-3.5,1.52l-3.569,1.27l-3.61,1.021l-3.65,0.76l-3.68,0.51  l-3.69,0.26h-3.699l-3.69-0.26l-3.68-0.51l-3.65-0.76l-3.62-1.021l-3.56-1.27l-3.5-1.52l-3.431-1.771l-3.35-2.008l-3.25-2.262  l-3.15-2.488l-3.02-2.742l-2.9-2.959l-2.76-3.18l-2.609-3.41l-2.45-3.609l-2.271-3.82l-2.09-4.021l-1.9-4.199l-1.699-4.391  l-1.49-4.549l-1.27-4.721l-1.041-4.869l-0.81-5.021l-0.58-5.148l-0.319-5.291l-0.08-5.41l0.18-5.549l0.439-5.67l0.711-5.811l1-5.98  l1.289-6.199l1.631-6.49l2.02-6.959l2.561-7.871l4.189-11.75"/>
<path id="arrow1_45_" d="M362.681,389.977l7.41-4.895l-9.734,13.836l-1.764-16.824L362.681,389.977z"/>
<path id="arrow1_44_" d="M240.355,388.434l-4.436,7.693l2.511-16.73l9.108,14.256L240.355,388.434z"/>
<path fill="none" stroke="#000000" stroke-linecap="round" stroke-linejoin="round" d="M351.7,301.699l8.78,10.59l5.909,7.49  l5.141,6.9l4.64,6.648l4.28,6.561l3.96,6.531l3.68,6.529l3.4,6.57l3.13,6.609l2.88,6.641l2.62,6.68l2.36,6.721l2.1,6.75l1.851,6.76  l1.59,6.779l1.319,6.779l1.07,6.771l0.82,6.75l0.55,6.719l0.3,6.682l0.04,6.629l-0.2,6.561l-0.46,6.49l-0.71,6.41l-0.939,6.309  l-1.19,6.201l-1.42,6.09l-1.65,5.949l-1.869,5.82l-2.091,5.68l-2.3,5.521l-2.5,5.35l-2.7,5.18l-2.89,5l-3.07,4.811l-3.24,4.609  l-3.409,4.42l-3.57,4.199l-3.72,3.99l-3.851,3.781l-3.989,3.539l-4.11,3.32l-4.22,3.09l-4.33,2.859l-4.42,2.609l-4.521,2.371  l-4.58,2.129l-4.659,1.881l-4.721,1.641l-4.77,1.389l-4.811,1.131l-4.85,0.891l-4.87,0.629l-4.89,0.381l-4.9,0.129l-4.9-0.129  l-4.89-0.381l-4.87-0.629l-4.85-0.891l-4.811-1.131l-4.77-1.389l-4.721-1.641l-4.659-1.881l-4.591-2.129l-4.5-2.371l-4.43-2.619  l-4.33-2.85l-4.22-3.09l-4.11-3.32l-3.989-3.551l-3.851-3.77l-3.72-3.99l-3.57-4.199l-3.409-4.42l-3.24-4.609l-3.07-4.811l-2.89-5  l-2.7-5.18l-2.5-5.361l-2.3-5.51l-2.091-5.68l-1.869-5.82l-1.65-5.949l-1.42-6.09l-1.19-6.201l-0.939-6.309l-0.71-6.41l-0.46-6.49  l-0.2-6.561l0.04-6.629l0.3-6.682l0.55-6.719l0.82-6.75l1.07-6.771l1.33-6.779l1.579-6.779l1.851-6.76l2.1-6.75l2.36-6.721  l2.62-6.68l2.88-6.641l3.13-6.609l3.4-6.57l3.68-6.539l3.96-6.531l4.28-6.551l4.64-6.658l5.141-6.891l5.909-7.49l8.78-10.59"/>
<path id="arrow1_43_" d="M398.732,376.008l3.196-8.283l0.099,16.916l-11.197-12.68L398.732,376.008z"/>
<path id="arrow1_42_" d="M377.858,541.277l8.833-0.908l-15.033,7.758l6.226-15.729L377.858,541.277z"/>
<path id="arrow1_41_" d="M224.499,540.084l-0.278,8.875l-5.685-15.934l14.76,8.268L224.499,540.084z"/>
<path id="arrow1_40_" d="M205.261,374.535l-8,3.855l11.505-12.404l-0.513,16.91L205.261,374.535z"/>
<path fill="none" stroke="#000000" stroke-linecap="round" stroke-linejoin="round" d="M351.7,301.699l14.01,8.189l10.12,6.16  l9.2,5.891l8.75,5.889l8.47,5.992l8.261,6.139l8.09,6.32l7.93,6.51l7.8,6.711l7.65,6.91l7.52,7.119l7.37,7.32l7.23,7.52l7.069,7.721  l6.931,7.91l6.76,8.09l6.59,8.279l6.42,8.459l6.24,8.621l6.05,8.789l5.87,8.941l5.67,9.09l5.47,9.23l5.261,9.369l5.06,9.49  l4.84,9.609l4.62,9.73l4.41,9.82l4.17,9.93l3.95,10l3.72,10.09l3.48,10.16l3.25,10.23l3.01,10.279l2.76,10.32l2.53,10.369   M25.17,602.898l2.53-10.369l2.76-10.32l3.01-10.279l3.25-10.23l3.48-10.16l3.72-10.09l3.95-10l4.17-9.93l4.41-9.82l4.62-9.73  l4.84-9.609l5.06-9.49l5.261-9.369l5.47-9.23l5.67-9.09l5.87-8.941l6.05-8.789l6.24-8.621l6.42-8.459l6.59-8.279l6.76-8.09  l6.931-7.91l7.069-7.721l7.23-7.52l7.37-7.32l7.52-7.119l7.65-6.91l7.8-6.711l7.93-6.51l8.091-6.32l8.26-6.139l8.47-5.992  l8.75-5.889l9.2-5.891l10.12-6.16l14.01-8.189"/>
<path id="arrow1_39_" d="M431.917,357.461l-1.062-8.816l8.021,14.895l-15.837-5.947L431.917,357.461z"/>
<path id="arrow1_38_" d="M547.039,511.988l2.661-8.471l1.178,16.877l-11.984-11.941L547.039,511.988z"/>
<path id="arrow1_37_" d="M57.026,510.553l-8.182,3.449l12.109-11.814l-1.355,16.863L57.026,510.553z"/>
<path id="arrow1_36_" d="M172.671,356.402l-8.877-0.207l15.888-5.811l-8.148,14.824L172.671,356.402z"/>
<path fill="none" stroke="#000000" stroke-linecap="round" stroke-linejoin="round" d="M351.7,301.699l24.01,4.32l18.86,3.619  l18.14,3.73l18.061,3.959l18.17,4.23l18.38,4.531l18.62,4.83l18.88,5.158l19.13,5.471l19.38,5.801l19.63,6.129l19.86,6.451  l20.08,6.779 M0.5,366.709l20.08-6.779l19.86-6.451l19.63-6.129l19.38-5.801l19.13-5.471l18.88-5.158l18.62-4.83l18.38-4.531  l18.17-4.23l18.061-3.959l18.14-3.73l18.86-3.619l24.01-4.32"/>
<path id="arrow1_35_" d="M479.407,329.229l-4.896-7.408l13.838,9.73l-16.824,1.768L479.407,329.229z"/>
<path id="arrow1_34_" d="M125.526,328.83l-7.881-4.09l16.824,1.768l-13.838,9.73L125.526,328.83z"/>
<g>
	<g>
		
			<line fill="none" stroke="#93278F" stroke-width="3" stroke-miterlimit="10" x1="404.705" y1="269.304" x2="454.089" y2="233.969"/>
		<g>
			<polygon fill="#93278F" points="456.128,239.826 461.073,228.93 449.165,230.094    "/>
		</g>
	</g>
</g>
<circle cx="404.705" cy="269.304" r="4"/>
<g>
	<g>
		
			<line fill="none" stroke="#93278F" stroke-width="3" stroke-miterlimit="10" x1="300.756" y1="157.209" x2="260.31" y2="158.033"/>
		<g>
			<polygon fill="#93278F" points="261.939,152.049 251.701,158.242 262.183,164.014    "/>
		</g>
	</g>
</g>
<circle cx="300.756" cy="157.209" r="4"/>
<g>
	<g>
		
			<line fill="none" stroke="#93278F" stroke-width="3" stroke-miterlimit="10" x1="103.955" y1="171.574" x2="110.957" y2="181.189"/>
		<g>
			<polygon fill="#93278F" points="105.117,183.276 116.053,188.131 114.79,176.232    "/>
		</g>
	</g>
</g>
<circle cx="103.955" cy="171.574" r="4"/>
<g>
	<g>
		
			<line fill="none" stroke="#93278F" stroke-width="3" stroke-miterlimit="10" x1="478.889" y1="198.526" x2="494.723" y2="178.35"/>
		<g>
			<polygon fill="#93278F" points="498.322,183.398 500.014,171.555 488.909,176.012    "/>
		</g>
	</g>
</g>
<circle cx="478.889" cy="198.526" r="4"/>
<use xlink:href="#pos" width="20" height="20" x="-10" y="-10" transform="matrix(1 0 0 -1 353.1689 301.8193)" overflow="visible"/>
<use xlink:href="#neg" width="20" height="20" x="-10" y="-10" transform="matrix(1 0 0 -1 251.7002 301.8193)" overflow="visible"/>
</svg>