<?xml version="1.0" encoding="UTF-8" standalone="no"?>
<!DOCTYPE svg PUBLIC "-//W3C//DTD SVG 1.1//EN" "http://www.w3.org/Graphics/SVG/1.1/DTD/svg11.dtd">
<!-- Created with matplotlib (http://matplotlib.org/) -->
<svg height="359pt" version="1.1" viewBox="0 0 460 359" width="460pt" xmlns="http://www.w3.org/2000/svg" xmlns:xlink="http://www.w3.org/1999/xlink">
 <defs>
  <style type="text/css">
*{stroke-linecap:butt;stroke-linejoin:round;}
  </style>
 </defs>
 <g id="figure_1">
  <g id="patch_1">
   <path d=" M0 360 L460.8 360 L460.8 0 L0 0 z " style="fill:none;"/>
  </g>
  <g id="axes_1">
   <g id="patch_2">
    <path d=" M7.2 352.8 L453.6 352.8 L453.6 7.2 L7.2 7.2 z " style="fill:none;"/>
   </g>
   <g id="PathCollection_1">
    <defs>
     <path d=" M133.3 -167.782 L132.268 -171.273 L131.594 -174.764 L131.261 -178.255 L131.261 -181.745 L131.594 -185.236 L132.268 -188.727 L133.3 -192.218 L133.455 -192.609 L134.766 -195.709 L136.679 -199.2 L137.964 -201.099 L139.172 -202.691 L142.384 -206.182 L142.473 -206.265 L146.83 -209.673 L146.982 -209.776 L151.491 -212.184 L154.196 -213.164 L156 -213.755 L160.509 -214.55 L165.018 -214.626 L169.527 -213.967 L172.021 -213.164 L174.036 -212.49 L178.545 -210.056 L179.045 -209.673 L183.055 -206.344 L183.201 -206.182 L186.049 -202.691 L187.564 -200.555 L188.32 -199.2 L189.967 -195.709 L191.284 -192.218 L192.073 -189.436 L192.238 -188.727 L192.787 -185.236 L193.061 -181.745 L193.061 -178.255 L192.787 -174.764 L192.238 -171.273 L192.073 -170.564 L191.284 -167.782 L189.967 -164.291 L188.32 -160.8 L187.564 -159.445 L186.049 -157.309 L183.201 -153.818 L183.055 -153.656 L179.045 -150.327 L178.545 -149.944 L174.036 -147.51 L172.021 -146.836 L169.527 -146.033 L165.018 -145.374 L160.509 -145.45 L156 -146.245 L154.196 -146.836 L151.491 -147.816 L146.982 -150.224 L146.83 -150.327 L142.473 -153.735 L142.384 -153.818 L139.172 -157.309 L137.964 -158.901 L136.679 -160.8 L134.766 -164.291 L133.455 -167.391 L133.3 -167.782" id="C0_0_3c061dd7ae"/>
    </defs>
    <g clip-path="url(#p5bee155178)">
     <use style="fill:#15508d;" x="0.0" xlink:href="#C0_0_3c061dd7ae" y="360.0"/>
    </g>
   </g>
   <g id="PathCollection_2">
    <defs>
     <path d=" M97.0376 -171.273 L96.6684 -174.764 L96.4851 -178.255 L96.4851 -181.745 L96.6684 -185.236 L97.0376 -188.727 L97.3818 -190.883 L97.588 -192.218 L98.3136 -195.709 L99.241 -199.2 L100.384 -202.691 L101.76 -206.182 L101.891 -206.471 L103.339 -209.673 L105.189 -213.164 L106.4 -215.162 L107.323 -216.655 L109.77 -220.145 L110.909 -221.593 L112.59 -223.636 L115.418 -226.689 L115.852 -227.127 L119.665 -230.618 L119.927 -230.839 L124.222 -234.109 L124.436 -234.26 L128.945 -237.08 L129.919 -237.6 L133.455 -239.383 L137.651 -241.091 L137.964 -241.213 L142.473 -242.622 L146.982 -243.614 L151.491 -244.204 L156 -244.401 L160.509 -244.201 L165.018 -243.588 L169.527 -242.527 L173.672 -241.091 L174.036 -240.968 L178.545 -238.888 L180.676 -237.6 L183.055 -236.164 L185.727 -234.109 L187.564 -232.671 L189.676 -230.618 L192.073 -228.192 L192.94 -227.127 L195.639 -223.636 L196.582 -222.338 L197.922 -220.145 L199.883 -216.655 L201.091 -214.287 L201.584 -213.164 L202.983 -209.673 L204.209 -206.182 L205.267 -202.691 L205.6 -201.418 L206.115 -199.2 L206.789 -195.709 L207.324 -192.218 L207.722 -188.727 L207.986 -185.236 L208.117 -181.745 L208.117 -178.255 L207.986 -174.764 L207.722 -171.273 L207.324 -167.782 L206.789 -164.291 L206.115 -160.8 L205.6 -158.582 L205.267 -157.309 L204.209 -153.818 L202.983 -150.327 L201.584 -146.836 L201.091 -145.713 L199.883 -143.345 L197.922 -139.855 L196.582 -137.662 L195.639 -136.364 L192.94 -132.873 L192.073 -131.808 L189.676 -129.382 L187.564 -127.329 L185.727 -125.891 L183.055 -123.836 L180.676 -122.4 L178.545 -121.112 L174.036 -119.032 L173.672 -118.909 L169.527 -117.473 L165.018 -116.412 L160.509 -115.799 L156 -115.599 L151.491 -115.796 L146.982 -116.386 L142.473 -117.378 L137.964 -118.787 L137.651 -118.909 L133.455 -120.617 L129.919 -122.4 L128.945 -122.92 L124.436 -125.74 L124.222 -125.891 L119.927 -129.161 L119.665 -129.382 L115.852 -132.873 L115.418 -133.311 L112.59 -136.364 L110.909 -138.407 L109.77 -139.855 L107.323 -143.345 L106.4 -144.838 L105.189 -146.836 L103.339 -150.327 L101.891 -153.529 L101.76 -153.818 L100.384 -157.309 L99.241 -160.8 L98.3136 -164.291 L97.588 -167.782 L97.3818 -169.117 L97.0376 -171.273 M133.3 -167.782 L133.455 -167.391 L134.766 -164.291 L136.679 -160.8 L137.964 -158.901 L139.172 -157.309 L142.384 -153.818 L142.473 -153.735 L146.83 -150.327 L146.982 -150.224 L151.491 -147.816 L154.196 -146.836 L156 -146.245 L160.509 -145.45 L165.018 -145.374 L169.527 -146.033 L172.021 -146.836 L174.036 -147.51 L178.545 -149.944 L179.045 -150.327 L183.055 -153.656 L183.201 -153.818 L186.049 -157.309 L187.564 -159.445 L188.32 -160.8 L189.967 -164.291 L191.284 -167.782 L192.073 -170.564 L192.238 -171.273 L192.787 -174.764 L193.061 -178.255 L193.061 -181.745 L192.787 -185.236 L192.238 -188.727 L192.073 -189.436 L191.284 -192.218 L189.967 -195.709 L188.32 -199.2 L187.564 -200.555 L186.049 -202.691 L183.201 -206.182 L183.055 -206.344 L179.045 -209.673 L178.545 -210.056 L174.036 -212.49 L172.021 -213.164 L169.527 -213.967 L165.018 -214.626 L160.509 -214.55 L156 -213.755 L154.196 -213.164 L151.491 -212.184 L146.982 -209.776 L146.83 -209.673 L142.473 -206.265 L142.384 -206.182 L139.172 -202.691 L137.964 -201.099 L136.679 -199.2 L134.766 -195.709 L133.455 -192.609 L133.3 -192.218 L132.268 -188.727 L131.594 -185.236 L131.261 -181.745 L131.261 -178.255 L131.594 -174.764 L132.268 -171.273 L133.3 -167.782" id="C1_0_69d26797fc"/>
    </defs>
    <g clip-path="url(#p5bee155178)">
     <use style="fill:#3f8ec0;" x="0.0" xlink:href="#C1_0_69d26797fc" y="360.0"/>
    </g>
   </g>
   <g id="PathCollection_3">
    <defs>
     <path d=" M42.904 -164.291 L42.456 -167.782 L42.123 -171.273 L41.9023 -174.764 L41.7924 -178.255 L41.7924 -181.745 L41.9023 -185.236 L42.123 -188.727 L42.456 -192.218 L42.904 -195.709 L43.2727 -197.991 L43.4583 -199.2 L44.1055 -202.691 L44.8737 -206.182 L45.7693 -209.673 L46.7994 -213.164 L47.7818 -216.099 L47.9614 -216.655 L49.2123 -220.145 L50.6199 -223.636 L52.1965 -227.127 L52.2909 -227.321 L53.8691 -230.618 L55.7289 -234.109 L56.8 -235.95 L57.7503 -237.6 L59.943 -241.091 L61.3091 -243.085 L62.3353 -244.582 L64.9339 -248.073 L65.8182 -249.178 L67.7528 -251.564 L70.3273 -254.481 L70.8452 -255.055 L74.213 -258.545 L74.8364 -259.152 L77.9102 -262.036 L79.3455 -263.299 L82.005 -265.527 L83.8545 -266.991 L86.5778 -269.018 L88.3636 -270.283 L91.754 -272.509 L92.8727 -273.214 L97.3818 -275.812 L97.738 -276 L101.891 -278.123 L104.94 -279.491 L106.4 -280.132 L110.909 -281.88 L114.273 -282.982 L115.418 -283.354 L119.927 -284.596 L124.436 -285.575 L128.945 -286.302 L130.498 -286.473 L133.455 -286.803 L137.964 -287.061 L142.473 -287.067 L146.982 -286.815 L149.924 -286.473 L151.491 -286.303 L156 -285.538 L160.509 -284.474 L165.018 -283.075 L165.256 -282.982 L169.527 -281.391 L173.6 -279.491 L174.036 -279.296 L178.545 -276.829 L179.797 -276 L183.055 -273.89 L184.83 -272.509 L187.564 -270.404 L189.077 -269.018 L192.073 -266.262 L192.751 -265.527 L195.938 -262.036 L196.582 -261.323 L198.726 -258.545 L201.091 -255.328 L201.265 -255.055 L203.457 -251.564 L205.493 -248.073 L205.6 -247.887 L207.255 -244.582 L208.872 -241.091 L210.109 -238.219 L210.345 -237.6 L211.627 -234.109 L212.796 -230.618 L213.859 -227.127 L214.618 -224.405 L214.811 -223.636 L215.636 -220.145 L216.374 -216.655 L217.03 -213.164 L217.608 -209.673 L218.112 -206.182 L218.545 -202.691 L218.911 -199.2 L219.127 -196.712 L219.209 -195.709 L219.439 -192.218 L219.609 -188.727 L219.722 -185.236 L219.778 -181.745 L219.778 -178.255 L219.722 -174.764 L219.609 -171.273 L219.439 -167.782 L219.209 -164.291 L219.127 -163.288 L218.911 -160.8 L218.545 -157.309 L218.112 -153.818 L217.608 -150.327 L217.03 -146.836 L216.374 -143.345 L215.636 -139.855 L214.811 -136.364 L214.618 -135.595 L213.859 -132.873 L212.796 -129.382 L211.627 -125.891 L210.345 -122.4 L210.109 -121.781 L208.872 -118.909 L207.255 -115.418 L205.6 -112.113 L205.493 -111.927 L203.457 -108.436 L201.265 -104.945 L201.091 -104.672 L198.726 -101.455 L196.582 -98.677 L195.938 -97.9636 L192.751 -94.4727 L192.073 -93.738 L189.077 -90.9818 L187.564 -89.5956 L184.83 -87.4909 L183.055 -86.1096 L179.797 -84 L178.545 -83.1711 L174.036 -80.7043 L173.6 -80.5091 L169.527 -78.609 L165.256 -77.0182 L165.018 -76.9253 L160.509 -75.5257 L156 -74.4623 L151.491 -73.6972 L149.924 -73.5273 L146.982 -73.1849 L142.473 -72.9329 L137.964 -72.9392 L133.455 -73.1973 L130.498 -73.5273 L128.945 -73.6975 L124.436 -74.425 L119.927 -75.4043 L115.418 -76.6461 L114.273 -77.0182 L110.909 -78.1203 L106.4 -79.8678 L104.94 -80.5091 L101.891 -81.8773 L97.738 -84 L97.3818 -84.1876 L92.8727 -86.7865 L91.754 -87.4909 L88.3636 -89.7167 L86.5778 -90.9818 L83.8545 -93.0089 L82.005 -94.4727 L79.3455 -96.7014 L77.9102 -97.9636 L74.8364 -100.848 L74.213 -101.455 L70.8452 -104.945 L70.3273 -105.519 L67.7528 -108.436 L65.8182 -110.822 L64.9339 -111.927 L62.3353 -115.418 L61.3091 -116.915 L59.943 -118.909 L57.7503 -122.4 L56.8 -124.05 L55.7289 -125.891 L53.8691 -129.382 L52.2909 -132.679 L52.1965 -132.873 L50.6199 -136.364 L49.2123 -139.855 L47.9614 -143.345 L47.7818 -143.901 L46.7994 -146.836 L45.7693 -150.327 L44.8737 -153.818 L44.1055 -157.309 L43.4583 -160.8 L43.2727 -162.009 L42.904 -164.291 M97.0376 -171.273 L97.3818 -169.117 L97.588 -167.782 L98.3136 -164.291 L99.241 -160.8 L100.384 -157.309 L101.76 -153.818 L101.891 -153.529 L103.339 -150.327 L105.189 -146.836 L106.4 -144.838 L107.323 -143.345 L109.77 -139.855 L110.909 -138.407 L112.59 -136.364 L115.418 -133.311 L115.852 -132.873 L119.665 -129.382 L119.927 -129.161 L124.222 -125.891 L124.436 -125.74 L128.945 -122.92 L129.919 -122.4 L133.455 -120.617 L137.651 -118.909 L137.964 -118.787 L142.473 -117.378 L146.982 -116.386 L151.491 -115.796 L156 -115.599 L160.509 -115.799 L165.018 -116.412 L169.527 -117.473 L173.672 -118.909 L174.036 -119.032 L178.545 -121.112 L180.676 -122.4 L183.055 -123.836 L185.727 -125.891 L187.564 -127.329 L189.676 -129.382 L192.073 -131.808 L192.94 -132.873 L195.639 -136.364 L196.582 -137.662 L197.922 -139.855 L199.883 -143.345 L201.091 -145.713 L201.584 -146.836 L202.983 -150.327 L204.209 -153.818 L205.267 -157.309 L205.6 -158.582 L206.115 -160.8 L206.789 -164.291 L207.324 -167.782 L207.722 -171.273 L207.986 -174.764 L208.117 -178.255 L208.117 -181.745 L207.986 -185.236 L207.722 -188.727 L207.324 -192.218 L206.789 -195.709 L206.115 -199.2 L205.6 -201.418 L205.267 -202.691 L204.209 -206.182 L202.983 -209.673 L201.584 -213.164 L201.091 -214.287 L199.883 -216.655 L197.922 -220.145 L196.582 -222.338 L195.639 -223.636 L192.94 -227.127 L192.073 -228.192 L189.676 -230.618 L187.564 -232.671 L185.727 -234.109 L183.055 -236.164 L180.676 -237.6 L178.545 -238.888 L174.036 -240.968 L173.672 -241.091 L169.527 -242.527 L165.018 -243.588 L160.509 -244.201 L156 -244.401 L151.491 -244.204 L146.982 -243.614 L142.473 -242.622 L137.964 -241.213 L137.651 -241.091 L133.455 -239.383 L129.919 -237.6 L128.945 -237.08 L124.436 -234.26 L124.222 -234.109 L119.927 -230.839 L119.665 -230.618 L115.852 -227.127 L115.418 -226.689 L112.59 -223.636 L110.909 -221.593 L109.77 -220.145 L107.323 -216.655 L106.4 -215.162 L105.189 -213.164 L103.339 -209.673 L101.891 -206.471 L101.76 -206.182 L100.384 -202.691 L99.241 -199.2 L98.3136 -195.709 L97.588 -192.218 L97.3818 -190.883 L97.0376 -188.727 L96.6684 -185.236 L96.4851 -181.745 L96.4851 -178.255 L96.6684 -174.764 L97.0376 -171.273" id="C2_0_311f621e52"/>
    </defs>
    <g clip-path="url(#p5bee155178)">
     <use style="fill:#9bc9e0;" x="0.0" xlink:href="#C2_0_311f621e52" y="360.0"/>
    </g>
   </g>
   <g id="PathCollection_4">
    <defs>
     <path d=" M7.2 -7.2 L7.2 -10.6909 L7.2 -14.1818 L7.2 -17.6727 L7.2 -21.1636 L7.2 -24.6545 L7.2 -28.1455 L7.2 -31.6364 L7.2 -35.1273 L7.2 -38.6182 L7.2 -42.1091 L7.2 -45.6 L7.2 -49.0909 L7.2 -52.5818 L7.2 -56.0727 L7.2 -59.5636 L7.2 -63.0545 L7.2 -66.5455 L7.2 -70.0364 L7.2 -73.5273 L7.2 -77.0182 L7.2 -80.5091 L7.2 -84 L7.2 -87.4909 L7.2 -90.9818 L7.2 -94.4727 L7.2 -97.9636 L7.2 -101.455 L7.2 -104.945 L7.2 -108.436 L7.2 -111.927 L7.2 -115.418 L7.2 -118.909 L7.2 -122.4 L7.2 -125.891 L7.2 -129.382 L7.2 -132.873 L7.2 -136.364 L7.2 -139.855 L7.2 -143.345 L7.2 -146.836 L7.2 -150.327 L7.2 -153.818 L7.2 -157.309 L7.2 -160.8 L7.2 -164.291 L7.2 -167.782 L7.2 -171.273 L7.2 -174.764 L7.2 -178.255 L7.2 -181.745 L7.2 -185.236 L7.2 -188.727 L7.2 -192.218 L7.2 -195.709 L7.2 -199.2 L7.2 -202.691 L7.2 -206.182 L7.2 -209.673 L7.2 -213.164 L7.2 -216.655 L7.2 -220.145 L7.2 -223.636 L7.2 -227.127 L7.2 -230.618 L7.2 -234.109 L7.2 -237.6 L7.2 -241.091 L7.2 -244.582 L7.2 -248.073 L7.2 -251.564 L7.2 -255.055 L7.2 -258.545 L7.2 -262.036 L7.2 -265.527 L7.2 -269.018 L7.2 -272.509 L7.2 -276 L7.2 -279.491 L7.2 -282.982 L7.2 -286.473 L7.2 -289.964 L7.2 -293.455 L7.2 -296.945 L7.2 -300.436 L7.2 -303.927 L7.2 -307.418 L7.2 -310.909 L7.2 -314.4 L7.2 -317.891 L7.2 -321.382 L7.2 -324.873 L7.2 -328.364 L7.2 -331.855 L7.2 -335.345 L7.2 -338.836 L7.2 -342.327 L7.2 -345.818 L7.2 -349.309 L7.2 -352.8 L11.7091 -352.8 L16.2182 -352.8 L20.7273 -352.8 L25.2364 -352.8 L29.7455 -352.8 L34.2545 -352.8 L38.7636 -352.8 L43.2727 -352.8 L47.7818 -352.8 L52.2909 -352.8 L56.8 -352.8 L61.3091 -352.8 L65.8182 -352.8 L70.3273 -352.8 L74.8364 -352.8 L79.3455 -352.8 L83.8545 -352.8 L88.3636 -352.8 L92.8727 -352.8 L97.3818 -352.8 L101.891 -352.8 L106.4 -352.8 L110.909 -352.8 L115.418 -352.8 L119.927 -352.8 L124.436 -352.8 L128.945 -352.8 L133.455 -352.8 L137.964 -352.8 L142.473 -352.8 L146.982 -352.8 L151.491 -352.8 L156 -352.8 L160.509 -352.8 L165.018 -352.8 L169.527 -352.8 L174.036 -352.8 L178.545 -352.8 L183.055 -352.8 L187.564 -352.8 L192.073 -352.8 L196.582 -352.8 L201.091 -352.8 L205.6 -352.8 L210.109 -352.8 L214.618 -352.8 L219.127 -352.8 L223.636 -352.8 L228.145 -352.8 L230.4 -352.8 L230.4 -349.309 L230.4 -345.818 L230.4 -342.327 L230.4 -338.836 L230.4 -335.345 L230.4 -331.855 L230.4 -328.364 L230.4 -324.873 L230.4 -321.382 L230.4 -317.891 L230.4 -314.4 L230.4 -310.909 L230.4 -307.418 L230.4 -303.927 L230.4 -300.436 L230.4 -296.945 L230.4 -293.455 L230.4 -289.964 L230.4 -286.473 L230.4 -282.982 L230.4 -279.491 L230.4 -276 L230.4 -272.509 L230.4 -269.018 L230.4 -265.527 L230.4 -262.036 L230.4 -258.545 L230.4 -255.055 L230.4 -251.564 L230.4 -248.073 L230.4 -244.582 L230.4 -241.091 L230.4 -237.6 L230.4 -234.109 L230.4 -230.618 L230.4 -227.127 L230.4 -223.636 L230.4 -220.145 L230.4 -216.655 L230.4 -213.164 L230.4 -209.673 L230.4 -206.182 L230.4 -202.691 L230.4 -199.2 L230.4 -195.709 L230.4 -192.218 L230.4 -188.727 L230.4 -185.236 L230.4 -181.745 L230.4 -178.255 L230.4 -174.764 L230.4 -171.273 L230.4 -167.782 L230.4 -164.291 L230.4 -160.8 L230.4 -157.309 L230.4 -153.818 L230.4 -150.327 L230.4 -146.836 L230.4 -143.345 L230.4 -139.855 L230.4 -136.364 L230.4 -132.873 L230.4 -129.382 L230.4 -125.891 L230.4 -122.4 L230.4 -118.909 L230.4 -115.418 L230.4 -111.927 L230.4 -108.436 L230.4 -104.945 L230.4 -101.455 L230.4 -97.9636 L230.4 -94.4727 L230.4 -90.9818 L230.4 -87.4909 L230.4 -84 L230.4 -80.5091 L230.4 -77.0182 L230.4 -73.5273 L230.4 -70.0364 L230.4 -66.5455 L230.4 -63.0545 L230.4 -59.5636 L230.4 -56.0727 L230.4 -52.5818 L230.4 -49.0909 L230.4 -45.6 L230.4 -42.1091 L230.4 -38.6182 L230.4 -35.1273 L230.4 -31.6364 L230.4 -28.1455 L230.4 -24.6545 L230.4 -21.1636 L230.4 -17.6727 L230.4 -14.1818 L230.4 -10.6909 L230.4 -7.2 L228.145 -7.2 L223.636 -7.2 L219.127 -7.2 L214.618 -7.2 L210.109 -7.2 L205.6 -7.2 L201.091 -7.2 L196.582 -7.2 L192.073 -7.2 L187.564 -7.2 L183.055 -7.2 L178.545 -7.2 L174.036 -7.2 L169.527 -7.2 L165.018 -7.2 L160.509 -7.2 L156 -7.2 L151.491 -7.2 L146.982 -7.2 L142.473 -7.2 L137.964 -7.2 L133.455 -7.2 L128.945 -7.2 L124.436 -7.2 L119.927 -7.2 L115.418 -7.2 L110.909 -7.2 L106.4 -7.2 L101.891 -7.2 L97.3818 -7.2 L92.8727 -7.2 L88.3636 -7.2 L83.8545 -7.2 L79.3455 -7.2 L74.8364 -7.2 L70.3273 -7.2 L65.8182 -7.2 L61.3091 -7.2 L56.8 -7.2 L52.2909 -7.2 L47.7818 -7.2 L43.2727 -7.2 L38.7636 -7.2 L34.2545 -7.2 L29.7455 -7.2 L25.2364 -7.2 L20.7273 -7.2 L16.2182 -7.2 L11.7091 -7.2 L7.2 -7.2 M42.904 -164.291 L43.2727 -162.009 L43.4583 -160.8 L44.1055 -157.309 L44.8737 -153.818 L45.7693 -150.327 L46.7994 -146.836 L47.7818 -143.901 L47.9614 -143.345 L49.2123 -139.855 L50.6199 -136.364 L52.1965 -132.873 L52.2909 -132.679 L53.8691 -129.382 L55.7289 -125.891 L56.8 -124.05 L57.7503 -122.4 L59.943 -118.909 L61.3091 -116.915 L62.3353 -115.418 L64.9339 -111.927 L65.8182 -110.822 L67.7528 -108.436 L70.3273 -105.519 L70.8452 -104.945 L74.213 -101.455 L74.8364 -100.848 L77.9102 -97.9636 L79.3455 -96.7014 L82.005 -94.4727 L83.8545 -93.0089 L86.5778 -90.9818 L88.3636 -89.7167 L91.754 -87.4909 L92.8727 -86.7865 L97.3818 -84.1876 L97.738 -84 L101.891 -81.8773 L104.94 -80.5091 L106.4 -79.8678 L110.909 -78.1203 L114.273 -77.0182 L115.418 -76.6461 L119.927 -75.4043 L124.436 -74.425 L128.945 -73.6975 L130.498 -73.5273 L133.455 -73.1973 L137.964 -72.9392 L142.473 -72.9329 L146.982 -73.1849 L149.924 -73.5273 L151.491 -73.6972 L156 -74.4623 L160.509 -75.5257 L165.018 -76.9253 L165.256 -77.0182 L169.527 -78.609 L173.6 -80.5091 L174.036 -80.7043 L178.545 -83.1711 L179.797 -84 L183.055 -86.1096 L184.83 -87.4909 L187.564 -89.5956 L189.077 -90.9818 L192.073 -93.738 L192.751 -94.4727 L195.938 -97.9636 L196.582 -98.677 L198.726 -101.455 L201.091 -104.672 L201.265 -104.945 L203.457 -108.436 L205.493 -111.927 L205.6 -112.113 L207.255 -115.418 L208.872 -118.909 L210.109 -121.781 L210.345 -122.4 L211.627 -125.891 L212.796 -129.382 L213.859 -132.873 L214.618 -135.595 L214.811 -136.364 L215.636 -139.855 L216.374 -143.345 L217.03 -146.836 L217.608 -150.327 L218.112 -153.818 L218.545 -157.309 L218.911 -160.8 L219.127 -163.288 L219.209 -164.291 L219.439 -167.782 L219.609 -171.273 L219.722 -174.764 L219.778 -178.255 L219.778 -181.745 L219.722 -185.236 L219.609 -188.727 L219.439 -192.218 L219.209 -195.709 L219.127 -196.712 L218.911 -199.2 L218.545 -202.691 L218.112 -206.182 L217.608 -209.673 L217.03 -213.164 L216.374 -216.655 L215.636 -220.145 L214.811 -223.636 L214.618 -224.405 L213.859 -227.127 L212.796 -230.618 L211.627 -234.109 L210.345 -237.6 L210.109 -238.219 L208.872 -241.091 L207.255 -244.582 L205.6 -247.887 L205.493 -248.073 L203.457 -251.564 L201.265 -255.055 L201.091 -255.328 L198.726 -258.545 L196.582 -261.323 L195.938 -262.036 L192.751 -265.527 L192.073 -266.262 L189.077 -269.018 L187.564 -270.404 L184.83 -272.509 L183.055 -273.89 L179.797 -276 L178.545 -276.829 L174.036 -279.296 L173.6 -279.491 L169.527 -281.391 L165.256 -282.982 L165.018 -283.075 L160.509 -284.474 L156 -285.538 L151.491 -286.303 L149.924 -286.473 L146.982 -286.815 L142.473 -287.067 L137.964 -287.061 L133.455 -286.803 L130.498 -286.473 L128.945 -286.302 L124.436 -285.575 L119.927 -284.596 L115.418 -283.354 L114.273 -282.982 L110.909 -281.88 L106.4 -280.132 L104.94 -279.491 L101.891 -278.123 L97.738 -276 L97.3818 -275.812 L92.8727 -273.214 L91.754 -272.509 L88.3636 -270.283 L86.5778 -269.018 L83.8545 -266.991 L82.005 -265.527 L79.3455 -263.299 L77.9102 -262.036 L74.8364 -259.152 L74.213 -258.545 L70.8452 -255.055 L70.3273 -254.481 L67.7528 -251.564 L65.8182 -249.178 L64.9339 -248.073 L62.3353 -244.582 L61.3091 -243.085 L59.943 -241.091 L57.7503 -237.6 L56.8 -235.95 L55.7289 -234.109 L53.8691 -230.618 L52.2909 -227.321 L52.1965 -227.127 L50.6199 -223.636 L49.2123 -220.145 L47.9614 -216.655 L47.7818 -216.099 L46.7994 -213.164 L45.7693 -209.673 L44.8737 -206.182 L44.1055 -202.691 L43.4583 -199.2 L43.2727 -197.991 L42.904 -195.709 L42.456 -192.218 L42.123 -188.727 L41.9023 -185.236 L41.7924 -181.745 L41.7924 -178.255 L41.9023 -174.764 L42.123 -171.273 L42.456 -167.782 L42.904 -164.291" id="C3_0_760079d326"/>
    </defs>
    <g clip-path="url(#p5bee155178)">
     <use style="fill:#e0ecf3;" x="0.0" xlink:href="#C3_0_760079d326" y="360.0"/>
    </g>
   </g>
   <g id="PathCollection_5">
    <defs>
     <path d=" M232.655 -7.2 L230.4 -7.2 L230.4 -10.6909 L230.4 -14.1818 L230.4 -17.6727 L230.4 -21.1636 L230.4 -24.6545 L230.4 -28.1455 L230.4 -31.6364 L230.4 -35.1273 L230.4 -38.6182 L230.4 -42.1091 L230.4 -45.6 L230.4 -49.0909 L230.4 -52.5818 L230.4 -56.0727 L230.4 -59.5636 L230.4 -63.0545 L230.4 -66.5455 L230.4 -70.0364 L230.4 -73.5273 L230.4 -77.0182 L230.4 -80.5091 L230.4 -84 L230.4 -87.4909 L230.4 -90.9818 L230.4 -94.4727 L230.4 -97.9636 L230.4 -101.455 L230.4 -104.945 L230.4 -108.436 L230.4 -111.927 L230.4 -115.418 L230.4 -118.909 L230.4 -122.4 L230.4 -125.891 L230.4 -129.382 L230.4 -132.873 L230.4 -136.364 L230.4 -139.855 L230.4 -143.345 L230.4 -146.836 L230.4 -150.327 L230.4 -153.818 L230.4 -157.309 L230.4 -160.8 L230.4 -164.291 L230.4 -167.782 L230.4 -171.273 L230.4 -174.764 L230.4 -178.255 L230.4 -181.745 L230.4 -185.236 L230.4 -188.727 L230.4 -192.218 L230.4 -195.709 L230.4 -199.2 L230.4 -202.691 L230.4 -206.182 L230.4 -209.673 L230.4 -213.164 L230.4 -216.655 L230.4 -220.145 L230.4 -223.636 L230.4 -227.127 L230.4 -230.618 L230.4 -234.109 L230.4 -237.6 L230.4 -241.091 L230.4 -244.582 L230.4 -248.073 L230.4 -251.564 L230.4 -255.055 L230.4 -258.545 L230.4 -262.036 L230.4 -265.527 L230.4 -269.018 L230.4 -272.509 L230.4 -276 L230.4 -279.491 L230.4 -282.982 L230.4 -286.473 L230.4 -289.964 L230.4 -293.455 L230.4 -296.945 L230.4 -300.436 L230.4 -303.927 L230.4 -307.418 L230.4 -310.909 L230.4 -314.4 L230.4 -317.891 L230.4 -321.382 L230.4 -324.873 L230.4 -328.364 L230.4 -331.855 L230.4 -335.345 L230.4 -338.836 L230.4 -342.327 L230.4 -345.818 L230.4 -349.309 L230.4 -352.8 L232.655 -352.8 L237.164 -352.8 L241.673 -352.8 L246.182 -352.8 L250.691 -352.8 L255.2 -352.8 L259.709 -352.8 L264.218 -352.8 L268.727 -352.8 L273.236 -352.8 L277.745 -352.8 L282.255 -352.8 L286.764 -352.8 L291.273 -352.8 L295.782 -352.8 L300.291 -352.8 L304.8 -352.8 L309.309 -352.8 L313.818 -352.8 L318.327 -352.8 L322.836 -352.8 L327.345 -352.8 L331.855 -352.8 L336.364 -352.8 L340.873 -352.8 L345.382 -352.8 L349.891 -352.8 L354.4 -352.8 L358.909 -352.8 L363.418 -352.8 L367.927 -352.8 L372.436 -352.8 L376.945 -352.8 L381.455 -352.8 L385.964 -352.8 L390.473 -352.8 L394.982 -352.8 L399.491 -352.8 L404 -352.8 L408.509 -352.8 L413.018 -352.8 L417.527 -352.8 L422.036 -352.8 L426.545 -352.8 L431.055 -352.8 L435.564 -352.8 L440.073 -352.8 L444.582 -352.8 L449.091 -352.8 L453.6 -352.8 L453.6 -349.309 L453.6 -345.818 L453.6 -342.327 L453.6 -338.836 L453.6 -335.345 L453.6 -331.855 L453.6 -328.364 L453.6 -324.873 L453.6 -321.382 L453.6 -317.891 L453.6 -314.4 L453.6 -310.909 L453.6 -307.418 L453.6 -303.927 L453.6 -300.436 L453.6 -296.945 L453.6 -293.455 L453.6 -289.964 L453.6 -286.473 L453.6 -282.982 L453.6 -279.491 L453.6 -276 L453.6 -272.509 L453.6 -269.018 L453.6 -265.527 L453.6 -262.036 L453.6 -258.545 L453.6 -255.055 L453.6 -251.564 L453.6 -248.073 L453.6 -244.582 L453.6 -241.091 L453.6 -237.6 L453.6 -234.109 L453.6 -230.618 L453.6 -227.127 L453.6 -223.636 L453.6 -220.145 L453.6 -216.655 L453.6 -213.164 L453.6 -209.673 L453.6 -206.182 L453.6 -202.691 L453.6 -199.2 L453.6 -195.709 L453.6 -192.218 L453.6 -188.727 L453.6 -185.236 L453.6 -181.745 L453.6 -178.255 L453.6 -174.764 L453.6 -171.273 L453.6 -167.782 L453.6 -164.291 L453.6 -160.8 L453.6 -157.309 L453.6 -153.818 L453.6 -150.327 L453.6 -146.836 L453.6 -143.345 L453.6 -139.855 L453.6 -136.364 L453.6 -132.873 L453.6 -129.382 L453.6 -125.891 L453.6 -122.4 L453.6 -118.909 L453.6 -115.418 L453.6 -111.927 L453.6 -108.436 L453.6 -104.945 L453.6 -101.455 L453.6 -97.9636 L453.6 -94.4727 L453.6 -90.9818 L453.6 -87.4909 L453.6 -84 L453.6 -80.5091 L453.6 -77.0182 L453.6 -73.5273 L453.6 -70.0364 L453.6 -66.5455 L453.6 -63.0545 L453.6 -59.5636 L453.6 -56.0727 L453.6 -52.5818 L453.6 -49.0909 L453.6 -45.6 L453.6 -42.1091 L453.6 -38.6182 L453.6 -35.1273 L453.6 -31.6364 L453.6 -28.1455 L453.6 -24.6545 L453.6 -21.1636 L453.6 -17.6727 L453.6 -14.1818 L453.6 -10.6909 L453.6 -7.2 L449.091 -7.2 L444.582 -7.2 L440.073 -7.2 L435.564 -7.2 L431.055 -7.2 L426.545 -7.2 L422.036 -7.2 L417.527 -7.2 L413.018 -7.2 L408.509 -7.2 L404 -7.2 L399.491 -7.2 L394.982 -7.2 L390.473 -7.2 L385.964 -7.2 L381.455 -7.2 L376.945 -7.2 L372.436 -7.2 L367.927 -7.2 L363.418 -7.2 L358.909 -7.2 L354.4 -7.2 L349.891 -7.2 L345.382 -7.2 L340.873 -7.2 L336.364 -7.2 L331.855 -7.2 L327.345 -7.2 L322.836 -7.2 L318.327 -7.2 L313.818 -7.2 L309.309 -7.2 L304.8 -7.2 L300.291 -7.2 L295.782 -7.2 L291.273 -7.2 L286.764 -7.2 L282.255 -7.2 L277.745 -7.2 L273.236 -7.2 L268.727 -7.2 L264.218 -7.2 L259.709 -7.2 L255.2 -7.2 L250.691 -7.2 L246.182 -7.2 L241.673 -7.2 L237.164 -7.2 L232.655 -7.2 M241.591 -164.291 L241.673 -163.288 L241.889 -160.8 L242.255 -157.309 L242.688 -153.818 L243.192 -150.327 L243.77 -146.836 L244.426 -143.345 L245.164 -139.855 L245.989 -136.364 L246.182 -135.595 L246.941 -132.873 L248.004 -129.382 L249.173 -125.891 L250.455 -122.4 L250.691 -121.781 L251.928 -118.909 L253.545 -115.418 L255.2 -112.113 L255.307 -111.927 L257.343 -108.436 L259.535 -104.945 L259.709 -104.672 L262.074 -101.455 L264.218 -98.677 L264.862 -97.9636 L268.049 -94.4727 L268.727 -93.738 L271.723 -90.9818 L273.236 -89.5956 L275.97 -87.4909 L277.745 -86.1096 L281.003 -84 L282.255 -83.1711 L286.764 -80.7043 L287.2 -80.5091 L291.273 -78.609 L295.544 -77.0182 L295.782 -76.9253 L300.291 -75.5257 L304.8 -74.4623 L309.309 -73.6972 L310.876 -73.5273 L313.818 -73.1849 L318.327 -72.9329 L322.836 -72.9392 L327.345 -73.1973 L330.302 -73.5273 L331.855 -73.6975 L336.364 -74.425 L340.873 -75.4043 L345.382 -76.6461 L346.527 -77.0182 L349.891 -78.1203 L354.4 -79.8678 L355.86 -80.5091 L358.909 -81.8773 L363.062 -84 L363.418 -84.1876 L367.927 -86.7865 L369.046 -87.4909 L372.436 -89.7167 L374.222 -90.9818 L376.945 -93.0089 L378.795 -94.4727 L381.455 -96.7014 L382.89 -97.9636 L385.964 -100.848 L386.587 -101.455 L389.955 -104.945 L390.473 -105.519 L393.047 -108.436 L394.982 -110.822 L395.866 -111.927 L398.465 -115.418 L399.491 -116.915 L400.857 -118.909 L403.05 -122.4 L404 -124.05 L405.071 -125.891 L406.931 -129.382 L408.509 -132.679 L408.604 -132.873 L410.18 -136.364 L411.588 -139.855 L412.839 -143.345 L413.018 -143.901 L414.001 -146.836 L415.031 -150.327 L415.926 -153.818 L416.695 -157.309 L417.342 -160.8 L417.527 -162.009 L417.896 -164.291 L418.344 -167.782 L418.677 -171.273 L418.898 -174.764 L419.008 -178.255 L419.008 -181.745 L418.898 -185.236 L418.677 -188.727 L418.344 -192.218 L417.896 -195.709 L417.527 -197.991 L417.342 -199.2 L416.695 -202.691 L415.926 -206.182 L415.031 -209.673 L414.001 -213.164 L413.018 -216.099 L412.839 -216.655 L411.588 -220.145 L410.18 -223.636 L408.604 -227.127 L408.509 -227.321 L406.931 -230.618 L405.071 -234.109 L404 -235.95 L403.05 -237.6 L400.857 -241.091 L399.491 -243.085 L398.465 -244.582 L395.866 -248.073 L394.982 -249.178 L393.047 -251.564 L390.473 -254.481 L389.955 -255.055 L386.587 -258.545 L385.964 -259.152 L382.89 -262.036 L381.455 -263.299 L378.795 -265.527 L376.945 -266.991 L374.222 -269.018 L372.436 -270.283 L369.046 -272.509 L367.927 -273.214 L363.418 -275.812 L363.062 -276 L358.909 -278.123 L355.86 -279.491 L354.4 -280.132 L349.891 -281.88 L346.527 -282.982 L345.382 -283.354 L340.873 -284.596 L336.364 -285.575 L331.855 -286.302 L330.302 -286.473 L327.345 -286.803 L322.836 -287.061 L318.327 -287.067 L313.818 -286.815 L310.876 -286.473 L309.309 -286.303 L304.8 -285.538 L300.291 -284.474 L295.782 -283.075 L295.544 -282.982 L291.273 -281.391 L287.2 -279.491 L286.764 -279.296 L282.255 -276.829 L281.003 -276 L277.745 -273.89 L275.97 -272.509 L273.236 -270.404 L271.723 -269.018 L268.727 -266.262 L268.049 -265.527 L264.862 -262.036 L264.218 -261.323 L262.074 -258.545 L259.709 -255.328 L259.535 -255.055 L257.343 -251.564 L255.307 -248.073 L255.2 -247.887 L253.545 -244.582 L251.928 -241.091 L250.691 -238.219 L250.455 -237.6 L249.173 -234.109 L248.004 -230.618 L246.941 -227.127 L246.182 -224.405 L245.989 -223.636 L245.164 -220.145 L244.426 -216.655 L243.77 -213.164 L243.192 -209.673 L242.688 -206.182 L242.255 -202.691 L241.889 -199.2 L241.673 -196.712 L241.591 -195.709 L241.361 -192.218 L241.191 -188.727 L241.078 -185.236 L241.022 -181.745 L241.022 -178.255 L241.078 -174.764 L241.191 -171.273 L241.361 -167.782 L241.591 -164.291" id="C4_0_4cbd6f45b3"/>
    </defs>
    <g clip-path="url(#p5bee155178)">
     <use style="fill:#fbe5d8;" x="0.0" xlink:href="#C4_0_4cbd6f45b3" y="360.0"/>
    </g>
   </g>
   <g id="PathCollection_6">
    <defs>
     <path d=" M241.591 -164.291 L241.361 -167.782 L241.191 -171.273 L241.078 -174.764 L241.022 -178.255 L241.022 -181.745 L241.078 -185.236 L241.191 -188.727 L241.361 -192.218 L241.591 -195.709 L241.673 -196.712 L241.889 -199.2 L242.255 -202.691 L242.688 -206.182 L243.192 -209.673 L243.77 -213.164 L244.426 -216.655 L245.164 -220.145 L245.989 -223.636 L246.182 -224.405 L246.941 -227.127 L248.004 -230.618 L249.173 -234.109 L250.455 -237.6 L250.691 -238.219 L251.928 -241.091 L253.545 -244.582 L255.2 -247.887 L255.307 -248.073 L257.343 -251.564 L259.535 -255.055 L259.709 -255.328 L262.074 -258.545 L264.218 -261.323 L264.862 -262.036 L268.049 -265.527 L268.727 -266.262 L271.723 -269.018 L273.236 -270.404 L275.97 -272.509 L277.745 -273.89 L281.003 -276 L282.255 -276.829 L286.764 -279.296 L287.2 -279.491 L291.273 -281.391 L295.544 -282.982 L295.782 -283.075 L300.291 -284.474 L304.8 -285.538 L309.309 -286.303 L310.876 -286.473 L313.818 -286.815 L318.327 -287.067 L322.836 -287.061 L327.345 -286.803 L330.302 -286.473 L331.855 -286.302 L336.364 -285.575 L340.873 -284.596 L345.382 -283.354 L346.527 -282.982 L349.891 -281.88 L354.4 -280.132 L355.86 -279.491 L358.909 -278.123 L363.062 -276 L363.418 -275.812 L367.927 -273.214 L369.046 -272.509 L372.436 -270.283 L374.222 -269.018 L376.945 -266.991 L378.795 -265.527 L381.455 -263.299 L382.89 -262.036 L385.964 -259.152 L386.587 -258.545 L389.955 -255.055 L390.473 -254.481 L393.047 -251.564 L394.982 -249.178 L395.866 -248.073 L398.465 -244.582 L399.491 -243.085 L400.857 -241.091 L403.05 -237.6 L404 -235.95 L405.071 -234.109 L406.931 -230.618 L408.509 -227.321 L408.604 -227.127 L410.18 -223.636 L411.588 -220.145 L412.839 -216.655 L413.018 -216.099 L414.001 -213.164 L415.031 -209.673 L415.926 -206.182 L416.695 -202.691 L417.342 -199.2 L417.527 -197.991 L417.896 -195.709 L418.344 -192.218 L418.677 -188.727 L418.898 -185.236 L419.008 -181.745 L419.008 -178.255 L418.898 -174.764 L418.677 -171.273 L418.344 -167.782 L417.896 -164.291 L417.527 -162.009 L417.342 -160.8 L416.695 -157.309 L415.926 -153.818 L415.031 -150.327 L414.001 -146.836 L413.018 -143.901 L412.839 -143.345 L411.588 -139.855 L410.18 -136.364 L408.604 -132.873 L408.509 -132.679 L406.931 -129.382 L405.071 -125.891 L404 -124.05 L403.05 -122.4 L400.857 -118.909 L399.491 -116.915 L398.465 -115.418 L395.866 -111.927 L394.982 -110.822 L393.047 -108.436 L390.473 -105.519 L389.955 -104.945 L386.587 -101.455 L385.964 -100.848 L382.89 -97.9636 L381.455 -96.7014 L378.795 -94.4727 L376.945 -93.0089 L374.222 -90.9818 L372.436 -89.7167 L369.046 -87.4909 L367.927 -86.7865 L363.418 -84.1876 L363.062 -84 L358.909 -81.8773 L355.86 -80.5091 L354.4 -79.8678 L349.891 -78.1203 L346.527 -77.0182 L345.382 -76.6461 L340.873 -75.4043 L336.364 -74.425 L331.855 -73.6975 L330.302 -73.5273 L327.345 -73.1973 L322.836 -72.9392 L318.327 -72.9329 L313.818 -73.1849 L310.876 -73.5273 L309.309 -73.6972 L304.8 -74.4623 L300.291 -75.5257 L295.782 -76.9253 L295.544 -77.0182 L291.273 -78.609 L287.2 -80.5091 L286.764 -80.7043 L282.255 -83.1711 L281.003 -84 L277.745 -86.1096 L275.97 -87.4909 L273.236 -89.5956 L271.723 -90.9818 L268.727 -93.738 L268.049 -94.4727 L264.862 -97.9636 L264.218 -98.677 L262.074 -101.455 L259.709 -104.672 L259.535 -104.945 L257.343 -108.436 L255.307 -111.927 L255.2 -112.113 L253.545 -115.418 L251.928 -118.909 L250.691 -121.781 L250.455 -122.4 L249.173 -125.891 L248.004 -129.382 L246.941 -132.873 L246.182 -135.595 L245.989 -136.364 L245.164 -139.855 L244.426 -143.345 L243.77 -146.836 L243.192 -150.327 L242.688 -153.818 L242.255 -157.309 L241.889 -160.8 L241.673 -163.288 L241.591 -164.291 M254.685 -160.8 L255.2 -158.582 L255.533 -157.309 L256.591 -153.818 L257.817 -150.327 L259.216 -146.836 L259.709 -145.713 L260.917 -143.345 L262.878 -139.855 L264.218 -137.662 L265.161 -136.364 L267.86 -132.873 L268.727 -131.808 L271.124 -129.382 L273.236 -127.329 L275.073 -125.891 L277.745 -123.836 L280.124 -122.4 L282.255 -121.112 L286.764 -119.032 L287.128 -118.909 L291.273 -117.473 L295.782 -116.412 L300.291 -115.799 L304.8 -115.599 L309.309 -115.796 L313.818 -116.386 L318.327 -117.378 L322.836 -118.787 L323.149 -118.909 L327.345 -120.617 L330.881 -122.4 L331.855 -122.92 L336.364 -125.74 L336.578 -125.891 L340.873 -129.161 L341.135 -129.382 L344.948 -132.873 L345.382 -133.311 L348.21 -136.364 L349.891 -138.407 L351.03 -139.855 L353.477 -143.345 L354.4 -144.838 L355.611 -146.836 L357.461 -150.327 L358.909 -153.529 L359.04 -153.818 L360.416 -157.309 L361.559 -160.8 L362.486 -164.291 L363.212 -167.782 L363.418 -169.117 L363.762 -171.273 L364.132 -174.764 L364.315 -178.255 L364.315 -181.745 L364.132 -185.236 L363.762 -188.727 L363.418 -190.883 L363.212 -192.218 L362.486 -195.709 L361.559 -199.2 L360.416 -202.691 L359.04 -206.182 L358.909 -206.471 L357.461 -209.673 L355.611 -213.164 L354.4 -215.162 L353.477 -216.655 L351.03 -220.145 L349.891 -221.593 L348.21 -223.636 L345.382 -226.689 L344.948 -227.127 L341.135 -230.618 L340.873 -230.839 L336.578 -234.109 L336.364 -234.26 L331.855 -237.08 L330.881 -237.6 L327.345 -239.383 L323.149 -241.091 L322.836 -241.213 L318.327 -242.622 L313.818 -243.614 L309.309 -244.204 L304.8 -244.401 L300.291 -244.201 L295.782 -243.588 L291.273 -242.527 L287.128 -241.091 L286.764 -240.968 L282.255 -238.888 L280.124 -237.6 L277.745 -236.164 L275.073 -234.109 L273.236 -232.671 L271.124 -230.618 L268.727 -228.192 L267.86 -227.127 L265.161 -223.636 L264.218 -222.338 L262.878 -220.145 L260.917 -216.655 L259.709 -214.287 L259.216 -213.164 L257.817 -209.673 L256.591 -206.182 L255.533 -202.691 L255.2 -201.418 L254.685 -199.2 L254.011 -195.709 L253.476 -192.218 L253.078 -188.727 L252.814 -185.236 L252.683 -181.745 L252.683 -178.255 L252.814 -174.764 L253.078 -171.273 L253.476 -167.782 L254.011 -164.291 L254.685 -160.8" id="C5_0_e5a35a280b"/>
    </defs>
    <g clip-path="url(#p5bee155178)">
     <use style="fill:#f5aa89;" x="0.0" xlink:href="#C5_0_e5a35a280b" y="360.0"/>
    </g>
   </g>
   <g id="PathCollection_7">
    <defs>
     <path d=" M254.685 -160.8 L254.011 -164.291 L253.476 -167.782 L253.078 -171.273 L252.814 -174.764 L252.683 -178.255 L252.683 -181.745 L252.814 -185.236 L253.078 -188.727 L253.476 -192.218 L254.011 -195.709 L254.685 -199.2 L255.2 -201.418 L255.533 -202.691 L256.591 -206.182 L257.817 -209.673 L259.216 -213.164 L259.709 -214.287 L260.917 -216.655 L262.878 -220.145 L264.218 -222.338 L265.161 -223.636 L267.86 -227.127 L268.727 -228.192 L271.124 -230.618 L273.236 -232.671 L275.073 -234.109 L277.745 -236.164 L280.124 -237.6 L282.255 -238.888 L286.764 -240.968 L287.128 -241.091 L291.273 -242.527 L295.782 -243.588 L300.291 -244.201 L304.8 -244.401 L309.309 -244.204 L313.818 -243.614 L318.327 -242.622 L322.836 -241.213 L323.149 -241.091 L327.345 -239.383 L330.881 -237.6 L331.855 -237.08 L336.364 -234.26 L336.578 -234.109 L340.873 -230.839 L341.135 -230.618 L344.948 -227.127 L345.382 -226.689 L348.21 -223.636 L349.891 -221.593 L351.03 -220.145 L353.477 -216.655 L354.4 -215.162 L355.611 -213.164 L357.461 -209.673 L358.909 -206.471 L359.04 -206.182 L360.416 -202.691 L361.559 -199.2 L362.486 -195.709 L363.212 -192.218 L363.418 -190.883 L363.762 -188.727 L364.132 -185.236 L364.315 -181.745 L364.315 -178.255 L364.132 -174.764 L363.762 -171.273 L363.418 -169.117 L363.212 -167.782 L362.486 -164.291 L361.559 -160.8 L360.416 -157.309 L359.04 -153.818 L358.909 -153.529 L357.461 -150.327 L355.611 -146.836 L354.4 -144.838 L353.477 -143.345 L351.03 -139.855 L349.891 -138.407 L348.21 -136.364 L345.382 -133.311 L344.948 -132.873 L341.135 -129.382 L340.873 -129.161 L336.578 -125.891 L336.364 -125.74 L331.855 -122.92 L330.881 -122.4 L327.345 -120.617 L323.149 -118.909 L322.836 -118.787 L318.327 -117.378 L313.818 -116.386 L309.309 -115.796 L304.8 -115.599 L300.291 -115.799 L295.782 -116.412 L291.273 -117.473 L287.128 -118.909 L286.764 -119.032 L282.255 -121.112 L280.124 -122.4 L277.745 -123.836 L275.073 -125.891 L273.236 -127.329 L271.124 -129.382 L268.727 -131.808 L267.86 -132.873 L265.161 -136.364 L264.218 -137.662 L262.878 -139.855 L260.917 -143.345 L259.709 -145.713 L259.216 -146.836 L257.817 -150.327 L256.591 -153.818 L255.533 -157.309 L255.2 -158.582 L254.685 -160.8 M268.562 -171.273 L268.727 -170.564 L269.516 -167.782 L270.833 -164.291 L272.48 -160.8 L273.236 -159.445 L274.751 -157.309 L277.599 -153.818 L277.745 -153.656 L281.755 -150.327 L282.255 -149.944 L286.764 -147.51 L288.779 -146.836 L291.273 -146.033 L295.782 -145.374 L300.291 -145.45 L304.8 -146.245 L306.604 -146.836 L309.309 -147.816 L313.818 -150.224 L313.97 -150.327 L318.327 -153.735 L318.416 -153.818 L321.628 -157.309 L322.836 -158.901 L324.121 -160.8 L326.034 -164.291 L327.345 -167.391 L327.5 -167.782 L328.532 -171.273 L329.206 -174.764 L329.539 -178.255 L329.539 -181.745 L329.206 -185.236 L328.532 -188.727 L327.5 -192.218 L327.345 -192.609 L326.034 -195.709 L324.121 -199.2 L322.836 -201.099 L321.628 -202.691 L318.416 -206.182 L318.327 -206.265 L313.97 -209.673 L313.818 -209.776 L309.309 -212.184 L306.604 -213.164 L304.8 -213.755 L300.291 -214.55 L295.782 -214.626 L291.273 -213.967 L288.779 -213.164 L286.764 -212.49 L282.255 -210.056 L281.755 -209.673 L277.745 -206.344 L277.599 -206.182 L274.751 -202.691 L273.236 -200.555 L272.48 -199.2 L270.833 -195.709 L269.516 -192.218 L268.727 -189.436 L268.562 -188.727 L268.013 -185.236 L267.739 -181.745 L267.739 -178.255 L268.013 -174.764 L268.562 -171.273" id="C6_0_cc7065cfc6"/>
    </defs>
    <g clip-path="url(#p5bee155178)">
     <use style="fill:#d05548;" x="0.0" xlink:href="#C6_0_cc7065cfc6" y="360.0"/>
    </g>
   </g>
   <g id="PathCollection_8">
    <defs>
     <path d=" M268.562 -171.273 L268.013 -174.764 L267.739 -178.255 L267.739 -181.745 L268.013 -185.236 L268.562 -188.727 L268.727 -189.436 L269.516 -192.218 L270.833 -195.709 L272.48 -199.2 L273.236 -200.555 L274.751 -202.691 L277.599 -206.182 L277.745 -206.344 L281.755 -209.673 L282.255 -210.056 L286.764 -212.49 L288.779 -213.164 L291.273 -213.967 L295.782 -214.626 L300.291 -214.55 L304.8 -213.755 L306.604 -213.164 L309.309 -212.184 L313.818 -209.776 L313.97 -209.673 L318.327 -206.265 L318.416 -206.182 L321.628 -202.691 L322.836 -201.099 L324.121 -199.2 L326.034 -195.709 L327.345 -192.609 L327.5 -192.218 L328.532 -188.727 L329.206 -185.236 L329.539 -181.745 L329.539 -178.255 L329.206 -174.764 L328.532 -171.273 L327.5 -167.782 L327.345 -167.391 L326.034 -164.291 L324.121 -160.8 L322.836 -158.901 L321.628 -157.309 L318.416 -153.818 L318.327 -153.735 L313.97 -150.327 L313.818 -150.224 L309.309 -147.816 L306.604 -146.836 L304.8 -146.245 L300.291 -145.45 L295.782 -145.374 L291.273 -146.033 L288.779 -146.836 L286.764 -147.51 L282.255 -149.944 L281.755 -150.327 L277.745 -153.656 L277.599 -153.818 L274.751 -157.309 L273.236 -159.445 L272.48 -160.8 L270.833 -164.291 L269.516 -167.782 L268.727 -170.564 L268.562 -171.273" id="C7_0_df462c7796"/>
    </defs>
    <g clip-path="url(#p5bee155178)">
     <use style="fill:#930e26;" x="0.0" xlink:href="#C7_0_df462c7796" y="360.0"/>
    </g>
   </g>
   <g id="LineCollection_1">
    <defs>
     <path d=" M133.3 -167.782 L133.455 -167.391 L134.766 -164.291 L136.679 -160.8 L137.964 -158.901 L139.172 -157.309 L142.384 -153.818 L142.473 -153.735 L146.83 -150.327 L146.982 -150.224 L151.491 -147.816 L154.196 -146.836 L156 -146.245 L160.509 -145.45 L165.018 -145.374 L169.527 -146.033 L172.021 -146.836 L174.036 -147.51 L178.545 -149.944 L179.045 -150.327 L183.055 -153.656 L183.201 -153.818 L186.049 -157.309 L187.564 -159.445 L188.32 -160.8 L189.967 -164.291 L191.284 -167.782 L192.073 -170.564 L192.238 -171.273 L192.787 -174.764 L193.061 -178.255 L193.061 -181.745 L192.787 -185.236 L192.238 -188.727 L192.073 -189.436 L191.284 -192.218 L189.967 -195.709 L188.32 -199.2 L187.564 -200.555 L186.049 -202.691 L183.201 -206.182 L183.055 -206.344 L179.045 -209.673 L178.545 -210.056 L174.036 -212.49 L172.021 -213.164 L169.527 -213.967 L165.018 -214.626 L160.509 -214.55 L156 -213.755 L154.196 -213.164 L151.491 -212.184 L146.982 -209.776 L146.83 -209.673 L142.473 -206.265 L142.384 -206.182 L139.172 -202.691 L137.964 -201.099 L136.679 -199.2 L134.766 -195.709 L133.455 -192.609 L133.3 -192.218 L132.268 -188.727 L131.594 -185.236 L131.261 -181.745 L131.261 -178.255 L131.594 -174.764 L132.268 -171.273 L133.3 -167.782" id="C8_0_54e68bbebc"/>
    </defs>
    <g clip-path="url(#p5bee155178)">
     <use style="fill:none;stroke:#000000;" x="0.0" xlink:href="#C8_0_54e68bbebc" y="360.0"/>
    </g>
   </g>
   <g id="LineCollection_2">
    <defs>
     <path d=" M97.0376 -171.273 L97.3818 -169.117 L97.588 -167.782 L98.3136 -164.291 L99.241 -160.8 L100.384 -157.309 L101.76 -153.818 L101.891 -153.529 L103.339 -150.327 L105.189 -146.836 L106.4 -144.838 L107.323 -143.345 L109.77 -139.855 L110.909 -138.407 L112.59 -136.364 L115.418 -133.311 L115.852 -132.873 L119.665 -129.382 L119.927 -129.161 L124.222 -125.891 L124.436 -125.74 L128.945 -122.92 L129.919 -122.4 L133.455 -120.617 L137.651 -118.909 L137.964 -118.787 L142.473 -117.378 L146.982 -116.386 L151.491 -115.796 L156 -115.599 L160.509 -115.799 L165.018 -116.412 L169.527 -117.473 L173.672 -118.909 L174.036 -119.032 L178.545 -121.112 L180.676 -122.4 L183.055 -123.836 L185.727 -125.891 L187.564 -127.329 L189.676 -129.382 L192.073 -131.808 L192.94 -132.873 L195.639 -136.364 L196.582 -137.662 L197.922 -139.855 L199.883 -143.345 L201.091 -145.713 L201.584 -146.836 L202.983 -150.327 L204.209 -153.818 L205.267 -157.309 L205.6 -158.582 L206.115 -160.8 L206.789 -164.291 L207.324 -167.782 L207.722 -171.273 L207.986 -174.764 L208.117 -178.255 L208.117 -181.745 L207.986 -185.236 L207.722 -188.727 L207.324 -192.218 L206.789 -195.709 L206.115 -199.2 L205.6 -201.418 L205.267 -202.691 L204.209 -206.182 L202.983 -209.673 L201.584 -213.164 L201.091 -214.287 L199.883 -216.655 L197.922 -220.145 L196.582 -222.338 L195.639 -223.636 L192.94 -227.127 L192.073 -228.192 L189.676 -230.618 L187.564 -232.671 L185.727 -234.109 L183.055 -236.164 L180.676 -237.6 L178.545 -238.888 L174.036 -240.968 L173.672 -241.091 L169.527 -242.527 L165.018 -243.588 L160.509 -244.201 L156 -244.401 L151.491 -244.204 L146.982 -243.614 L142.473 -242.622 L137.964 -241.213 L137.651 -241.091 L133.455 -239.383 L129.919 -237.6 L128.945 -237.08 L124.436 -234.26 L124.222 -234.109 L119.927 -230.839 L119.665 -230.618 L115.852 -227.127 L115.418 -226.689 L112.59 -223.636 L110.909 -221.593 L109.77 -220.145 L107.323 -216.655 L106.4 -215.162 L105.189 -213.164 L103.339 -209.673 L101.891 -206.471 L101.76 -206.182 L100.384 -202.691 L99.241 -199.2 L98.3136 -195.709 L97.588 -192.218 L97.3818 -190.883 L97.0376 -188.727 L96.6684 -185.236 L96.4851 -181.745 L96.4851 -178.255 L96.6684 -174.764 L97.0376 -171.273" id="C9_0_1ff1914aeb"/>
    </defs>
    <g clip-path="url(#p5bee155178)">
     <use style="fill:none;stroke:#000000;" x="0.0" xlink:href="#C9_0_1ff1914aeb" y="360.0"/>
    </g>
   </g>
   <g id="LineCollection_3">
    <defs>
     <path d=" M42.904 -164.291 L43.2727 -162.009 L43.4583 -160.8 L44.1055 -157.309 L44.8737 -153.818 L45.7693 -150.327 L46.7994 -146.836 L47.7818 -143.901 L47.9614 -143.345 L49.2123 -139.855 L50.6199 -136.364 L52.1965 -132.873 L52.2909 -132.679 L53.8691 -129.382 L55.7289 -125.891 L56.8 -124.05 L57.7503 -122.4 L59.943 -118.909 L61.3091 -116.915 L62.3353 -115.418 L64.9339 -111.927 L65.8182 -110.822 L67.7528 -108.436 L70.3273 -105.519 L70.8452 -104.945 L74.213 -101.455 L74.8364 -100.848 L77.9102 -97.9636 L79.3455 -96.7014 L82.005 -94.4727 L83.8545 -93.0089 L86.5778 -90.9818 L88.3636 -89.7167 L91.754 -87.4909 L92.8727 -86.7865 L97.3818 -84.1876 L97.738 -84 L101.891 -81.8773 L104.94 -80.5091 L106.4 -79.8678 L110.909 -78.1203 L114.273 -77.0182 L115.418 -76.6461 L119.927 -75.4043 L124.436 -74.425 L128.945 -73.6975 L130.498 -73.5273 L133.455 -73.1973 L137.964 -72.9392 L142.473 -72.9329 L146.982 -73.1849 L149.924 -73.5273 L151.491 -73.6972 L156 -74.4623 L160.509 -75.5257 L165.018 -76.9253 L165.256 -77.0182 L169.527 -78.609 L173.6 -80.5091 L174.036 -80.7043 L178.545 -83.1711 L179.797 -84 L183.055 -86.1096 L184.83 -87.4909 L187.564 -89.5956 L189.077 -90.9818 L192.073 -93.738 L192.751 -94.4727 L195.938 -97.9636 L196.582 -98.677 L198.726 -101.455 L201.091 -104.672 L201.265 -104.945 L203.457 -108.436 L205.493 -111.927 L205.6 -112.113 L207.255 -115.418 L208.872 -118.909 L210.109 -121.781 L210.345 -122.4 L211.627 -125.891 L212.796 -129.382 L213.859 -132.873 L214.618 -135.595 L214.811 -136.364 L215.636 -139.855 L216.374 -143.345 L217.03 -146.836 L217.608 -150.327 L218.112 -153.818 L218.545 -157.309 L218.911 -160.8 L219.127 -163.288 L219.209 -164.291 L219.439 -167.782 L219.609 -171.273 L219.722 -174.764 L219.778 -178.255 L219.778 -181.745 L219.722 -185.236 L219.609 -188.727 L219.439 -192.218 L219.209 -195.709 L219.127 -196.712 L218.911 -199.2 L218.545 -202.691 L218.112 -206.182 L217.608 -209.673 L217.03 -213.164 L216.374 -216.655 L215.636 -220.145 L214.811 -223.636 L214.618 -224.405 L213.859 -227.127 L212.796 -230.618 L211.627 -234.109 L210.345 -237.6 L210.109 -238.219 L208.872 -241.091 L207.255 -244.582 L205.6 -247.887 L205.493 -248.073 L203.457 -251.564 L201.265 -255.055 L201.091 -255.328 L198.726 -258.545 L196.582 -261.323 L195.938 -262.036 L192.751 -265.527 L192.073 -266.262 L189.077 -269.018 L187.564 -270.404 L184.83 -272.509 L183.055 -273.89 L179.797 -276 L178.545 -276.829 L174.036 -279.296 L173.6 -279.491 L169.527 -281.391 L165.256 -282.982 L165.018 -283.075 L160.509 -284.474 L156 -285.538 L151.491 -286.303 L149.924 -286.473 L146.982 -286.815 L142.473 -287.067 L137.964 -287.061 L133.455 -286.803 L130.498 -286.473 L128.945 -286.302 L124.436 -285.575 L119.927 -284.596 L115.418 -283.354 L114.273 -282.982 L110.909 -281.88 L106.4 -280.132 L104.94 -279.491 L101.891 -278.123 L97.738 -276 L97.3818 -275.812 L92.8727 -273.214 L91.754 -272.509 L88.3636 -270.283 L86.5778 -269.018 L83.8545 -266.991 L82.005 -265.527 L79.3455 -263.299 L77.9102 -262.036 L74.8364 -259.152 L74.213 -258.545 L70.8452 -255.055 L70.3273 -254.481 L67.7528 -251.564 L65.8182 -249.178 L64.9339 -248.073 L62.3353 -244.582 L61.3091 -243.085 L59.943 -241.091 L57.7503 -237.6 L56.8 -235.95 L55.7289 -234.109 L53.8691 -230.618 L52.2909 -227.321 L52.1965 -227.127 L50.6199 -223.636 L49.2123 -220.145 L47.9614 -216.655 L47.7818 -216.099 L46.7994 -213.164 L45.7693 -209.673 L44.8737 -206.182 L44.1055 -202.691 L43.4583 -199.2 L43.2727 -197.991 L42.904 -195.709 L42.456 -192.218 L42.123 -188.727 L41.9023 -185.236 L41.7924 -181.745 L41.7924 -178.255 L41.9023 -174.764 L42.123 -171.273 L42.456 -167.782 L42.904 -164.291" id="Ca_0_60205b759c"/>
    </defs>
    <g clip-path="url(#p5bee155178)">
     <use style="fill:none;stroke:#000000;" x="0.0" xlink:href="#Ca_0_60205b759c" y="360.0"/>
    </g>
   </g>
   <g id="LineCollection_4">
    <defs>
     <path d=" M230.4 -7.2 L230.4 -10.6909 L230.4 -14.1818 L230.4 -17.6727 L230.4 -21.1636 L230.4 -24.6545 L230.4 -28.1455 L230.4 -31.6364 L230.4 -35.1273 L230.4 -38.6182 L230.4 -42.1091 L230.4 -45.6 L230.4 -49.0909 L230.4 -52.5818 L230.4 -56.0727 L230.4 -59.5636 L230.4 -63.0545 L230.4 -66.5455 L230.4 -70.0364 L230.4 -73.5273 L230.4 -77.0182 L230.4 -80.5091 L230.4 -84 L230.4 -87.4909 L230.4 -90.9818 L230.4 -94.4727 L230.4 -97.9636 L230.4 -101.455 L230.4 -104.945 L230.4 -108.436 L230.4 -111.927 L230.4 -115.418 L230.4 -118.909 L230.4 -122.4 L230.4 -125.891 L230.4 -129.382 L230.4 -132.873 L230.4 -136.364 L230.4 -139.855 L230.4 -143.345 L230.4 -146.836 L230.4 -150.327 L230.4 -153.818 L230.4 -157.309 L230.4 -160.8 L230.4 -164.291 L230.4 -167.782 L230.4 -171.273 L230.4 -174.764 L230.4 -178.255 L230.4 -181.745 L230.4 -185.236 L230.4 -188.727 L230.4 -192.218 L230.4 -195.709 L230.4 -199.2 L230.4 -202.691 L230.4 -206.182 L230.4 -209.673 L230.4 -213.164 L230.4 -216.655 L230.4 -220.145 L230.4 -223.636 L230.4 -227.127 L230.4 -230.618 L230.4 -234.109 L230.4 -237.6 L230.4 -241.091 L230.4 -244.582 L230.4 -248.073 L230.4 -251.564 L230.4 -255.055 L230.4 -258.545 L230.4 -262.036 L230.4 -265.527 L230.4 -269.018 L230.4 -272.509 L230.4 -276 L230.4 -279.491 L230.4 -282.982 L230.4 -286.473 L230.4 -289.964 L230.4 -293.455 L230.4 -296.945 L230.4 -300.436 L230.4 -303.927 L230.4 -307.418 L230.4 -310.909 L230.4 -314.4 L230.4 -317.891 L230.4 -321.382 L230.4 -324.873 L230.4 -328.364 L230.4 -331.855 L230.4 -335.345 L230.4 -338.836 L230.4 -342.327 L230.4 -345.818 L230.4 -349.309 L230.4 -352.8" id="Cb_0_0f854f081a"/>
    </defs>
    <g clip-path="url(#p5bee155178)">
     <use style="fill:none;stroke:#000000;" x="0.0" xlink:href="#Cb_0_0f854f081a" y="360.0"/>
    </g>
   </g>
   <g id="LineCollection_5">
    <defs>
     <path d=" M241.591 -164.291 L241.361 -167.782 L241.191 -171.273 L241.078 -174.764 L241.022 -178.255 L241.022 -181.745 L241.078 -185.236 L241.191 -188.727 L241.361 -192.218 L241.591 -195.709 L241.673 -196.712 L241.889 -199.2 L242.255 -202.691 L242.688 -206.182 L243.192 -209.673 L243.77 -213.164 L244.426 -216.655 L245.164 -220.145 L245.989 -223.636 L246.182 -224.405 L246.941 -227.127 L248.004 -230.618 L249.173 -234.109 L250.455 -237.6 L250.691 -238.219 L251.928 -241.091 L253.545 -244.582 L255.2 -247.887 L255.307 -248.073 L257.343 -251.564 L259.535 -255.055 L259.709 -255.328 L262.074 -258.545 L264.218 -261.323 L264.862 -262.036 L268.049 -265.527 L268.727 -266.262 L271.723 -269.018 L273.236 -270.404 L275.97 -272.509 L277.745 -273.89 L281.003 -276 L282.255 -276.829 L286.764 -279.296 L287.2 -279.491 L291.273 -281.391 L295.544 -282.982 L295.782 -283.075 L300.291 -284.474 L304.8 -285.538 L309.309 -286.303 L310.876 -286.473 L313.818 -286.815 L318.327 -287.067 L322.836 -287.061 L327.345 -286.803 L330.302 -286.473 L331.855 -286.302 L336.364 -285.575 L340.873 -284.596 L345.382 -283.354 L346.527 -282.982 L349.891 -281.88 L354.4 -280.132 L355.86 -279.491 L358.909 -278.123 L363.062 -276 L363.418 -275.812 L367.927 -273.214 L369.046 -272.509 L372.436 -270.283 L374.222 -269.018 L376.945 -266.991 L378.795 -265.527 L381.455 -263.299 L382.89 -262.036 L385.964 -259.152 L386.587 -258.545 L389.955 -255.055 L390.473 -254.481 L393.047 -251.564 L394.982 -249.178 L395.866 -248.073 L398.465 -244.582 L399.491 -243.085 L400.857 -241.091 L403.05 -237.6 L404 -235.95 L405.071 -234.109 L406.931 -230.618 L408.509 -227.321 L408.604 -227.127 L410.18 -223.636 L411.588 -220.145 L412.839 -216.655 L413.018 -216.099 L414.001 -213.164 L415.031 -209.673 L415.926 -206.182 L416.695 -202.691 L417.342 -199.2 L417.527 -197.991 L417.896 -195.709 L418.344 -192.218 L418.677 -188.727 L418.898 -185.236 L419.008 -181.745 L419.008 -178.255 L418.898 -174.764 L418.677 -171.273 L418.344 -167.782 L417.896 -164.291 L417.527 -162.009 L417.342 -160.8 L416.695 -157.309 L415.926 -153.818 L415.031 -150.327 L414.001 -146.836 L413.018 -143.901 L412.839 -143.345 L411.588 -139.855 L410.18 -136.364 L408.604 -132.873 L408.509 -132.679 L406.931 -129.382 L405.071 -125.891 L404 -124.05 L403.05 -122.4 L400.857 -118.909 L399.491 -116.915 L398.465 -115.418 L395.866 -111.927 L394.982 -110.822 L393.047 -108.436 L390.473 -105.519 L389.955 -104.945 L386.587 -101.455 L385.964 -100.848 L382.89 -97.9636 L381.455 -96.7014 L378.795 -94.4727 L376.945 -93.0089 L374.222 -90.9818 L372.436 -89.7167 L369.046 -87.4909 L367.927 -86.7865 L363.418 -84.1876 L363.062 -84 L358.909 -81.8773 L355.86 -80.5091 L354.4 -79.8678 L349.891 -78.1203 L346.527 -77.0182 L345.382 -76.6461 L340.873 -75.4043 L336.364 -74.425 L331.855 -73.6975 L330.302 -73.5273 L327.345 -73.1973 L322.836 -72.9392 L318.327 -72.9329 L313.818 -73.1849 L310.876 -73.5273 L309.309 -73.6972 L304.8 -74.4623 L300.291 -75.5257 L295.782 -76.9253 L295.544 -77.0182 L291.273 -78.609 L287.2 -80.5091 L286.764 -80.7043 L282.255 -83.1711 L281.003 -84 L277.745 -86.1096 L275.97 -87.4909 L273.236 -89.5956 L271.723 -90.9818 L268.727 -93.738 L268.049 -94.4727 L264.862 -97.9636 L264.218 -98.677 L262.074 -101.455 L259.709 -104.672 L259.535 -104.945 L257.343 -108.436 L255.307 -111.927 L255.2 -112.113 L253.545 -115.418 L251.928 -118.909 L250.691 -121.781 L250.455 -122.4 L249.173 -125.891 L248.004 -129.382 L246.941 -132.873 L246.182 -135.595 L245.989 -136.364 L245.164 -139.855 L244.426 -143.345 L243.77 -146.836 L243.192 -150.327 L242.688 -153.818 L242.255 -157.309 L241.889 -160.8 L241.673 -163.288 L241.591 -164.291" id="Cc_0_42f60e022c"/>
    </defs>
    <g clip-path="url(#p5bee155178)">
     <use style="fill:none;stroke:#000000;" x="0.0" xlink:href="#Cc_0_42f60e022c" y="360.0"/>
    </g>
   </g>
   <g id="LineCollection_6">
    <defs>
     <path d=" M254.685 -160.8 L254.011 -164.291 L253.476 -167.782 L253.078 -171.273 L252.814 -174.764 L252.683 -178.255 L252.683 -181.745 L252.814 -185.236 L253.078 -188.727 L253.476 -192.218 L254.011 -195.709 L254.685 -199.2 L255.2 -201.418 L255.533 -202.691 L256.591 -206.182 L257.817 -209.673 L259.216 -213.164 L259.709 -214.287 L260.917 -216.655 L262.878 -220.145 L264.218 -222.338 L265.161 -223.636 L267.86 -227.127 L268.727 -228.192 L271.124 -230.618 L273.236 -232.671 L275.073 -234.109 L277.745 -236.164 L280.124 -237.6 L282.255 -238.888 L286.764 -240.968 L287.128 -241.091 L291.273 -242.527 L295.782 -243.588 L300.291 -244.201 L304.8 -244.401 L309.309 -244.204 L313.818 -243.614 L318.327 -242.622 L322.836 -241.213 L323.149 -241.091 L327.345 -239.383 L330.881 -237.6 L331.855 -237.08 L336.364 -234.26 L336.578 -234.109 L340.873 -230.839 L341.135 -230.618 L344.948 -227.127 L345.382 -226.689 L348.21 -223.636 L349.891 -221.593 L351.03 -220.145 L353.477 -216.655 L354.4 -215.162 L355.611 -213.164 L357.461 -209.673 L358.909 -206.471 L359.04 -206.182 L360.416 -202.691 L361.559 -199.2 L362.486 -195.709 L363.212 -192.218 L363.418 -190.883 L363.762 -188.727 L364.132 -185.236 L364.315 -181.745 L364.315 -178.255 L364.132 -174.764 L363.762 -171.273 L363.418 -169.117 L363.212 -167.782 L362.486 -164.291 L361.559 -160.8 L360.416 -157.309 L359.04 -153.818 L358.909 -153.529 L357.461 -150.327 L355.611 -146.836 L354.4 -144.838 L353.477 -143.345 L351.03 -139.855 L349.891 -138.407 L348.21 -136.364 L345.382 -133.311 L344.948 -132.873 L341.135 -129.382 L340.873 -129.161 L336.578 -125.891 L336.364 -125.74 L331.855 -122.92 L330.881 -122.4 L327.345 -120.617 L323.149 -118.909 L322.836 -118.787 L318.327 -117.378 L313.818 -116.386 L309.309 -115.796 L304.8 -115.599 L300.291 -115.799 L295.782 -116.412 L291.273 -117.473 L287.128 -118.909 L286.764 -119.032 L282.255 -121.112 L280.124 -122.4 L277.745 -123.836 L275.073 -125.891 L273.236 -127.329 L271.124 -129.382 L268.727 -131.808 L267.86 -132.873 L265.161 -136.364 L264.218 -137.662 L262.878 -139.855 L260.917 -143.345 L259.709 -145.713 L259.216 -146.836 L257.817 -150.327 L256.591 -153.818 L255.533 -157.309 L255.2 -158.582 L254.685 -160.8" id="Cd_0_b73f116f69"/>
    </defs>
    <g clip-path="url(#p5bee155178)">
     <use style="fill:none;stroke:#000000;" x="0.0" xlink:href="#Cd_0_b73f116f69" y="360.0"/>
    </g>
   </g>
   <g id="LineCollection_7">
    <defs>
     <path d=" M268.562 -171.273 L268.013 -174.764 L267.739 -178.255 L267.739 -181.745 L268.013 -185.236 L268.562 -188.727 L268.727 -189.436 L269.516 -192.218 L270.833 -195.709 L272.48 -199.2 L273.236 -200.555 L274.751 -202.691 L277.599 -206.182 L277.745 -206.344 L281.755 -209.673 L282.255 -210.056 L286.764 -212.49 L288.779 -213.164 L291.273 -213.967 L295.782 -214.626 L300.291 -214.55 L304.8 -213.755 L306.604 -213.164 L309.309 -212.184 L313.818 -209.776 L313.97 -209.673 L318.327 -206.265 L318.416 -206.182 L321.628 -202.691 L322.836 -201.099 L324.121 -199.2 L326.034 -195.709 L327.345 -192.609 L327.5 -192.218 L328.532 -188.727 L329.206 -185.236 L329.539 -181.745 L329.539 -178.255 L329.206 -174.764 L328.532 -171.273 L327.5 -167.782 L327.345 -167.391 L326.034 -164.291 L324.121 -160.8 L322.836 -158.901 L321.628 -157.309 L318.416 -153.818 L318.327 -153.735 L313.97 -150.327 L313.818 -150.224 L309.309 -147.816 L306.604 -146.836 L304.8 -146.245 L300.291 -145.45 L295.782 -145.374 L291.273 -146.033 L288.779 -146.836 L286.764 -147.51 L282.255 -149.944 L281.755 -150.327 L277.745 -153.656 L277.599 -153.818 L274.751 -157.309 L273.236 -159.445 L272.48 -160.8 L270.833 -164.291 L269.516 -167.782 L268.727 -170.564 L268.562 -171.273" id="Ce_0_df462c7796"/>
    </defs>
    <g clip-path="url(#p5bee155178)">
     <use style="fill:none;stroke:#000000;" x="0.0" xlink:href="#Ce_0_df462c7796" y="360.0"/>
    </g>
   </g>
   <g id="matplotlib.axis_1"/>
   <g id="matplotlib.axis_2"/>
   <g id="patch_3">
    <path d=" M7.2 7.2 L453.6 7.2" style="fill:none;stroke:#000000;"/>
   </g>
   <g id="patch_4">
    <path d=" M453.6 352.8 L453.6 7.2" style="fill:none;stroke:#000000;"/>
   </g>
   <g id="patch_5">
    <path d=" M7.2 352.8 L453.6 352.8" style="fill:none;stroke:#000000;"/>
   </g>
   <g id="patch_6">
    <path d=" M7.2 352.8 L7.2 7.2" style="fill:none;stroke:#000000;"/>
   </g>
   <g id="text_1">
    <!-- - -->
    <defs>
     <path d=" M4.89062 31.3906 L31.2031 31.3906 L31.2031 23.3906 L4.89062 23.3906 z " id="BitstreamVeraSans-Roman-2d"/>
    </defs>
    <g transform="translate(16.128 344.16)scale(0.15 -0.15)">
     <use xlink:href="#BitstreamVeraSans-Roman-2d"/>
    </g>
   </g>
   <g id="text_2">
    <!-- + -->
    <defs>
     <path d=" M46 62.7031 L46 35.5 L73.1875 35.5 L73.1875 27.2031 L46 27.2031 L46 0 L37.7969 0 L37.7969 27.2031 L10.5938 27.2031 L10.5938 35.5 L37.7969 35.5 L37.7969 62.7031 z " id="BitstreamVeraSans-Roman-2b"/>
    </defs>
    <g transform="translate(435.744 344.16)scale(0.17 -0.17)">
     <use xlink:href="#BitstreamVeraSans-Roman-2b"/>
    </g>
   </g>
  </g>
 </g>
 <defs>
  <clipPath id="p5bee155178">
   <rect height="345.6" width="446.4" x="7.2" y="7.2"/>
  </clipPath>
 </defs>
</svg>