<?xml version="1.0" encoding="UTF-8" standalone="no"?>
<!-- Created with Inkscape (http://www.inkscape.org/) -->
<svg xmlns:dc="http://purl.org/dc/elements/1.1/" xmlns:cc="http://web.resource.org/cc/" xmlns:rdf="http://www.w3.org/1999/02/22-rdf-syntax-ns#" xmlns:svg="http://www.w3.org/2000/svg" xmlns="http://www.w3.org/2000/svg" xmlns:xlink="http://www.w3.org/1999/xlink" xmlns:sodipodi="http://sodipodi.sourceforge.net/DTD/sodipodi-0.dtd" xmlns:inkscape="http://www.inkscape.org/namespaces/inkscape" width="453.57339" height="435.56607" id="svg12034" sodipodi:version="0.32" inkscape:version="0.45.1" version="1.0" sodipodi:docbase="C:\Documents and Settings\Sharayanan\Bureau" sodipodi:docname="Electric dipole field lines.svg" inkscape:output_extension="org.inkscape.output.svg.inkscape">
  <defs id="defs12036">
    <linearGradient id="linearGradient20069">
      <stop id="stop20071" offset="0" style="stop-color:#624c00;stop-opacity:1;"/>
      <stop id="stop20073" offset="1" style="stop-color:#000000;stop-opacity:0;"/>
    </linearGradient>
    <linearGradient id="linearGradient19084">
      <stop style="stop-color:#0b0062;stop-opacity:1;" offset="0" id="stop19086"/>
      <stop style="stop-color:#000000;stop-opacity:0;" offset="1" id="stop19088"/>
    </linearGradient>
    <linearGradient id="linearGradient18039">
      <stop id="stop18041" offset="0" style="stop-color:#ffefc1;stop-opacity:1;"/>
      <stop style="stop-color:#f3a100;stop-opacity:1;" offset="0.35714287" id="stop18043"/>
      <stop id="stop18045" offset="0.81632656" style="stop-color:#d48d00;stop-opacity:1;"/>
      <stop id="stop18047" offset="1" style="stop-color:#9b7a00;stop-opacity:1;"/>
    </linearGradient>
    <linearGradient id="linearGradient17054">
      <stop style="stop-color:#9898ff;stop-opacity:1;" offset="0" id="stop17056"/>
      <stop id="stop17062" offset="0.35714287" style="stop-color:#4c51d7;stop-opacity:1;"/>
      <stop style="stop-color:#262dc3;stop-opacity:1;" offset="0.81632656" id="stop17064"/>
      <stop style="stop-color:#000aaf;stop-opacity:1;" offset="1" id="stop17058"/>
    </linearGradient>
    <radialGradient inkscape:collect="always" xlink:href="#linearGradient17054" id="radialGradient17060" cx="-183.01767" cy="102.2981" fx="-183.01767" fy="102.2981" r="47.353821" gradientUnits="userSpaceOnUse"/>
    <radialGradient inkscape:collect="always" xlink:href="#linearGradient18039" id="radialGradient17068" gradientUnits="userSpaceOnUse" cx="-183.01767" cy="102.2981" fx="-183.01767" fy="102.2981" r="47.353821"/>
    <linearGradient inkscape:collect="always" xlink:href="#linearGradient19084" id="linearGradient19092" x1="-174.23654" y1="91.791588" x2="-170.63655" y2="93.743469" gradientUnits="userSpaceOnUse"/>
    <linearGradient inkscape:collect="always" xlink:href="#linearGradient20069" id="linearGradient19098" gradientUnits="userSpaceOnUse" x1="-174.5072" y1="92.580658" x2="-172.05751" y2="94.314285"/>
    <linearGradient inkscape:collect="always" xlink:href="#linearGradient19084" id="linearGradient21121" gradientUnits="userSpaceOnUse" x1="-174.23654" y1="91.791588" x2="-170.63655" y2="93.743469"/>
    <linearGradient inkscape:collect="always" xlink:href="#linearGradient20069" id="linearGradient21123" gradientUnits="userSpaceOnUse" x1="-174.5072" y1="92.580658" x2="-172.05751" y2="94.314285"/>
  </defs>
  <sodipodi:namedview id="base" pagecolor="#ffffff" bordercolor="#666666" borderopacity="1.0" inkscape:pageopacity="0.0" inkscape:pageshadow="2" inkscape:zoom="1.2512453" inkscape:cx="226.7867" inkscape:cy="217.78304" inkscape:document-units="px" inkscape:current-layer="layer1" inkscape:window-width="1280" inkscape:window-height="747" inkscape:window-x="-4" inkscape:window-y="-4"/>
  <metadata id="metadata12039">
    <rdf:RDF>
      <cc:Work rdf:about="">
        <dc:format>image/svg+xml</dc:format>
        <dc:type rdf:resource="http://purl.org/dc/dcmitype/StillImage"/>
      </cc:Work>
    </rdf:RDF>
  </metadata>
  <g inkscape:label="Calque 1" inkscape:groupmode="layer" id="layer1" transform="translate(-156.21927,-159.39429)">
    <path style="fill:none;fill-rule:evenodd;stroke:#ff0000;stroke-width:2;stroke-linecap:butt;stroke-linejoin:miter;stroke-miterlimit:4;stroke-opacity:1" d="M 303.85137,376.37227 C 303.85137,376.37227 348.31743,359.43282 381.13761,359.43282 C 413.9578,359.43282 457.36514,377.96035 457.36514,377.96035" id="path12076"/>
    <path style="fill:none;fill-rule:evenodd;stroke:#ff0000;stroke-width:2;stroke-linecap:butt;stroke-linejoin:miter;stroke-miterlimit:4;stroke-opacity:1" d="M 303.85137,376.37227 C 303.85137,376.37227 348.31743,341.43465 381.13761,341.43465 C 413.9578,341.43465 457.36514,377.96035 457.36514,377.96035" id="path13047"/>
    <path style="fill:none;fill-rule:evenodd;stroke:#ff0000;stroke-width:2;stroke-linecap:butt;stroke-linejoin:miter;stroke-miterlimit:4;stroke-opacity:1" d="M 303.85137,376.37227 C 303.85137,376.37227 333.49541,315.49612 381.13761,315.49612 C 425.07431,315.49612 457.36514,377.96035 457.36514,377.96035" id="path13049"/>
    <path style="fill:none;fill-rule:evenodd;stroke:#ff0000;stroke-width:2;stroke-linecap:butt;stroke-linejoin:miter;stroke-miterlimit:4;stroke-opacity:1" d="M 303.85137,376.37227 C 303.85137,376.37227 328.73119,295.90988 382.72568,297.49795 C 433.52163,299.00675 457.36514,377.96035 457.36514,377.96035" id="path13051"/>
    <path style="fill:none;fill-rule:evenodd;stroke:#ff0000;stroke-width:2;stroke-linecap:butt;stroke-linejoin:miter;stroke-miterlimit:4;stroke-opacity:1" d="M 303.85137,376.37227 C 303.85137,376.37227 315.47395,273.75109 380.60825,273.67685 C 449.93172,273.59718 457.36514,377.96035 457.36514,377.96035" id="path13053"/>
    <path style="fill:none;fill-rule:evenodd;stroke:#ff0000;stroke-width:2;stroke-linecap:butt;stroke-linejoin:miter;stroke-miterlimit:4;stroke-opacity:1" d="M 303.85137,376.37227 C 303.85137,376.37227 303.26544,259.92578 379.54953,256.7374 C 458.29281,253.42411 457.36514,377.96035 457.36514,377.96035" id="path13055"/>
    <path style="fill:none;fill-rule:evenodd;stroke:#ff0000;stroke-width:2;stroke-linecap:butt;stroke-linejoin:miter;stroke-miterlimit:4;stroke-opacity:1" d="M 303.85137,376.37227 C 303.85137,376.37227 288.72947,233.44566 379.02017,233.44566 C 476.16138,233.44566 457.36514,377.96035 457.36514,377.96035" id="path13057"/>
    <path style="fill:none;fill-rule:evenodd;stroke:#ff0000;stroke-width:2;stroke-linecap:butt;stroke-linejoin:miter;stroke-miterlimit:4;stroke-opacity:1" d="M 457.36514,377.43099 C 457.36514,377.43099 565.88349,350.9631 597.1156,338.78787" id="path14033"/>
    <path style="fill:none;fill-rule:evenodd;stroke:#ff0000;stroke-width:2;stroke-linecap:butt;stroke-linejoin:miter;stroke-miterlimit:4;stroke-opacity:1" d="M 457.36514,377.43099 C 457.36514,377.43099 563.2367,333.49429 598.17432,307.55576" id="path15004"/>
    <path style="fill:none;fill-rule:evenodd;stroke:#ff0000;stroke-width:2;stroke-linecap:butt;stroke-linejoin:miter;stroke-miterlimit:4;stroke-opacity:1" d="M 457.36514,377.43099 C 457.36514,377.43099 549.4734,329.78879 598.17432,283.2053" id="path15006"/>
    <path style="fill:none;fill-rule:evenodd;stroke:#ff0000;stroke-width:2;stroke-linecap:butt;stroke-linejoin:miter;stroke-miterlimit:4;stroke-opacity:1" d="M 457.36514,377.43099 C 457.36514,377.43099 554.23762,318.67228 598.70368,250.91447" id="path15008"/>
    <path style="fill:none;fill-rule:evenodd;stroke:#ff0000;stroke-width:2;stroke-linecap:butt;stroke-linejoin:miter;stroke-miterlimit:4;stroke-opacity:1" d="M 457.36514,377.43099 C 457.36514,377.43099 555.29634,304.37962 597.64496,206.44841" id="path15010"/>
    <path style="fill:none;fill-rule:evenodd;stroke:#ff0000;stroke-width:2;stroke-linecap:butt;stroke-linejoin:miter;stroke-miterlimit:4;stroke-opacity:1" d="M 457.36514,377.43099 C 457.36514,377.43099 555.29634,304.37962 584.41102,161.453" id="path15012"/>
    <path style="fill:none;fill-rule:evenodd;stroke:#ff0000;stroke-width:2;stroke-linecap:butt;stroke-linejoin:miter;stroke-miterlimit:4;stroke-opacity:1" d="M 457.36514,377.43099 C 457.36514,377.43099 546.29726,296.96861 550.53212,161.98236" id="path15014"/>
    <path style="fill:none;fill-rule:evenodd;stroke:#ff0000;stroke-width:2;stroke-linecap:butt;stroke-linejoin:miter;stroke-miterlimit:4;stroke-opacity:1" d="M 457.36514,377.43099 C 457.36514,377.43099 541.00368,282.14659 518.24129,163.04108" id="path15016"/>
    <path style="fill:none;fill-rule:evenodd;stroke:#ff0000;stroke-width:2;stroke-linecap:butt;stroke-linejoin:miter;stroke-miterlimit:4;stroke-opacity:1" d="M 457.36514,377.43099 C 457.36514,377.43099 535.18074,269.442 479.06881,161.98236" id="path15018"/>
    <path style="fill:none;fill-rule:evenodd;stroke:#ff0000;stroke-width:2;stroke-linecap:butt;stroke-linejoin:miter;stroke-miterlimit:4;stroke-opacity:1" d="M 457.36514,377.43099 C 457.36514,377.43099 532.00459,242.97411 432.48532,160.39429" id="path15020"/>
    <path style="fill:none;fill-rule:evenodd;stroke:#ff0000;stroke-width:2;stroke-linecap:butt;stroke-linejoin:miter;stroke-miterlimit:4;stroke-opacity:1" d="M 303.85137,376.37227 C 265.73761,269.44199 310.9605,178.92181 381.1376,178.92181 C 478.81359,178.92181 486.47982,309.67319 457.36514,377.96035" id="path15026"/>
    <path style="fill:none;fill-rule:evenodd;stroke:#ff0000;stroke-width:2;stroke-linecap:butt;stroke-linejoin:miter;stroke-miterlimit:4;stroke-opacity:1" d="M 303.85137,376.37227 C 278.4422,269.44199 329.48802,208.56585 381.1376,208.56585 C 440.25585,208.56585 484.89175,276.32365 457.36514,377.96035" id="path15028"/>
    <path transform="matrix(-1,0,0,1,761.189,0)" style="fill:none;fill-rule:evenodd;stroke:#ff0000;stroke-width:2;stroke-linecap:butt;stroke-linejoin:miter;stroke-miterlimit:4;stroke-opacity:1" d="M 457.36514,377.43099 C 457.36514,377.43099 565.88349,350.9631 597.1156,338.78787" id="path15030"/>
    <path transform="matrix(-1,0,0,1,761.189,0)" style="fill:none;fill-rule:evenodd;stroke:#ff0000;stroke-width:2;stroke-linecap:butt;stroke-linejoin:miter;stroke-miterlimit:4;stroke-opacity:1" d="M 457.36514,377.43099 C 457.36514,377.43099 563.2367,333.49429 598.17432,307.55576" id="path15032"/>
    <path transform="matrix(-1,0,0,1,761.189,0)" style="fill:none;fill-rule:evenodd;stroke:#ff0000;stroke-width:2;stroke-linecap:butt;stroke-linejoin:miter;stroke-miterlimit:4;stroke-opacity:1" d="M 457.36514,377.43099 C 457.36514,377.43099 549.4734,329.78879 598.17432,283.2053" id="path15034"/>
    <path transform="matrix(-1,0,0,1,761.189,0)" style="fill:none;fill-rule:evenodd;stroke:#ff0000;stroke-width:2;stroke-linecap:butt;stroke-linejoin:miter;stroke-miterlimit:4;stroke-opacity:1" d="M 457.36514,377.43099 C 457.36514,377.43099 554.23762,318.67228 598.70368,250.91447" id="path15036"/>
    <path transform="matrix(-1,0,0,1,761.189,0)" style="fill:none;fill-rule:evenodd;stroke:#ff0000;stroke-width:2;stroke-linecap:butt;stroke-linejoin:miter;stroke-miterlimit:4;stroke-opacity:1" d="M 457.36514,377.43099 C 457.36514,377.43099 555.29634,304.37962 597.64496,206.44841" id="path15038"/>
    <path transform="matrix(-1,0,0,1,761.189,0)" style="fill:none;fill-rule:evenodd;stroke:#ff0000;stroke-width:2;stroke-linecap:butt;stroke-linejoin:miter;stroke-miterlimit:4;stroke-opacity:1" d="M 457.36514,377.43099 C 457.36514,377.43099 555.29634,304.37962 584.41102,161.453" id="path15040"/>
    <path transform="matrix(-1,0,0,1,761.189,0)" style="fill:none;fill-rule:evenodd;stroke:#ff0000;stroke-width:2;stroke-linecap:butt;stroke-linejoin:miter;stroke-miterlimit:4;stroke-opacity:1" d="M 457.36514,377.43099 C 457.36514,377.43099 546.29726,296.96861 550.53212,161.98236" id="path15042"/>
    <path transform="matrix(-1,0,0,1,761.189,0)" style="fill:none;fill-rule:evenodd;stroke:#ff0000;stroke-width:2;stroke-linecap:butt;stroke-linejoin:miter;stroke-miterlimit:4;stroke-opacity:1" d="M 457.36514,377.43099 C 457.36514,377.43099 541.00368,282.14659 518.24129,163.04108" id="path15044"/>
    <path transform="matrix(-1,0,0,1,761.189,0)" style="fill:none;fill-rule:evenodd;stroke:#ff0000;stroke-width:2;stroke-linecap:butt;stroke-linejoin:miter;stroke-miterlimit:4;stroke-opacity:1" d="M 457.36514,377.43099 C 457.36514,377.43099 535.18074,269.442 479.06881,161.98236" id="path15046"/>
    <path transform="matrix(-1,0,0,1,761.189,0)" style="fill:none;fill-rule:evenodd;stroke:#ff0000;stroke-width:2;stroke-linecap:butt;stroke-linejoin:miter;stroke-miterlimit:4;stroke-opacity:1" d="M 457.36514,377.43099 C 457.36514,377.43099 532.00459,242.97411 432.48532,160.39429" id="path15048"/>
    <path transform="matrix(1,0,0,-1,0,754.35464)" style="fill:none;fill-rule:evenodd;stroke:#ff0000;stroke-width:2;stroke-linecap:butt;stroke-linejoin:miter;stroke-miterlimit:4;stroke-opacity:1" d="M 303.85137,376.37227 C 303.85137,376.37227 348.31743,359.43282 381.13761,359.43282 C 413.9578,359.43282 457.36514,377.96035 457.36514,377.96035" id="path15050"/>
    <path transform="matrix(1,0,0,-1,0,754.35464)" style="fill:none;fill-rule:evenodd;stroke:#ff0000;stroke-width:2;stroke-linecap:butt;stroke-linejoin:miter;stroke-miterlimit:4;stroke-opacity:1" d="M 303.85137,376.37227 C 303.85137,376.37227 348.31743,341.43465 381.13761,341.43465 C 413.9578,341.43465 457.36514,377.96035 457.36514,377.96035" id="path15052"/>
    <path transform="matrix(1,0,0,-1,0,754.35464)" style="fill:none;fill-rule:evenodd;stroke:#ff0000;stroke-width:2;stroke-linecap:butt;stroke-linejoin:miter;stroke-miterlimit:4;stroke-opacity:1" d="M 303.85137,376.37227 C 303.85137,376.37227 333.49541,315.49612 381.13761,315.49612 C 425.07431,315.49612 457.36514,377.96035 457.36514,377.96035" id="path15054"/>
    <path transform="matrix(1,0,0,-1,0,754.35464)" style="fill:none;fill-rule:evenodd;stroke:#ff0000;stroke-width:2;stroke-linecap:butt;stroke-linejoin:miter;stroke-miterlimit:4;stroke-opacity:1" d="M 303.85137,376.37227 C 303.85137,376.37227 328.73119,295.90988 382.72568,297.49795 C 433.52163,299.00675 457.36514,377.96035 457.36514,377.96035" id="path15056"/>
    <path transform="matrix(1,0,0,-1,0,754.35464)" style="fill:none;fill-rule:evenodd;stroke:#ff0000;stroke-width:2;stroke-linecap:butt;stroke-linejoin:miter;stroke-miterlimit:4;stroke-opacity:1" d="M 303.85137,376.37227 C 303.85137,376.37227 315.47395,273.75109 380.60825,273.67685 C 449.93172,273.59718 457.36514,377.96035 457.36514,377.96035" id="path15058"/>
    <path transform="matrix(1,0,0,-1,0,754.35464)" style="fill:none;fill-rule:evenodd;stroke:#ff0000;stroke-width:2;stroke-linecap:butt;stroke-linejoin:miter;stroke-miterlimit:4;stroke-opacity:1" d="M 303.85137,376.37227 C 303.85137,376.37227 303.26544,259.92578 379.54953,256.7374 C 458.29281,253.42411 457.36514,377.96035 457.36514,377.96035" id="path15060"/>
    <path transform="matrix(1,0,0,-1,0,754.35464)" style="fill:none;fill-rule:evenodd;stroke:#ff0000;stroke-width:2;stroke-linecap:butt;stroke-linejoin:miter;stroke-miterlimit:4;stroke-opacity:1" d="M 303.85137,376.37227 C 303.85137,376.37227 288.72947,233.44566 379.02017,233.44566 C 476.16138,233.44566 457.36514,377.96035 457.36514,377.96035" id="path15062"/>
    <path transform="matrix(1,0,0,-1,0,754.35464)" style="fill:none;fill-rule:evenodd;stroke:#ff0000;stroke-width:2;stroke-linecap:butt;stroke-linejoin:miter;stroke-miterlimit:4;stroke-opacity:1" d="M 457.36514,377.43099 C 457.36514,377.43099 565.88349,350.9631 597.1156,338.78787" id="path15064"/>
    <path transform="matrix(1,0,0,-1,0,754.35464)" style="fill:none;fill-rule:evenodd;stroke:#ff0000;stroke-width:2;stroke-linecap:butt;stroke-linejoin:miter;stroke-miterlimit:4;stroke-opacity:1" d="M 457.36514,377.43099 C 457.36514,377.43099 563.2367,333.49429 598.17432,307.55576" id="path15066"/>
    <path transform="matrix(1,0,0,-1,0,754.35464)" style="fill:none;fill-rule:evenodd;stroke:#ff0000;stroke-width:2;stroke-linecap:butt;stroke-linejoin:miter;stroke-miterlimit:4;stroke-opacity:1" d="M 457.36514,377.43099 C 457.36514,377.43099 549.4734,329.78879 598.17432,283.2053" id="path15068"/>
    <path transform="matrix(1,0,0,-1,0,754.35464)" style="fill:none;fill-rule:evenodd;stroke:#ff0000;stroke-width:2;stroke-linecap:butt;stroke-linejoin:miter;stroke-miterlimit:4;stroke-opacity:1" d="M 457.36514,377.43099 C 457.36514,377.43099 554.23762,318.67228 598.70368,250.91447" id="path15070"/>
    <path transform="matrix(1,0,0,-1,0,754.35464)" style="fill:none;fill-rule:evenodd;stroke:#ff0000;stroke-width:2;stroke-linecap:butt;stroke-linejoin:miter;stroke-miterlimit:4;stroke-opacity:1" d="M 457.36514,377.43099 C 457.36514,377.43099 555.29634,304.37962 597.64496,206.44841" id="path15072"/>
    <path transform="matrix(1,0,0,-1,0,754.35464)" style="fill:none;fill-rule:evenodd;stroke:#ff0000;stroke-width:2;stroke-linecap:butt;stroke-linejoin:miter;stroke-miterlimit:4;stroke-opacity:1" d="M 457.36514,377.43099 C 457.36514,377.43099 555.29634,304.37962 584.41102,161.453" id="path15074"/>
    <path transform="matrix(1,0,0,-1,0,754.35464)" style="fill:none;fill-rule:evenodd;stroke:#ff0000;stroke-width:2;stroke-linecap:butt;stroke-linejoin:miter;stroke-miterlimit:4;stroke-opacity:1" d="M 457.36514,377.43099 C 457.36514,377.43099 546.29726,296.96861 550.53212,161.98236" id="path15076"/>
    <path transform="matrix(1,0,0,-1,0,754.35464)" style="fill:none;fill-rule:evenodd;stroke:#ff0000;stroke-width:2;stroke-linecap:butt;stroke-linejoin:miter;stroke-miterlimit:4;stroke-opacity:1" d="M 457.36514,377.43099 C 457.36514,377.43099 541.00368,282.14659 518.24129,163.04108" id="path15078"/>
    <path transform="matrix(1,0,0,-1,0,754.35464)" style="fill:none;fill-rule:evenodd;stroke:#ff0000;stroke-width:2;stroke-linecap:butt;stroke-linejoin:miter;stroke-miterlimit:4;stroke-opacity:1" d="M 457.36514,377.43099 C 457.36514,377.43099 535.18074,269.442 479.06881,161.98236" id="path15080"/>
    <path transform="matrix(1,0,0,-1,0,754.35464)" style="fill:none;fill-rule:evenodd;stroke:#ff0000;stroke-width:2;stroke-linecap:butt;stroke-linejoin:miter;stroke-miterlimit:4;stroke-opacity:1" d="M 457.36514,377.43099 C 457.36514,377.43099 532.00459,242.97411 432.48532,160.39429" id="path15082"/>
    <path transform="matrix(1,0,0,-1,0,754.35464)" style="fill:none;fill-rule:evenodd;stroke:#ff0000;stroke-width:2;stroke-linecap:butt;stroke-linejoin:miter;stroke-miterlimit:4;stroke-opacity:1" d="M 303.85137,376.37227 C 265.73761,269.44199 310.9605,178.92181 381.1376,178.92181 C 478.81359,178.92181 486.47982,309.67319 457.36514,377.96035" id="path15084"/>
    <path transform="matrix(1,0,0,-1,0,754.35464)" style="fill:none;fill-rule:evenodd;stroke:#ff0000;stroke-width:2;stroke-linecap:butt;stroke-linejoin:miter;stroke-miterlimit:4;stroke-opacity:1" d="M 303.85137,376.37227 C 278.4422,269.44199 329.48802,208.56585 381.1376,208.56585 C 440.25585,208.56585 484.89175,276.32365 457.36514,377.96035" id="path15086"/>
    <path transform="matrix(-1,0,0,-1,761.189,754.35464)" style="fill:none;fill-rule:evenodd;stroke:#ff0000;stroke-width:2;stroke-linecap:butt;stroke-linejoin:miter;stroke-miterlimit:4;stroke-opacity:1" d="M 457.36514,377.43099 C 457.36514,377.43099 565.88349,350.9631 597.1156,338.78787" id="path15088"/>
    <path transform="matrix(-1,0,0,-1,761.189,754.35464)" style="fill:none;fill-rule:evenodd;stroke:#ff0000;stroke-width:2;stroke-linecap:butt;stroke-linejoin:miter;stroke-miterlimit:4;stroke-opacity:1" d="M 457.36514,377.43099 C 457.36514,377.43099 563.2367,333.49429 598.17432,307.55576" id="path15090"/>
    <path transform="matrix(-1,0,0,-1,761.189,754.35464)" style="fill:none;fill-rule:evenodd;stroke:#ff0000;stroke-width:2;stroke-linecap:butt;stroke-linejoin:miter;stroke-miterlimit:4;stroke-opacity:1" d="M 457.36514,377.43099 C 457.36514,377.43099 549.4734,329.78879 598.17432,283.2053" id="path15092"/>
    <path transform="matrix(-1,0,0,-1,761.189,754.35464)" style="fill:none;fill-rule:evenodd;stroke:#ff0000;stroke-width:2;stroke-linecap:butt;stroke-linejoin:miter;stroke-miterlimit:4;stroke-opacity:1" d="M 457.36514,377.43099 C 457.36514,377.43099 554.23762,318.67228 598.70368,250.91447" id="path15094"/>
    <path transform="matrix(-1,0,0,-1,761.189,754.35464)" style="fill:none;fill-rule:evenodd;stroke:#ff0000;stroke-width:2;stroke-linecap:butt;stroke-linejoin:miter;stroke-miterlimit:4;stroke-opacity:1" d="M 457.36514,377.43099 C 457.36514,377.43099 555.29634,304.37962 597.64496,206.44841" id="path15096"/>
    <path transform="matrix(-1,0,0,-1,761.189,754.35464)" style="fill:none;fill-rule:evenodd;stroke:#ff0000;stroke-width:2;stroke-linecap:butt;stroke-linejoin:miter;stroke-miterlimit:4;stroke-opacity:1" d="M 457.36514,377.43099 C 457.36514,377.43099 555.29634,304.37962 584.41102,161.453" id="path15098"/>
    <path transform="matrix(-1,0,0,-1,761.189,754.35464)" style="fill:none;fill-rule:evenodd;stroke:#ff0000;stroke-width:2;stroke-linecap:butt;stroke-linejoin:miter;stroke-miterlimit:4;stroke-opacity:1" d="M 457.36514,377.43099 C 457.36514,377.43099 546.29726,296.96861 550.53212,161.98236" id="path15100"/>
    <path transform="matrix(-1,0,0,-1,761.189,754.35464)" style="fill:none;fill-rule:evenodd;stroke:#ff0000;stroke-width:2;stroke-linecap:butt;stroke-linejoin:miter;stroke-miterlimit:4;stroke-opacity:1" d="M 457.36514,377.43099 C 457.36514,377.43099 541.00368,282.14659 518.24129,163.04108" id="path15102"/>
    <path transform="matrix(-1,0,0,-1,761.189,754.35464)" style="fill:none;fill-rule:evenodd;stroke:#ff0000;stroke-width:2;stroke-linecap:butt;stroke-linejoin:miter;stroke-miterlimit:4;stroke-opacity:1" d="M 457.36514,377.43099 C 457.36514,377.43099 535.18074,269.442 479.06881,161.98236" id="path15104"/>
    <path transform="matrix(-1,0,0,-1,761.189,754.35464)" style="fill:none;fill-rule:evenodd;stroke:#ff0000;stroke-width:2;stroke-linecap:butt;stroke-linejoin:miter;stroke-miterlimit:4;stroke-opacity:1" d="M 457.36514,377.43099 C 457.36514,377.43099 532.00459,242.97411 432.48532,160.39429" id="path15106"/>
    <path transform="translate(0,0.7696188)" style="fill:none;fill-rule:evenodd;stroke:#ff0000;stroke-width:2;stroke-linecap:butt;stroke-linejoin:miter;stroke-miterlimit:4;stroke-opacity:1" d="M 302.79266,376.37227 L 157.21927,376.37227" id="path15108"/>
    <path transform="translate(306,0.7696188)" style="fill:none;fill-rule:evenodd;stroke:#ff0000;stroke-width:2;stroke-linecap:butt;stroke-linejoin:miter;stroke-miterlimit:4;stroke-opacity:1" d="M 302.79266,376.37227 L 157.21927,376.37227" id="path16079"/>
    <path transform="matrix(0.223645,0,0,0.223645,339.64023,351.79654)" style="fill:url(#radialGradient17060);fill-opacity:1;fill-rule:evenodd;stroke:#00004d;stroke-width:2;stroke-linecap:round;stroke-linejoin:miter;stroke-miterlimit:4;stroke-opacity:1" d="M -174.22643,67.133125 C -148.54641,67.133125 -127.8726,87.806929 -127.8726,113.48695 C -127.8726,139.16696 -148.54641,159.84077 -174.22643,159.84077 C -199.90644,159.84077 -220.58025,139.16696 -220.58025,113.48695 C -220.58025,87.806929 -199.90644,67.133125 -174.22643,67.133125 z " id="rect16083"/>
    <path transform="matrix(0.223645,0,0,0.223645,499.84003,351.59674)" style="fill:url(#radialGradient17068);fill-opacity:1;fill-rule:evenodd;stroke:#321a00;stroke-width:2;stroke-linecap:round;stroke-linejoin:miter;stroke-miterlimit:4;stroke-opacity:1" d="M -174.22643,67.133125 C -148.54641,67.133125 -127.8726,87.806929 -127.8726,113.48695 C -127.8726,139.16696 -148.54641,159.84077 -174.22643,159.84077 C -199.90644,159.84077 -220.58025,139.16696 -220.58025,113.48695 C -220.58025,87.806929 -199.90644,67.133125 -174.22643,67.133125 z " id="rect17066"/>
    <path transform="matrix(2.645325,0,0,2.645325,756.9792,130.67846)" style="font-size:12px;font-style:normal;font-weight:normal;fill:url(#linearGradient21121);fill-opacity:1;stroke:none;stroke-width:1px;stroke-linecap:butt;stroke-linejoin:miter;stroke-opacity:1;font-family:Trebuchet MS" d="M -172.24475,92.566948 L -170.19983,92.566948 L -170.19983,93.39312 L -172.24475,93.39312 L -172.24475,95.414604 L -173.07092,95.414604 L -173.07092,93.39312 L -175.10999,93.39312 L -175.10999,92.566948 L -173.07092,92.566948 L -173.07092,90.557182 L -172.24475,90.557182 L -172.24475,92.566948 z " id="text18111"/>
    <path transform="matrix(3.9381031,0,0,2.645325,1144.8331,130.47866)" style="font-size:12px;font-style:normal;font-weight:normal;fill:url(#linearGradient21123);fill-opacity:1;stroke:none;stroke-width:1px;stroke-linecap:butt;stroke-linejoin:miter;stroke-opacity:1;font-family:Trebuchet MS" d="M -174.89319,93.738823 L -174.89319,92.713432 L -172.38538,92.713432 L -172.38538,93.738823 L -174.89319,93.738823 z " id="text19094"/>
    <path transform="matrix(8.2880845e-2,0,0,8.2880845e-2,394.88849,353.0194)" style="fill:#ff0000;fill-opacity:1;fill-rule:evenodd;stroke:none;stroke-width:2;stroke-linecap:round;stroke-linejoin:miter;stroke-miterlimit:4;stroke-opacity:1" d="M -103.00194,79.920387 L -183.46493,126.37572 L -183.46493,33.465057 L -103.00194,79.920387 z " id="path20077"/>
    <path id="path21065" d="M -103.00194,79.920387 L -183.46493,126.37572 L -183.46493,33.465057 L -103.00194,79.920387 z " style="fill:#ff0000;fill-opacity:1;fill-rule:evenodd;stroke:none;stroke-width:2;stroke-linecap:round;stroke-linejoin:miter;stroke-miterlimit:4;stroke-opacity:1" transform="matrix(8.2880845e-2,0,0,8.2880845e-2,394.88849,335.0194)"/>
    <path transform="matrix(8.2880845e-2,0,0,8.2880845e-2,394.88849,309.0194)" style="fill:#ff0000;fill-opacity:1;fill-rule:evenodd;stroke:none;stroke-width:2;stroke-linecap:round;stroke-linejoin:miter;stroke-miterlimit:4;stroke-opacity:1" d="M -103.00194,79.920387 L -183.46493,126.37572 L -183.46493,33.465057 L -103.00194,79.920387 z " id="path21067"/>
    <path id="path21069" d="M -103.00194,79.920387 L -183.46493,126.37572 L -183.46493,33.465057 L -103.00194,79.920387 z " style="fill:#ff0000;fill-opacity:1;fill-rule:evenodd;stroke:none;stroke-width:2;stroke-linecap:round;stroke-linejoin:miter;stroke-miterlimit:4;stroke-opacity:1" transform="matrix(8.2880845e-2,0,0,8.2880845e-2,394.88849,291.0194)"/>
    <path transform="matrix(8.2880845e-2,0,0,8.2880845e-2,394.88849,267.0194)" style="fill:#ff0000;fill-opacity:1;fill-rule:evenodd;stroke:none;stroke-width:2;stroke-linecap:round;stroke-linejoin:miter;stroke-miterlimit:4;stroke-opacity:1" d="M -103.00194,79.920387 L -183.46493,126.37572 L -183.46493,33.465057 L -103.00194,79.920387 z " id="path21071"/>
    <path id="path21073" d="M -103.00194,79.920387 L -183.46493,126.37572 L -183.46493,33.465057 L -103.00194,79.920387 z " style="fill:#ff0000;fill-opacity:1;fill-rule:evenodd;stroke:none;stroke-width:2;stroke-linecap:round;stroke-linejoin:miter;stroke-miterlimit:4;stroke-opacity:1" transform="matrix(8.2880845e-2,0,0,8.2880845e-2,394.88849,249.8206)"/>
    <path transform="matrix(8.2880845e-2,0,0,8.2880845e-2,394.88849,227.0234)" style="fill:#ff0000;fill-opacity:1;fill-rule:evenodd;stroke:none;stroke-width:2;stroke-linecap:round;stroke-linejoin:miter;stroke-miterlimit:4;stroke-opacity:1" d="M -103.00194,79.920387 L -183.46493,126.37572 L -183.46493,33.465057 L -103.00194,79.920387 z " id="path21075"/>
    <path id="path21077" d="M -103.00194,79.920387 L -183.46493,126.37572 L -183.46493,33.465057 L -103.00194,79.920387 z " style="fill:#ff0000;fill-opacity:1;fill-rule:evenodd;stroke:none;stroke-width:2;stroke-linecap:round;stroke-linejoin:miter;stroke-miterlimit:4;stroke-opacity:1" transform="matrix(8.2880845e-2,0,0,8.2880845e-2,394.88849,202.2242)"/>
    <path transform="matrix(8.2880845e-2,0,0,8.2880845e-2,394.88849,172.6238)" style="fill:#ff0000;fill-opacity:1;fill-rule:evenodd;stroke:none;stroke-width:2;stroke-linecap:round;stroke-linejoin:miter;stroke-miterlimit:4;stroke-opacity:1" d="M -103.00194,79.920387 L -183.46493,126.37572 L -183.46493,33.465057 L -103.00194,79.920387 z " id="path21079"/>
    <path id="path21081" d="M -103.00194,79.920387 L -183.46493,126.37572 L -183.46493,33.465057 L -103.00194,79.920387 z " style="fill:#ff0000;fill-opacity:1;fill-rule:evenodd;stroke:none;stroke-width:2;stroke-linecap:round;stroke-linejoin:miter;stroke-miterlimit:4;stroke-opacity:1" transform="matrix(8.2880845e-2,0,0,-8.2880845e-2,394.88849,401.30642)"/>
    <path transform="matrix(8.2880845e-2,0,0,-8.2880845e-2,394.88849,419.30642)" style="fill:#ff0000;fill-opacity:1;fill-rule:evenodd;stroke:none;stroke-width:2;stroke-linecap:round;stroke-linejoin:miter;stroke-miterlimit:4;stroke-opacity:1" d="M -103.00194,79.920387 L -183.46493,126.37572 L -183.46493,33.465057 L -103.00194,79.920387 z " id="path21083"/>
    <path id="path21085" d="M -103.00194,79.920387 L -183.46493,126.37572 L -183.46493,33.465057 L -103.00194,79.920387 z " style="fill:#ff0000;fill-opacity:1;fill-rule:evenodd;stroke:none;stroke-width:2;stroke-linecap:round;stroke-linejoin:miter;stroke-miterlimit:4;stroke-opacity:1" transform="matrix(8.2880845e-2,0,0,-8.2880845e-2,394.88849,445.30642)"/>
    <path transform="matrix(8.2880845e-2,0,0,-8.2880845e-2,394.88849,463.30642)" style="fill:#ff0000;fill-opacity:1;fill-rule:evenodd;stroke:none;stroke-width:2;stroke-linecap:round;stroke-linejoin:miter;stroke-miterlimit:4;stroke-opacity:1" d="M -103.00194,79.920387 L -183.46493,126.37572 L -183.46493,33.465057 L -103.00194,79.920387 z " id="path21087"/>
    <path id="path21089" d="M -103.00194,79.920387 L -183.46493,126.37572 L -183.46493,33.465057 L -103.00194,79.920387 z " style="fill:#ff0000;fill-opacity:1;fill-rule:evenodd;stroke:none;stroke-width:2;stroke-linecap:round;stroke-linejoin:miter;stroke-miterlimit:4;stroke-opacity:1" transform="matrix(8.2880845e-2,0,0,-8.2880845e-2,394.88849,487.30642)"/>
    <path transform="matrix(8.2880845e-2,0,0,-8.2880845e-2,394.88849,504.50522)" style="fill:#ff0000;fill-opacity:1;fill-rule:evenodd;stroke:none;stroke-width:2;stroke-linecap:round;stroke-linejoin:miter;stroke-miterlimit:4;stroke-opacity:1" d="M -103.00194,79.920387 L -183.46493,126.37572 L -183.46493,33.465057 L -103.00194,79.920387 z " id="path21091"/>
    <path id="path21093" d="M -103.00194,79.920387 L -183.46493,126.37572 L -183.46493,33.465057 L -103.00194,79.920387 z " style="fill:#ff0000;fill-opacity:1;fill-rule:evenodd;stroke:none;stroke-width:2;stroke-linecap:round;stroke-linejoin:miter;stroke-miterlimit:4;stroke-opacity:1" transform="matrix(8.2880845e-2,0,0,-8.2880845e-2,394.88849,527.30242)"/>
    <path transform="matrix(8.2880845e-2,0,0,-8.2880845e-2,394.88849,552.10162)" style="fill:#ff0000;fill-opacity:1;fill-rule:evenodd;stroke:none;stroke-width:2;stroke-linecap:round;stroke-linejoin:miter;stroke-miterlimit:4;stroke-opacity:1" d="M -103.00194,79.920387 L -183.46493,126.37572 L -183.46493,33.465057 L -103.00194,79.920387 z " id="path21095"/>
    <path id="path21097" d="M -103.00194,79.920387 L -183.46493,126.37572 L -183.46493,33.465057 L -103.00194,79.920387 z " style="fill:#ff0000;fill-opacity:1;fill-rule:evenodd;stroke:none;stroke-width:2;stroke-linecap:round;stroke-linejoin:miter;stroke-miterlimit:4;stroke-opacity:1" transform="matrix(8.2880845e-2,0,0,-8.2880845e-2,394.88849,581.70202)"/>
    <path id="path21101" d="M -103.00194,79.920387 L -183.46493,126.37572 L -183.46493,33.465057 L -103.00194,79.920387 z " style="fill:#ff0000;fill-opacity:1;fill-rule:evenodd;stroke:none;stroke-width:2;stroke-linecap:round;stroke-linejoin:miter;stroke-miterlimit:4;stroke-opacity:1" transform="matrix(-8.2880845e-2,0,0,-8.2880845e-2,205.14587,383.74445)"/>
    <path transform="matrix(-8.2880845e-2,0,0,-8.2880845e-2,545.14587,383.74445)" style="fill:#ff0000;fill-opacity:1;fill-rule:evenodd;stroke:none;stroke-width:2;stroke-linecap:round;stroke-linejoin:miter;stroke-miterlimit:4;stroke-opacity:1" d="M -103.00194,79.920387 L -183.46493,126.37572 L -183.46493,33.465057 L -103.00194,79.920387 z " id="path21103"/>
    <path transform="matrix(-7.9005286e-2,-2.5047938e-2,2.5047938e-2,-7.9005286e-2,197.69914,355.84701)" style="fill:#ff0000;fill-opacity:1;fill-rule:evenodd;stroke:none;stroke-width:2;stroke-linecap:round;stroke-linejoin:miter;stroke-miterlimit:4;stroke-opacity:1" d="M -103.00194,79.920387 L -183.46493,126.37572 L -183.46493,33.465057 L -103.00194,79.920387 z " id="path21105"/>
    <path id="path21107" d="M -103.00194,79.920387 L -183.46493,126.37572 L -183.46493,33.465057 L -103.00194,79.920387 z " style="fill:#ff0000;fill-opacity:1;fill-rule:evenodd;stroke:none;stroke-width:2;stroke-linecap:round;stroke-linejoin:miter;stroke-miterlimit:4;stroke-opacity:1" transform="matrix(-7.0668743e-2,-4.3303154e-2,4.3303154e-2,-7.0668743e-2,187.69352,329.65449)"/>
    <path id="path21109" d="M -103.00194,79.920387 L -183.46493,126.37572 L -183.46493,33.465057 L -103.00194,79.920387 z " style="fill:#ff0000;fill-opacity:1;fill-rule:evenodd;stroke:none;stroke-width:2;stroke-linecap:round;stroke-linejoin:miter;stroke-miterlimit:4;stroke-opacity:1" transform="matrix(-7.9005286e-2,2.5047938e-2,2.5047938e-2,7.9005286e-2,197.69914,398.41843)"/>
    <path transform="matrix(-7.0668743e-2,4.3303154e-2,4.3303154e-2,7.0668743e-2,187.69352,424.61095)" style="fill:#ff0000;fill-opacity:1;fill-rule:evenodd;stroke:none;stroke-width:2;stroke-linecap:round;stroke-linejoin:miter;stroke-miterlimit:4;stroke-opacity:1" d="M -103.00194,79.920387 L -183.46493,126.37572 L -183.46493,33.465057 L -103.00194,79.920387 z " id="path21111"/>
    <path id="path21113" d="M -103.00194,79.920387 L -183.46493,126.37572 L -183.46493,33.465057 L -103.00194,79.920387 z " style="fill:#ff0000;fill-opacity:1;fill-rule:evenodd;stroke:none;stroke-width:2;stroke-linecap:round;stroke-linejoin:miter;stroke-miterlimit:4;stroke-opacity:1" transform="matrix(-7.9210443e-2,2.4391395e-2,-2.4391395e-2,-7.9210443e-2,557.62096,358.54517)"/>
    <path transform="matrix(-7.196687e-2,4.1109659e-2,-4.1109659e-2,-7.196687e-2,568.22869,333.65778)" style="fill:#ff0000;fill-opacity:1;fill-rule:evenodd;stroke:none;stroke-width:2;stroke-linecap:round;stroke-linejoin:miter;stroke-miterlimit:4;stroke-opacity:1" d="M -103.00194,79.920387 L -183.46493,126.37572 L -183.46493,33.465057 L -103.00194,79.920387 z " id="path21115"/>
    <path transform="matrix(-7.9210443e-2,-2.4391395e-2,-2.4391395e-2,7.9210443e-2,557.62096,395.89499)" style="fill:#ff0000;fill-opacity:1;fill-rule:evenodd;stroke:none;stroke-width:2;stroke-linecap:round;stroke-linejoin:miter;stroke-miterlimit:4;stroke-opacity:1" d="M -103.00194,79.920387 L -183.46493,126.37572 L -183.46493,33.465057 L -103.00194,79.920387 z " id="path21117"/>
    <path id="path21119" d="M -103.00194,79.920387 L -183.46493,126.37572 L -183.46493,33.465057 L -103.00194,79.920387 z " style="fill:#ff0000;fill-opacity:1;fill-rule:evenodd;stroke:none;stroke-width:2;stroke-linecap:round;stroke-linejoin:miter;stroke-miterlimit:4;stroke-opacity:1" transform="matrix(-7.196687e-2,-4.1109659e-2,-4.1109659e-2,7.196687e-2,568.22869,420.78238)"/>
  </g>
</svg>