<?xml version="1.0" encoding="UTF-8"?>
<svg xmlns:xlink="http://www.w3.org/1999/xlink" xmlns="http://www.w3.org/2000/svg" version="1.1" baseProfile="full" width="600" height="600">
  <title>VFPt_dipole_electric_manylines</title>
  <desc>VFPt_dipole_electric_manylines
created with VectorFieldPlot 1.2
http://commons.wikimedia.org/wiki/User:Geek3/VectorFieldPlot

about: http://commons.wikimedia.org/wiki/File:VFPt_dipole_electric_manylines.svg
rights: GNU Free Documentation license,
        Creative Commons Attribution ShareAlike license
  </desc>
  <defs>
    <radialGradient id="white_spot" cx="0.65" cy="0.7" r="0.75">
      <stop stop-color="#ffffff" offset="0" stop-opacity="0.7"/>
      <stop stop-color="#ffffff" offset="0.1" stop-opacity="0.5"/>
      <stop stop-color="#ffffff" offset="0.6" stop-opacity="0"/>
      <stop stop-color="#000000" offset="0.6" stop-opacity="0"/>
      <stop stop-color="#000000" offset="0.75" stop-opacity="0.05"/>
      <stop stop-color="#000000" offset="0.85" stop-opacity="0.15"/>
      <stop stop-color="#000000" offset="1" stop-opacity="0.5"/>
    </radialGradient>
    <path id="arrow1" stroke="none" fill="#000000" transform="scale(0.01)" d="M 0.3,0 L -2.2,2.25 L 3.8,0 L -2.2,-2.25 L 0.3,0 Z"/>
  </defs>
  <rect id="background" x="0" y="0" width="600" height="600" fill="#ffffff"/>
  <g id="image" transform="translate(300.0,300.0) scale(100.0,-100.0)">
    <g id="fieldlines" fill="none" stroke="#000000" stroke-width="0.02" stroke-linejoin="round" stroke-linecap="round">
      <g id="fieldline1">
        <path d="M 0.5000,0.0000 L 0.7920,0.0295 L 1.0293,0.0556 L 1.2621,0.0834 L 1.4972,0.1136 L 1.7365,0.1466 L 1.9809,0.1825 L 2.2304,0.2214 L 2.4852,0.2633 L 2.7451,0.3083 L 3.0100,0.3564 M -3.0100,0.3564 L -2.7451,0.3083 L -2.4852,0.2633 L -2.2304,0.2214 L -1.9809,0.1825 L -1.7365,0.1466 L -1.4972,0.1136 L -1.2621,0.0834 L -1.0293,0.0556 L -0.7920,0.0295 L -0.5000,0.0000"/>
        <g id="arrows1">
          <use xlink:href="#arrow1" transform="translate(1.7590,0.1499) rotate(8.36) scale(2.2)"/>
          <use xlink:href="#arrow1" transform="translate(-1.7590,0.1500) rotate(-8.14) scale(2.2)"/>
        </g>
      </g>
      <g id="fieldline2">
        <path d="M 0.5000,0.0000 L 0.6934,0.0596 L 0.8399,0.1071 L 0.9778,0.1544 L 1.1127,0.2034 L 1.2464,0.2545 L 1.3801,0.3083 L 1.5139,0.3649 L 1.6482,0.4244 L 1.7829,0.4868 L 1.9181,0.5522 L 2.0538,0.6206 L 2.1898,0.6920 L 2.3262,0.7665 L 2.4628,0.8439 L 2.5996,0.9243 L 2.7364,1.0076 L 2.8733,1.0938 L 3.0100,1.1830 M -3.0100,1.1830 L -2.8733,1.0938 L -2.7364,1.0076 L -2.5996,0.9243 L -2.4628,0.8439 L -2.3262,0.7665 L -2.1898,0.6920 L -2.0538,0.6206 L -1.9181,0.5522 L -1.7829,0.4868 L -1.6482,0.4244 L -1.5139,0.3649 L -1.3801,0.3083 L -1.2465,0.2545 L -1.1127,0.2034 L -0.9778,0.1544 L -0.8399,0.1071 L -0.6934,0.0596 L -0.5000,0.0000"/>
        <g id="arrows2">
          <use xlink:href="#arrow1" transform="translate(1.1601,0.2215) rotate(20.93) scale(2.2)"/>
          <use xlink:href="#arrow1" transform="translate(2.4171,0.8180) rotate(29.59) scale(2.2)"/>
          <use xlink:href="#arrow1" transform="translate(-2.4171,0.8180) rotate(-29.54) scale(2.2)"/>
          <use xlink:href="#arrow1" transform="translate(-1.1601,0.2215) rotate(-20.85) scale(2.2)"/>
        </g>
      </g>
      <g id="fieldline3">
        <path d="M 0.5000,0.0000 L 0.6470,0.0795 L 0.7538,0.1399 L 0.8514,0.1978 L 0.9446,0.2560 L 1.0352,0.3155 L 1.1238,0.3766 L 1.2109,0.4397 L 1.2966,0.5049 L 1.3811,0.5723 L 1.4644,0.6419 L 1.5464,0.7137 L 1.6272,0.7877 L 1.7067,0.8639 L 1.7849,0.9423 L 1.8616,1.0227 L 1.9368,1.1052 L 2.0105,1.1898 L 2.0826,1.2762 L 2.1531,1.3646 L 2.2218,1.4548 L 2.2887,1.5468 L 2.3538,1.6404 L 2.4170,1.7357 L 2.4782,1.8325 L 2.5375,1.9308 L 2.5946,2.0305 L 2.6497,2.1315 L 2.7026,2.2339 L 2.7534,2.3373 L 2.8019,2.4419 L 2.8482,2.5476 L 2.8921,2.6542 L 2.9338,2.7616 L 2.9731,2.8699 L 3.0100,2.9789 M -3.0100,2.9789 L -2.9731,2.8699 L -2.9338,2.7616 L -2.8921,2.6542 L -2.8482,2.5476 L -2.8019,2.4420 L -2.7534,2.3373 L -2.7026,2.2339 L -2.6497,2.1315 L -2.5946,2.0305 L -2.5375,1.9308 L -2.4782,1.8325 L -2.4170,1.7357 L -2.3538,1.6404 L -2.2887,1.5468 L -2.2218,1.4548 L -2.1531,1.3646 L -2.0826,1.2762 L -2.0105,1.1898 L -1.9368,1.1052 L -1.8616,1.0227 L -1.7849,0.9423 L -1.7067,0.8639 L -1.6272,0.7877 L -1.5464,0.7137 L -1.4644,0.6419 L -1.3811,0.5723 L -1.2966,0.5049 L -1.2109,0.4397 L -1.1238,0.3766 L -1.0352,0.3155 L -0.9446,0.2560 L -0.8514,0.1978 L -0.7538,0.1399 L -0.6470,0.0795 L -0.5000,0.0000"/>
        <g id="arrows3">
          <use xlink:href="#arrow1" transform="translate(1.3396,0.5392) rotate(38.63) scale(2.2)"/>
          <use xlink:href="#arrow1" transform="translate(2.6126,2.0635) rotate(61.41) scale(2.2)"/>
          <use xlink:href="#arrow1" transform="translate(-2.6125,2.0635) rotate(-61.10) scale(2.2)"/>
          <use xlink:href="#arrow1" transform="translate(-1.3396,0.5392) rotate(-38.54) scale(2.2)"/>
        </g>
      </g>
      <g id="fieldline4">
        <path d="M 0.5000,0.0000 L 0.6133,0.0941 L 0.6928,0.1629 L 0.7634,0.2272 L 0.8292,0.2904 L 0.8916,0.3536 L 0.9513,0.4175 L 1.0086,0.4824 L 1.0636,0.5485 L 1.1165,0.6159 L 1.1674,0.6845 L 1.2161,0.7544 L 1.2628,0.8256 L 1.3073,0.8980 L 1.3497,0.9715 L 1.3898,1.0461 L 1.4278,1.1218 L 1.4635,1.1984 L 1.4969,1.2759 L 1.5280,1.3541 L 1.5567,1.4331 L 1.5831,1.5126 L 1.6071,1.5927 L 1.6286,1.6731 L 1.6477,1.7539 L 1.6643,1.8348 L 1.6785,1.9159 L 1.6902,1.9970 L 1.6994,2.0781 L 1.7062,2.1589 L 1.7104,2.2395 L 1.7123,2.3197 L 1.7116,2.3995 L 1.7086,2.4787 L 1.7031,2.5572 L 1.6953,2.6351 L 1.6850,2.7121 L 1.6725,2.7881 L 1.6576,2.8632 L 1.6405,2.9372 L 1.6212,3.0100 M -1.6212,3.0100 L -1.6405,2.9372 L -1.6576,2.8632 L -1.6725,2.7881 L -1.6850,2.7121 L -1.6953,2.6351 L -1.7031,2.5572 L -1.7086,2.4787 L -1.7116,2.3995 L -1.7123,2.3197 L -1.7104,2.2395 L -1.7061,2.1589 L -1.6994,2.0781 L -1.6902,1.9970 L -1.6785,1.9159 L -1.6643,1.8348 L -1.6477,1.7539 L -1.6286,1.6731 L -1.6071,1.5927 L -1.5831,1.5126 L -1.5567,1.4331 L -1.5280,1.3541 L -1.4969,1.2759 L -1.4635,1.1984 L -1.4278,1.1218 L -1.3898,1.0461 L -1.3497,0.9715 L -1.3073,0.8980 L -1.2628,0.8256 L -1.2161,0.7544 L -1.1674,0.6845 L -1.1165,0.6159 L -1.0636,0.5485 L -1.0086,0.4825 L -0.9513,0.4175 L -0.8916,0.3536 L -0.8292,0.2904 L -0.7634,0.2272 L -0.6928,0.1629 L -0.6133,0.0941 L -0.5000,0.0000"/>
        <g id="arrows4">
          <use xlink:href="#arrow1" transform="translate(1.1030,0.5991) rotate(52.58) scale(2.2)"/>
          <use xlink:href="#arrow1" transform="translate(1.7062,2.1663) rotate(86.65) scale(2.2)"/>
          <use xlink:href="#arrow1" transform="translate(-1.7061,2.1663) rotate(-85.86) scale(2.2)"/>
          <use xlink:href="#arrow1" transform="translate(-1.1032,0.5989) rotate(-51.84) scale(2.2)"/>
        </g>
      </g>
      <g id="fieldline5">
        <path d="M 0.5000,0.0000 L 0.5864,0.1067 L 0.6445,0.1819 L 0.6949,0.2512 L 0.7404,0.3180 L 0.7822,0.3837 L 0.8208,0.4492 L 0.8564,0.5146 L 0.8893,0.5803 L 0.9196,0.6463 L 0.9472,0.7127 L 0.9722,0.7794 L 0.9946,0.8464 L 1.0144,0.9136 L 1.0316,0.9809 L 1.0462,1.0483 L 1.0582,1.1156 L 1.0676,1.1828 L 1.0744,1.2498 L 1.0787,1.3163 L 1.0803,1.3824 L 1.0794,1.4479 L 1.0760,1.5127 L 1.0700,1.5767 L 1.0617,1.6398 L 1.0509,1.7018 L 1.0377,1.7627 L 1.0222,1.8223 L 1.0045,1.8806 L 0.9845,1.9374 L 0.9624,1.9927 L 0.9382,2.0464 L 0.9121,2.0983 L 0.8839,2.1485 L 0.8540,2.1968 L 0.8223,2.2431 L 0.7889,2.2874 L 0.7539,2.3297 L 0.7173,2.3698 L 0.6794,2.4077 L 0.6401,2.4433 L 0.5995,2.4767 L 0.5578,2.5078 L 0.5151,2.5364 L 0.4713,2.5627 L 0.4267,2.5866 L 0.3813,2.6080 L 0.3352,2.6269 L 0.2884,2.6434 L 0.2412,2.6573 L 0.1934,2.6688 L 0.1454,2.6776 L 0.0971,2.6840 L 0.0486,2.6878 L 0.0000,2.6891 L -0.0486,2.6878 L -0.0971,2.6840 L -0.1454,2.6776 L -0.1934,2.6688 L -0.2412,2.6573 L -0.2884,2.6434 L -0.3352,2.6269 L -0.3813,2.6080 L -0.4267,2.5866 L -0.4714,2.5627 L -0.5151,2.5364 L -0.5579,2.5077 L -0.5995,2.4767 L -0.6401,2.4433 L -0.6794,2.4077 L -0.7173,2.3698 L -0.7539,2.3297 L -0.7889,2.2874 L -0.8223,2.2431 L -0.8540,2.1968 L -0.8840,2.1485 L -0.9121,2.0983 L -0.9382,2.0464 L -0.9624,1.9927 L -0.9845,1.9374 L -1.0045,1.8806 L -1.0222,1.8223 L -1.0377,1.7627 L -1.0509,1.7018 L -1.0617,1.6398 L -1.0700,1.5767 L -1.0760,1.5127 L -1.0794,1.4479 L -1.0803,1.3824 L -1.0787,1.3163 L -1.0744,1.2497 L -1.0676,1.1828 L -1.0582,1.1156 L -1.0462,1.0483 L -1.0316,0.9809 L -1.0144,0.9135 L -0.9946,0.8464 L -0.9722,0.7794 L -0.9472,0.7127 L -0.9196,0.6463 L -0.8893,0.5803 L -0.8564,0.5146 L -0.8208,0.4492 L -0.7822,0.3837 L -0.7404,0.3180 L -0.6949,0.2512 L -0.6445,0.1819 L -0.5864,0.1067 L -0.5000,0.0000"/>
        <g id="arrows5">
          <use xlink:href="#arrow1" transform="translate(0.9501,0.7213) rotate(69.13) scale(2.2)"/>
          <use xlink:href="#arrow1" transform="translate(0.7486,2.3345) rotate(132.19) scale(2.2)"/>
          <use xlink:href="#arrow1" transform="translate(-0.7486,2.3345) rotate(-130.63) scale(2.2)"/>
          <use xlink:href="#arrow1" transform="translate(-0.9500,0.7213) rotate(-68.19) scale(2.2)"/>
        </g>
      </g>
      <g id="fieldline6">
        <path d="M 0.5000,0.0000 L 0.5599,0.1139 L 0.5984,0.1918 L 0.6304,0.2619 L 0.6578,0.3281 L 0.6818,0.3922 L 0.7025,0.4548 L 0.7203,0.5165 L 0.7353,0.5775 L 0.7475,0.6378 L 0.7571,0.6974 L 0.7640,0.7565 L 0.7683,0.8148 L 0.7700,0.8724 L 0.7692,0.9291 L 0.7659,0.9850 L 0.7602,1.0398 L 0.7520,1.0935 L 0.7415,1.1460 L 0.7287,1.1971 L 0.7137,1.2468 L 0.6965,1.2950 L 0.6772,1.3415 L 0.6560,1.3864 L 0.6328,1.4294 L 0.6078,1.4705 L 0.5811,1.5096 L 0.5527,1.5467 L 0.5228,1.5817 L 0.4914,1.6145 L 0.4587,1.6451 L 0.4248,1.6734 L 0.3897,1.6993 L 0.3537,1.7229 L 0.3167,1.7441 L 0.2788,1.7629 L 0.2403,1.7792 L 0.2012,1.7930 L 0.1616,1.8043 L 0.1215,1.8131 L 0.0812,1.8195 L 0.0406,1.8232 L 0.0000,1.8245 L -0.0407,1.8232 L -0.0812,1.8195 L -0.1215,1.8131 L -0.1616,1.8043 L -0.2012,1.7930 L -0.2403,1.7792 L -0.2789,1.7628 L -0.3167,1.7441 L -0.3537,1.7229 L -0.3897,1.6993 L -0.4248,1.6734 L -0.4587,1.6451 L -0.4914,1.6145 L -0.5228,1.5817 L -0.5527,1.5467 L -0.5811,1.5096 L -0.6078,1.4705 L -0.6328,1.4294 L -0.6560,1.3863 L -0.6772,1.3415 L -0.6965,1.2950 L -0.7137,1.2468 L -0.7287,1.1971 L -0.7415,1.1459 L -0.7520,1.0935 L -0.7602,1.0398 L -0.7659,0.9850 L -0.7692,0.9291 L -0.7700,0.8724 L -0.7683,0.8148 L -0.7640,0.7565 L -0.7571,0.6974 L -0.7475,0.6378 L -0.7353,0.5775 L -0.7203,0.5165 L -0.7025,0.4548 L -0.6818,0.3922 L -0.6578,0.3281 L -0.6304,0.2619 L -0.5984,0.1918 L -0.5599,0.1139 L -0.5000,0.0000"/>
        <g id="arrows6">
          <use xlink:href="#arrow1" transform="translate(0.7584,0.7115) rotate(83.47) scale(2.2)"/>
          <use xlink:href="#arrow1" transform="translate(0.0000,1.8233) rotate(-178.44) scale(2.2)"/>
          <use xlink:href="#arrow1" transform="translate(-0.7582,0.7116) rotate(-82.00) scale(2.2)"/>
        </g>
      </g>
      <g id="fieldline7">
        <path d="M 0.5000,0.0000 L 0.5350,0.1182 L 0.5559,0.1967 L 0.5718,0.2657 L 0.5840,0.3296 L 0.5931,0.3903 L 0.5993,0.4486 L 0.6028,0.5051 L 0.6037,0.5598 L 0.6020,0.6130 L 0.5979,0.6648 L 0.5914,0.7150 L 0.5825,0.7637 L 0.5714,0.8108 L 0.5580,0.8563 L 0.5426,0.9000 L 0.5251,0.9419 L 0.5057,0.9820 L 0.4844,1.0201 L 0.4614,1.0561 L 0.4367,1.0901 L 0.4105,1.1218 L 0.3829,1.1514 L 0.3539,1.1786 L 0.3238,1.2035 L 0.2926,1.2260 L 0.2604,1.2461 L 0.2274,1.2638 L 0.1936,1.2789 L 0.1592,1.2916 L 0.1244,1.3017 L 0.0891,1.3094 L 0.0536,1.3145 L 0.0179,1.3170 L -0.0179,1.3170 L -0.0536,1.3145 L -0.0891,1.3094 L -0.1244,1.3017 L -0.1592,1.2916 L -0.1936,1.2789 L -0.2274,1.2638 L -0.2604,1.2461 L -0.2926,1.2260 L -0.3238,1.2035 L -0.3539,1.1786 L -0.3828,1.1514 L -0.4105,1.1218 L -0.4367,1.0901 L -0.4614,1.0561 L -0.4844,1.0201 L -0.5057,0.9820 L -0.5251,0.9419 L -0.5426,0.9000 L -0.5580,0.8563 L -0.5714,0.8108 L -0.5825,0.7637 L -0.5914,0.7150 L -0.5979,0.6648 L -0.6020,0.6130 L -0.6037,0.5598 L -0.6028,0.5051 L -0.5993,0.4486 L -0.5931,0.3903 L -0.5840,0.3296 L -0.5718,0.2657 L -0.5559,0.1967 L -0.5350,0.1182 L -0.5000,0.0000"/>
        <g id="arrows7">
          <use xlink:href="#arrow1" transform="translate(0.5709,0.8089) rotate(105.77) scale(2.2)"/>
          <use xlink:href="#arrow1" transform="translate(-0.5709,0.8089) rotate(-103.67) scale(2.2)"/>
        </g>
      </g>
      <g id="fieldline8">
        <path d="M 0.5000,0.0000 L 0.5109,0.1188 L 0.5157,0.1953 L 0.5174,0.2610 L 0.5166,0.3206 L 0.5134,0.3760 L 0.5079,0.4283 L 0.5001,0.4779 L 0.4903,0.5251 L 0.4783,0.5701 L 0.4644,0.6129 L 0.4485,0.6535 L 0.4308,0.6920 L 0.4114,0.7283 L 0.3903,0.7624 L 0.3676,0.7943 L 0.3435,0.8239 L 0.3181,0.8511 L 0.2914,0.8760 L 0.2637,0.8985 L 0.2350,0.9186 L 0.2054,0.9362 L 0.1750,0.9513 L 0.1441,0.9639 L 0.1126,0.9740 L 0.0807,0.9816 L 0.0485,0.9867 L 0.0162,0.9892 L -0.0162,0.9892 L -0.0485,0.9867 L -0.0807,0.9816 L -0.1126,0.9740 L -0.1440,0.9639 L -0.1750,0.9513 L -0.2054,0.9362 L -0.2350,0.9186 L -0.2637,0.8985 L -0.2914,0.8760 L -0.3181,0.8511 L -0.3435,0.8239 L -0.3676,0.7943 L -0.3903,0.7624 L -0.4114,0.7283 L -0.4308,0.6920 L -0.4485,0.6535 L -0.4644,0.6129 L -0.4783,0.5701 L -0.4903,0.5251 L -0.5001,0.4779 L -0.5079,0.4283 L -0.5134,0.3760 L -0.5166,0.3206 L -0.5174,0.2610 L -0.5157,0.1953 L -0.5109,0.1188 L -0.5000,0.0000"/>
        <g id="arrows8">
          <use xlink:href="#arrow1" transform="translate(0.0001,0.9879) rotate(-177.47) scale(2.2)"/>
        </g>
      </g>
      <g id="fieldline9">
        <path d="M 0.5000,0.0000 L 0.4878,0.1162 L 0.4780,0.1886 L 0.4674,0.2494 L 0.4556,0.3033 L 0.4424,0.3525 L 0.4276,0.3978 L 0.4114,0.4399 L 0.3937,0.4791 L 0.3744,0.5156 L 0.3538,0.5494 L 0.3319,0.5807 L 0.3087,0.6095 L 0.2843,0.6358 L 0.2589,0.6596 L 0.2326,0.6809 L 0.2053,0.6997 L 0.1774,0.7160 L 0.1488,0.7298 L 0.1197,0.7411 L 0.0901,0.7499 L 0.0603,0.7562 L 0.0302,0.7600 L 0.0000,0.7612 L -0.0302,0.7600 L -0.0602,0.7562 L -0.0901,0.7499 L -0.1197,0.7411 L -0.1488,0.7298 L -0.1774,0.7160 L -0.2053,0.6997 L -0.2326,0.6809 L -0.2589,0.6596 L -0.2843,0.6358 L -0.3087,0.6095 L -0.3319,0.5807 L -0.3538,0.5494 L -0.3744,0.5156 L -0.3937,0.4791 L -0.4114,0.4399 L -0.4276,0.3978 L -0.4424,0.3525 L -0.4556,0.3033 L -0.4674,0.2494 L -0.4780,0.1886 L -0.4878,0.1162 L -0.5000,0.0000"/>
        <g id="arrows9">
          <use xlink:href="#arrow1" transform="translate(0.0001,0.7593) rotate(-177.28) scale(2.2)"/>
        </g>
      </g>
      <g id="fieldline10">
        <path d="M 0.5000,0.0000 L 0.4657,0.1105 L 0.4427,0.1772 L 0.4216,0.2318 L 0.4007,0.2792 L 0.3795,0.3214 L 0.3577,0.3595 L 0.3352,0.3940 L 0.3119,0.4253 L 0.2878,0.4536 L 0.2630,0.4791 L 0.2374,0.5019 L 0.2111,0.5221 L 0.1842,0.5396 L 0.1567,0.5546 L 0.1289,0.5671 L 0.1006,0.5770 L 0.0721,0.5844 L 0.0433,0.5894 L 0.0145,0.5919 L -0.0145,0.5919 L -0.0433,0.5894 L -0.0721,0.5844 L -0.1006,0.5770 L -0.1289,0.5671 L -0.1567,0.5546 L -0.1842,0.5396 L -0.2111,0.5221 L -0.2374,0.5019 L -0.2630,0.4791 L -0.2878,0.4536 L -0.3119,0.4253 L -0.3352,0.3940 L -0.3577,0.3595 L -0.3795,0.3214 L -0.4007,0.2792 L -0.4216,0.2318 L -0.4427,0.1772 L -0.4657,0.1105 L -0.5000,0.0000"/>
        <g id="arrows10">
          <use xlink:href="#arrow1" transform="translate(0.0001,0.5901) rotate(-176.92) scale(2.2)"/>
        </g>
      </g>
      <g id="fieldline11">
        <path d="M 0.5000,0.0000 L 0.4443,0.1026 L 0.4093,0.1627 L 0.3788,0.2106 L 0.3502,0.2511 L 0.3225,0.2862 L 0.2952,0.3171 L 0.2679,0.3444 L 0.2405,0.3683 L 0.2129,0.3892 L 0.1851,0.4072 L 0.1570,0.4225 L 0.1288,0.4351 L 0.1004,0.4451 L 0.0718,0.4526 L 0.0431,0.4575 L 0.0144,0.4600 L -0.0144,0.4600 L -0.0431,0.4575 L -0.0718,0.4526 L -0.1004,0.4451 L -0.1288,0.4351 L -0.1570,0.4225 L -0.1851,0.4072 L -0.2129,0.3892 L -0.2405,0.3683 L -0.2679,0.3444 L -0.2952,0.3171 L -0.3225,0.2862 L -0.3502,0.2511 L -0.3788,0.2106 L -0.4093,0.1627 L -0.4443,0.1026 L -0.5000,0.0000"/>
        <g id="arrows11">
          <use xlink:href="#arrow1" transform="translate(0.0001,0.4583) rotate(-176.89) scale(2.2)"/>
        </g>
      </g>
      <g id="fieldline12">
        <path d="M 0.5000,0.0000 L 0.4235,0.0921 L 0.3775,0.1441 L 0.3391,0.1843 L 0.3041,0.2176 L 0.2712,0.2457 L 0.2395,0.2696 L 0.2086,0.2900 L 0.1782,0.3071 L 0.1482,0.3213 L 0.1183,0.3327 L 0.0886,0.3415 L 0.0591,0.3477 L 0.0295,0.3514 L 0.0000,0.3526 L -0.0295,0.3514 L -0.0590,0.3477 L -0.0886,0.3415 L -0.1183,0.3327 L -0.1481,0.3213 L -0.1782,0.3071 L -0.2086,0.2900 L -0.2395,0.2696 L -0.2712,0.2457 L -0.3041,0.2176 L -0.3391,0.1843 L -0.3775,0.1441 L -0.4235,0.0921 L -0.5000,0.0000"/>
        <g id="arrows12"/>
      </g>
      <g id="fieldline13">
        <path d="M 0.5000,0.0000 L 0.4013,0.0800 L 0.3442,0.1235 L 0.2977,0.1561 L 0.2564,0.1822 L 0.2183,0.2033 L 0.1823,0.2205 L 0.1476,0.2343 L 0.1140,0.2450 L 0.0810,0.2529 L 0.0484,0.2581 L 0.0161,0.2607 L -0.0161,0.2607 L -0.0484,0.2581 L -0.0810,0.2529 L -0.1140,0.2450 L -0.1476,0.2343 L -0.1823,0.2206 L -0.2183,0.2034 L -0.2564,0.1822 L -0.2977,0.1561 L -0.3442,0.1236 L -0.4013,0.0800 L -0.5000,0.0000"/>
        <g id="arrows13">
          <use xlink:href="#arrow1" transform="translate(0.0001,0.2593) rotate(-177.44) scale(2.2)"/>
        </g>
      </g>
      <g id="fieldline14">
        <path d="M 0.5000,0.0000 L 0.3794,0.0636 L 0.3120,0.0969 L 0.2584,0.1208 L 0.2116,0.1392 L 0.1690,0.1534 L 0.1292,0.1642 L 0.0912,0.1720 L 0.0543,0.1771 L 0.0180,0.1796 L -0.0180,0.1796 L -0.0543,0.1771 L -0.0912,0.1720 L -0.1292,0.1642 L -0.1690,0.1534 L -0.2116,0.1392 L -0.2584,0.1208 L -0.3120,0.0969 L -0.3794,0.0636 L -0.5000,0.0000"/>
        <g id="arrows14"/>
      </g>
      <g id="fieldline15">
        <path d="M 0.5000,0.0000 L 0.3539,0.0436 L 0.2748,0.0653 L 0.2131,0.0801 L 0.1596,0.0907 L 0.1112,0.0981 L 0.0656,0.1029 L 0.0217,0.1052 L -0.0217,0.1052 L -0.0657,0.1029 L -0.1112,0.0981 L -0.1596,0.0907 L -0.2131,0.0801 L -0.2748,0.0653 L -0.3539,0.0436 L -0.5000,0.0000"/>
        <g id="arrows15">
          <use xlink:href="#arrow1" transform="translate(0.0000,0.1047) rotate(-178.65) scale(2.2)"/>
        </g>
      </g>
      <g id="fieldline16">
        <path d="M 0.5000,0.0000 L 0.2977,0.0193 L 0.1924,0.0277 L 0.1094,0.0323 L 0.0356,0.0345 L -0.0356,0.0345 L -0.1094,0.0323 L -0.1924,0.0277 L -0.2977,0.0193 L -0.5000,0.0000"/>
        <g id="arrows16"/>
      </g>
      <g id="fieldline17">
        <path d="M 0.5000,0.0000 L 0.2977,-0.0193 L 0.1924,-0.0277 L 0.1094,-0.0323 L 0.0356,-0.0345 L -0.0356,-0.0345 L -0.1094,-0.0323 L -0.1924,-0.0277 L -0.2977,-0.0193 L -0.5000,0.0000"/>
        <g id="arrows17"/>
      </g>
      <g id="fieldline18">
        <path d="M 0.5000,0.0000 L 0.3539,-0.0436 L 0.2748,-0.0653 L 0.2131,-0.0801 L 0.1596,-0.0907 L 0.1112,-0.0981 L 0.0656,-0.1029 L 0.0217,-0.1052 L -0.0217,-0.1052 L -0.0657,-0.1029 L -0.1112,-0.0981 L -0.1596,-0.0907 L -0.2131,-0.0801 L -0.2748,-0.0653 L -0.3539,-0.0436 L -0.5000,0.0000"/>
        <g id="arrows18">
          <use xlink:href="#arrow1" transform="translate(0.0000,-0.1047) rotate(178.65) scale(2.2)"/>
        </g>
      </g>
      <g id="fieldline19">
        <path d="M 0.5000,0.0000 L 0.3794,-0.0636 L 0.3120,-0.0969 L 0.2584,-0.1208 L 0.2116,-0.1392 L 0.1690,-0.1534 L 0.1292,-0.1642 L 0.0912,-0.1720 L 0.0543,-0.1771 L 0.0180,-0.1796 L -0.0180,-0.1796 L -0.0543,-0.1771 L -0.0912,-0.1720 L -0.1292,-0.1642 L -0.1690,-0.1534 L -0.2116,-0.1392 L -0.2584,-0.1208 L -0.3120,-0.0969 L -0.3794,-0.0636 L -0.5000,0.0000"/>
        <g id="arrows19"/>
      </g>
      <g id="fieldline20">
        <path d="M 0.5000,0.0000 L 0.4013,-0.0800 L 0.3442,-0.1235 L 0.2977,-0.1561 L 0.2564,-0.1822 L 0.2183,-0.2033 L 0.1823,-0.2205 L 0.1476,-0.2343 L 0.1140,-0.2450 L 0.0810,-0.2529 L 0.0484,-0.2581 L 0.0161,-0.2607 L -0.0161,-0.2607 L -0.0484,-0.2581 L -0.0810,-0.2529 L -0.1140,-0.2450 L -0.1476,-0.2343 L -0.1823,-0.2206 L -0.2183,-0.2034 L -0.2564,-0.1822 L -0.2977,-0.1561 L -0.3442,-0.1236 L -0.4013,-0.0800 L -0.5000,0.0000"/>
        <g id="arrows20">
          <use xlink:href="#arrow1" transform="translate(0.0001,-0.2593) rotate(177.44) scale(2.2)"/>
        </g>
      </g>
      <g id="fieldline21">
        <path d="M 0.5000,0.0000 L 0.4235,-0.0921 L 0.3775,-0.1441 L 0.3391,-0.1843 L 0.3041,-0.2176 L 0.2712,-0.2457 L 0.2395,-0.2696 L 0.2086,-0.2900 L 0.1782,-0.3071 L 0.1482,-0.3213 L 0.1183,-0.3327 L 0.0886,-0.3415 L 0.0591,-0.3477 L 0.0295,-0.3514 L 0.0000,-0.3526 L -0.0295,-0.3514 L -0.0590,-0.3477 L -0.0886,-0.3415 L -0.1183,-0.3327 L -0.1481,-0.3213 L -0.1782,-0.3071 L -0.2086,-0.2900 L -0.2395,-0.2696 L -0.2712,-0.2457 L -0.3041,-0.2176 L -0.3391,-0.1843 L -0.3775,-0.1441 L -0.4235,-0.0921 L -0.5000,0.0000"/>
        <g id="arrows21"/>
      </g>
      <g id="fieldline22">
        <path d="M 0.5000,0.0000 L 0.4443,-0.1026 L 0.4093,-0.1627 L 0.3788,-0.2106 L 0.3502,-0.2511 L 0.3225,-0.2862 L 0.2952,-0.3171 L 0.2679,-0.3444 L 0.2405,-0.3683 L 0.2129,-0.3892 L 0.1851,-0.4072 L 0.1570,-0.4225 L 0.1288,-0.4351 L 0.1004,-0.4451 L 0.0718,-0.4526 L 0.0431,-0.4575 L 0.0144,-0.4600 L -0.0144,-0.4600 L -0.0431,-0.4575 L -0.0718,-0.4526 L -0.1004,-0.4451 L -0.1288,-0.4351 L -0.1570,-0.4225 L -0.1851,-0.4072 L -0.2129,-0.3892 L -0.2405,-0.3683 L -0.2679,-0.3444 L -0.2952,-0.3171 L -0.3225,-0.2862 L -0.3502,-0.2511 L -0.3788,-0.2106 L -0.4093,-0.1627 L -0.4443,-0.1026 L -0.5000,0.0000"/>
        <g id="arrows22">
          <use xlink:href="#arrow1" transform="translate(0.0001,-0.4583) rotate(176.89) scale(2.2)"/>
        </g>
      </g>
      <g id="fieldline23">
        <path d="M 0.5000,0.0000 L 0.4657,-0.1105 L 0.4427,-0.1772 L 0.4216,-0.2318 L 0.4007,-0.2792 L 0.3795,-0.3214 L 0.3577,-0.3595 L 0.3352,-0.3940 L 0.3119,-0.4253 L 0.2878,-0.4536 L 0.2630,-0.4791 L 0.2374,-0.5019 L 0.2111,-0.5221 L 0.1842,-0.5396 L 0.1567,-0.5546 L 0.1289,-0.5671 L 0.1006,-0.5770 L 0.0721,-0.5844 L 0.0433,-0.5894 L 0.0145,-0.5919 L -0.0145,-0.5919 L -0.0433,-0.5894 L -0.0721,-0.5844 L -0.1006,-0.5770 L -0.1289,-0.5671 L -0.1567,-0.5546 L -0.1842,-0.5396 L -0.2111,-0.5221 L -0.2374,-0.5019 L -0.2630,-0.4791 L -0.2878,-0.4536 L -0.3119,-0.4253 L -0.3352,-0.3940 L -0.3577,-0.3595 L -0.3795,-0.3214 L -0.4007,-0.2792 L -0.4216,-0.2318 L -0.4427,-0.1772 L -0.4657,-0.1105 L -0.5000,0.0000"/>
        <g id="arrows23">
          <use xlink:href="#arrow1" transform="translate(0.0001,-0.5901) rotate(176.92) scale(2.2)"/>
        </g>
      </g>
      <g id="fieldline24">
        <path d="M 0.5000,0.0000 L 0.4878,-0.1162 L 0.4780,-0.1886 L 0.4674,-0.2494 L 0.4556,-0.3033 L 0.4424,-0.3525 L 0.4276,-0.3978 L 0.4114,-0.4399 L 0.3937,-0.4791 L 0.3744,-0.5156 L 0.3538,-0.5494 L 0.3319,-0.5807 L 0.3087,-0.6095 L 0.2843,-0.6358 L 0.2589,-0.6596 L 0.2326,-0.6809 L 0.2053,-0.6997 L 0.1774,-0.7160 L 0.1488,-0.7298 L 0.1197,-0.7411 L 0.0901,-0.7499 L 0.0603,-0.7562 L 0.0302,-0.7600 L 0.0000,-0.7612 L -0.0302,-0.7600 L -0.0602,-0.7562 L -0.0901,-0.7499 L -0.1197,-0.7411 L -0.1488,-0.7298 L -0.1774,-0.7160 L -0.2053,-0.6997 L -0.2326,-0.6809 L -0.2589,-0.6596 L -0.2843,-0.6358 L -0.3087,-0.6095 L -0.3319,-0.5807 L -0.3538,-0.5494 L -0.3744,-0.5156 L -0.3937,-0.4791 L -0.4114,-0.4399 L -0.4276,-0.3978 L -0.4424,-0.3525 L -0.4556,-0.3033 L -0.4674,-0.2494 L -0.4780,-0.1886 L -0.4878,-0.1162 L -0.5000,0.0000"/>
        <g id="arrows24">
          <use xlink:href="#arrow1" transform="translate(0.0001,-0.7593) rotate(177.28) scale(2.2)"/>
        </g>
      </g>
      <g id="fieldline25">
        <path d="M 0.5000,0.0000 L 0.5109,-0.1188 L 0.5157,-0.1953 L 0.5174,-0.2610 L 0.5166,-0.3206 L 0.5134,-0.3760 L 0.5079,-0.4283 L 0.5001,-0.4779 L 0.4903,-0.5251 L 0.4783,-0.5701 L 0.4644,-0.6129 L 0.4485,-0.6535 L 0.4308,-0.6920 L 0.4114,-0.7283 L 0.3903,-0.7624 L 0.3676,-0.7943 L 0.3435,-0.8239 L 0.3181,-0.8511 L 0.2914,-0.8760 L 0.2637,-0.8985 L 0.2350,-0.9186 L 0.2054,-0.9362 L 0.1750,-0.9513 L 0.1441,-0.9639 L 0.1126,-0.9740 L 0.0807,-0.9816 L 0.0485,-0.9867 L 0.0162,-0.9892 L -0.0162,-0.9892 L -0.0485,-0.9867 L -0.0807,-0.9816 L -0.1126,-0.9740 L -0.1440,-0.9639 L -0.1750,-0.9513 L -0.2054,-0.9362 L -0.2350,-0.9186 L -0.2637,-0.8985 L -0.2914,-0.8760 L -0.3181,-0.8511 L -0.3435,-0.8239 L -0.3676,-0.7943 L -0.3903,-0.7624 L -0.4114,-0.7283 L -0.4308,-0.6920 L -0.4485,-0.6535 L -0.4644,-0.6129 L -0.4783,-0.5701 L -0.4903,-0.5251 L -0.5001,-0.4779 L -0.5079,-0.4283 L -0.5134,-0.3760 L -0.5166,-0.3206 L -0.5174,-0.2610 L -0.5157,-0.1953 L -0.5109,-0.1188 L -0.5000,0.0000"/>
        <g id="arrows25">
          <use xlink:href="#arrow1" transform="translate(0.0001,-0.9879) rotate(177.47) scale(2.2)"/>
        </g>
      </g>
      <g id="fieldline26">
        <path d="M 0.5000,0.0000 L 0.5350,-0.1182 L 0.5559,-0.1967 L 0.5718,-0.2657 L 0.5840,-0.3296 L 0.5931,-0.3903 L 0.5993,-0.4486 L 0.6028,-0.5051 L 0.6037,-0.5598 L 0.6020,-0.6130 L 0.5979,-0.6648 L 0.5914,-0.7150 L 0.5825,-0.7637 L 0.5714,-0.8108 L 0.5580,-0.8563 L 0.5426,-0.9000 L 0.5251,-0.9419 L 0.5057,-0.9820 L 0.4844,-1.0201 L 0.4614,-1.0561 L 0.4367,-1.0901 L 0.4105,-1.1218 L 0.3829,-1.1514 L 0.3539,-1.1786 L 0.3238,-1.2035 L 0.2926,-1.2260 L 0.2604,-1.2461 L 0.2274,-1.2638 L 0.1936,-1.2789 L 0.1592,-1.2916 L 0.1244,-1.3017 L 0.0891,-1.3094 L 0.0536,-1.3145 L 0.0179,-1.3170 L -0.0179,-1.3170 L -0.0536,-1.3145 L -0.0891,-1.3094 L -0.1244,-1.3017 L -0.1592,-1.2916 L -0.1936,-1.2789 L -0.2274,-1.2638 L -0.2604,-1.2461 L -0.2926,-1.2260 L -0.3238,-1.2035 L -0.3539,-1.1786 L -0.3828,-1.1514 L -0.4105,-1.1218 L -0.4367,-1.0901 L -0.4614,-1.0561 L -0.4844,-1.0201 L -0.5057,-0.9820 L -0.5251,-0.9419 L -0.5426,-0.9000 L -0.5580,-0.8563 L -0.5714,-0.8108 L -0.5825,-0.7637 L -0.5914,-0.7150 L -0.5979,-0.6648 L -0.6020,-0.6130 L -0.6037,-0.5598 L -0.6028,-0.5051 L -0.5993,-0.4486 L -0.5931,-0.3903 L -0.5840,-0.3296 L -0.5718,-0.2657 L -0.5559,-0.1967 L -0.5350,-0.1182 L -0.5000,0.0000"/>
        <g id="arrows26">
          <use xlink:href="#arrow1" transform="translate(0.5709,-0.8089) rotate(-105.77) scale(2.2)"/>
          <use xlink:href="#arrow1" transform="translate(-0.5709,-0.8089) rotate(103.67) scale(2.2)"/>
        </g>
      </g>
      <g id="fieldline27">
        <path d="M 0.5000,0.0000 L 0.5599,-0.1139 L 0.5984,-0.1918 L 0.6304,-0.2619 L 0.6578,-0.3281 L 0.6818,-0.3922 L 0.7025,-0.4548 L 0.7203,-0.5165 L 0.7353,-0.5775 L 0.7475,-0.6378 L 0.7571,-0.6974 L 0.7640,-0.7565 L 0.7683,-0.8148 L 0.7700,-0.8724 L 0.7692,-0.9291 L 0.7659,-0.9850 L 0.7602,-1.0398 L 0.7520,-1.0935 L 0.7415,-1.1460 L 0.7287,-1.1971 L 0.7137,-1.2468 L 0.6965,-1.2950 L 0.6772,-1.3415 L 0.6560,-1.3864 L 0.6328,-1.4294 L 0.6078,-1.4705 L 0.5811,-1.5096 L 0.5527,-1.5467 L 0.5228,-1.5817 L 0.4914,-1.6145 L 0.4587,-1.6451 L 0.4248,-1.6734 L 0.3897,-1.6993 L 0.3537,-1.7229 L 0.3167,-1.7441 L 0.2788,-1.7629 L 0.2403,-1.7792 L 0.2012,-1.7930 L 0.1616,-1.8043 L 0.1215,-1.8131 L 0.0812,-1.8195 L 0.0406,-1.8232 L 0.0000,-1.8245 L -0.0407,-1.8232 L -0.0812,-1.8195 L -0.1215,-1.8131 L -0.1616,-1.8043 L -0.2012,-1.7930 L -0.2403,-1.7792 L -0.2789,-1.7628 L -0.3167,-1.7441 L -0.3537,-1.7229 L -0.3897,-1.6993 L -0.4248,-1.6734 L -0.4587,-1.6451 L -0.4914,-1.6145 L -0.5228,-1.5817 L -0.5527,-1.5467 L -0.5811,-1.5096 L -0.6078,-1.4705 L -0.6328,-1.4294 L -0.6560,-1.3863 L -0.6772,-1.3415 L -0.6965,-1.2950 L -0.7137,-1.2468 L -0.7287,-1.1971 L -0.7415,-1.1459 L -0.7520,-1.0935 L -0.7602,-1.0398 L -0.7659,-0.9850 L -0.7692,-0.9291 L -0.7700,-0.8724 L -0.7683,-0.8148 L -0.7640,-0.7565 L -0.7571,-0.6974 L -0.7475,-0.6378 L -0.7353,-0.5775 L -0.7203,-0.5165 L -0.7025,-0.4548 L -0.6818,-0.3922 L -0.6578,-0.3281 L -0.6304,-0.2619 L -0.5984,-0.1918 L -0.5599,-0.1139 L -0.5000,0.0000"/>
        <g id="arrows27">
          <use xlink:href="#arrow1" transform="translate(0.7584,-0.7115) rotate(-83.47) scale(2.2)"/>
          <use xlink:href="#arrow1" transform="translate(0.0000,-1.8233) rotate(178.44) scale(2.2)"/>
          <use xlink:href="#arrow1" transform="translate(-0.7582,-0.7116) rotate(82.00) scale(2.2)"/>
        </g>
      </g>
      <g id="fieldline28">
        <path d="M 0.5000,0.0000 L 0.5864,-0.1067 L 0.6445,-0.1819 L 0.6949,-0.2512 L 0.7404,-0.3180 L 0.7822,-0.3837 L 0.8208,-0.4492 L 0.8564,-0.5146 L 0.8893,-0.5803 L 0.9196,-0.6463 L 0.9472,-0.7127 L 0.9722,-0.7794 L 0.9946,-0.8464 L 1.0144,-0.9136 L 1.0316,-0.9809 L 1.0462,-1.0483 L 1.0582,-1.1156 L 1.0676,-1.1828 L 1.0744,-1.2498 L 1.0787,-1.3163 L 1.0803,-1.3824 L 1.0794,-1.4479 L 1.0760,-1.5127 L 1.0700,-1.5767 L 1.0617,-1.6398 L 1.0509,-1.7018 L 1.0377,-1.7627 L 1.0222,-1.8223 L 1.0045,-1.8806 L 0.9845,-1.9374 L 0.9624,-1.9927 L 0.9382,-2.0464 L 0.9121,-2.0983 L 0.8839,-2.1485 L 0.8540,-2.1968 L 0.8223,-2.2431 L 0.7889,-2.2874 L 0.7539,-2.3297 L 0.7173,-2.3698 L 0.6794,-2.4077 L 0.6401,-2.4433 L 0.5995,-2.4767 L 0.5578,-2.5078 L 0.5151,-2.5364 L 0.4713,-2.5627 L 0.4267,-2.5866 L 0.3813,-2.6080 L 0.3352,-2.6269 L 0.2884,-2.6434 L 0.2412,-2.6573 L 0.1934,-2.6688 L 0.1454,-2.6776 L 0.0971,-2.6840 L 0.0486,-2.6878 L 0.0000,-2.6891 L -0.0486,-2.6878 L -0.0971,-2.6840 L -0.1454,-2.6776 L -0.1934,-2.6688 L -0.2412,-2.6573 L -0.2884,-2.6434 L -0.3352,-2.6269 L -0.3813,-2.6080 L -0.4267,-2.5866 L -0.4714,-2.5627 L -0.5151,-2.5364 L -0.5579,-2.5077 L -0.5995,-2.4767 L -0.6401,-2.4433 L -0.6794,-2.4077 L -0.7173,-2.3698 L -0.7539,-2.3297 L -0.7889,-2.2874 L -0.8223,-2.2431 L -0.8540,-2.1968 L -0.8840,-2.1485 L -0.9121,-2.0983 L -0.9382,-2.0464 L -0.9624,-1.9927 L -0.9845,-1.9374 L -1.0045,-1.8806 L -1.0222,-1.8223 L -1.0377,-1.7627 L -1.0509,-1.7018 L -1.0617,-1.6398 L -1.0700,-1.5767 L -1.0760,-1.5127 L -1.0794,-1.4479 L -1.0803,-1.3824 L -1.0787,-1.3163 L -1.0744,-1.2497 L -1.0676,-1.1828 L -1.0582,-1.1156 L -1.0462,-1.0483 L -1.0316,-0.9809 L -1.0144,-0.9135 L -0.9946,-0.8464 L -0.9722,-0.7794 L -0.9472,-0.7127 L -0.9196,-0.6463 L -0.8893,-0.5803 L -0.8564,-0.5146 L -0.8208,-0.4492 L -0.7822,-0.3837 L -0.7404,-0.3180 L -0.6949,-0.2512 L -0.6445,-0.1819 L -0.5864,-0.1067 L -0.5000,0.0000"/>
        <g id="arrows28">
          <use xlink:href="#arrow1" transform="translate(0.9501,-0.7213) rotate(-69.13) scale(2.2)"/>
          <use xlink:href="#arrow1" transform="translate(0.7486,-2.3345) rotate(-132.19) scale(2.2)"/>
          <use xlink:href="#arrow1" transform="translate(-0.7486,-2.3345) rotate(130.63) scale(2.2)"/>
          <use xlink:href="#arrow1" transform="translate(-0.9500,-0.7213) rotate(68.19) scale(2.2)"/>
        </g>
      </g>
      <g id="fieldline29">
        <path d="M 0.5000,0.0000 L 0.6133,-0.0941 L 0.6928,-0.1629 L 0.7634,-0.2272 L 0.8292,-0.2904 L 0.8916,-0.3536 L 0.9513,-0.4175 L 1.0086,-0.4824 L 1.0636,-0.5485 L 1.1165,-0.6159 L 1.1674,-0.6845 L 1.2161,-0.7544 L 1.2628,-0.8256 L 1.3073,-0.8980 L 1.3497,-0.9715 L 1.3898,-1.0461 L 1.4278,-1.1218 L 1.4635,-1.1984 L 1.4969,-1.2759 L 1.5280,-1.3541 L 1.5567,-1.4331 L 1.5831,-1.5126 L 1.6071,-1.5927 L 1.6286,-1.6731 L 1.6477,-1.7539 L 1.6643,-1.8348 L 1.6785,-1.9159 L 1.6902,-1.9970 L 1.6994,-2.0781 L 1.7062,-2.1589 L 1.7104,-2.2395 L 1.7123,-2.3197 L 1.7116,-2.3995 L 1.7086,-2.4787 L 1.7031,-2.5572 L 1.6953,-2.6351 L 1.6850,-2.7121 L 1.6725,-2.7881 L 1.6576,-2.8632 L 1.6405,-2.9372 L 1.6212,-3.0100 M -1.6212,-3.0100 L -1.6405,-2.9372 L -1.6576,-2.8632 L -1.6725,-2.7881 L -1.6850,-2.7121 L -1.6953,-2.6351 L -1.7031,-2.5572 L -1.7086,-2.4787 L -1.7116,-2.3995 L -1.7123,-2.3197 L -1.7104,-2.2395 L -1.7061,-2.1589 L -1.6994,-2.0781 L -1.6902,-1.9970 L -1.6785,-1.9159 L -1.6643,-1.8348 L -1.6477,-1.7539 L -1.6286,-1.6731 L -1.6071,-1.5927 L -1.5831,-1.5126 L -1.5567,-1.4331 L -1.5280,-1.3541 L -1.4969,-1.2759 L -1.4635,-1.1984 L -1.4278,-1.1218 L -1.3898,-1.0461 L -1.3497,-0.9715 L -1.3073,-0.8980 L -1.2628,-0.8256 L -1.2161,-0.7544 L -1.1674,-0.6845 L -1.1165,-0.6159 L -1.0636,-0.5485 L -1.0086,-0.4825 L -0.9513,-0.4175 L -0.8916,-0.3536 L -0.8292,-0.2904 L -0.7634,-0.2272 L -0.6928,-0.1629 L -0.6133,-0.0941 L -0.5000,0.0000"/>
        <g id="arrows29">
          <use xlink:href="#arrow1" transform="translate(1.1030,-0.5991) rotate(-52.58) scale(2.2)"/>
          <use xlink:href="#arrow1" transform="translate(1.7062,-2.1663) rotate(-86.65) scale(2.2)"/>
          <use xlink:href="#arrow1" transform="translate(-1.7061,-2.1663) rotate(85.86) scale(2.2)"/>
          <use xlink:href="#arrow1" transform="translate(-1.1032,-0.5989) rotate(51.84) scale(2.2)"/>
        </g>
      </g>
      <g id="fieldline30">
        <path d="M 0.5000,0.0000 L 0.6470,-0.0795 L 0.7538,-0.1399 L 0.8514,-0.1978 L 0.9446,-0.2560 L 1.0352,-0.3155 L 1.1238,-0.3766 L 1.2109,-0.4397 L 1.2966,-0.5049 L 1.3811,-0.5723 L 1.4644,-0.6419 L 1.5464,-0.7137 L 1.6272,-0.7877 L 1.7067,-0.8639 L 1.7849,-0.9423 L 1.8616,-1.0227 L 1.9368,-1.1052 L 2.0105,-1.1898 L 2.0826,-1.2762 L 2.1531,-1.3646 L 2.2218,-1.4548 L 2.2887,-1.5468 L 2.3538,-1.6404 L 2.4170,-1.7357 L 2.4782,-1.8325 L 2.5375,-1.9308 L 2.5946,-2.0305 L 2.6497,-2.1315 L 2.7026,-2.2339 L 2.7534,-2.3373 L 2.8019,-2.4419 L 2.8482,-2.5476 L 2.8921,-2.6542 L 2.9338,-2.7616 L 2.9731,-2.8699 L 3.0100,-2.9789 M -3.0100,-2.9789 L -2.9731,-2.8699 L -2.9338,-2.7616 L -2.8921,-2.6542 L -2.8482,-2.5476 L -2.8019,-2.4420 L -2.7534,-2.3373 L -2.7026,-2.2339 L -2.6497,-2.1315 L -2.5946,-2.0305 L -2.5375,-1.9308 L -2.4782,-1.8325 L -2.4170,-1.7357 L -2.3538,-1.6404 L -2.2887,-1.5468 L -2.2218,-1.4548 L -2.1531,-1.3646 L -2.0826,-1.2762 L -2.0105,-1.1898 L -1.9368,-1.1052 L -1.8616,-1.0227 L -1.7849,-0.9423 L -1.7067,-0.8639 L -1.6272,-0.7877 L -1.5464,-0.7137 L -1.4644,-0.6419 L -1.3811,-0.5723 L -1.2966,-0.5049 L -1.2109,-0.4397 L -1.1238,-0.3766 L -1.0352,-0.3155 L -0.9446,-0.2560 L -0.8514,-0.1978 L -0.7538,-0.1399 L -0.6470,-0.0795 L -0.5000,0.0000"/>
        <g id="arrows30">
          <use xlink:href="#arrow1" transform="translate(1.3396,-0.5392) rotate(-38.63) scale(2.2)"/>
          <use xlink:href="#arrow1" transform="translate(2.6126,-2.0635) rotate(-61.41) scale(2.2)"/>
          <use xlink:href="#arrow1" transform="translate(-2.6125,-2.0635) rotate(61.10) scale(2.2)"/>
          <use xlink:href="#arrow1" transform="translate(-1.3396,-0.5392) rotate(38.54) scale(2.2)"/>
        </g>
      </g>
      <g id="fieldline31">
        <path d="M 0.5000,0.0000 L 0.6934,-0.0596 L 0.8399,-0.1071 L 0.9778,-0.1544 L 1.1127,-0.2034 L 1.2464,-0.2545 L 1.3801,-0.3083 L 1.5139,-0.3649 L 1.6482,-0.4244 L 1.7829,-0.4868 L 1.9181,-0.5522 L 2.0538,-0.6206 L 2.1898,-0.6920 L 2.3262,-0.7665 L 2.4628,-0.8439 L 2.5996,-0.9243 L 2.7364,-1.0076 L 2.8733,-1.0938 L 3.0100,-1.1830 M -3.0100,-1.1830 L -2.8733,-1.0938 L -2.7364,-1.0076 L -2.5996,-0.9243 L -2.4628,-0.8439 L -2.3262,-0.7665 L -2.1898,-0.6920 L -2.0538,-0.6206 L -1.9181,-0.5522 L -1.7829,-0.4868 L -1.6482,-0.4244 L -1.5139,-0.3649 L -1.3801,-0.3083 L -1.2465,-0.2545 L -1.1127,-0.2034 L -0.9778,-0.1544 L -0.8399,-0.1071 L -0.6934,-0.0596 L -0.5000,0.0000"/>
        <g id="arrows31">
          <use xlink:href="#arrow1" transform="translate(1.1601,-0.2215) rotate(-20.93) scale(2.2)"/>
          <use xlink:href="#arrow1" transform="translate(2.4171,-0.8180) rotate(-29.59) scale(2.2)"/>
          <use xlink:href="#arrow1" transform="translate(-2.4171,-0.8180) rotate(29.54) scale(2.2)"/>
          <use xlink:href="#arrow1" transform="translate(-1.1601,-0.2215) rotate(20.85) scale(2.2)"/>
        </g>
      </g>
      <g id="fieldline32">
        <path d="M 0.5000,0.0000 L 0.7920,-0.0295 L 1.0293,-0.0556 L 1.2621,-0.0834 L 1.4972,-0.1136 L 1.7365,-0.1466 L 1.9809,-0.1825 L 2.2304,-0.2214 L 2.4852,-0.2633 L 2.7451,-0.3083 L 3.0100,-0.3564 M -3.0100,-0.3564 L -2.7451,-0.3083 L -2.4852,-0.2633 L -2.2304,-0.2214 L -1.9809,-0.1825 L -1.7365,-0.1466 L -1.4972,-0.1136 L -1.2621,-0.0834 L -1.0293,-0.0556 L -0.7920,-0.0295 L -0.5000,0.0000"/>
        <g id="arrows32">
          <use xlink:href="#arrow1" transform="translate(1.7590,-0.1499) rotate(-8.36) scale(2.2)"/>
          <use xlink:href="#arrow1" transform="translate(-1.7590,-0.1500) rotate(8.14) scale(2.2)"/>
        </g>
      </g>
    </g>
    <g id="symbols">
      <g id="charge1" transform="translate(-0.5,0.0) scale(0.015,0.015)">
        <circle style="fill:#0000ff; stroke:none" cx="0" cy="0" r="14"/>
        <circle cx="0" cy="0" r="14" style="fill:url(#white_spot); stroke:#000000; stroke-width:2"/>
        <path d="M 8,2 H -8 V -2 H 8 V 2 Z" style="fill:#000000; stroke:none"/>
      </g>
      <g id="charge2" transform="translate(0.5,0.0) scale(0.015,0.015)">
        <circle style="fill:#ff0000; stroke:none" cx="0" cy="0" r="14"/>
        <circle cx="0" cy="0" r="14" style="fill:url(#white_spot); stroke:#000000; stroke-width:2"/>
        <path d="M 2,2 V 8 H -2 V 2 H -8 V -2 H -2 V -8 H 2 V -2 H 8 V 2 H 2 Z" style="fill:#000000; stroke:none"/>
      </g>
    </g>
  </g>
</svg>