<?xml version="1.0" encoding="UTF-8"?>
<svg xmlns:xlink="http://www.w3.org/1999/xlink" xmlns="http://www.w3.org/2000/svg" version="1.1" baseProfile="full" width="600" height="600">
  <title>VFPt_dipole_electric</title>
  <desc>VFPt_dipole_electric
created with VectorFieldPlot 1.1
http://commons.wikimedia.org/wiki/User:Geek3/VectorFieldPlot

about: http://commons.wikimedia.org/wiki/File:VFPt_dipole_electric.svg
rights: GNU Free Documentation license,
        Creative Commons Attribution ShareAlike license
  </desc>
  <defs>
    <radialGradient id="white_spot" cx="0.65" cy="0.7" r="0.75">
      <stop stop-color="#ffffff" offset="0" stop-opacity="0.7"/>
      <stop stop-color="#ffffff" offset="0.1" stop-opacity="0.5"/>
      <stop stop-color="#ffffff" offset="0.6" stop-opacity="0"/>
      <stop stop-color="#000000" offset="0.6" stop-opacity="0"/>
      <stop stop-color="#000000" offset="0.75" stop-opacity="0.05"/>
      <stop stop-color="#000000" offset="0.85" stop-opacity="0.15"/>
      <stop stop-color="#000000" offset="1" stop-opacity="0.5"/>
    </radialGradient>
    <path id="arrow1" stroke="none" fill="#000000" transform="scale(0.01)" d="M 0.3,0 L -2.2,2.25 L 3.8,0 L -2.2,-2.25 L 0.3,0 Z"/>
  </defs>
  <rect id="background" x="0" y="0" width="600" height="600" fill="#ffffff"/>
  <g id="image" transform="translate(300.0,300.0) scale(100.0,-100.0)">
    <g id="fieldlines" fill="none" stroke="#000000" stroke-width="0.024" stroke-linejoin="round" stroke-linecap="round">
      <g id="fieldline1">
        <path d="M 0.5000,0.0000 L 0.7401,0.0432 L 0.9287,0.0794 L 1.1101,0.1167 L 1.2907,0.1563 L 1.4724,0.1986 L 1.6562,0.2439 L 1.8424,0.2922 L 2.0312,0.3438 L 2.2225,0.3985 L 2.4163,0.4565 L 2.6126,0.5178 L 2.8112,0.5823 L 3.0120,0.6501 M -3.0120,0.6501 L -2.8112,0.5823 L -2.6126,0.5178 L -2.4163,0.4565 L -2.2225,0.3985 L -2.0312,0.3438 L -1.8424,0.2922 L -1.6562,0.2439 L -1.4724,0.1986 L -1.2907,0.1563 L -1.1101,0.1167 L -0.9287,0.0794 L -0.7401,0.0432 L -0.5000,0.0000"/>
        <g id="arrows1">
          <use xlink:href="#arrow1" transform="translate(1.7694,0.2733) rotate(14.56) scale(2.64)"/>
          <use xlink:href="#arrow1" transform="translate(-1.7694,0.2733) rotate(-14.56) scale(2.64)"/>
        </g>
      </g>
      <g id="fieldline2">
        <path d="M 0.5000,0.0000 L 0.6401,0.0819 L 0.7413,0.1435 L 0.8333,0.2024 L 0.9208,0.2613 L 1.0055,0.3212 L 1.0881,0.3826 L 1.1690,0.4458 L 1.2483,0.5109 L 1.3263,0.5780 L 1.4028,0.6471 L 1.4780,0.7183 L 1.5517,0.7915 L 1.6240,0.8667 L 1.6947,0.9439 L 1.7640,1.0230 L 1.8316,1.1039 L 1.8975,1.1867 L 1.9617,1.2713 L 2.0241,1.3575 L 2.0846,1.4454 L 2.1433,1.5348 L 2.2000,1.6257 L 2.2547,1.7180 L 2.3073,1.8117 L 2.3579,1.9066 L 2.4063,2.0027 L 2.4525,2.1000 L 2.4966,2.1982 L 2.5383,2.2975 L 2.5778,2.3975 L 2.6150,2.4984 L 2.6498,2.6000 L 2.6823,2.7023 L 2.7124,2.8051 L 2.7400,2.9083 L 2.7653,3.0120 M -2.7653,3.0120 L -2.7400,2.9083 L -2.7124,2.8051 L -2.6823,2.7023 L -2.6498,2.6000 L -2.6150,2.4984 L -2.5778,2.3975 L -2.5383,2.2975 L -2.4966,2.1982 L -2.4525,2.1000 L -2.4063,2.0027 L -2.3579,1.9066 L -2.3073,1.8117 L -2.2547,1.7180 L -2.2000,1.6257 L -2.1433,1.5348 L -2.0846,1.4454 L -2.0241,1.3575 L -1.9617,1.2713 L -1.8975,1.1867 L -1.8316,1.1039 L -1.7640,1.0230 L -1.6947,0.9439 L -1.6240,0.8667 L -1.5517,0.7915 L -1.4780,0.7183 L -1.4028,0.6471 L -1.3263,0.5780 L -1.2483,0.5109 L -1.1690,0.4458 L -1.0881,0.3826 L -1.0055,0.3212 L -0.9208,0.2613 L -0.8333,0.2024 L -0.7413,0.1435 L -0.6401,0.0819 L -0.5000,0.0000"/>
        <g id="arrows2">
          <use xlink:href="#arrow1" transform="translate(1.2962,0.5524) rotate(41.14) scale(2.64)"/>
          <use xlink:href="#arrow1" transform="translate(2.4501,2.0957) rotate(65.45) scale(2.64)"/>
          <use xlink:href="#arrow1" transform="translate(-2.4501,2.0957) rotate(-64.85) scale(2.64)"/>
          <use xlink:href="#arrow1" transform="translate(-1.2963,0.5522) rotate(-40.65) scale(2.64)"/>
        </g>
      </g>
      <g id="fieldline3">
        <path d="M 0.5000,0.0000 L 0.5878,0.1059 L 0.6469,0.1808 L 0.6983,0.2498 L 0.7447,0.3163 L 0.7875,0.3819 L 0.8271,0.4472 L 0.8639,0.5125 L 0.8979,0.5782 L 0.9292,0.6443 L 0.9580,0.7107 L 0.9842,0.7775 L 1.0078,0.8447 L 1.0288,0.9122 L 1.0473,0.9798 L 1.0632,1.0476 L 1.0764,1.1154 L 1.0871,1.1831 L 1.0953,1.2506 L 1.1008,1.3178 L 1.1038,1.3846 L 1.1042,1.4509 L 1.1022,1.5165 L 1.0976,1.5814 L 1.0905,1.6455 L 1.0811,1.7086 L 1.0692,1.7706 L 1.0550,1.8315 L 1.0385,1.8910 L 1.0198,1.9492 L 0.9989,2.0060 L 0.9759,2.0612 L 0.9509,2.1147 L 0.9239,2.1665 L 0.8950,2.2165 L 0.8643,2.2646 L 0.8319,2.3107 L 0.7978,2.3549 L 0.7621,2.3969 L 0.7249,2.4368 L 0.6864,2.4746 L 0.6465,2.5100 L 0.6054,2.5432 L 0.5632,2.5741 L 0.5199,2.6027 L 0.4757,2.6288 L 0.4305,2.6525 L 0.3847,2.6738 L 0.3381,2.6926 L 0.2909,2.7090 L 0.2432,2.7229 L 0.1951,2.7342 L 0.1466,2.7431 L 0.0979,2.7494 L 0.0490,2.7532 L -0.0000,2.7545 L -0.0490,2.7532 L -0.0979,2.7494 L -0.1466,2.7431 L -0.1951,2.7342 L -0.2432,2.7229 L -0.2909,2.7090 L -0.3381,2.6926 L -0.3847,2.6738 L -0.4306,2.6525 L -0.4756,2.6288 L -0.5199,2.6026 L -0.5632,2.5741 L -0.6054,2.5432 L -0.6465,2.5100 L -0.6864,2.4745 L -0.7249,2.4368 L -0.7621,2.3969 L -0.7978,2.3549 L -0.8319,2.3107 L -0.8643,2.2646 L -0.8950,2.2165 L -0.9239,2.1665 L -0.9509,2.1147 L -0.9759,2.0611 L -0.9989,2.0060 L -1.0198,1.9492 L -1.0385,1.8910 L -1.0550,1.8315 L -1.0692,1.7706 L -1.0811,1.7086 L -1.0905,1.6455 L -1.0976,1.5814 L -1.1022,1.5165 L -1.1042,1.4509 L -1.1038,1.3846 L -1.1008,1.3178 L -1.0953,1.2506 L -1.0871,1.1831 L -1.0764,1.1154 L -1.0631,1.0476 L -1.0473,0.9798 L -1.0288,0.9122 L -1.0078,0.8447 L -0.9842,0.7775 L -0.9580,0.7107 L -0.9292,0.6443 L -0.8979,0.5782 L -0.8639,0.5125 L -0.8271,0.4471 L -0.7875,0.3818 L -0.7447,0.3163 L -0.6983,0.2497 L -0.6469,0.1808 L -0.5878,0.1059 L -0.5000,0.0000"/>
        <g id="arrows3">
          <use xlink:href="#arrow1" transform="translate(0.9675,0.7357) rotate(69.11) scale(2.64)"/>
          <use xlink:href="#arrow1" transform="translate(0.7669,2.3899) rotate(132.15) scale(2.64)"/>
          <use xlink:href="#arrow1" transform="translate(-0.7669,2.3899) rotate(-130.19) scale(2.64)"/>
          <use xlink:href="#arrow1" transform="translate(-0.9674,0.7357) rotate(-67.71) scale(2.64)"/>
        </g>
      </g>
      <g id="fieldline4">
        <path d="M 0.5000,0.0000 L 0.5419,0.1175 L 0.5675,0.1962 L 0.5877,0.2658 L 0.6040,0.3307 L 0.6169,0.3927 L 0.6269,0.4525 L 0.6340,0.5106 L 0.6384,0.5674 L 0.6402,0.6228 L 0.6394,0.6769 L 0.6362,0.7298 L 0.6304,0.7813 L 0.6223,0.8315 L 0.6119,0.8802 L 0.5992,0.9274 L 0.5843,0.9729 L 0.5673,1.0168 L 0.5483,1.0588 L 0.5274,1.0990 L 0.5047,1.1372 L 0.4802,1.1734 L 0.4541,1.2074 L 0.4265,1.2392 L 0.3975,1.2689 L 0.3673,1.2962 L 0.3358,1.3211 L 0.3033,1.3437 L 0.2698,1.3638 L 0.2355,1.3815 L 0.2005,1.3967 L 0.1648,1.4094 L 0.1287,1.4196 L 0.0922,1.4272 L 0.0554,1.4323 L 0.0185,1.4349 L -0.0185,1.4349 L -0.0554,1.4323 L -0.0922,1.4272 L -0.1287,1.4196 L -0.1649,1.4094 L -0.2005,1.3967 L -0.2355,1.3815 L -0.2698,1.3638 L -0.3033,1.3437 L -0.3358,1.3211 L -0.3673,1.2962 L -0.3975,1.2688 L -0.4265,1.2392 L -0.4541,1.2074 L -0.4802,1.1733 L -0.5047,1.1372 L -0.5274,1.0990 L -0.5483,1.0588 L -0.5673,1.0168 L -0.5843,0.9729 L -0.5992,0.9274 L -0.6119,0.8802 L -0.6223,0.8315 L -0.6304,0.7813 L -0.6362,0.7298 L -0.6394,0.6769 L -0.6402,0.6228 L -0.6384,0.5673 L -0.6340,0.5106 L -0.6269,0.4525 L -0.6169,0.3927 L -0.6040,0.3307 L -0.5877,0.2658 L -0.5675,0.1962 L -0.5419,0.1175 L -0.5000,0.0000"/>
        <g id="arrows4">
          <use xlink:href="#arrow1" transform="translate(0.6118,0.8751) rotate(104.57) scale(2.64)"/>
          <use xlink:href="#arrow1" transform="translate(-0.6118,0.8751) rotate(-102.02) scale(2.64)"/>
        </g>
      </g>
      <g id="fieldline5">
        <path d="M 0.5000,0.0000 L 0.4992,0.1182 L 0.4965,0.1931 L 0.4918,0.2567 L 0.4852,0.3137 L 0.4766,0.3663 L 0.4661,0.4153 L 0.4537,0.4613 L 0.4395,0.5046 L 0.4235,0.5454 L 0.4057,0.5837 L 0.3863,0.6197 L 0.3654,0.6532 L 0.3429,0.6844 L 0.3192,0.7132 L 0.2941,0.7395 L 0.2679,0.7634 L 0.2407,0.7849 L 0.2126,0.8039 L 0.1837,0.8203 L 0.1541,0.8343 L 0.1240,0.8457 L 0.0934,0.8546 L 0.0624,0.8609 L 0.0313,0.8648 L -0.0000,0.8660 L -0.0313,0.8648 L -0.0624,0.8609 L -0.0934,0.8546 L -0.1240,0.8457 L -0.1541,0.8343 L -0.1837,0.8203 L -0.2126,0.8039 L -0.2407,0.7849 L -0.2679,0.7635 L -0.2941,0.7395 L -0.3192,0.7132 L -0.3429,0.6844 L -0.3654,0.6532 L -0.3863,0.6197 L -0.4057,0.5837 L -0.4235,0.5454 L -0.4395,0.5046 L -0.4537,0.4613 L -0.4661,0.4153 L -0.4766,0.3663 L -0.4852,0.3137 L -0.4918,0.2567 L -0.4965,0.1931 L -0.4992,0.1182 L -0.5000,0.0000"/>
        <g id="arrows5">
          <use xlink:href="#arrow1" transform="translate(0.0001,0.8636) rotate(-176.82) scale(2.64)"/>
        </g>
      </g>
      <g id="fieldline6">
        <path d="M 0.5000,0.0000 L 0.4595,0.1090 L 0.4330,0.1742 L 0.4090,0.2273 L 0.3857,0.2729 L 0.3624,0.3133 L 0.3388,0.3494 L 0.3146,0.3820 L 0.2899,0.4112 L 0.2645,0.4374 L 0.2385,0.4608 L 0.2119,0.4813 L 0.1848,0.4992 L 0.1572,0.5144 L 0.1291,0.5271 L 0.1008,0.5371 L 0.0722,0.5447 L 0.0434,0.5497 L 0.0145,0.5522 L -0.0145,0.5522 L -0.0434,0.5497 L -0.0722,0.5447 L -0.1008,0.5371 L -0.1292,0.5270 L -0.1572,0.5144 L -0.1848,0.4992 L -0.2119,0.4813 L -0.2385,0.4607 L -0.2645,0.4374 L -0.2899,0.4112 L -0.3146,0.3820 L -0.3388,0.3494 L -0.3624,0.3133 L -0.3857,0.2729 L -0.4090,0.2273 L -0.4330,0.1742 L -0.4595,0.1090 L -0.5000,0.0000"/>
        <g id="arrows6">
          <use xlink:href="#arrow1" transform="translate(0.0002,0.5497) rotate(-176.43) scale(2.64)"/>
        </g>
      </g>
      <g id="fieldline7">
        <path d="M 0.5000,0.0000 L 0.4228,0.0909 L 0.3765,0.1422 L 0.3380,0.1817 L 0.3029,0.2145 L 0.2699,0.2421 L 0.2382,0.2657 L 0.2074,0.2857 L 0.1771,0.3025 L 0.1472,0.3164 L 0.1176,0.3276 L 0.0880,0.3363 L 0.0587,0.3423 L 0.0293,0.3460 L 0.0000,0.3472 L -0.0293,0.3460 L -0.0586,0.3424 L -0.0881,0.3363 L -0.1175,0.3276 L -0.1472,0.3164 L -0.1771,0.3025 L -0.2074,0.2857 L -0.2382,0.2657 L -0.2699,0.2421 L -0.3029,0.2145 L -0.3380,0.1817 L -0.3765,0.1422 L -0.4228,0.0909 L -0.5000,0.0000"/>
        <g id="arrows7">
          <use xlink:href="#arrow1" transform="translate(0.0002,0.3446) rotate(-176.50) scale(2.64)"/>
        </g>
      </g>
      <g id="fieldline8">
        <path d="M 0.5000,0.0000 L 0.3844,0.0659 L 0.3194,0.1006 L 0.2676,0.1259 L 0.2223,0.1456 L 0.1810,0.1609 L 0.1423,0.1729 L 0.1054,0.1818 L 0.0697,0.1880 L 0.0346,0.1916 L 0.0000,0.1928 L -0.0347,0.1916 L -0.0697,0.1880 L -0.1054,0.1818 L -0.1423,0.1728 L -0.1810,0.1609 L -0.2223,0.1456 L -0.2676,0.1259 L -0.3195,0.1006 L -0.3844,0.0659 L -0.5000,0.0000"/>
        <g id="arrows8">
          <use xlink:href="#arrow1" transform="translate(0.0001,0.1909) rotate(-177.66) scale(2.64)"/>
        </g>
      </g>
      <g id="fieldline9">
        <path d="M 0.5000,0.0000 L 0.3211,0.0308 L 0.2268,0.0450 L 0.1534,0.0538 L 0.0891,0.0591 L 0.0293,0.0617 L -0.0291,0.0617 L -0.0890,0.0591 L -0.1534,0.0538 L -0.2268,0.0450 L -0.3210,0.0308 L -0.5000,0.0000"/>
        <g id="arrows9">
          <use xlink:href="#arrow1" transform="translate(0.0000,0.0612) rotate(-178.99) scale(2.64)"/>
        </g>
      </g>
      <g id="fieldline10">
        <path d="M 0.5000,0.0000 L 0.3211,-0.0308 L 0.2268,-0.0450 L 0.1534,-0.0538 L 0.0891,-0.0591 L 0.0293,-0.0617 L -0.0291,-0.0617 L -0.0890,-0.0591 L -0.1534,-0.0538 L -0.2268,-0.0450 L -0.3210,-0.0308 L -0.5000,0.0000"/>
        <g id="arrows10">
          <use xlink:href="#arrow1" transform="translate(0.0000,-0.0612) rotate(178.99) scale(2.64)"/>
        </g>
      </g>
      <g id="fieldline11">
        <path d="M 0.5000,0.0000 L 0.3844,-0.0659 L 0.3194,-0.1006 L 0.2676,-0.1259 L 0.2223,-0.1456 L 0.1810,-0.1609 L 0.1423,-0.1729 L 0.1054,-0.1818 L 0.0697,-0.1880 L 0.0346,-0.1916 L 0.0000,-0.1928 L -0.0347,-0.1916 L -0.0697,-0.1880 L -0.1054,-0.1818 L -0.1423,-0.1728 L -0.1810,-0.1609 L -0.2223,-0.1456 L -0.2676,-0.1259 L -0.3195,-0.1006 L -0.3844,-0.0659 L -0.5000,0.0000"/>
        <g id="arrows11">
          <use xlink:href="#arrow1" transform="translate(0.0001,-0.1909) rotate(177.66) scale(2.64)"/>
        </g>
      </g>
      <g id="fieldline12">
        <path d="M 0.5000,0.0000 L 0.4228,-0.0909 L 0.3765,-0.1422 L 0.3380,-0.1817 L 0.3029,-0.2145 L 0.2699,-0.2421 L 0.2382,-0.2657 L 0.2074,-0.2857 L 0.1771,-0.3025 L 0.1472,-0.3164 L 0.1176,-0.3276 L 0.0880,-0.3363 L 0.0587,-0.3423 L 0.0293,-0.3460 L 0.0000,-0.3472 L -0.0293,-0.3460 L -0.0586,-0.3424 L -0.0881,-0.3363 L -0.1175,-0.3276 L -0.1472,-0.3164 L -0.1771,-0.3025 L -0.2074,-0.2857 L -0.2382,-0.2657 L -0.2699,-0.2421 L -0.3029,-0.2145 L -0.3380,-0.1817 L -0.3765,-0.1422 L -0.4228,-0.0909 L -0.5000,0.0000"/>
        <g id="arrows12">
          <use xlink:href="#arrow1" transform="translate(0.0002,-0.3446) rotate(176.50) scale(2.64)"/>
        </g>
      </g>
      <g id="fieldline13">
        <path d="M 0.5000,0.0000 L 0.4595,-0.1090 L 0.4330,-0.1742 L 0.4090,-0.2273 L 0.3857,-0.2729 L 0.3624,-0.3133 L 0.3388,-0.3494 L 0.3146,-0.3820 L 0.2899,-0.4112 L 0.2645,-0.4374 L 0.2385,-0.4608 L 0.2119,-0.4813 L 0.1848,-0.4992 L 0.1572,-0.5144 L 0.1291,-0.5271 L 0.1008,-0.5371 L 0.0722,-0.5447 L 0.0434,-0.5497 L 0.0145,-0.5522 L -0.0145,-0.5522 L -0.0434,-0.5497 L -0.0722,-0.5447 L -0.1008,-0.5371 L -0.1292,-0.5270 L -0.1572,-0.5144 L -0.1848,-0.4992 L -0.2119,-0.4813 L -0.2385,-0.4607 L -0.2645,-0.4374 L -0.2899,-0.4112 L -0.3146,-0.3820 L -0.3388,-0.3494 L -0.3624,-0.3133 L -0.3857,-0.2729 L -0.4090,-0.2273 L -0.4330,-0.1742 L -0.4595,-0.1090 L -0.5000,0.0000"/>
        <g id="arrows13">
          <use xlink:href="#arrow1" transform="translate(0.0002,-0.5497) rotate(176.43) scale(2.64)"/>
        </g>
      </g>
      <g id="fieldline14">
        <path d="M 0.5000,0.0000 L 0.4992,-0.1182 L 0.4965,-0.1931 L 0.4918,-0.2567 L 0.4852,-0.3137 L 0.4766,-0.3663 L 0.4661,-0.4153 L 0.4537,-0.4613 L 0.4395,-0.5046 L 0.4235,-0.5454 L 0.4057,-0.5837 L 0.3863,-0.6197 L 0.3654,-0.6532 L 0.3429,-0.6844 L 0.3192,-0.7132 L 0.2941,-0.7395 L 0.2679,-0.7634 L 0.2407,-0.7849 L 0.2126,-0.8039 L 0.1837,-0.8203 L 0.1541,-0.8343 L 0.1240,-0.8457 L 0.0934,-0.8546 L 0.0624,-0.8609 L 0.0313,-0.8648 L -0.0000,-0.8660 L -0.0313,-0.8648 L -0.0624,-0.8609 L -0.0934,-0.8546 L -0.1240,-0.8457 L -0.1541,-0.8343 L -0.1837,-0.8203 L -0.2126,-0.8039 L -0.2407,-0.7849 L -0.2679,-0.7635 L -0.2941,-0.7395 L -0.3192,-0.7132 L -0.3429,-0.6844 L -0.3654,-0.6532 L -0.3863,-0.6197 L -0.4057,-0.5837 L -0.4235,-0.5454 L -0.4395,-0.5046 L -0.4537,-0.4613 L -0.4661,-0.4153 L -0.4766,-0.3663 L -0.4852,-0.3137 L -0.4918,-0.2567 L -0.4965,-0.1931 L -0.4992,-0.1182 L -0.5000,0.0000"/>
        <g id="arrows14">
          <use xlink:href="#arrow1" transform="translate(0.0001,-0.8636) rotate(176.82) scale(2.64)"/>
        </g>
      </g>
      <g id="fieldline15">
        <path d="M 0.5000,0.0000 L 0.5419,-0.1175 L 0.5675,-0.1962 L 0.5877,-0.2658 L 0.6040,-0.3307 L 0.6169,-0.3927 L 0.6269,-0.4525 L 0.6340,-0.5106 L 0.6384,-0.5674 L 0.6402,-0.6228 L 0.6394,-0.6769 L 0.6362,-0.7298 L 0.6304,-0.7813 L 0.6223,-0.8315 L 0.6119,-0.8802 L 0.5992,-0.9274 L 0.5843,-0.9729 L 0.5673,-1.0168 L 0.5483,-1.0588 L 0.5274,-1.0990 L 0.5047,-1.1372 L 0.4802,-1.1734 L 0.4541,-1.2074 L 0.4265,-1.2392 L 0.3975,-1.2689 L 0.3673,-1.2962 L 0.3358,-1.3211 L 0.3033,-1.3437 L 0.2698,-1.3638 L 0.2355,-1.3815 L 0.2005,-1.3967 L 0.1648,-1.4094 L 0.1287,-1.4196 L 0.0922,-1.4272 L 0.0554,-1.4323 L 0.0185,-1.4349 L -0.0185,-1.4349 L -0.0554,-1.4323 L -0.0922,-1.4272 L -0.1287,-1.4196 L -0.1649,-1.4094 L -0.2005,-1.3967 L -0.2355,-1.3815 L -0.2698,-1.3638 L -0.3033,-1.3437 L -0.3358,-1.3211 L -0.3673,-1.2962 L -0.3975,-1.2688 L -0.4265,-1.2392 L -0.4541,-1.2074 L -0.4802,-1.1733 L -0.5047,-1.1372 L -0.5274,-1.0990 L -0.5483,-1.0588 L -0.5673,-1.0168 L -0.5843,-0.9729 L -0.5992,-0.9274 L -0.6119,-0.8802 L -0.6223,-0.8315 L -0.6304,-0.7813 L -0.6362,-0.7298 L -0.6394,-0.6769 L -0.6402,-0.6228 L -0.6384,-0.5673 L -0.6340,-0.5106 L -0.6269,-0.4525 L -0.6169,-0.3927 L -0.6040,-0.3307 L -0.5877,-0.2658 L -0.5675,-0.1962 L -0.5419,-0.1175 L -0.5000,0.0000"/>
        <g id="arrows15">
          <use xlink:href="#arrow1" transform="translate(0.6118,-0.8751) rotate(-104.57) scale(2.64)"/>
          <use xlink:href="#arrow1" transform="translate(-0.6118,-0.8751) rotate(102.02) scale(2.64)"/>
        </g>
      </g>
      <g id="fieldline16">
        <path d="M 0.5000,0.0000 L 0.5878,-0.1059 L 0.6469,-0.1808 L 0.6983,-0.2498 L 0.7447,-0.3163 L 0.7875,-0.3819 L 0.8271,-0.4472 L 0.8639,-0.5125 L 0.8979,-0.5782 L 0.9292,-0.6443 L 0.9580,-0.7107 L 0.9842,-0.7775 L 1.0078,-0.8447 L 1.0288,-0.9122 L 1.0473,-0.9798 L 1.0632,-1.0476 L 1.0764,-1.1154 L 1.0871,-1.1831 L 1.0953,-1.2506 L 1.1008,-1.3178 L 1.1038,-1.3846 L 1.1042,-1.4509 L 1.1022,-1.5165 L 1.0976,-1.5814 L 1.0905,-1.6455 L 1.0811,-1.7086 L 1.0692,-1.7706 L 1.0550,-1.8315 L 1.0385,-1.8910 L 1.0198,-1.9492 L 0.9989,-2.0060 L 0.9759,-2.0612 L 0.9509,-2.1147 L 0.9239,-2.1665 L 0.8950,-2.2165 L 0.8643,-2.2646 L 0.8319,-2.3107 L 0.7978,-2.3549 L 0.7621,-2.3969 L 0.7249,-2.4368 L 0.6864,-2.4746 L 0.6465,-2.5100 L 0.6054,-2.5432 L 0.5632,-2.5741 L 0.5199,-2.6027 L 0.4757,-2.6288 L 0.4305,-2.6525 L 0.3847,-2.6738 L 0.3381,-2.6926 L 0.2909,-2.7090 L 0.2432,-2.7229 L 0.1951,-2.7342 L 0.1466,-2.7431 L 0.0979,-2.7494 L 0.0490,-2.7532 L -0.0000,-2.7545 L -0.0490,-2.7532 L -0.0979,-2.7494 L -0.1466,-2.7431 L -0.1951,-2.7342 L -0.2432,-2.7229 L -0.2909,-2.7090 L -0.3381,-2.6926 L -0.3847,-2.6738 L -0.4306,-2.6525 L -0.4756,-2.6288 L -0.5199,-2.6026 L -0.5632,-2.5741 L -0.6054,-2.5432 L -0.6465,-2.5100 L -0.6864,-2.4745 L -0.7249,-2.4368 L -0.7621,-2.3969 L -0.7978,-2.3549 L -0.8319,-2.3107 L -0.8643,-2.2646 L -0.8950,-2.2165 L -0.9239,-2.1665 L -0.9509,-2.1147 L -0.9759,-2.0611 L -0.9989,-2.0060 L -1.0198,-1.9492 L -1.0385,-1.8910 L -1.0550,-1.8315 L -1.0692,-1.7706 L -1.0811,-1.7086 L -1.0905,-1.6455 L -1.0976,-1.5814 L -1.1022,-1.5165 L -1.1042,-1.4509 L -1.1038,-1.3846 L -1.1008,-1.3178 L -1.0953,-1.2506 L -1.0871,-1.1831 L -1.0764,-1.1154 L -1.0631,-1.0476 L -1.0473,-0.9798 L -1.0288,-0.9122 L -1.0078,-0.8447 L -0.9842,-0.7775 L -0.9580,-0.7107 L -0.9292,-0.6443 L -0.8979,-0.5782 L -0.8639,-0.5125 L -0.8271,-0.4471 L -0.7875,-0.3818 L -0.7447,-0.3163 L -0.6983,-0.2497 L -0.6469,-0.1808 L -0.5878,-0.1059 L -0.5000,0.0000"/>
        <g id="arrows16">
          <use xlink:href="#arrow1" transform="translate(0.9675,-0.7357) rotate(-69.11) scale(2.64)"/>
          <use xlink:href="#arrow1" transform="translate(0.7669,-2.3899) rotate(-132.15) scale(2.64)"/>
          <use xlink:href="#arrow1" transform="translate(-0.7669,-2.3899) rotate(130.19) scale(2.64)"/>
          <use xlink:href="#arrow1" transform="translate(-0.9674,-0.7357) rotate(67.71) scale(2.64)"/>
        </g>
      </g>
      <g id="fieldline17">
        <path d="M 0.5000,0.0000 L 0.6401,-0.0819 L 0.7413,-0.1435 L 0.8333,-0.2024 L 0.9208,-0.2613 L 1.0055,-0.3212 L 1.0881,-0.3826 L 1.1690,-0.4458 L 1.2483,-0.5109 L 1.3263,-0.5780 L 1.4028,-0.6471 L 1.4780,-0.7183 L 1.5517,-0.7915 L 1.6240,-0.8667 L 1.6947,-0.9439 L 1.7640,-1.0230 L 1.8316,-1.1039 L 1.8975,-1.1867 L 1.9617,-1.2713 L 2.0241,-1.3575 L 2.0846,-1.4454 L 2.1433,-1.5348 L 2.2000,-1.6257 L 2.2547,-1.7180 L 2.3073,-1.8117 L 2.3579,-1.9066 L 2.4063,-2.0027 L 2.4525,-2.1000 L 2.4966,-2.1982 L 2.5383,-2.2975 L 2.5778,-2.3975 L 2.6150,-2.4984 L 2.6498,-2.6000 L 2.6823,-2.7023 L 2.7124,-2.8051 L 2.7400,-2.9083 L 2.7653,-3.0120 M -2.7653,-3.0120 L -2.7400,-2.9083 L -2.7124,-2.8051 L -2.6823,-2.7023 L -2.6498,-2.6000 L -2.6150,-2.4984 L -2.5778,-2.3975 L -2.5383,-2.2975 L -2.4966,-2.1982 L -2.4525,-2.1000 L -2.4063,-2.0027 L -2.3579,-1.9066 L -2.3073,-1.8117 L -2.2547,-1.7180 L -2.2000,-1.6257 L -2.1433,-1.5348 L -2.0846,-1.4454 L -2.0241,-1.3575 L -1.9617,-1.2713 L -1.8975,-1.1867 L -1.8316,-1.1039 L -1.7640,-1.0230 L -1.6947,-0.9439 L -1.6240,-0.8667 L -1.5517,-0.7915 L -1.4780,-0.7183 L -1.4028,-0.6471 L -1.3263,-0.5780 L -1.2483,-0.5109 L -1.1690,-0.4458 L -1.0881,-0.3826 L -1.0055,-0.3212 L -0.9208,-0.2613 L -0.8333,-0.2024 L -0.7413,-0.1435 L -0.6401,-0.0819 L -0.5000,0.0000"/>
        <g id="arrows17">
          <use xlink:href="#arrow1" transform="translate(1.2962,-0.5524) rotate(-41.14) scale(2.64)"/>
          <use xlink:href="#arrow1" transform="translate(2.4501,-2.0957) rotate(-65.45) scale(2.64)"/>
          <use xlink:href="#arrow1" transform="translate(-2.4501,-2.0957) rotate(64.85) scale(2.64)"/>
          <use xlink:href="#arrow1" transform="translate(-1.2963,-0.5522) rotate(40.65) scale(2.64)"/>
        </g>
      </g>
      <g id="fieldline18">
        <path d="M 0.5000,0.0000 L 0.7401,-0.0432 L 0.9287,-0.0794 L 1.1101,-0.1167 L 1.2907,-0.1563 L 1.4724,-0.1986 L 1.6562,-0.2439 L 1.8424,-0.2922 L 2.0312,-0.3438 L 2.2225,-0.3985 L 2.4163,-0.4565 L 2.6126,-0.5178 L 2.8112,-0.5823 L 3.0120,-0.6501 M -3.0120,-0.6501 L -2.8112,-0.5823 L -2.6126,-0.5178 L -2.4163,-0.4565 L -2.2225,-0.3985 L -2.0312,-0.3438 L -1.8424,-0.2922 L -1.6562,-0.2439 L -1.4724,-0.1986 L -1.2907,-0.1563 L -1.1101,-0.1167 L -0.9287,-0.0794 L -0.7401,-0.0432 L -0.5000,0.0000"/>
        <g id="arrows18">
          <use xlink:href="#arrow1" transform="translate(1.7694,-0.2733) rotate(-14.56) scale(2.64)"/>
          <use xlink:href="#arrow1" transform="translate(-1.7694,-0.2733) rotate(14.56) scale(2.64)"/>
        </g>
      </g>
    </g>
    <g id="symbols">
      <g id="charge1" transform="translate(-0.5,0.0) scale(0.015,0.015)">
        <circle style="fill:#0000ff; stroke:none" cx="0" cy="0" r="14"/>
        <circle cx="0" cy="0" r="14" style="fill:url(#white_spot); stroke:#000000; stroke-width:2"/>
        <path d="M 8,2 H -8 V -2 H 8 V 2 Z" style="fill:#000000; stroke:none"/>
      </g>
      <g id="charge2" transform="translate(0.5,0.0) scale(0.015,0.015)">
        <circle style="fill:#ff0000; stroke:none" cx="0" cy="0" r="14"/>
        <circle cx="0" cy="0" r="14" style="fill:url(#white_spot); stroke:#000000; stroke-width:2"/>
        <path d="M 2,2 V 8 H -2 V 2 H -8 V -2 H -2 V -8 H 2 V -2 H 8 V 2 H 2 Z" style="fill:#000000; stroke:none"/>
      </g>
    </g>
  </g>
</svg>