<?xml version="1.0" encoding="UTF-8"?>
<svg xmlns:xlink="http://www.w3.org/1999/xlink" xmlns="http://www.w3.org/2000/svg" version="1.1" baseProfile="full" width="700" height="600">
  <title>VFPt_Dipole_field</title>
  <desc>VFPt_Dipole_field
created with VectorFieldPlot 1.3
http://commons.wikimedia.org/wiki/User:Geek3/VectorFieldPlot

about: http://commons.wikimedia.org/wiki/File:VFPt_Dipole_field.svg
rights: GNU Free Documentation license,
        Creative Commons Attribution ShareAlike license
  </desc>
  <defs>
    <path id="arrow1" stroke="none" fill="#000000" transform="scale(0.01)" d="M 0.3,0 L -2.2,2.25 L 3.8,0 L -2.2,-2.25 L 0.3,0 Z"/>
  </defs>
  <rect id="background" x="0" y="0" width="700" height="600" fill="#ffffff"/>
  <g id="image" transform="translate(350.0,300.0) scale(100.0,-100.0)">
    <g id="fieldlines" fill="none" stroke="#000000" stroke-width="0.01" stroke-linejoin="round" stroke-linecap="round">
      <g id="fieldline1">
        <path d="M 0.0000,3.0050 L 0.0000,-3.0050"/>
        <g id="arrows1">
          <use xlink:href="#arrow1" transform="translate(0.0000,1.5550) rotate(-90.00) scale(2.4)"/>
          <use xlink:href="#arrow1" transform="translate(0.0000,-1.5550) rotate(-90.00) scale(2.4)"/>
        </g>
      </g>
      <g id="fieldline2">
        <path d="M 0.0000,0.0000 L 0.0022,-0.0201 L 0.0082,-0.0471 L 0.0177,-0.0782 L 0.0308,-0.1117 L 0.0472,-0.1467 L 0.0670,-0.1825 L 0.0898,-0.2187 L 0.1156,-0.2548 L 0.1441,-0.2904 L 0.1754,-0.3252 L 0.2091,-0.3589 L 0.2451,-0.3914 L 0.2832,-0.4224 L 0.3233,-0.4517 L 0.3652,-0.4792 L 0.4086,-0.5047 L 0.4535,-0.5281 L 0.4996,-0.5492 L 0.5467,-0.5681 L 0.5946,-0.5846 L 0.6432,-0.5986 L 0.6922,-0.6102 L 0.7415,-0.6193 L 0.7910,-0.6258 L 0.8403,-0.6297 L 0.8894,-0.6312 L 0.9380,-0.6301 L 0.9861,-0.6265 L 1.0334,-0.6204 L 1.0797,-0.6120 L 1.1250,-0.6012 L 1.1690,-0.5881 L 1.2117,-0.5728 L 1.2529,-0.5554 L 1.2925,-0.5360 L 1.3304,-0.5146 L 1.3664,-0.4913 L 1.4005,-0.4664 L 1.4326,-0.4398 L 1.4626,-0.4117 L 1.4904,-0.3822 L 1.5160,-0.3514 L 1.5393,-0.3195 L 1.5603,-0.2865 L 1.5788,-0.2526 L 1.5950,-0.2179 L 1.6087,-0.1825 L 1.6199,-0.1465 L 1.6287,-0.1101 L 1.6349,-0.0733 L 1.6386,-0.0363 L 1.6398,0.0008 L 1.6385,0.0379 L 1.6347,0.0749 L 1.6283,0.1116 L 1.6195,0.1480 L 1.6082,0.1840 L 1.5944,0.2194 L 1.5781,0.2540 L 1.5594,0.2879 L 1.5384,0.3208 L 1.5150,0.3527 L 1.4893,0.3835 L 1.4614,0.4129 L 1.4313,0.4409 L 1.3992,0.4674 L 1.3650,0.4923 L 1.3289,0.5155 L 1.2909,0.5368 L 1.2513,0.5562 L 1.2100,0.5735 L 1.1672,0.5887 L 1.1231,0.6017 L 1.0778,0.6124 L 1.0314,0.6207 L 0.9841,0.6267 L 0.9360,0.6302 L 0.8874,0.6312 L 0.8383,0.6296 L 0.7889,0.6255 L 0.7395,0.6189 L 0.6902,0.6098 L 0.6411,0.5981 L 0.5926,0.5839 L 0.5447,0.5674 L 0.4976,0.5484 L 0.4516,0.5271 L 0.4068,0.5037 L 0.3634,0.4781 L 0.3216,0.4505 L 0.2816,0.4212 L 0.2435,0.3901 L 0.2076,0.3576 L 0.1740,0.3238 L 0.1429,0.2889 L 0.1144,0.2533 L 0.0888,0.2172 L 0.0661,0.1810 L 0.0465,0.1452 L 0.0302,0.1102 L 0.0173,0.0768 L 0.0078,0.0459 L 0.0021,0.0192 L 0.0000,0.0000 Z"/>
        <g id="arrows2">
          <use xlink:href="#arrow1" transform="translate(1.2551,-0.5539) rotate(27.43) scale(2.4)"/>
          <use xlink:href="#arrow1" transform="translate(1.2551,0.5538) rotate(157.88) scale(2.4)"/>
        </g>
      </g>
      <g id="fieldline3">
        <path d="M 0.0000,0.0000 L 0.0022,-0.0221 L 0.0081,-0.0523 L 0.0178,-0.0872 L 0.0310,-0.1251 L 0.0477,-0.1651 L 0.0677,-0.2063 L 0.0910,-0.2483 L 0.1175,-0.2906 L 0.1469,-0.3329 L 0.1792,-0.3748 L 0.2143,-0.4160 L 0.2519,-0.4564 L 0.2920,-0.4956 L 0.3343,-0.5334 L 0.3789,-0.5698 L 0.4253,-0.6045 L 0.4737,-0.6374 L 0.5237,-0.6683 L 0.5752,-0.6972 L 0.6280,-0.7240 L 0.6821,-0.7485 L 0.7371,-0.7706 L 0.7931,-0.7904 L 0.8497,-0.8078 L 0.9069,-0.8227 L 0.9645,-0.8350 L 1.0222,-0.8448 L 1.0801,-0.8521 L 1.1378,-0.8568 L 1.1953,-0.8589 L 1.2524,-0.8586 L 1.3090,-0.8556 L 1.3648,-0.8502 L 1.4199,-0.8424 L 1.4740,-0.8321 L 1.5269,-0.8194 L 1.5787,-0.8045 L 1.6291,-0.7873 L 1.6781,-0.7680 L 1.7255,-0.7465 L 1.7712,-0.7231 L 1.8152,-0.6977 L 1.8574,-0.6705 L 1.8976,-0.6415 L 1.9357,-0.6109 L 1.9718,-0.5787 L 2.0058,-0.5451 L 2.0375,-0.5101 L 2.0670,-0.4738 L 2.0941,-0.4364 L 2.1189,-0.3979 L 2.1414,-0.3585 L 2.1613,-0.3182 L 2.1789,-0.2772 L 2.1940,-0.2355 L 2.2065,-0.1933 L 2.2166,-0.1506 L 2.2242,-0.1076 L 2.2292,-0.0644 L 2.2317,-0.0210 L 2.2317,0.0224 L 2.2291,0.0658 L 2.2240,0.1091 L 2.2163,0.1520 L 2.2062,0.1947 L 2.1935,0.2369 L 2.1784,0.2785 L 2.1607,0.3195 L 2.1407,0.3598 L 2.1182,0.3992 L 2.0933,0.4376 L 2.0660,0.4750 L 2.0365,0.5112 L 2.0047,0.5462 L 1.9707,0.5798 L 1.9345,0.6119 L 1.8963,0.6425 L 1.8560,0.6714 L 1.8138,0.6986 L 1.7698,0.7239 L 1.7240,0.7473 L 1.6765,0.7686 L 1.6275,0.7879 L 1.5770,0.8050 L 1.5252,0.8199 L 1.4722,0.8324 L 1.4181,0.8426 L 1.3630,0.8504 L 1.3071,0.8558 L 1.2506,0.8586 L 1.1935,0.8589 L 1.1359,0.8567 L 1.0782,0.8519 L 1.0204,0.8446 L 0.9626,0.8347 L 0.9050,0.8222 L 0.8479,0.8073 L 0.7913,0.7898 L 0.7353,0.7700 L 0.6803,0.7477 L 0.6263,0.7231 L 0.5735,0.6963 L 0.5220,0.6674 L 0.4721,0.6363 L 0.4238,0.6034 L 0.3774,0.5686 L 0.3329,0.5322 L 0.2907,0.4943 L 0.2507,0.4551 L 0.2131,0.4147 L 0.1782,0.3735 L 0.1459,0.3315 L 0.1166,0.2893 L 0.0902,0.2469 L 0.0670,0.2050 L 0.0471,0.1638 L 0.0305,0.1239 L 0.0174,0.0860 L 0.0079,0.0512 L 0.0021,0.0213 L 0.0000,0.0000 Z"/>
        <g id="arrows3">
          <use xlink:href="#arrow1" transform="translate(1.1637,-0.8576) rotate(-0.75) scale(2.4)"/>
          <use xlink:href="#arrow1" transform="translate(1.1637,0.8576) rotate(-176.29) scale(2.4)"/>
        </g>
      </g>
      <g id="fieldline4">
        <path d="M 0.0000,0.0000 L 0.0022,-0.0247 L 0.0081,-0.0589 L 0.0177,-0.0988 L 0.0310,-0.1424 L 0.0479,-0.1887 L 0.0682,-0.2368 L 0.0920,-0.2863 L 0.1190,-0.3366 L 0.1492,-0.3873 L 0.1824,-0.4382 L 0.2187,-0.4890 L 0.2578,-0.5393 L 0.2996,-0.5889 L 0.3440,-0.6377 L 0.3910,-0.6854 L 0.4403,-0.7319 L 0.4919,-0.7770 L 0.5456,-0.8205 L 0.6013,-0.8624 L 0.6589,-0.9025 L 0.7181,-0.9407 L 0.7790,-0.9769 L 0.8414,-1.0109 L 0.9050,-1.0428 L 0.9699,-1.0725 L 1.0358,-1.0998 L 1.1027,-1.1248 L 1.1703,-1.1473 L 1.2386,-1.1674 L 1.3073,-1.1850 L 1.3765,-1.2000 L 1.4459,-1.2125 L 1.5154,-1.2225 L 1.5849,-1.2299 L 1.6543,-1.2347 L 1.7233,-1.2369 L 1.7920,-1.2366 L 1.8601,-1.2338 L 1.9276,-1.2284 L 1.9944,-1.2206 L 2.0602,-1.2103 L 2.1251,-1.1976 L 2.1888,-1.1826 L 2.2514,-1.1652 L 2.3126,-1.1456 L 2.3725,-1.1237 L 2.4308,-1.0997 L 2.4875,-1.0737 L 2.5426,-1.0456 L 2.5959,-1.0155 L 2.6474,-0.9836 L 2.6970,-0.9499 L 2.7446,-0.9145 L 2.7901,-0.8774 L 2.8336,-0.8388 L 2.8749,-0.7987 L 2.9140,-0.7572 L 2.9509,-0.7144 L 2.9855,-0.6704 L 3.0177,-0.6252 L 3.0476,-0.5790 L 3.0751,-0.5318 L 3.1002,-0.4838 L 3.1228,-0.4349 L 3.1429,-0.3853 L 3.1606,-0.3351 L 3.1758,-0.2844 L 3.1885,-0.2332 L 3.1986,-0.1817 L 3.2062,-0.1298 L 3.2113,-0.0778 L 3.2138,-0.0256 L 3.2137,0.0266 L 3.2112,0.0788 L 3.2061,0.1309 L 3.1984,0.1827 L 3.1882,0.2342 L 3.1755,0.2854 L 3.1603,0.3361 L 3.1426,0.3863 L 3.1224,0.4359 L 3.0997,0.4847 L 3.0746,0.5327 L 3.0470,0.5799 L 3.0171,0.6261 L 2.9848,0.6712 L 2.9502,0.7152 L 2.9133,0.7580 L 2.8741,0.7995 L 2.8328,0.8396 L 2.7893,0.8782 L 2.7436,0.9152 L 2.6960,0.9506 L 2.6464,0.9843 L 2.5949,1.0161 L 2.5415,1.0461 L 2.4864,1.0742 L 2.4297,1.1002 L 2.3713,1.1242 L 2.3114,1.1460 L 2.2502,1.1656 L 2.1876,1.1829 L 2.1238,1.1979 L 2.0589,1.2105 L 1.9931,1.2208 L 1.9263,1.2286 L 1.8588,1.2339 L 1.7907,1.2366 L 1.7220,1.2369 L 1.6529,1.2346 L 1.5836,1.2297 L 1.5141,1.2223 L 1.4445,1.2123 L 1.3751,1.1998 L 1.3060,1.1847 L 1.2372,1.1670 L 1.1690,1.1469 L 1.1014,1.1243 L 1.0345,1.0993 L 0.9686,1.0719 L 0.9038,1.0422 L 0.8401,1.0103 L 0.7778,0.9762 L 0.7170,0.9400 L 0.6577,0.9017 L 0.6002,0.8616 L 0.5445,0.8197 L 0.4909,0.7761 L 0.4393,0.7310 L 0.3900,0.6845 L 0.3431,0.6368 L 0.2987,0.5880 L 0.2570,0.5383 L 0.2179,0.4880 L 0.1817,0.4372 L 0.1485,0.3863 L 0.1184,0.3356 L 0.0915,0.2853 L 0.0678,0.2358 L 0.0475,0.1877 L 0.0307,0.1415 L 0.0175,0.0980 L 0.0079,0.0582 L 0.0021,0.0242 L 0.0000,0.0000 Z"/>
        <g id="arrows4">
          <use xlink:href="#arrow1" transform="translate(1.0129,-1.0901) rotate(-21.24) scale(2.4)"/>
          <use xlink:href="#arrow1" transform="translate(1.0128,1.0902) rotate(-156.71) scale(2.4)"/>
        </g>
      </g>
      <g id="fieldline5">
        <path d="M 3.5050,1.8244 L 3.4270,1.8460 L 3.3477,1.8653 L 3.2673,1.8822 L 3.1859,1.8967 L 3.1035,1.9089 L 3.0203,1.9186 L 2.9363,1.9258 L 2.8516,1.9306 L 2.7663,1.9328 L 2.6806,1.9325 L 2.5945,1.9296 L 2.5080,1.9243 L 2.4214,1.9163 L 2.3347,1.9058 L 2.2481,1.8928 L 2.1615,1.8772 L 2.0752,1.8590 L 1.9892,1.8384 L 1.9037,1.8152 L 1.8187,1.7896 L 1.7344,1.7615 L 1.6508,1.7310 L 1.5681,1.6981 L 1.4864,1.6629 L 1.4058,1.6254 L 1.3263,1.5857 L 1.2482,1.5438 L 1.1715,1.4997 L 1.0963,1.4537 L 1.0227,1.4056 L 0.9509,1.3557 L 0.8809,1.3040 L 0.8128,1.2506 L 0.7468,1.1955 L 0.6830,1.1390 L 0.6213,1.0811 L 0.5621,1.0219 L 0.5052,0.9617 L 0.4509,0.9004 L 0.3993,0.8384 L 0.3504,0.7757 L 0.3043,0.7125 L 0.2611,0.6491 L 0.2210,0.5856 L 0.1839,0.5223 L 0.1500,0.4596 L 0.1193,0.3976 L 0.0920,0.3367 L 0.0681,0.2774 L 0.0477,0.2201 L 0.0308,0.1655 L 0.0175,0.1143 L 0.0080,0.0678 L 0.0021,0.0282 L 0.0000,0.0000"/>
        <g id="arrows5">
          <use xlink:href="#arrow1" transform="translate(0.8321,1.2655) rotate(-140.80) scale(2.4)"/>
        </g>
      </g>
      <g id="fieldline6">
        <path d="M 0.0000,0.0000 L 0.0021,-0.0282 L 0.0080,-0.0678 L 0.0175,-0.1143 L 0.0308,-0.1655 L 0.0477,-0.2201 L 0.0681,-0.2774 L 0.0920,-0.3367 L 0.1193,-0.3976 L 0.1500,-0.4596 L 0.1839,-0.5223 L 0.2210,-0.5856 L 0.2611,-0.6491 L 0.3043,-0.7125 L 0.3504,-0.7757 L 0.3993,-0.8384 L 0.4509,-0.9004 L 0.5052,-0.9617 L 0.5621,-1.0219 L 0.6213,-1.0811 L 0.6830,-1.1390 L 0.7468,-1.1955 L 0.8128,-1.2506 L 0.8809,-1.3040 L 0.9509,-1.3557 L 1.0227,-1.4056 L 1.0963,-1.4537 L 1.1715,-1.4997 L 1.2482,-1.5438 L 1.3263,-1.5857 L 1.4058,-1.6254 L 1.4864,-1.6629 L 1.5681,-1.6981 L 1.6508,-1.7310 L 1.7344,-1.7615 L 1.8187,-1.7896 L 1.9037,-1.8152 L 1.9892,-1.8384 L 2.0752,-1.8590 L 2.1615,-1.8772 L 2.2481,-1.8928 L 2.3347,-1.9058 L 2.4214,-1.9163 L 2.5080,-1.9243 L 2.5945,-1.9296 L 2.6806,-1.9325 L 2.7663,-1.9328 L 2.8516,-1.9306 L 2.9363,-1.9258 L 3.0203,-1.9186 L 3.1035,-1.9089 L 3.1859,-1.8967 L 3.2673,-1.8822 L 3.3477,-1.8653 L 3.4270,-1.8460 L 3.5050,-1.8244"/>
        <g id="arrows6">
          <use xlink:href="#arrow1" transform="translate(0.8320,-1.2656) rotate(-37.82) scale(2.4)"/>
        </g>
      </g>
      <g id="fieldline7">
        <path d="M 2.7545,3.0050 L 2.6472,2.9584 L 2.5410,2.9096 L 2.4359,2.8586 L 2.3321,2.8055 L 2.2295,2.7503 L 2.1283,2.6930 L 2.0285,2.6337 L 1.9302,2.5724 L 1.8336,2.5092 L 1.7386,2.4442 L 1.6453,2.3774 L 1.5539,2.3089 L 1.4643,2.2388 L 1.3768,2.1670 L 1.2913,2.0938 L 1.2078,2.0192 L 1.1266,1.9432 L 1.0477,1.8659 L 0.9711,1.7876 L 0.8968,1.7082 L 0.8251,1.6278 L 0.7559,1.5466 L 0.6893,1.4647 L 0.6254,1.3822 L 0.5642,1.2993 L 0.5058,1.2160 L 0.4503,1.1326 L 0.3978,1.0492 L 0.3482,0.9660 L 0.3017,0.8831 L 0.2583,0.8008 L 0.2181,0.7193 L 0.1811,0.6389 L 0.1474,0.5599 L 0.1171,0.4825 L 0.0901,0.4071 L 0.0666,0.3342 L 0.0465,0.2642 L 0.0300,0.1980 L 0.0170,0.1363 L 0.0077,0.0806 L 0.0020,0.0333 L 0.0000,0.0000"/>
        <g id="arrows7">
          <use xlink:href="#arrow1" transform="translate(0.6346,1.3939) rotate(-126.76) scale(2.4)"/>
        </g>
      </g>
      <g id="fieldline8">
        <path d="M 0.0000,0.0000 L 0.0020,-0.0333 L 0.0077,-0.0806 L 0.0170,-0.1363 L 0.0300,-0.1980 L 0.0465,-0.2642 L 0.0666,-0.3342 L 0.0901,-0.4071 L 0.1171,-0.4825 L 0.1474,-0.5599 L 0.1811,-0.6389 L 0.2181,-0.7193 L 0.2583,-0.8008 L 0.3017,-0.8831 L 0.3482,-0.9660 L 0.3978,-1.0492 L 0.4503,-1.1326 L 0.5058,-1.2160 L 0.5642,-1.2993 L 0.6254,-1.3822 L 0.6893,-1.4647 L 0.7559,-1.5466 L 0.8251,-1.6278 L 0.8968,-1.7082 L 0.9711,-1.7876 L 1.0477,-1.8659 L 1.1266,-1.9432 L 1.2078,-2.0192 L 1.2913,-2.0938 L 1.3768,-2.1670 L 1.4643,-2.2388 L 1.5539,-2.3089 L 1.6453,-2.3774 L 1.7386,-2.4442 L 1.8336,-2.5092 L 1.9302,-2.5724 L 2.0285,-2.6337 L 2.1283,-2.6930 L 2.2295,-2.7503 L 2.3321,-2.8055 L 2.4359,-2.8586 L 2.5410,-2.9096 L 2.6472,-2.9584 L 2.7545,-3.0050"/>
        <g id="arrows8">
          <use xlink:href="#arrow1" transform="translate(0.6345,-1.3940) rotate(-52.23) scale(2.4)"/>
        </g>
      </g>
      <g id="fieldline9">
        <path d="M 1.3288,3.0050 L 1.2398,2.8818 L 1.1534,2.7583 L 1.0699,2.6347 L 0.9892,2.5109 L 0.9114,2.3873 L 0.8365,2.2637 L 0.7645,2.1404 L 0.6956,2.0176 L 0.6297,1.8952 L 0.5669,1.7736 L 0.5072,1.6527 L 0.4506,1.5329 L 0.3972,1.4142 L 0.3470,1.2968 L 0.3001,1.1810 L 0.2565,1.0670 L 0.2162,0.9550 L 0.1792,0.8453 L 0.1456,0.7382 L 0.1155,0.6341 L 0.0887,0.5334 L 0.0655,0.4366 L 0.0457,0.3443 L 0.0294,0.2574 L 0.0167,0.1768 L 0.0075,0.1042 L 0.0020,0.0430 L 0.0000,0.0000"/>
        <g id="arrows9">
          <use xlink:href="#arrow1" transform="translate(0.4276,1.4818) rotate(-114.17) scale(2.4)"/>
        </g>
      </g>
      <g id="fieldline10">
        <path d="M 0.0000,0.0000 L 0.0020,-0.0430 L 0.0075,-0.1042 L 0.0167,-0.1768 L 0.0294,-0.2574 L 0.0457,-0.3443 L 0.0655,-0.4366 L 0.0887,-0.5334 L 0.1155,-0.6341 L 0.1456,-0.7382 L 0.1792,-0.8453 L 0.2162,-0.9550 L 0.2565,-1.0670 L 0.3001,-1.1810 L 0.3470,-1.2968 L 0.3972,-1.4142 L 0.4506,-1.5329 L 0.5072,-1.6527 L 0.5669,-1.7736 L 0.6297,-1.8952 L 0.6956,-2.0176 L 0.7645,-2.1404 L 0.8365,-2.2637 L 0.9114,-2.3873 L 0.9892,-2.5109 L 1.0699,-2.6347 L 1.1534,-2.7583 L 1.2398,-2.8818 L 1.3288,-3.0050"/>
        <g id="arrows10">
          <use xlink:href="#arrow1" transform="translate(0.4276,-1.4817) rotate(-65.51) scale(2.4)"/>
        </g>
      </g>
      <g id="fieldline11">
        <path d="M 0.5983,3.0050 L 0.5344,2.7911 L 0.4741,2.5804 L 0.4173,2.3732 L 0.3640,2.1696 L 0.3143,1.9700 L 0.2683,1.7747 L 0.2258,1.5840 L 0.1869,1.3983 L 0.1517,1.2181 L 0.1201,1.0437 L 0.0922,0.8759 L 0.0679,0.7153 L 0.0474,0.5629 L 0.0305,0.4199 L 0.0173,0.2879 L 0.0078,0.1695 L 0.0021,0.0700 L 0.0000,0.0000"/>
        <g id="arrows11">
          <use xlink:href="#arrow1" transform="translate(0.2151,1.5331) rotate(-101.82) scale(2.4)"/>
        </g>
      </g>
      <g id="fieldline12">
        <path d="M 0.0000,0.0000 L 0.0021,-0.0700 L 0.0078,-0.1695 L 0.0173,-0.2879 L 0.0305,-0.4199 L 0.0474,-0.5629 L 0.0679,-0.7153 L 0.0922,-0.8759 L 0.1201,-1.0437 L 0.1517,-1.2181 L 0.1869,-1.3983 L 0.2258,-1.5840 L 0.2683,-1.7747 L 0.3143,-1.9700 L 0.3640,-2.1696 L 0.4173,-2.3732 L 0.4741,-2.5804 L 0.5344,-2.7911 L 0.5983,-3.0050"/>
        <g id="arrows12">
          <use xlink:href="#arrow1" transform="translate(0.2152,-1.5331) rotate(-77.96) scale(2.4)"/>
        </g>
      </g>
      <g id="fieldline13">
        <path d="M -0.5983,3.0050 L -0.5344,2.7911 L -0.4741,2.5804 L -0.4173,2.3732 L -0.3640,2.1696 L -0.3143,1.9700 L -0.2683,1.7747 L -0.2258,1.5840 L -0.1869,1.3983 L -0.1517,1.2181 L -0.1201,1.0437 L -0.0922,0.8759 L -0.0679,0.7153 L -0.0474,0.5629 L -0.0305,0.4199 L -0.0173,0.2879 L -0.0078,0.1695 L -0.0021,0.0700 L 0.0000,0.0000"/>
        <g id="arrows13">
          <use xlink:href="#arrow1" transform="translate(-0.2151,1.5331) rotate(-78.18) scale(2.4)"/>
        </g>
      </g>
      <g id="fieldline14">
        <path d="M 0.0000,0.0000 L -0.0021,-0.0700 L -0.0078,-0.1695 L -0.0173,-0.2879 L -0.0305,-0.4199 L -0.0474,-0.5629 L -0.0679,-0.7153 L -0.0922,-0.8759 L -0.1201,-1.0437 L -0.1517,-1.2181 L -0.1869,-1.3983 L -0.2258,-1.5840 L -0.2683,-1.7747 L -0.3143,-1.9700 L -0.3640,-2.1696 L -0.4173,-2.3732 L -0.4741,-2.5804 L -0.5344,-2.7911 L -0.5983,-3.0050"/>
        <g id="arrows14">
          <use xlink:href="#arrow1" transform="translate(-0.2152,-1.5331) rotate(-102.04) scale(2.4)"/>
        </g>
      </g>
      <g id="fieldline15">
        <path d="M -1.3288,3.0050 L -1.2398,2.8818 L -1.1534,2.7583 L -1.0699,2.6347 L -0.9892,2.5109 L -0.9114,2.3873 L -0.8365,2.2637 L -0.7645,2.1404 L -0.6956,2.0176 L -0.6297,1.8952 L -0.5669,1.7736 L -0.5072,1.6527 L -0.4506,1.5329 L -0.3972,1.4142 L -0.3470,1.2968 L -0.3001,1.1810 L -0.2565,1.0670 L -0.2162,0.9550 L -0.1792,0.8453 L -0.1456,0.7382 L -0.1155,0.6341 L -0.0887,0.5334 L -0.0655,0.4366 L -0.0457,0.3443 L -0.0294,0.2574 L -0.0167,0.1768 L -0.0075,0.1042 L -0.0020,0.0430 L 0.0000,0.0000"/>
        <g id="arrows15">
          <use xlink:href="#arrow1" transform="translate(-0.4276,1.4818) rotate(-65.83) scale(2.4)"/>
        </g>
      </g>
      <g id="fieldline16">
        <path d="M 0.0000,0.0000 L -0.0020,-0.0430 L -0.0075,-0.1042 L -0.0167,-0.1768 L -0.0294,-0.2574 L -0.0457,-0.3443 L -0.0655,-0.4366 L -0.0887,-0.5334 L -0.1155,-0.6341 L -0.1456,-0.7382 L -0.1792,-0.8453 L -0.2162,-0.9550 L -0.2565,-1.0670 L -0.3001,-1.1810 L -0.3470,-1.2968 L -0.3972,-1.4142 L -0.4506,-1.5329 L -0.5072,-1.6527 L -0.5669,-1.7736 L -0.6297,-1.8952 L -0.6956,-2.0176 L -0.7645,-2.1404 L -0.8365,-2.2637 L -0.9114,-2.3873 L -0.9892,-2.5109 L -1.0699,-2.6347 L -1.1534,-2.7583 L -1.2398,-2.8818 L -1.3288,-3.0050"/>
        <g id="arrows16">
          <use xlink:href="#arrow1" transform="translate(-0.4276,-1.4817) rotate(-114.49) scale(2.4)"/>
        </g>
      </g>
      <g id="fieldline17">
        <path d="M -2.7545,3.0050 L -2.6472,2.9584 L -2.5410,2.9096 L -2.4359,2.8586 L -2.3321,2.8055 L -2.2295,2.7503 L -2.1283,2.6930 L -2.0285,2.6337 L -1.9302,2.5724 L -1.8336,2.5092 L -1.7386,2.4442 L -1.6453,2.3774 L -1.5539,2.3089 L -1.4643,2.2388 L -1.3768,2.1670 L -1.2913,2.0938 L -1.2078,2.0192 L -1.1266,1.9432 L -1.0477,1.8659 L -0.9711,1.7876 L -0.8968,1.7082 L -0.8251,1.6278 L -0.7559,1.5466 L -0.6893,1.4647 L -0.6254,1.3822 L -0.5642,1.2993 L -0.5058,1.2160 L -0.4503,1.1326 L -0.3978,1.0492 L -0.3482,0.9660 L -0.3017,0.8831 L -0.2583,0.8008 L -0.2181,0.7193 L -0.1811,0.6389 L -0.1474,0.5599 L -0.1171,0.4825 L -0.0901,0.4071 L -0.0666,0.3342 L -0.0465,0.2642 L -0.0300,0.1980 L -0.0170,0.1363 L -0.0077,0.0806 L -0.0020,0.0333 L 0.0000,0.0000"/>
        <g id="arrows17">
          <use xlink:href="#arrow1" transform="translate(-0.6346,1.3939) rotate(-53.24) scale(2.4)"/>
        </g>
      </g>
      <g id="fieldline18">
        <path d="M 0.0000,0.0000 L -0.0020,-0.0333 L -0.0077,-0.0806 L -0.0170,-0.1363 L -0.0300,-0.1980 L -0.0465,-0.2642 L -0.0666,-0.3342 L -0.0901,-0.4071 L -0.1171,-0.4825 L -0.1474,-0.5599 L -0.1811,-0.6389 L -0.2181,-0.7193 L -0.2583,-0.8008 L -0.3017,-0.8831 L -0.3482,-0.9660 L -0.3978,-1.0492 L -0.4503,-1.1326 L -0.5058,-1.2160 L -0.5642,-1.2993 L -0.6254,-1.3822 L -0.6893,-1.4647 L -0.7559,-1.5466 L -0.8251,-1.6278 L -0.8968,-1.7082 L -0.9711,-1.7876 L -1.0477,-1.8659 L -1.1266,-1.9432 L -1.2078,-2.0192 L -1.2913,-2.0938 L -1.3768,-2.1670 L -1.4643,-2.2388 L -1.5539,-2.3089 L -1.6453,-2.3774 L -1.7386,-2.4442 L -1.8336,-2.5092 L -1.9302,-2.5724 L -2.0285,-2.6337 L -2.1283,-2.6930 L -2.2295,-2.7503 L -2.3321,-2.8055 L -2.4359,-2.8586 L -2.5410,-2.9096 L -2.6472,-2.9584 L -2.7545,-3.0050"/>
        <g id="arrows18">
          <use xlink:href="#arrow1" transform="translate(-0.6345,-1.3940) rotate(-127.77) scale(2.4)"/>
        </g>
      </g>
      <g id="fieldline19">
        <path d="M -3.5050,1.8244 L -3.4270,1.8460 L -3.3477,1.8653 L -3.2673,1.8822 L -3.1859,1.8967 L -3.1035,1.9089 L -3.0203,1.9186 L -2.9363,1.9258 L -2.8516,1.9306 L -2.7663,1.9328 L -2.6806,1.9325 L -2.5945,1.9296 L -2.5080,1.9243 L -2.4214,1.9163 L -2.3347,1.9058 L -2.2481,1.8928 L -2.1615,1.8772 L -2.0752,1.8590 L -1.9892,1.8384 L -1.9037,1.8152 L -1.8187,1.7896 L -1.7344,1.7615 L -1.6508,1.7310 L -1.5681,1.6981 L -1.4864,1.6629 L -1.4058,1.6254 L -1.3263,1.5857 L -1.2482,1.5438 L -1.1715,1.4997 L -1.0963,1.4537 L -1.0227,1.4056 L -0.9509,1.3557 L -0.8809,1.3040 L -0.8128,1.2506 L -0.7468,1.1955 L -0.6830,1.1390 L -0.6213,1.0811 L -0.5621,1.0219 L -0.5052,0.9617 L -0.4509,0.9004 L -0.3993,0.8384 L -0.3504,0.7757 L -0.3043,0.7125 L -0.2611,0.6491 L -0.2210,0.5856 L -0.1839,0.5223 L -0.1500,0.4596 L -0.1193,0.3976 L -0.0920,0.3367 L -0.0681,0.2774 L -0.0477,0.2201 L -0.0308,0.1655 L -0.0175,0.1143 L -0.0080,0.0678 L -0.0021,0.0282 L 0.0000,0.0000"/>
        <g id="arrows19">
          <use xlink:href="#arrow1" transform="translate(-0.8321,1.2655) rotate(-39.20) scale(2.4)"/>
        </g>
      </g>
      <g id="fieldline20">
        <path d="M 0.0000,0.0000 L -0.0021,-0.0282 L -0.0080,-0.0678 L -0.0175,-0.1143 L -0.0308,-0.1655 L -0.0477,-0.2201 L -0.0681,-0.2774 L -0.0920,-0.3367 L -0.1193,-0.3976 L -0.1500,-0.4596 L -0.1839,-0.5223 L -0.2210,-0.5856 L -0.2611,-0.6491 L -0.3043,-0.7125 L -0.3504,-0.7757 L -0.3993,-0.8384 L -0.4509,-0.9004 L -0.5052,-0.9617 L -0.5621,-1.0219 L -0.6213,-1.0811 L -0.6830,-1.1390 L -0.7468,-1.1955 L -0.8128,-1.2506 L -0.8809,-1.3040 L -0.9509,-1.3557 L -1.0227,-1.4056 L -1.0963,-1.4537 L -1.1715,-1.4997 L -1.2482,-1.5438 L -1.3263,-1.5857 L -1.4058,-1.6254 L -1.4864,-1.6629 L -1.5681,-1.6981 L -1.6508,-1.7310 L -1.7344,-1.7615 L -1.8187,-1.7896 L -1.9037,-1.8152 L -1.9892,-1.8384 L -2.0752,-1.8590 L -2.1615,-1.8772 L -2.2481,-1.8928 L -2.3347,-1.9058 L -2.4214,-1.9163 L -2.5080,-1.9243 L -2.5945,-1.9296 L -2.6806,-1.9325 L -2.7663,-1.9328 L -2.8516,-1.9306 L -2.9363,-1.9258 L -3.0203,-1.9186 L -3.1035,-1.9089 L -3.1859,-1.8967 L -3.2673,-1.8822 L -3.3477,-1.8653 L -3.4270,-1.8460 L -3.5050,-1.8244"/>
        <g id="arrows20">
          <use xlink:href="#arrow1" transform="translate(-0.8320,-1.2656) rotate(-142.18) scale(2.4)"/>
        </g>
      </g>
      <g id="fieldline21">
        <path d="M 0.0000,0.0000 L -0.0022,-0.0247 L -0.0081,-0.0589 L -0.0177,-0.0988 L -0.0310,-0.1424 L -0.0479,-0.1887 L -0.0682,-0.2368 L -0.0920,-0.2863 L -0.1190,-0.3366 L -0.1492,-0.3873 L -0.1824,-0.4382 L -0.2187,-0.4890 L -0.2578,-0.5393 L -0.2996,-0.5889 L -0.3440,-0.6377 L -0.3910,-0.6854 L -0.4403,-0.7319 L -0.4919,-0.7770 L -0.5456,-0.8205 L -0.6013,-0.8624 L -0.6589,-0.9025 L -0.7181,-0.9407 L -0.7790,-0.9769 L -0.8414,-1.0109 L -0.9050,-1.0428 L -0.9699,-1.0725 L -1.0358,-1.0998 L -1.1027,-1.1248 L -1.1703,-1.1473 L -1.2386,-1.1674 L -1.3073,-1.1850 L -1.3765,-1.2000 L -1.4459,-1.2125 L -1.5154,-1.2225 L -1.5849,-1.2299 L -1.6543,-1.2347 L -1.7233,-1.2369 L -1.7920,-1.2366 L -1.8601,-1.2338 L -1.9276,-1.2284 L -1.9944,-1.2206 L -2.0602,-1.2103 L -2.1251,-1.1976 L -2.1888,-1.1826 L -2.2514,-1.1652 L -2.3126,-1.1456 L -2.3725,-1.1237 L -2.4308,-1.0997 L -2.4875,-1.0737 L -2.5426,-1.0456 L -2.5959,-1.0155 L -2.6474,-0.9836 L -2.6970,-0.9499 L -2.7446,-0.9145 L -2.7901,-0.8774 L -2.8336,-0.8388 L -2.8749,-0.7987 L -2.9140,-0.7572 L -2.9509,-0.7144 L -2.9855,-0.6704 L -3.0177,-0.6252 L -3.0476,-0.5790 L -3.0751,-0.5318 L -3.1002,-0.4838 L -3.1228,-0.4349 L -3.1429,-0.3853 L -3.1606,-0.3351 L -3.1758,-0.2844 L -3.1885,-0.2332 L -3.1986,-0.1817 L -3.2062,-0.1298 L -3.2113,-0.0778 L -3.2138,-0.0256 L -3.2137,0.0266 L -3.2112,0.0788 L -3.2061,0.1309 L -3.1984,0.1827 L -3.1882,0.2342 L -3.1755,0.2854 L -3.1603,0.3361 L -3.1426,0.3863 L -3.1224,0.4359 L -3.0997,0.4847 L -3.0746,0.5327 L -3.0470,0.5799 L -3.0171,0.6261 L -2.9848,0.6712 L -2.9502,0.7152 L -2.9133,0.7580 L -2.8741,0.7995 L -2.8328,0.8396 L -2.7893,0.8782 L -2.7436,0.9152 L -2.6960,0.9506 L -2.6464,0.9843 L -2.5949,1.0161 L -2.5415,1.0461 L -2.4864,1.0742 L -2.4297,1.1002 L -2.3713,1.1242 L -2.3114,1.1460 L -2.2502,1.1656 L -2.1876,1.1829 L -2.1238,1.1979 L -2.0589,1.2105 L -1.9931,1.2208 L -1.9263,1.2286 L -1.8588,1.2339 L -1.7907,1.2366 L -1.7220,1.2369 L -1.6529,1.2346 L -1.5836,1.2297 L -1.5141,1.2223 L -1.4445,1.2123 L -1.3751,1.1998 L -1.3060,1.1847 L -1.2372,1.1670 L -1.1690,1.1469 L -1.1014,1.1243 L -1.0345,1.0993 L -0.9686,1.0719 L -0.9038,1.0422 L -0.8401,1.0103 L -0.7778,0.9762 L -0.7170,0.9400 L -0.6577,0.9017 L -0.6002,0.8616 L -0.5445,0.8197 L -0.4909,0.7761 L -0.4393,0.7310 L -0.3900,0.6845 L -0.3431,0.6368 L -0.2987,0.5880 L -0.2570,0.5383 L -0.2179,0.4880 L -0.1817,0.4372 L -0.1485,0.3863 L -0.1184,0.3356 L -0.0915,0.2853 L -0.0678,0.2358 L -0.0475,0.1877 L -0.0307,0.1415 L -0.0175,0.0980 L -0.0079,0.0582 L -0.0021,0.0242 L -0.0000,0.0000 Z"/>
        <g id="arrows21">
          <use xlink:href="#arrow1" transform="translate(-1.0129,-1.0901) rotate(-158.76) scale(2.4)"/>
          <use xlink:href="#arrow1" transform="translate(-1.0128,1.0902) rotate(-23.29) scale(2.4)"/>
        </g>
      </g>
      <g id="fieldline22">
        <path d="M 0.0000,0.0000 L -0.0022,-0.0221 L -0.0081,-0.0523 L -0.0178,-0.0872 L -0.0310,-0.1251 L -0.0477,-0.1651 L -0.0677,-0.2063 L -0.0910,-0.2483 L -0.1175,-0.2906 L -0.1469,-0.3329 L -0.1792,-0.3748 L -0.2143,-0.4160 L -0.2519,-0.4564 L -0.2920,-0.4956 L -0.3343,-0.5334 L -0.3789,-0.5698 L -0.4253,-0.6045 L -0.4737,-0.6374 L -0.5237,-0.6683 L -0.5752,-0.6972 L -0.6280,-0.7240 L -0.6821,-0.7485 L -0.7371,-0.7706 L -0.7931,-0.7904 L -0.8497,-0.8078 L -0.9069,-0.8227 L -0.9645,-0.8350 L -1.0222,-0.8448 L -1.0801,-0.8521 L -1.1378,-0.8568 L -1.1953,-0.8589 L -1.2524,-0.8586 L -1.3090,-0.8556 L -1.3648,-0.8502 L -1.4199,-0.8424 L -1.4740,-0.8321 L -1.5269,-0.8194 L -1.5787,-0.8045 L -1.6291,-0.7873 L -1.6781,-0.7680 L -1.7255,-0.7465 L -1.7712,-0.7231 L -1.8152,-0.6977 L -1.8574,-0.6705 L -1.8976,-0.6415 L -1.9357,-0.6109 L -1.9718,-0.5787 L -2.0058,-0.5451 L -2.0375,-0.5101 L -2.0670,-0.4738 L -2.0941,-0.4364 L -2.1189,-0.3979 L -2.1414,-0.3585 L -2.1613,-0.3182 L -2.1789,-0.2772 L -2.1940,-0.2355 L -2.2065,-0.1933 L -2.2166,-0.1506 L -2.2242,-0.1076 L -2.2292,-0.0644 L -2.2317,-0.0210 L -2.2317,0.0224 L -2.2291,0.0658 L -2.2240,0.1091 L -2.2163,0.1520 L -2.2062,0.1947 L -2.1935,0.2369 L -2.1784,0.2785 L -2.1607,0.3195 L -2.1407,0.3598 L -2.1182,0.3992 L -2.0933,0.4376 L -2.0660,0.4750 L -2.0365,0.5112 L -2.0047,0.5462 L -1.9707,0.5798 L -1.9345,0.6119 L -1.8963,0.6425 L -1.8560,0.6714 L -1.8138,0.6986 L -1.7698,0.7239 L -1.7240,0.7473 L -1.6765,0.7686 L -1.6275,0.7879 L -1.5770,0.8050 L -1.5252,0.8199 L -1.4722,0.8324 L -1.4181,0.8426 L -1.3630,0.8504 L -1.3071,0.8558 L -1.2506,0.8586 L -1.1935,0.8589 L -1.1359,0.8567 L -1.0782,0.8519 L -1.0204,0.8446 L -0.9626,0.8347 L -0.9050,0.8222 L -0.8479,0.8073 L -0.7913,0.7898 L -0.7353,0.7700 L -0.6803,0.7477 L -0.6263,0.7231 L -0.5735,0.6963 L -0.5220,0.6674 L -0.4721,0.6363 L -0.4238,0.6034 L -0.3774,0.5686 L -0.3329,0.5322 L -0.2907,0.4943 L -0.2507,0.4551 L -0.2131,0.4147 L -0.1782,0.3735 L -0.1459,0.3315 L -0.1166,0.2893 L -0.0902,0.2469 L -0.0670,0.2050 L -0.0471,0.1638 L -0.0305,0.1239 L -0.0174,0.0860 L -0.0079,0.0512 L -0.0021,0.0213 L -0.0000,0.0000 Z"/>
        <g id="arrows22">
          <use xlink:href="#arrow1" transform="translate(-1.1637,-0.8576) rotate(-179.25) scale(2.4)"/>
          <use xlink:href="#arrow1" transform="translate(-1.1637,0.8576) rotate(-3.71) scale(2.4)"/>
        </g>
      </g>
      <g id="fieldline23">
        <path d="M 0.0000,0.0000 L -0.0022,-0.0201 L -0.0082,-0.0471 L -0.0177,-0.0782 L -0.0308,-0.1117 L -0.0472,-0.1467 L -0.0670,-0.1825 L -0.0898,-0.2187 L -0.1156,-0.2548 L -0.1441,-0.2904 L -0.1754,-0.3252 L -0.2091,-0.3589 L -0.2451,-0.3914 L -0.2832,-0.4224 L -0.3233,-0.4517 L -0.3652,-0.4792 L -0.4086,-0.5047 L -0.4535,-0.5281 L -0.4996,-0.5492 L -0.5467,-0.5681 L -0.5946,-0.5846 L -0.6432,-0.5986 L -0.6922,-0.6102 L -0.7415,-0.6193 L -0.7910,-0.6258 L -0.8403,-0.6297 L -0.8894,-0.6312 L -0.9380,-0.6301 L -0.9861,-0.6265 L -1.0334,-0.6204 L -1.0797,-0.6120 L -1.1250,-0.6012 L -1.1690,-0.5881 L -1.2117,-0.5728 L -1.2529,-0.5554 L -1.2925,-0.5360 L -1.3304,-0.5146 L -1.3664,-0.4913 L -1.4005,-0.4664 L -1.4326,-0.4398 L -1.4626,-0.4117 L -1.4904,-0.3822 L -1.5160,-0.3514 L -1.5393,-0.3195 L -1.5603,-0.2865 L -1.5788,-0.2526 L -1.5950,-0.2179 L -1.6087,-0.1825 L -1.6199,-0.1465 L -1.6287,-0.1101 L -1.6349,-0.0733 L -1.6386,-0.0363 L -1.6398,0.0008 L -1.6385,0.0379 L -1.6347,0.0749 L -1.6283,0.1116 L -1.6195,0.1480 L -1.6082,0.1840 L -1.5944,0.2194 L -1.5781,0.2540 L -1.5594,0.2879 L -1.5384,0.3208 L -1.5150,0.3527 L -1.4893,0.3835 L -1.4614,0.4129 L -1.4313,0.4409 L -1.3992,0.4674 L -1.3650,0.4923 L -1.3289,0.5155 L -1.2909,0.5368 L -1.2513,0.5562 L -1.2100,0.5735 L -1.1672,0.5887 L -1.1231,0.6017 L -1.0778,0.6124 L -1.0314,0.6207 L -0.9841,0.6267 L -0.9360,0.6302 L -0.8874,0.6312 L -0.8383,0.6296 L -0.7889,0.6255 L -0.7395,0.6189 L -0.6902,0.6098 L -0.6411,0.5981 L -0.5926,0.5839 L -0.5447,0.5674 L -0.4976,0.5484 L -0.4516,0.5271 L -0.4068,0.5037 L -0.3634,0.4781 L -0.3216,0.4505 L -0.2816,0.4212 L -0.2435,0.3901 L -0.2076,0.3576 L -0.1740,0.3238 L -0.1429,0.2889 L -0.1144,0.2533 L -0.0888,0.2172 L -0.0661,0.1810 L -0.0465,0.1452 L -0.0302,0.1102 L -0.0173,0.0768 L -0.0078,0.0459 L -0.0021,0.0192 L -0.0000,0.0000 Z"/>
        <g id="arrows23">
          <use xlink:href="#arrow1" transform="translate(-1.2551,-0.5539) rotate(152.57) scale(2.4)"/>
          <use xlink:href="#arrow1" transform="translate(-1.2551,0.5538) rotate(22.12) scale(2.4)"/>
        </g>
      </g>
      <g id="fieldline24">
        <path d="M 0.0000,0.0000 L -0.0022,-0.0184 L -0.0081,-0.0432 L -0.0176,-0.0716 L -0.0306,-0.1021 L -0.0470,-0.1337 L -0.0665,-0.1658 L -0.0890,-0.1979 L -0.1144,-0.2296 L -0.1424,-0.2604 L -0.1729,-0.2902 L -0.2056,-0.3186 L -0.2404,-0.3454 L -0.2770,-0.3705 L -0.3153,-0.3935 L -0.3551,-0.4145 L -0.3961,-0.4333 L -0.4381,-0.4498 L -0.4808,-0.4638 L -0.5242,-0.4754 L -0.5680,-0.4845 L -0.6119,-0.4910 L -0.6558,-0.4950 L -0.6994,-0.4964 L -0.7427,-0.4953 L -0.7852,-0.4917 L -0.8270,-0.4856 L -0.8678,-0.4771 L -0.9074,-0.4663 L -0.9457,-0.4533 L -0.9826,-0.4381 L -1.0178,-0.4208 L -1.0513,-0.4016 L -1.0829,-0.3806 L -1.1126,-0.3579 L -1.1402,-0.3336 L -1.1657,-0.3078 L -1.1889,-0.2807 L -1.2098,-0.2524 L -1.2284,-0.2231 L -1.2446,-0.1928 L -1.2583,-0.1618 L -1.2696,-0.1301 L -1.2784,-0.0979 L -1.2847,-0.0653 L -1.2885,-0.0325 L -1.2897,0.0005 L -1.2884,0.0335 L -1.2845,0.0664 L -1.2782,0.0990 L -1.2693,0.1311 L -1.2579,0.1628 L -1.2441,0.1938 L -1.2278,0.2241 L -1.2092,0.2534 L -1.1882,0.2816 L -1.1649,0.3087 L -1.1394,0.3344 L -1.1117,0.3586 L -1.0820,0.3813 L -1.0503,0.4023 L -1.0167,0.4214 L -0.9814,0.4386 L -0.9445,0.4537 L -0.9062,0.4667 L -0.8665,0.4774 L -0.8257,0.4858 L -0.7839,0.4918 L -0.7413,0.4954 L -0.6981,0.4964 L -0.6544,0.4949 L -0.6105,0.4908 L -0.5666,0.4842 L -0.5228,0.4751 L -0.4795,0.4634 L -0.4367,0.4493 L -0.3947,0.4327 L -0.3538,0.4139 L -0.3141,0.3928 L -0.2758,0.3697 L -0.2392,0.3446 L -0.2045,0.3177 L -0.1719,0.2893 L -0.1415,0.2595 L -0.1135,0.2286 L -0.0883,0.1969 L -0.0658,0.1648 L -0.0464,0.1327 L -0.0302,0.1011 L -0.0173,0.0707 L -0.0079,0.0423 L -0.0021,0.0177 L -0.0000,0.0000 Z"/>
        <g id="arrows24">
          <use xlink:href="#arrow1" transform="translate(-1.2889,-0.0001) rotate(85.22) scale(2.4)"/>
        </g>
      </g>
      <g id="fieldline25">
        <path d="M 0.0000,0.0000 L -0.0023,-0.0179 L -0.0083,-0.0413 L -0.0178,-0.0680 L -0.0308,-0.0965 L -0.0470,-0.1258 L -0.0663,-0.1554 L -0.0885,-0.1847 L -0.1135,-0.2133 L -0.1409,-0.2410 L -0.1706,-0.2673 L -0.2024,-0.2922 L -0.2361,-0.3152 L -0.2714,-0.3363 L -0.3081,-0.3554 L -0.3460,-0.3721 L -0.3848,-0.3866 L -0.4244,-0.3986 L -0.4645,-0.4082 L -0.5048,-0.4153 L -0.5452,-0.4198 L -0.5854,-0.4218 L -0.6252,-0.4212 L -0.6645,-0.4182 L -0.7029,-0.4127 L -0.7404,-0.4048 L -0.7766,-0.3946 L -0.8116,-0.3822 L -0.8451,-0.3677 L -0.8769,-0.3511 L -0.9069,-0.3327 L -0.9350,-0.3125 L -0.9611,-0.2907 L -0.9851,-0.2674 L -1.0070,-0.2428 L -1.0265,-0.2169 L -1.0437,-0.1900 L -1.0585,-0.1622 L -1.0709,-0.1336 L -1.0809,-0.1043 L -1.0883,-0.0746 L -1.0933,-0.0445 L -1.0957,-0.0142 L -1.0957,0.0161 L -1.0931,0.0463 L -1.0880,0.0764 L -1.0803,0.1061 L -1.0703,0.1353 L -1.0577,0.1639 L -1.0427,0.1916 L -1.0254,0.2185 L -1.0057,0.2443 L -0.9838,0.2689 L -0.9596,0.2921 L -0.9334,0.3138 L -0.9051,0.3339 L -0.8750,0.3522 L -0.8431,0.3686 L -0.8095,0.3830 L -0.7745,0.3953 L -0.7381,0.4053 L -0.7006,0.4131 L -0.6621,0.4184 L -0.6229,0.4213 L -0.5830,0.4217 L -0.5428,0.4196 L -0.5024,0.4149 L -0.4621,0.4077 L -0.4220,0.3980 L -0.3825,0.3858 L -0.3437,0.3712 L -0.3058,0.3543 L -0.2692,0.3351 L -0.2340,0.3139 L -0.2004,0.2907 L -0.1688,0.2658 L -0.1392,0.2394 L -0.1119,0.2116 L -0.0871,0.1829 L -0.0651,0.1536 L -0.0459,0.1240 L -0.0299,0.0947 L -0.0171,0.0664 L -0.0078,0.0398 L -0.0021,0.0167 L -0.0000,0.0000 Z"/>
        <g id="arrows25">
          <use xlink:href="#arrow1" transform="translate(-1.0951,-0.0001) rotate(84.57) scale(2.4)"/>
        </g>
      </g>
      <g id="fieldline26">
        <path d="M 0.0000,0.0000 L -0.0023,-0.0171 L -0.0082,-0.0394 L -0.0177,-0.0648 L -0.0306,-0.0918 L -0.0467,-0.1195 L -0.0658,-0.1472 L -0.0877,-0.1746 L -0.1123,-0.2011 L -0.1392,-0.2265 L -0.1683,-0.2504 L -0.1994,-0.2727 L -0.2322,-0.2931 L -0.2664,-0.3114 L -0.3019,-0.3275 L -0.3383,-0.3413 L -0.3755,-0.3527 L -0.4131,-0.3616 L -0.4511,-0.3680 L -0.4890,-0.3719 L -0.5267,-0.3732 L -0.5640,-0.3720 L -0.6007,-0.3683 L -0.6364,-0.3623 L -0.6712,-0.3538 L -0.7046,-0.3431 L -0.7367,-0.3303 L -0.7671,-0.3154 L -0.7958,-0.2986 L -0.8226,-0.2799 L -0.8475,-0.2597 L -0.8702,-0.2379 L -0.8908,-0.2148 L -0.9091,-0.1904 L -0.9251,-0.1651 L -0.9387,-0.1388 L -0.9498,-0.1117 L -0.9585,-0.0841 L -0.9647,-0.0561 L -0.9684,-0.0277 L -0.9696,0.0008 L -0.9683,0.0293 L -0.9644,0.0576 L -0.9581,0.0857 L -0.9493,0.1133 L -0.9380,0.1402 L -0.9242,0.1665 L -0.9082,0.1918 L -0.8897,0.2161 L -0.8690,0.2391 L -0.8462,0.2608 L -0.8212,0.2810 L -0.7943,0.2995 L -0.7655,0.3163 L -0.7349,0.3310 L -0.7028,0.3438 L -0.6693,0.3544 L -0.6345,0.3627 L -0.5987,0.3686 L -0.5620,0.3721 L -0.5247,0.3732 L -0.4869,0.3717 L -0.4490,0.3677 L -0.4111,0.3612 L -0.3734,0.3521 L -0.3363,0.3406 L -0.2999,0.3267 L -0.2645,0.3104 L -0.2303,0.2920 L -0.1976,0.2715 L -0.1667,0.2491 L -0.1377,0.2251 L -0.1108,0.1997 L -0.0864,0.1731 L -0.0646,0.1457 L -0.0457,0.1180 L -0.0298,0.0903 L -0.0171,0.0634 L -0.0078,0.0381 L -0.0021,0.0160 L -0.0000,0.0000 Z"/>
        <g id="arrows26">
          <use xlink:href="#arrow1" transform="translate(-0.9686,-0.0001) rotate(83.69) scale(2.4)"/>
        </g>
      </g>
      <g id="fieldline27">
        <path d="M 0.0000,0.0000 L 0.0022,-0.0184 L 0.0081,-0.0432 L 0.0176,-0.0716 L 0.0306,-0.1021 L 0.0470,-0.1337 L 0.0665,-0.1658 L 0.0890,-0.1979 L 0.1144,-0.2296 L 0.1424,-0.2604 L 0.1729,-0.2902 L 0.2056,-0.3186 L 0.2404,-0.3454 L 0.2770,-0.3705 L 0.3153,-0.3935 L 0.3551,-0.4145 L 0.3961,-0.4333 L 0.4381,-0.4498 L 0.4808,-0.4638 L 0.5242,-0.4754 L 0.5680,-0.4845 L 0.6119,-0.4910 L 0.6558,-0.4950 L 0.6994,-0.4964 L 0.7427,-0.4953 L 0.7852,-0.4917 L 0.8270,-0.4856 L 0.8678,-0.4771 L 0.9074,-0.4663 L 0.9457,-0.4533 L 0.9826,-0.4381 L 1.0178,-0.4208 L 1.0513,-0.4016 L 1.0829,-0.3806 L 1.1126,-0.3579 L 1.1402,-0.3336 L 1.1657,-0.3078 L 1.1889,-0.2807 L 1.2098,-0.2524 L 1.2284,-0.2231 L 1.2446,-0.1928 L 1.2583,-0.1618 L 1.2696,-0.1301 L 1.2784,-0.0979 L 1.2847,-0.0653 L 1.2885,-0.0325 L 1.2897,0.0005 L 1.2884,0.0335 L 1.2845,0.0664 L 1.2782,0.0990 L 1.2693,0.1311 L 1.2579,0.1628 L 1.2441,0.1938 L 1.2278,0.2241 L 1.2092,0.2534 L 1.1882,0.2816 L 1.1649,0.3087 L 1.1394,0.3344 L 1.1117,0.3586 L 1.0820,0.3813 L 1.0503,0.4023 L 1.0167,0.4214 L 0.9814,0.4386 L 0.9445,0.4537 L 0.9062,0.4667 L 0.8665,0.4774 L 0.8257,0.4858 L 0.7839,0.4918 L 0.7413,0.4954 L 0.6981,0.4964 L 0.6544,0.4949 L 0.6105,0.4908 L 0.5666,0.4842 L 0.5228,0.4751 L 0.4795,0.4634 L 0.4367,0.4493 L 0.3947,0.4327 L 0.3538,0.4139 L 0.3141,0.3928 L 0.2758,0.3697 L 0.2392,0.3446 L 0.2045,0.3177 L 0.1719,0.2893 L 0.1415,0.2595 L 0.1135,0.2286 L 0.0883,0.1969 L 0.0658,0.1648 L 0.0464,0.1327 L 0.0302,0.1011 L 0.0173,0.0707 L 0.0079,0.0423 L 0.0021,0.0177 L 0.0000,0.0000 Z"/>
        <g id="arrows27">
          <use xlink:href="#arrow1" transform="translate(1.2889,-0.0001) rotate(94.78) scale(2.4)"/>
        </g>
      </g>
      <g id="fieldline28">
        <path d="M 0.0000,0.0000 L 0.0023,-0.0179 L 0.0083,-0.0413 L 0.0178,-0.0680 L 0.0308,-0.0965 L 0.0470,-0.1258 L 0.0663,-0.1554 L 0.0885,-0.1847 L 0.1135,-0.2133 L 0.1409,-0.2410 L 0.1706,-0.2673 L 0.2024,-0.2922 L 0.2361,-0.3152 L 0.2714,-0.3363 L 0.3081,-0.3554 L 0.3460,-0.3721 L 0.3848,-0.3866 L 0.4244,-0.3986 L 0.4645,-0.4082 L 0.5048,-0.4153 L 0.5452,-0.4198 L 0.5854,-0.4218 L 0.6252,-0.4212 L 0.6645,-0.4182 L 0.7029,-0.4127 L 0.7404,-0.4048 L 0.7766,-0.3946 L 0.8116,-0.3822 L 0.8451,-0.3677 L 0.8769,-0.3511 L 0.9069,-0.3327 L 0.9350,-0.3125 L 0.9611,-0.2907 L 0.9851,-0.2674 L 1.0070,-0.2428 L 1.0265,-0.2169 L 1.0437,-0.1900 L 1.0585,-0.1622 L 1.0709,-0.1336 L 1.0809,-0.1043 L 1.0883,-0.0746 L 1.0933,-0.0445 L 1.0957,-0.0142 L 1.0957,0.0161 L 1.0931,0.0463 L 1.0880,0.0764 L 1.0803,0.1061 L 1.0703,0.1353 L 1.0577,0.1639 L 1.0427,0.1916 L 1.0254,0.2185 L 1.0057,0.2443 L 0.9838,0.2689 L 0.9596,0.2921 L 0.9334,0.3138 L 0.9051,0.3339 L 0.8750,0.3522 L 0.8431,0.3686 L 0.8095,0.3830 L 0.7745,0.3953 L 0.7381,0.4053 L 0.7006,0.4131 L 0.6621,0.4184 L 0.6229,0.4213 L 0.5830,0.4217 L 0.5428,0.4196 L 0.5024,0.4149 L 0.4621,0.4077 L 0.4220,0.3980 L 0.3825,0.3858 L 0.3437,0.3712 L 0.3058,0.3543 L 0.2692,0.3351 L 0.2340,0.3139 L 0.2004,0.2907 L 0.1688,0.2658 L 0.1392,0.2394 L 0.1119,0.2116 L 0.0871,0.1829 L 0.0651,0.1536 L 0.0459,0.1240 L 0.0299,0.0947 L 0.0171,0.0664 L 0.0078,0.0398 L 0.0021,0.0167 L 0.0000,0.0000 Z"/>
        <g id="arrows28">
          <use xlink:href="#arrow1" transform="translate(1.0951,-0.0001) rotate(95.43) scale(2.4)"/>
        </g>
      </g>
      <g id="fieldline29">
        <path d="M 0.0000,0.0000 L 0.0023,-0.0171 L 0.0082,-0.0394 L 0.0177,-0.0648 L 0.0306,-0.0918 L 0.0467,-0.1195 L 0.0658,-0.1472 L 0.0877,-0.1746 L 0.1123,-0.2011 L 0.1392,-0.2265 L 0.1683,-0.2504 L 0.1994,-0.2727 L 0.2322,-0.2931 L 0.2664,-0.3114 L 0.3019,-0.3275 L 0.3383,-0.3413 L 0.3755,-0.3527 L 0.4131,-0.3616 L 0.4511,-0.3680 L 0.4890,-0.3719 L 0.5267,-0.3732 L 0.5640,-0.3720 L 0.6007,-0.3683 L 0.6364,-0.3623 L 0.6712,-0.3538 L 0.7046,-0.3431 L 0.7367,-0.3303 L 0.7671,-0.3154 L 0.7958,-0.2986 L 0.8226,-0.2799 L 0.8475,-0.2597 L 0.8702,-0.2379 L 0.8908,-0.2148 L 0.9091,-0.1904 L 0.9251,-0.1651 L 0.9387,-0.1388 L 0.9498,-0.1117 L 0.9585,-0.0841 L 0.9647,-0.0561 L 0.9684,-0.0277 L 0.9696,0.0008 L 0.9683,0.0293 L 0.9644,0.0576 L 0.9581,0.0857 L 0.9493,0.1133 L 0.9380,0.1402 L 0.9242,0.1665 L 0.9082,0.1918 L 0.8897,0.2161 L 0.8690,0.2391 L 0.8462,0.2608 L 0.8212,0.2810 L 0.7943,0.2995 L 0.7655,0.3163 L 0.7349,0.3310 L 0.7028,0.3438 L 0.6693,0.3544 L 0.6345,0.3627 L 0.5987,0.3686 L 0.5620,0.3721 L 0.5247,0.3732 L 0.4869,0.3717 L 0.4490,0.3677 L 0.4111,0.3612 L 0.3734,0.3521 L 0.3363,0.3406 L 0.2999,0.3267 L 0.2645,0.3104 L 0.2303,0.2920 L 0.1976,0.2715 L 0.1667,0.2491 L 0.1377,0.2251 L 0.1108,0.1997 L 0.0864,0.1731 L 0.0646,0.1457 L 0.0457,0.1180 L 0.0298,0.0903 L 0.0171,0.0634 L 0.0078,0.0381 L 0.0021,0.0160 L 0.0000,0.0000 Z"/>
        <g id="arrows29">
          <use xlink:href="#arrow1" transform="translate(0.9686,-0.0001) rotate(96.31) scale(2.4)"/>
        </g>
      </g>
    </g>
    <g id="symbols">
      <g id="earth">
        <circle cx="0" cy="0" r="0.855" style="fill:#ffffff; stroke:#000000; stroke-width:0.01"/>
        <path style="fill:none; stroke:#000000; stroke-width:0.01" d="M -0.855,0 A 0.855,0.171 0 0 1 0.855,0"/>
      </g>
      <text y="37" x="0" style="fill:#000000; stroke:none; font-size:100px; font-family:Bitstream Vera Sans" transform="translate(0,0.7) scale(0.002,-0.002)" text-anchor="middle">N</text>
      <text y="37" x="0" style="fill:#000000; stroke:none; font-size:100px; font-family:Bitstream Vera Sans" transform="translate(0,-0.7) scale(0.002,-0.002)" text-anchor="middle">S</text>
    </g>
  </g>
</svg>