<?xml version="1.0" encoding="UTF-8" standalone="no"?>
<svg width="140px" height="140px" viewBox="0 0 140 140" version="1.1" xmlns="http://www.w3.org/2000/svg" xmlns:xlink="http://www.w3.org/1999/xlink" xmlns:sketch="http://www.bohemiancoding.com/sketch/ns">
    <!-- Generator: Sketch 3.3.1 (12002) - http://www.bohemiancoding.com/sketch -->
    <title>icon-video</title>
    <desc>Created with Sketch.</desc>
    <defs>
        <path id="path-1" d="M0.102439024,0.568536585 L139.431463,0.568536585 L139.431463,140 L0.102439024,140"/>
    </defs>
    <g id="Page-1" stroke="none" stroke-width="1" fill="none" fill-rule="evenodd" sketch:type="MSPage">
        <g id="icon-video" sketch:type="MSLayerGroup">
            <g id="Group-3">
                <mask id="mask-2" sketch:name="Clip 2" fill="white">
                    <use xlink:href="#path-1"/>
                </mask>
                <g id="Clip-2"/>
                <path d="M139.431463,70.285122 C139.431463,108.786829 108.218293,140 69.714878,140 C31.2131707,140 0,108.786829 0,70.285122 C0,31.7817073 31.2131707,0.568536585 69.714878,0.568536585 C108.218293,0.568536585 139.431463,31.7817073 139.431463,70.285122" id="Fill-1" fill="#BE434B" sketch:type="MSShapeGroup" mask="url(#mask-2)"/>
            </g>
            <path d="M78.3556098,98.5736585 L50.4512195,98.5736585 C43.7107317,98.5736585 38.2473171,93.1102439 38.2473171,86.3714634 L38.2473171,58.4670732 C38.2473171,51.7265854 43.7107317,46.2631707 50.4512195,46.2631707 L78.3556098,46.2631707 C85.0943902,46.2631707 90.5578049,51.7265854 90.5578049,58.4670732 L90.5578049,61.6273171 L105.085366,53.4219512 C105.517317,53.1197561 105.993659,52.9831707 106.456341,52.9831707 C107.702683,52.9831707 108.865366,53.9717073 108.865366,55.3887805 L108.865366,89.4480488 C108.865366,90.865122 107.70439,91.8553659 106.456341,91.8553659 C105.993659,91.8553659 105.517317,91.7170732 105.085366,91.414878 L90.5578049,83.2095122 L90.5578049,86.3714634 C90.5578049,93.1102439 85.0943902,98.5736585 78.3556098,98.5736585" id="Fill-4" fill="#65272B" sketch:type="MSShapeGroup"/>
            <path d="M102.95122,51.2878049 L88.4236585,59.4931707 L88.4236585,56.3329268 C88.4236585,49.592439 82.9602439,44.1290244 76.2214634,44.1290244 L48.3170732,44.1290244 C41.5765854,44.1290244 36.1131707,49.592439 36.1131707,56.3329268 L36.1131707,84.2373171 C36.1131707,90.9760976 41.5765854,96.4395122 48.3170732,96.4395122 L76.2214634,96.4395122 C82.9602439,96.4395122 88.4236585,90.9760976 88.4236585,84.2373171 L88.4236585,81.0753659 L102.95122,89.2807317 C104.544146,90.3973171 106.732927,89.2585366 106.732927,87.3139024 L106.732927,53.2546341 C106.732927,51.31 104.544146,50.1712195 102.95122,51.2878049" id="Fill-5" fill="#FFFFFF" sketch:type="MSShapeGroup"/>
            <path d="M106.732927,87.3139024 L106.732927,53.2546341 C106.732927,51.31 104.542439,50.1712195 102.95122,51.2878049 L88.4236585,59.4931707 L88.4236585,56.3329268 C88.4236585,49.592439 82.9602439,44.1290244 76.2197561,44.1290244 L48.3153659,44.1290244 C45.2353659,44.1290244 42.4302439,45.2797561 40.2841463,47.1612195 L85.3897561,92.2702439 C87.2746341,90.122439 88.4236585,87.3173171 88.4236585,84.2373171 L88.4236585,81.0753659 L102.95122,89.2807317 C104.542439,90.3973171 106.732927,89.2585366 106.732927,87.3139024" id="Fill-6" fill="#F0EAD1" sketch:type="MSShapeGroup"/>
        </g>
    </g>
</svg>