<?xml version="1.0" encoding="UTF-8" standalone="no"?>
<!-- Created with Inkscape (http://www.inkscape.org/) -->
<svg xmlns:dc="http://purl.org/dc/elements/1.1/" xmlns:cc="http://creativecommons.org/ns#" xmlns:rdf="http://www.w3.org/1999/02/22-rdf-syntax-ns#" xmlns:svg="http://www.w3.org/2000/svg" xmlns="http://www.w3.org/2000/svg" xmlns:sodipodi="http://sodipodi.sourceforge.net/DTD/sodipodi-0.dtd" xmlns:inkscape="http://www.inkscape.org/namespaces/inkscape" width="921.72278" height="78.066399" id="svg3123" version="1.1" inkscape:version="0.48.2 r9819" sodipodi:docname="Icon_set_player.odg">
  <title id="title3044">player icons</title>
  <defs id="defs3125"/>
  <sodipodi:namedview id="base" pagecolor="#ffffff" bordercolor="#666666" borderopacity="1.0" inkscape:pageopacity="0.0" inkscape:pageshadow="2" inkscape:zoom="1.4" inkscape:cx="532.53519" inkscape:cy="-70.638228" inkscape:document-units="px" inkscape:current-layer="layer1" showgrid="false" fit-margin-top="0" fit-margin-left="0" fit-margin-right="0" fit-margin-bottom="0" inkscape:window-width="1920" inkscape:window-height="1148" inkscape:window-x="-8" inkscape:window-y="-8" inkscape:window-maximized="1"/>
  <g inkscape:label="Livello 1" inkscape:groupmode="layer" id="layer1" transform="translate(313.41738,-354.54773)">
    <path style="color:#000000;fill:#000000;fill-opacity:1;fill-rule:nonzero;stroke:none;stroke-width:8;marker:none;visibility:visible;display:inline;overflow:visible;enable-background:accumulate" d="m -34.589766,359.42663 0,72.5625 29.9999998,-16.78125 0,17.40625 62.8437502,-35.125 -62.8437502,-37.46875 0,17.28125 -29.9999998,-17.875 z" id="fastforward" inkscape:connector-curvature="0"/>
    <path style="color:#000000;fill:#000000;fill-opacity:1;fill-rule:nonzero;stroke:none;stroke-width:8;marker:none;visibility:visible;display:inline;overflow:visible;enable-background:accumulate" inkscape:transform-center-x="-10.477154" d="m -159.01315,359.7963 62.862924,36.29393 -62.862924,36.29392 z" id="play" inkscape:connector-curvature="0"/>
    <path style="color:#000000;fill:#000000;fill-opacity:1;fill-rule:nonzero;stroke:none;stroke-width:8;marker:none;visibility:visible;display:inline;overflow:visible;enable-background:accumulate" d="m -220.57363,359.42663 -30,17.875 0,-17.28125 -62.84375,37.46875 62.84375,35.125 0,-17.40625 30,16.78125 0,-72.5625 z" id="rewind" inkscape:connector-curvature="0"/>
    <path style="color:#000000;fill:#000000;fill-opacity:1;fill-rule:nonzero;stroke:none;stroke-width:8;marker:none;visibility:visible;display:inline;overflow:visible;enable-background:accumulate" d="m 264.08159,367.68109 0,60 23.1875,0 0,-60 -23.1875,0 z m 29.96875,0 0,60 23.1875,0 0,-60 -23.1875,0 z" id="pause" inkscape:connector-curvature="0"/>
    <path inkscape:connector-curvature="0" style="color:#000000;fill:#000000;fill-opacity:1;fill-rule:nonzero;stroke:none;stroke-width:8;marker:none;visibility:visible;display:inline;overflow:visible;enable-background:accumulate" d="m 462.57351,397.68005 c 0,17.94925 -14.55074,32.49999 -32.49999,32.49999 -17.94926,0 -32.5,-14.55074 -32.5,-32.49999 0,-17.94926 14.55074,-32.5 32.5,-32.5 17.94925,0 32.49999,14.55074 32.49999,32.5 z" id="record"/>
    <path inkscape:connector-curvature="0" style="color:#000000;fill:#000000;fill-opacity:1;fill-rule:nonzero;stroke:none;stroke-width:8;marker:none;visibility:visible;display:inline;overflow:visible;enable-background:accumulate" d="m 121.24591,367.68004 60,0 0,60 -60,0 z" id="stop"/>
    <path inkscape:connector-curvature="0" id="onoff" style="opacity:0.98999999;fill:#000000;fill-opacity:1;stroke:none" d="m 544.46907,364.81568 c -1.82182,0.0345 -3.53624,0.86873 -4.68774,2.28094 -12.14945,14.47914 -12.14945,35.43426 0,49.91341 13.73412,16.36769 38.32785,18.51624 54.69552,4.78211 16.3677,-13.73411 18.51626,-38.32783 4.78213,-54.69552 -1.37857,-1.83435 -3.6575,-2.75735 -5.92402,-2.39933 -2.2665,0.35801 -4.14999,1.93851 -4.89605,4.10845 -0.74605,2.16995 -0.23268,4.57451 1.33448,6.2506 9.42175,11.2284 7.95642,27.81273 -3.27198,37.23449 -11.22841,9.42175 -27.81275,7.97215 -37.2345,-3.25626 -8.43355,-10.05072 -8.43355,-23.92752 0,-33.97823 1.59035,-1.85065 1.94736,-4.46198 0.91214,-6.67161 -1.03522,-2.2096 -3.27018,-3.60656 -5.70998,-3.56905 z m 24.93614,-10.26776 c -1.65272,0.0124 -3.2319,0.68507 -4.38686,1.86732 -1.15497,1.18226 -1.79012,2.77668 -1.76441,4.42926 l 0,39.86216 c -0.0317,2.23584 1.14308,4.31551 3.07427,5.44265 1.93119,1.12715 4.31968,1.12715 6.25088,0 1.93119,-1.12714 3.10588,-3.20681 3.07427,-5.44265 l 0,-39.86216 c 0.026,-1.66936 -0.6224,-3.27867 -1.7984,-4.46377 -1.176,-1.18511 -2.78022,-1.84589 -4.44975,-1.83281 z"/>
  </g>
  <metadata>
    <rdf:RDF>
      <cc:Work>
        <dc:format>image/svg+xml</dc:format>
        <dc:type rdf:resource="http://purl.org/dc/dcmitype/StillImage"/>
        <cc:license rdf:resource="http://creativecommons.org/licenses/publicdomain/"/>
        <dc:publisher>
          <cc:Agent rdf:about="http://openclipart.org/">
            <dc:title>Open Clip Art Library</dc:title>
          </cc:Agent>
        </dc:publisher>
        <dc:title>Player buttons icon set</dc:title>
        <dc:date>2013-02-27T11:32:08</dc:date>
        <dc:description>icon set for media player buttons, black and white flat symbols only, power button included</dc:description>
        <dc:source>http://openclipart.org/detail/175338/player-buttons-icon-set-by-harinezumi-175338</dc:source>
        <dc:creator>
          <cc:Agent>
            <dc:title>harinezumi</dc:title>
          </cc:Agent>
        </dc:creator>
        <dc:subject>
          <rdf:Bag>
            <rdf:li>button</rdf:li>
            <rdf:li>clip art</rdf:li>
            <rdf:li>clipart</rdf:li>
            <rdf:li>fast forward</rdf:li>
            <rdf:li>ffwd</rdf:li>
            <rdf:li>icons</rdf:li>
            <rdf:li>pause</rdf:li>
            <rdf:li>play</rdf:li>
            <rdf:li>player</rdf:li>
            <rdf:li>power</rdf:li>
            <rdf:li>rec.record.recorder</rdf:li>
            <rdf:li>recorder</rdf:li>
            <rdf:li>rew</rdf:li>
            <rdf:li>rewind</rdf:li>
            <rdf:li>stop</rdf:li>
          </rdf:Bag>
        </dc:subject>
      </cc:Work>
      <cc:License rdf:about="http://creativecommons.org/licenses/publicdomain/">
        <cc:permits rdf:resource="http://creativecommons.org/ns#Reproduction"/>
        <cc:permits rdf:resource="http://creativecommons.org/ns#Distribution"/>
        <cc:permits rdf:resource="http://creativecommons.org/ns#DerivativeWorks"/>
      </cc:License>
    </rdf:RDF>
  </metadata>
</svg>