<?xml version="1.0" encoding="UTF-8"?>
<!-- Generator: Adobe Illustrator 15.0.2, SVG Export Plug-In . SVG Version: 6.00 Build 0)  -->
<!DOCTYPE svg PUBLIC "-//W3C//DTD SVG 1.1//EN" "http://www.w3.org/Graphics/SVG/1.1/DTD/svg11.dtd">
<svg version="1.1" id="Layer_1" xmlns="http://www.w3.org/2000/svg" xmlns:xlink="http://www.w3.org/1999/xlink" x="0px" y="0px" width="512px" height="610.479px" viewBox="0 0 512 610.479" enable-background="new 0 0 512 610.479" xml:space="preserve">
<path d="M384.012,433.246c27.183,0,49.216,22.032,49.216,49.215c0,27.195-22.033,49.24-49.216,49.24  c-27.206,0-49.239-22.045-49.239-49.24C334.772,455.278,356.806,433.246,384.012,433.246z M384.012,403.707  c-43.506,0-78.778,35.26-78.778,78.754c0,43.507,35.272,78.778,78.778,78.778c43.495,0,78.755-35.271,78.755-78.778  C462.767,438.967,427.507,403.707,384.012,403.707z M384.012,354.467c70.689,0,127.988,57.305,127.988,127.994  c0,70.701-57.299,128.019-127.988,128.019C313.311,610.479,256,553.162,256,482.461C256,411.771,313.311,354.467,384.012,354.467z   M393.851,275.694c0,13.524-1.36,26.739-3.96,39.493l-5.879-0.098c-16.202,0-31.87,2.296-46.688,6.583  c2.77-8.453,4.785-17.234,6-26.283h-47.928v-39.384h47.928c-8.77-65.818-60.888-117.931-126.706-126.7v47.928h-39.384v-47.928  c-65.818,8.77-117.937,60.882-126.7,126.7h47.928v39.384H50.533c8.764,65.818,60.882,117.937,126.7,126.706v-47.928h39.384v47.928  l12.061-2.125c-6.498,16.117-10.555,33.486-11.715,51.645l-20.041,1.008C88.167,472.623,0,384.455,0,275.694  c0-102.11,77.716-186.069,177.233-195.95V59.078h-59.078V0h157.539v59.078h-59.077v20.666c39.607,3.93,75.766,19.598,104.94,43.477  l14.211-14.211l-27.863-27.851l41.782-41.776l83.54,83.553l-41.758,41.775l-27.862-27.851l-14.211,14.205  C377.187,185.013,393.851,228.41,393.851,275.694z M196.922,236.312c21.754,0,39.39,17.636,39.39,39.383  c0,21.754-17.636,39.396-39.39,39.396l-78.767,59.078l39.384-98.474C157.539,253.947,175.169,236.312,196.922,236.312z"/>
</svg>