<svg xmlns="http://www.w3.org/2000/svg" xmlns:xlink="http://www.w3.org/1999/xlink" preserveAspectRatio="xMidYMid" width="500" height="500" viewBox="0 0 40 40">
  <defs>
    <style>
      .cls-1 {
        fill: #ea6060;
      }

      .cls-2 {
        fill: #fff;
        fill-rule: evenodd;
      }
    </style>
  </defs>
  <g>
    <rect width="40" height="40" class="cls-1"/>
    <path d="M22.683,13.000 C23.404,13.000 23.987,13.583 23.987,14.303 L23.987,17.292 L28.873,13.189 C29.183,12.881 29.557,13.037 29.584,13.048 C29.829,13.149 29.987,13.386 29.987,13.651 L29.987,25.392 C29.987,25.657 29.829,25.895 29.584,25.996 C29.559,26.007 29.181,26.162 28.873,25.853 L23.987,21.751 L23.985,24.739 C23.985,25.460 23.401,26.044 22.680,26.044 L11.304,26.044 C10.583,26.044 10.000,25.460 10.000,24.739 L10.002,14.303 C10.002,13.583 10.586,13.000 11.307,13.000 L22.683,13.000 Z" class="cls-2"/>
  </g>
</svg>