<?xml version="1.0" encoding="UTF-8"?>
<!-- Generator: Adobe Illustrator 16.0.0, SVG Export Plug-In . SVG Version: 6.00 Build 0)  -->
<!DOCTYPE svg PUBLIC "-//W3C//DTD SVG 1.1//EN" "http://www.w3.org/Graphics/SVG/1.1/DTD/svg11.dtd">
<svg version="1.1" id="Layer_1" xmlns="http://www.w3.org/2000/svg" xmlns:xlink="http://www.w3.org/1999/xlink" x="0px" y="0px" width="512px" height="512px" viewBox="0 0 512 512" enable-background="new 0 0 512 512" xml:space="preserve">
<g>
	<path stroke="#1D1D1B" stroke-width="11.8597" stroke-linecap="round" stroke-linejoin="round" stroke-miterlimit="10" d="   M319.396,47.722l-145.663,145.67H32.735c-13.099,0-23.719,10.621-23.719,23.719v63.746c0,13.094,10.621,23.726,23.719,23.726   h141.002l145.658,145.665V47.722z"/>
	<path d="M422.602,445.544c-3.034,0-6.069-1.158-8.385-3.475c-4.633-4.633-4.633-12.138,0-16.77   c94.785-94.786,94.785-249.032,0-343.834c-4.633-4.633-4.633-12.138,0-16.771c4.632-4.633,12.137-4.633,16.77,0   c104.039,104.051,104.039,273.335,0,377.375C428.671,444.386,425.636,445.544,422.602,445.544z"/>
</g>
</svg>