<?xml version="1.0" encoding="UTF-8"?>
<!DOCTYPE svg PUBLIC "-//W3C//DTD SVG 1.1//EN" "http://www.w3.org/Graphics/SVG/1.1/DTD/svg11.dtd">
<svg version="1.1" id="Layer_1" xmlns="http://www.w3.org/2000/svg" xmlns:xlink="http://www.w3.org/1999/xlink" x="0px" y="0px" width="500px" height="500px" viewBox="0 0 500 500" xml:space="preserve">
<g>
	<path d="M218.409,293.104v29.053c0,14.648-5.291,27.184-15.869,37.598c-10.582,10.418-23.315,15.625-38.208,15.625   s-27.588-5.249-38.086-15.747s-15.747-23.231-15.747-38.208c0-14.648,5.249-27.26,15.747-37.842   c10.498-10.578,22.987-15.869,37.476-15.869h29.297v-50.781h-29.297c-14.488,0-26.978-5.287-37.476-15.869   c-10.498-10.578-15.747-23.273-15.747-38.086c0-14.809,5.249-27.466,15.747-37.964s23.193-15.747,38.086-15.747   s27.626,5.211,38.208,15.625c10.578,10.418,15.869,22.949,15.869,37.598v29.053h50.538v-29.053c0-14.648,5.287-27.18,15.869-37.598   c10.578-10.414,23.354-15.625,38.33-15.625c14.973,0,27.668,5.249,38.086,15.747c10.414,10.498,15.625,23.155,15.625,37.964   c0,14.812-5.211,27.508-15.625,38.086c-10.418,10.582-22.949,15.869-37.598,15.869h-29.297v50.781h29.297   c14.648,0,27.18,5.291,37.598,15.869c10.414,10.582,15.625,23.193,15.625,37.842c0,14.977-5.211,27.71-15.625,38.208   c-10.418,10.498-23.113,15.747-38.086,15.747c-14.977,0-27.752-5.207-38.33-15.625c-10.582-10.414-15.869-22.949-15.869-37.598   v-29.053H218.409z M193.018,191.542v-28.564c0-7.812-2.808-14.526-8.423-20.142s-12.413-8.423-20.386-8.423   c-7.652,0-14.282,2.808-19.897,8.423s-8.423,12.329-8.423,20.142s2.808,14.526,8.423,20.142s12.329,8.423,20.142,8.423H193.018z    M193.018,293.104h-28.564c-7.812,0-14.526,2.808-20.142,8.423s-8.423,12.249-8.423,19.897c0,7.977,2.808,14.771,8.423,20.386   s12.329,8.423,20.142,8.423s14.526-2.808,20.142-8.423s8.423-12.329,8.423-20.142V293.104z M218.409,267.714h50.538v-50.781   h-50.538V267.714z M294.337,191.542h28.809c7.648,0,14.281-2.808,19.896-8.423s8.424-12.329,8.424-20.142   s-2.77-14.526-8.301-20.142c-5.535-5.615-12.25-8.423-20.143-8.423c-7.896,0-14.648,2.808-20.264,8.423s-8.422,12.329-8.422,20.142   V191.542z M294.337,293.104v28.564c0,7.812,2.807,14.526,8.422,20.142s12.367,8.423,20.264,8.423   c7.893,0,14.607-2.808,20.143-8.423c5.531-5.615,8.301-12.409,8.301-20.386c0-7.648-2.809-14.282-8.424-19.897   s-12.248-8.423-19.896-8.423H294.337z"/>
</g>
</svg>