<?xml version="1.0" encoding="UTF-8"?>
<svg width="2800" height="1200" xmlns="http://www.w3.org/2000/svg">
 <title>key board</title>
 <g>
  <title>Layer 1</title>
  <text transform="matrix(50.702 0 0 5.20425 -1958.29 -1290.46)" xml:space="preserve" text-anchor="middle" font-family="Arial" font-size="24" id="svg_1" y="328.813324" x="46.299194" stroke-width="0" stroke="#000000" fill="#000000"/>
  <g id="svg_2" transform="matrix(0.877674 0 0 0.921069 177.929 -204.012)">
   <rect id="svg_16" fill="#000000" fill-rule="evenodd" stroke="#000000" stroke-width="0.96589556pt" y="1057.99191" x="-109.119959" width="51.717539" height="255.70679"/>
   <rect id="svg_17" fill="#000000" fill-rule="evenodd" stroke="#000000" stroke-width="0.96589556pt" y="1057.86535" x="-6.731983" width="51.717541" height="255.70679"/>
   <rect id="svg_18" fill="#000000" fill-rule="evenodd" stroke="#000000" stroke-width="0.96589556pt" y="1057.35639" x="198.380407" width="51.717541" height="255.70679"/>
   <rect id="svg_19" fill="#000000" fill-rule="evenodd" stroke="#000000" stroke-width="0.96589556pt" y="1058.37432" x="300.173157" width="51.717541" height="255.70679"/>
   <rect id="svg_20" fill="#000000" fill-rule="evenodd" stroke="#000000" stroke-width="0.96589556pt" y="1057.86536" x="404.001767" width="51.717541" height="255.70679"/>
   <rect id="svg_21" fill="none" fill-opacity="0.75" fill-rule="evenodd" stroke="#000000" stroke-width="2.375" y="1056.56059" x="-186.277549" width="718.34387" height="449.14487"/>
   <path id="svg_22" fill="none" fill-opacity="0.75" fill-rule="evenodd" stroke="#000000" stroke-width="2.375" d="m-84.068352,1303.486328l0,202.179199"/>
   <path id="svg_23" fill="none" fill-opacity="0.75" fill-rule="evenodd" stroke="#000000" stroke-width="2.375" d="m19.580633,1302.510864l0,202.179077"/>
   <path id="svg_24" fill="none" fill-opacity="0.75" fill-rule="evenodd" stroke="#000000" stroke-width="2.375" d="m224.378296,1303.846436l0,202.178955"/>
   <path id="svg_38" fill="none" fill-opacity="0.75" fill-rule="evenodd" stroke="#000000" stroke-width="2.375" d="m326.208496,1303.846436l0,202.178955"/>
   <path id="svg_39" fill="none" fill-opacity="0.75" fill-rule="evenodd" stroke="#000000" stroke-width="2.375" d="m430.577148,1303.126465l0,202.179199"/>
   <path id="svg_40" fill="none" fill-opacity="0.75" fill-rule="evenodd" stroke="#000000" stroke-width="2.375" d="m121.854683,1057.025269l0,448.215698"/>
  </g>
  <g id="svg_67" transform="matrix(0.877674 0 0 0.921069 177.929 -204.012)">
   <rect id="svg_68" fill="#000000" fill-rule="evenodd" stroke="#000000" stroke-width="0.96589556pt" y="1057.991985" x="607.918581" width="51.717539" height="255.70679"/>
   <rect id="svg_69" fill="#000000" fill-rule="evenodd" stroke="#000000" stroke-width="0.96589556pt" y="1057.865425" x="710.306557" width="51.717541" height="255.70679"/>
   <rect id="svg_70" fill="#000000" fill-rule="evenodd" stroke="#000000" stroke-width="0.96589556pt" y="1057.356465" x="915.418947" width="51.717541" height="255.70679"/>
   <rect id="svg_71" fill="#000000" fill-rule="evenodd" stroke="#000000" stroke-width="0.96589556pt" y="1058.374395" x="1017.211697" width="51.717541" height="255.70679"/>
   <rect id="svg_72" fill="#000000" fill-rule="evenodd" stroke="#000000" stroke-width="0.96589556pt" y="1057.865435" x="1121.040307" width="51.717541" height="255.70679"/>
   <rect id="svg_73" fill="none" fill-opacity="0.75" fill-rule="evenodd" stroke="#000000" stroke-width="2.375" y="1056.560665" x="530.760991" width="718.34387" height="449.14487"/>
   <path id="svg_74" fill="none" fill-opacity="0.75" fill-rule="evenodd" stroke="#000000" stroke-width="2.375" d="m632.970215,1303.486328l0,202.179199"/>
   <path id="svg_75" fill="none" fill-opacity="0.75" fill-rule="evenodd" stroke="#000000" stroke-width="2.375" d="m736.619202,1302.510864l0,202.179077"/>
   <path id="svg_76" fill="none" fill-opacity="0.75" fill-rule="evenodd" stroke="#000000" stroke-width="2.375" d="m941.41687,1303.846436l0,202.178955"/>
   <path id="svg_77" fill="none" fill-opacity="0.75" fill-rule="evenodd" stroke="#000000" stroke-width="2.375" d="m1043.24707,1303.846436l0,202.178955"/>
   <path id="svg_78" fill="none" fill-opacity="0.75" fill-rule="evenodd" stroke="#000000" stroke-width="2.375" d="m1147.615723,1303.126465l0,202.179199"/>
   <path id="svg_79" fill="none" fill-opacity="0.75" fill-rule="evenodd" stroke="#000000" stroke-width="2.375" d="m838.89325,1057.025391l0,448.215576"/>
  </g>
  <g id="svg_80" transform="matrix(0.877674 0 0 0.921069 177.929 -204.012)">
   <rect id="svg_81" fill="#000000" fill-rule="evenodd" stroke="#000000" stroke-width="0.96589556pt" y="1057.991977" x="1328.003695" width="51.717539" height="255.70679"/>
   <rect id="svg_82" fill="#000000" fill-rule="evenodd" stroke="#000000" stroke-width="0.96589556pt" y="1057.865417" x="1430.391671" width="51.717541" height="255.70679"/>
   <rect id="svg_83" fill="#000000" fill-rule="evenodd" stroke="#000000" stroke-width="0.96589556pt" y="1057.356457" x="1635.504061" width="51.717541" height="255.70679"/>
   <rect id="svg_84" fill="#000000" fill-rule="evenodd" stroke="#000000" stroke-width="0.96589556pt" y="1058.374387" x="1737.296811" width="51.717541" height="255.70679"/>
   <rect id="svg_85" fill="#000000" fill-rule="evenodd" stroke="#000000" stroke-width="0.96589556pt" y="1057.865427" x="1841.125421" width="51.717541" height="255.70679"/>
   <rect id="svg_86" fill="none" fill-opacity="0.75" fill-rule="evenodd" stroke="#000000" stroke-width="2.375" y="1056.560657" x="1250.846105" width="718.34387" height="449.14487"/>
   <path id="svg_87" fill="none" fill-opacity="0.75" fill-rule="evenodd" stroke="#000000" stroke-width="2.375" d="m1353.055298,1303.486328l0,202.179199"/>
   <path id="svg_88" fill="none" fill-opacity="0.75" fill-rule="evenodd" stroke="#000000" stroke-width="2.375" d="m1456.704346,1302.510864l0,202.179077"/>
   <path id="svg_89" fill="none" fill-opacity="0.75" fill-rule="evenodd" stroke="#000000" stroke-width="2.375" d="m1661.501953,1303.846436l0,202.178955"/>
   <path id="svg_90" fill="none" fill-opacity="0.75" fill-rule="evenodd" stroke="#000000" stroke-width="2.375" d="m1763.332153,1303.846436l0,202.178955"/>
   <path id="svg_91" fill="none" fill-opacity="0.75" fill-rule="evenodd" stroke="#000000" stroke-width="2.375" d="m1867.700806,1303.126465l0,202.179199"/>
   <path id="svg_92" fill="none" fill-opacity="0.75" fill-rule="evenodd" stroke="#000000" stroke-width="2.375" d="m1558.978394,1057.025269l0,448.215698"/>
  </g>
  <g id="svg_93" transform="matrix(0.877674 0 0 0.921069 177.929 -204.012)">
   <rect id="svg_94" fill="#000000" fill-rule="evenodd" stroke="#000000" stroke-width="0.96589556pt" y="1058.0864" x="2046.652375" width="51.717539" height="255.70679"/>
   <rect id="svg_95" fill="#000000" fill-rule="evenodd" stroke="#000000" stroke-width="0.96589556pt" y="1057.95984" x="2149.040351" width="51.717541" height="255.70679"/>
   <rect id="svg_96" fill="#000000" fill-rule="evenodd" stroke="#000000" stroke-width="0.96589556pt" y="1057.45088" x="2354.152741" width="51.717541" height="255.70679"/>
   <rect id="svg_97" fill="#000000" fill-rule="evenodd" stroke="#000000" stroke-width="0.96589556pt" y="1058.46881" x="2455.945491" width="51.717541" height="255.70679"/>
   <rect id="svg_98" fill="#000000" fill-rule="evenodd" stroke="#000000" stroke-width="0.96589556pt" y="1057.95985" x="2559.774101" width="51.717541" height="255.70679"/>
   <rect id="svg_99" fill="none" fill-opacity="0.75" fill-rule="evenodd" stroke="#000000" stroke-width="2.375" y="1056.65508" x="1969.494785" width="718.34387" height="449.14487"/>
   <path id="svg_100" fill="none" fill-opacity="0.75" fill-rule="evenodd" stroke="#000000" stroke-width="2.375" d="m2071.703857,1303.580811l0,202.179321"/>
   <path id="svg_101" fill="none" fill-opacity="0.75" fill-rule="evenodd" stroke="#000000" stroke-width="2.375" d="m2175.353027,1302.605347l0,202.179199"/>
   <path id="svg_102" fill="none" fill-opacity="0.75" fill-rule="evenodd" stroke="#000000" stroke-width="2.375" d="m2380.150635,1303.940918l0,202.178955"/>
   <path id="svg_103" fill="none" fill-opacity="0.75" fill-rule="evenodd" stroke="#000000" stroke-width="2.375" d="m2481.980713,1303.940918l0,202.178955"/>
   <path id="svg_104" fill="none" fill-opacity="0.75" fill-rule="evenodd" stroke="#000000" stroke-width="2.375" d="m2586.349365,1303.220947l0,202.179199"/>
   <path id="svg_105" fill="none" fill-opacity="0.75" fill-rule="evenodd" stroke="#000000" stroke-width="2.375" d="m2277.626953,1057.119751l0,448.21582"/>
  </g>
 </g>
</svg>