<?xml version="1.0" encoding="UTF-8"?>
<!-- Generator: Adobe Illustrator 16.0.0, SVG Export Plug-In . SVG Version: 6.00 Build 0)  -->
<!DOCTYPE svg PUBLIC "-//W3C//DTD SVG 1.1//EN" "http://www.w3.org/Graphics/SVG/1.1/DTD/svg11.dtd">
<svg version="1.1" id="Слой_1" xmlns="http://www.w3.org/2000/svg" xmlns:xlink="http://www.w3.org/1999/xlink" x="0px" y="0px" width="256px" height="256px" viewBox="0 0 256 256" enable-background="new 0 0 256 256" xml:space="preserve">
<rect display="none" fill="#EEEEEE" width="256" height="256"/>
<path id="power-off-3-icon" fill="#9B4F96" d="M172.406,112.174l10.655-8.933c0.495,0.779,0.979,1.567,1.443,2.37  c2.448,4.24,4.372,8.691,5.782,13.26l-13.584,2.682c-1.06-3.115-2.428-6.152-4.109-9.064  C172.532,112.383,172.468,112.279,172.406,112.174z M177.354,152.27c-0.983,3.356-2.319,6.635-4.01,9.779l11.075,8.372  c0.027-0.049,0.058-0.095,0.086-0.144c2.835-4.912,4.971-10.104,6.414-15.437L177.354,152.27z M167.697,170.436  c-9.576,11.555-23.896,18.421-39.194,18.421c-18.189,0-34.996-9.704-44.091-25.456c-9.094-15.752-9.094-35.159,0-50.911  c0.59-1.022,1.215-2.019,1.87-2.989l11.186,8.047V82.874L64.53,93.854l10.586,7.614c-0.917,1.343-1.793,2.721-2.614,4.143  c-11.552,20.008-11.552,44.658,0,64.666c11.551,20.008,32.898,32.333,56.002,32.333c19.641,0,38.009-8.912,50.172-23.876  L167.697,170.436z M179.219,142.349l13.565,2.571c0.584-5.387,0.489-10.828-0.284-16.196l-13.509,2.667  C179.463,135.026,179.534,138.7,179.219,142.349z M166.442,104l10.546-8.84c-3.402-3.855-7.229-7.271-11.394-10.187l-7.889,11.267  C160.89,98.471,163.822,101.072,166.442,104z"/>
<rect x="116.727" y="63.974" fill="#CE9BCD" width="23.555" height="61.915"/>
</svg>