<?xml version="1.0" encoding="UTF-8"?>
<!-- Generator: Adobe Illustrator 16.0.0, SVG Export Plug-In . SVG Version: 6.00 Build 0)  -->
<!DOCTYPE svg PUBLIC "-//W3C//DTD SVG 1.1//EN" "http://www.w3.org/Graphics/SVG/1.1/DTD/svg11.dtd">
<svg xmlns="http://www.w3.org/2000/svg" xmlns:xlink="http://www.w3.org/1999/xlink" version="1.1" id="Layer_1" x="0px" y="0px" width="190px" height="115px" viewBox="0 0 190 115" xml:space="preserve">
<path d="M96.102,108.984h-1.983c-13.61-0.449-24.742-5.129-35.08-14.729c-8.96-8.328-14.307-20.215-15.462-34.378  c-0.003-0.041-0.005-0.081-0.005-0.122V55.35c0-0.036,0.001-0.071,0.004-0.106c0.478-6.727,1.383-12.375,4.245-18.069  c0.246-0.489,0.737-0.805,1.283-0.826c0.562-0.015,1.061,0.258,1.342,0.726c0.702,1.167,1.391,2.381,2.083,3.602  c1.139,2.007,2.312,4.075,3.555,5.932c1.439-0.117,2.888-0.284,4.296-0.445c1.938-0.223,3.941-0.453,5.976-0.564  c0.529-0.027,1.041,0.227,1.334,0.672s0.329,1.013,0.092,1.491c-3.497,7.066-1.632,16.362,1.027,22.176  c2.861,6.254,7.756,11.146,14.154,14.146c3.526,1.653,7.893,2.562,12.296,2.562c3.924,0,7.715-0.707,10.965-2.043  c6.364-2.617,11.613-7.42,14.781-13.521c3.514-6.769,4.087-15.86,1.463-23.162c-2.365-6.576-6.939-12.046-12.885-15.403  c-6.711-3.792-15.539-4.817-22.958-2.519c-6.694,2.076-11.987,6.067-16.18,12.2c-0.258,0.377-0.674,0.617-1.13,0.649l-2.656,0.194  c-2.781,0.205-5.562,0.41-8.384,0.578c-0.537,0.031-1.054-0.229-1.348-0.682c-1.545-2.386-2.991-4.909-4.39-7.35  c-0.567-0.989-1.134-1.978-1.708-2.959c-0.285-0.487-0.272-1.093,0.033-1.568C61.025,15.234,74.563,7.276,93.466,6.018l2.856-0.003  c14.146,0.833,25.783,5.762,34.678,14.656c9.173,9.173,14.361,20.503,15.425,33.677c0.003,0.04,0.005,0.081,0.005,0.121v6.061  c0,0.043-0.002,0.086-0.006,0.129c-1.16,13.459-6.39,24.828-15.544,33.79c-9.11,8.924-20.786,13.813-34.7,14.534  C96.152,108.982,96.127,108.984,96.102,108.984z M46.57,59.695c1.104,13.375,6.12,24.565,14.509,32.363  c9.778,9.077,20.292,13.504,33.088,13.926h1.896c13.146-0.688,24.152-5.291,32.717-13.682c8.613-8.433,13.543-19.144,14.65-31.841  v-5.934c-1.015-12.418-5.91-23.096-14.552-31.737c-8.358-8.358-19.343-12.995-32.646-13.78l-2.667,0.002  c-17.468,1.167-30.131,8.451-39.682,22.902c0.42,0.725,0.837,1.453,1.254,2.181c1.234,2.153,2.506,4.372,3.835,6.475  c2.507-0.156,4.986-0.338,7.464-0.521l1.946-0.143c4.524-6.376,10.208-10.559,17.353-12.775c2.957-0.917,6.067-1.381,9.245-1.381  c5.627,0,11.336,1.475,16.077,4.153c6.569,3.71,11.625,9.748,14.231,17.001c2.894,8.051,2.257,18.083-1.623,25.558  c-3.493,6.729-9.283,12.025-16.304,14.913c-3.607,1.483-7.793,2.269-12.105,2.269c-4.834,0-9.653-1.011-13.569-2.847  c-7.051-3.307-12.448-8.705-15.609-15.614c-2.78-6.078-4.578-14.865-1.967-22.409c-1.142,0.107-2.278,0.238-3.392,0.366  c-1.721,0.198-3.5,0.402-5.288,0.521c-0.519,0.038-1.026-0.206-1.328-0.635c-1.505-2.145-2.868-4.548-4.187-6.873  c-0.197-0.346-0.393-0.692-0.589-1.037c-1.522,3.824-2.311,8.022-2.759,14.285v4.293H46.57z"/>
</svg>