<?xml version="1.0" encoding="UTF-8"?>
<!-- Generator: Adobe Illustrator 17.1.0, SVG Export Plug-In . SVG Version: 6.00 Build 0)  -->
<!DOCTYPE svg PUBLIC "-//W3C//DTD SVG 1.1//EN" "http://www.w3.org/Graphics/SVG/1.1/DTD/svg11.dtd">
<svg version="1.1" id="Layer_1" xmlns="http://www.w3.org/2000/svg" xmlns:xlink="http://www.w3.org/1999/xlink" x="0px" y="0px" width="72px" height="72px" viewBox="200 0 72 72" enable-background="new 200 0 72 72" xml:space="preserve">
<g>
	<path fill="#352A2E" d="M257.1,13.1h-9.5c-1,0-1.8,0.8-1.8,1.8v9.5c0,1,0.8,1.8,1.8,1.8h9.5c1,0,1.8-0.8,1.8-1.8v-9.5   C258.9,13.9,258.1,13.1,257.1,13.1z"/>
	<path fill="#352A2E" d="M267.9,0h-63.8c-2.3,0-4.1,1.9-4.1,4.1v63.8c0,2.3,1.9,4.1,4.1,4.1h63.8c2.3,0,4.1-1.9,4.1-4.1V4.1   C272,1.9,270.1,0,267.9,0z M206.5,14.9c0-1,0.8-1.8,1.8-1.8h2.9c1,0,1.8-0.8,1.8-1.8V8.3c0-1,0.8-1.8,1.8-1.8h9.5   c1,0,1.8,0.8,1.8,1.8v2.9c0,1,0.8,1.8,1.8,1.8h2.9c1,0,1.8,0.8,1.8,1.8v2.9c0,1-0.8,1.8-1.8,1.8H228c-1,0-1.8-0.8-1.8-1.8v-2.9   c0-1-0.8-1.8-1.8-1.8h-9.5c-1,0-1.8,0.8-1.8,1.8v16c0,1-0.8,1.8-1.8,1.8h-2.9c-1,0-1.8-0.8-1.8-1.8L206.5,14.9L206.5,14.9z    M265.5,63.7c0,1-0.8,1.8-1.8,1.8h-2.9c-1,0-1.8-0.8-1.8-1.8v-16c0-1-0.8-1.8-1.8-1.8h-9.5c-1,0-1.8,0.8-1.8,1.8v9.5   c0,1-0.8,1.8-1.8,1.8h-2.9c-1,0-1.8,0.8-1.8,1.8v2.9c0,1-0.8,1.8-1.8,1.8h-2.9c-1,0-1.8-0.8-1.8-1.8v-2.9c0-1-0.8-1.8-1.8-1.8H228   c-1,0-1.8-0.8-1.8-1.8v-9.5c0-1-0.8-1.8-1.8-1.8h-9.5c-1,0-1.8,0.8-1.8,1.8v16c0,1-0.8,1.8-1.8,1.8h-2.9c-1,0-1.8-0.8-1.8-1.8v-16   c0-1,0.8-1.8,1.8-1.8h2.9c1,0,1.8-0.8,1.8-1.8v-2.9c0-1,0.8-1.8,1.8-1.8h9.5c1,0,1.8,0.8,1.8,1.8V44c0,1,0.8,1.8,1.8,1.8h2.9   c1,0,1.8,0.8,1.8,1.8v9.5c0,1,0.8,1.8,1.8,1.8h2.9c1,0,1.8-0.8,1.8-1.8v-9.5c0-1,0.8-1.8,1.8-1.8h2.9c1,0,1.8-0.8,1.8-1.8v-2.9   c0-1,0.8-1.8,1.8-1.8h9.5c1,0,1.8,0.8,1.8,1.8v3c0,1,0.8,1.8,1.8,1.8h2.9c1,0,1.8,0.8,1.8,1.8V63.7z M265.5,24.4   c0,1-0.8,1.8-1.8,1.8h-2.9c-1,0-1.8,0.8-1.8,1.8v2.9c0,1-0.8,1.8-1.8,1.8h-9.5c-1,0-1.8-0.8-1.8-1.8V28c0-1-0.8-1.8-1.8-1.8h-2.9   c-1,0-1.8-0.8-1.8-1.8v-9.5c0-1,0.8-1.8,1.8-1.8h2.9c1,0,1.8-0.8,1.8-1.8V8.3c0-1,0.8-1.8,1.8-1.8h9.5c1,0,1.8,0.8,1.8,1.8v2.9   c0,1,0.8,1.8,1.8,1.8h2.9c1,0,1.8,0.8,1.8,1.8V24.4z"/>
</g>
</svg>