<?xml version="1.0" encoding="UTF-8" standalone="no"?>
<!-- Created with Inkscape (http://www.inkscape.org/) -->
<svg xmlns:dc="http://purl.org/dc/elements/1.1/" xmlns:cc="http://creativecommons.org/ns#" xmlns:rdf="http://www.w3.org/1999/02/22-rdf-syntax-ns#" xmlns:svg="http://www.w3.org/2000/svg" xmlns="http://www.w3.org/2000/svg" xmlns:xlink="http://www.w3.org/1999/xlink" version="1.1" width="280" height="280" id="svg2">
 <defs id="defs4">
  <linearGradient id="linearGradient3773">
   <stop id="stop3775" style="stop-color:#000000;stop-opacity:1" offset="0"/>
   <stop id="stop3781" style="stop-color:#000000;stop-opacity:0.498" offset="0.83"/>
   <stop id="stop3777" style="stop-color:#000000;stop-opacity:0" offset="1"/>
  </linearGradient>
  <radialGradient cx="131.8" cy="121.5" r="82.25" fx="131.8" fy="121.5" id="radialGradient3799" xlink:href="#linearGradient3773" gradientUnits="userSpaceOnUse" gradientTransform="matrix(1,0,0,1.021,0,-2.585)"/>
  <radialGradient cx="131.8" cy="121.5" r="82.25" fx="131.8" fy="121.5" id="radialGradient4148" xlink:href="#linearGradient3773" gradientUnits="userSpaceOnUse" gradientTransform="matrix(1,0,0,1.021,0,-2.585)"/>
  <radialGradient cx="131.8" cy="121.5" r="82.25" fx="131.8" fy="121.5" id="radialGradient4155" xlink:href="#linearGradient3773" gradientUnits="userSpaceOnUse" gradientTransform="matrix(1.517,0,0,1.516,-64.92,-19.24)"/>
 </defs>
 <metadata id="metadata7">
  <rdf:RDF>
   <cc:Work rdf:about="">
    <dc:format>image/svg+xml</dc:format>
    <dc:type rdf:resource="http://purl.org/dc/dcmitype/StillImage"/>
    <dc:title/>
   </cc:Work>
  </rdf:RDF>
 </metadata>
 <g id="g27011">
  <path d="m 264.8,140 a 124.8,122.8 0 1 1 -249.58,0 124.8,122.8 0 1 1 249.58,0 z" id="path2985-1" style="fill:#f8af20;fill-opacity:1;fill-rule:evenodd;stroke:#000000;stroke-width:0.5001;stroke-linecap:square;stroke-linejoin:miter;stroke-miterlimit:4;stroke-opacity:0.4314;stroke-dasharray:none"/>
  <path d="M 104.8,71.66 15.06,136.8 c -0,1.1 -0,2.1 -0,3.2 0,56.6 37.58,104.4 89.17,119.8 l 111,-80.6 -2.7,-2.7 0.1,1.7 -19.2,0.4 -0.2,5.4 -15.8,0.2 0.6,-18 3.1,-0.2 0.6,-0.4 1.9,-1 1.2,1.2 2,-0.1 28.4,-20.7 -2.8,-2.8 0,0.1 -0.3,0.8 -0.3,0.1 0,-1.4 -0.4,1.4 -17.8,0.6 -1.2,5.2 -4.8,1 -9.8,-1.4 -1.2,-15.8 4.5,-0.6 -0.3,0 0.4,-0.2 6,-0.8 0,0.1 1,-0.1 26.9,-19.5 -2.8,-2.8 -0.3,0.9 -3.6,0.9 1,-0.7 -3.5,0.2 -0.2,-0.3 -0.4,0.3 -12.7,0.6 0,4.6 -3.2,0.6 -20.6,0.8 -60.8,64 -4.6,3.4 -16.4,-0.6 0.41,-5.4 -4.82,0.8 -4.18,-2.2 -11.22,-0.2 0,-4.6 19,-2.2 1,-3.6 18.61,-0.4 1,-15.4 -19.8,-2.2 -0.19,-4 -19.62,-1.2 0,-5.8 19.4,-1.6 0,-3.8 7,0.2 11.01,1.8 0,-17.6 -17.79,-0.8 0,-3.8 -19.62,-1.8 -0.1,-2.1 0.38,-0.3 0.1,-1.6 1.88,-1.9 0.75,0 0.5,1.1 1.59,-1.2 14.69,-0.4 0,-4.59 18.4,-0.22 0,-18.75 4.4,-3.18 -5,-5 z m 86.8,60.54 0.8,2 0.7,0.2 -0.7,-2.2 -0.8,0 z m 9.7,4.1 10.5,1.2 0,-0.3 -10.5,-0.9 z" id="path4627" style="fill:#000000;fill-opacity:0.502;stroke:none"/>
  <g transform="matrix(2.546,0,0,2.546,58.52,58.52)" id="g26906" style="fill:#ffffff;fill-opacity:1">
   <path d="M 53.58,23.43 V 21.3 l 7.88,-0.37 V 16.98 L 53.58,16.62 V 14.98 H 47.42 V 7.747 c 0,-1.638 -1.33,-2.973 -2.97,-2.973 h -24.9 c -1.64,0 -2.97,1.334 -2.97,2.973 v 7.233 h -6.16 v 1.64 l -7.876,0.36 v 3.95 l 7.876,0.37 v 2.13 h 6.16 v 4.59 h -6.16 v 1.64 l -7.876,0.36 v 3.96 l 7.876,0.36 v 2.13 h 6.16 v 5.09 h -6.16 v 1.64 l -7.876,0.36 v 3.95 l 7.876,0.37 v 2.13 h 6.16 v 6.25 c 0,1.64 1.33,2.97 2.97,2.97 h 24.9 c 1.64,0 2.97,-1.33 2.97,-2.97 v -6.25 h 6.16 v -2.13 l 7.88,-0.37 V 43.56 L 53.58,43.2 v -1.64 h -6.16 v -5.09 h 6.16 v -2.13 l 7.88,-0.36 v -3.95 l -7.88,-0.37 v -1.64 h -6.16 v -4.59 h 6.16 z m -5.91,-6.89 h 4.35 v 1.56 l 7.87,0.37 v 0.97 l -7.87,0.37 v 2.06 H 47.67 V 16.54 z M 16.33,21.87 H 11.98 V 19.81 L 4.104,19.44 v -0.97 l 7.876,-0.36 v -1.57 h 4.35 v 5.33 z m 0,13.04 H 11.98 V 32.86 L 4.104,32.49 v -0.97 l 7.876,-0.37 v -1.57 h 4.35 v 5.33 z m 0,13.54 H 11.98 V 46.39 L 4.104,46.02 v -0.97 l 7.876,-0.36 v -1.57 h 4.35 v 5.33 z m 5.71,-35.93 c -1.07,0 -1.93,-0.87 -1.93,-1.93 0,-1.067 0.86,-1.93 1.93,-1.93 1.06,0 1.92,0.863 1.92,1.93 0,1.06 -0.86,1.93 -1.92,1.93 z m 25.63,30.6 h 4.35 v 1.57 l 7.87,0.36 v 0.97 l -7.87,0.37 v 2.06 h -4.35 v -5.33 z m 0,-13.54 h 4.35 v 1.57 l 7.87,0.37 v 0.97 l -7.87,0.37 v 2.05 h -4.35 v -5.33 z" id="path26908" style="fill:#ffffff;fill-opacity:1"/>
  </g>
 </g>
</svg>