<?xml version="1.0" encoding="utf-8"?>
<!-- Generator: Adobe Illustrator 16.0.0, SVG Export Plug-In . SVG Version: 6.00 Build 0)  -->
<!DOCTYPE svg PUBLIC "-//W3C//DTD SVG 1.1//EN" "http://www.w3.org/Graphics/SVG/1.1/DTD/svg11.dtd">
<svg version="1.1" id="Layer_1" xmlns="http://www.w3.org/2000/svg" xmlns:xlink="http://www.w3.org/1999/xlink" x="0px" y="0px"
	 width="126px" height="126px" viewBox="0 0 126 126" enable-background="new 0 0 126 126" xml:space="preserve">
<path d="M74.586,107.912c0.145,0.01,0.287,0.021,0.434,0.021h33c3.861,0,7-3.141,7-7v-76.5c0-3.859-3.139-7-7-7h-33
	c-0.146,0-0.289,0.014-0.434,0.023V8.322l-64.408,8.596v91.586l64.408,8.818V107.912z M75.02,21.434h33c1.654,0,3,1.346,3,3v76.5
	c0,1.654-1.346,3-3,3h-33c-0.148,0-0.291-0.021-0.434-0.043V83.162h22.676v-5.301h5.299v-1.324h3.08v-1.092h-3.08v-1.326h-5.299
	v-7.326h5.299v-1.246h3.08v-1.094h-3.08v-1.402h-5.299v-6.857h5.299v-1.404h3.08v-1.092h-3.08v-1.246h-5.299v-3.898H74.586V21.479
	C74.729,21.457,74.871,21.434,75.02,21.434z M89.623,55.723c0-1.205,0.977-2.182,2.184-2.182c1.205,0,2.182,0.977,2.182,2.182
	c0,1.207-0.977,2.184-2.182,2.184C90.6,57.906,89.623,56.93,89.623,55.723z M22.826,75.599c-0.264-0.508-0.646-1.965-1.121-4.152
	c-0.43-2.207-1.113-2.811-2.564-2.84l-1.066-0.002v6.842l-3.432-0.109V58.419c1.104-0.251,2.766-0.477,4.637-0.559
	c2.352-0.104,4.029,0.219,5.191,1.179c0.98,0.815,1.521,2.052,1.521,3.708c0,2.297-1.496,3.881-2.9,4.443v0.08
	c1.137,0.5,1.77,1.695,2.186,3.348c0.518,2.033,1.035,4.396,1.357,5.102L22.826,75.599z M36.064,76.327
	c-5.244-0.174-8.211-4.336-8.211-9.504c0-5.438,3.275-9.646,8.506-9.879c5.684-0.254,8.896,4.076,8.896,9.443
	C45.256,72.767,41.455,76.507,36.064,76.327z M66.441,76.992l-0.338-8.056c-0.102-2.526-0.201-5.58-0.201-8.634l-0.1,0.003
	c-0.705,2.693-1.635,5.682-2.494,8.127l-2.68,8.039l-3.793-0.117l-2.244-7.873c-0.678-2.357-1.385-5.209-1.871-7.813l-0.063,0.002
	c-0.121,2.703-0.213,5.79-0.365,8.281l-0.363,7.576l-4.205-0.135l1.27-19.689l6.156-0.267l2.064,6.704
	c0.664,2.348,1.33,4.891,1.809,7.291l0.096,0.001c0.609-2.371,1.35-5.091,2.063-7.396l2.357-6.964l6.727-0.292l1.289,21.373
	L66.441,76.992z"/>
<path d="M36.252,60.318c-2.734,0.085-4.299,2.815-4.299,6.403c0,3.612,1.619,6.19,4.326,6.244c2.793,0.055,4.422-2.693,4.422-6.406
	C40.701,63.13,39.102,60.229,36.252,60.318z"/>
<path d="M19.676,60.781c-0.861,0.026-1.348,0.119-1.602,0.179v4.803l1.391-0.014c1.789-0.018,2.859-1.027,2.859-2.579
	C22.324,61.539,21.324,60.756,19.676,60.781z"/>
</svg>
