<?xml version="1.0" encoding="UTF-8" standalone="no"?>
<!-- Created with Inkscape (http://www.inkscape.org/) -->
<svg xmlns:dc="http://purl.org/dc/elements/1.1/" xmlns:cc="http://creativecommons.org/ns#" xmlns:rdf="http://www.w3.org/1999/02/22-rdf-syntax-ns#" xmlns:svg="http://www.w3.org/2000/svg" xmlns="http://www.w3.org/2000/svg" version="1.1" width="552.51154" height="522.25793" id="svg2">
  <defs id="defs4">
 <style type="text/css" id="style2989"/>

  </defs>
  <metadata id="metadata7">
    <rdf:RDF>
      <cc:Work rdf:about="">
        <dc:format>image/svg+xml</dc:format>
        <dc:type rdf:resource="http://purl.org/dc/dcmitype/StillImage"/>
        <dc:title/>
      </cc:Work>
    </rdf:RDF>
  </metadata>
  <g transform="translate(-106.60139,-216.94749)" id="layer1">
    <g transform="matrix(3.543307,0,0,3.543307,-39.754521,-65.908101)" id="g3024" style="fill-rule:evenodd">
      <g id="Camada_x0020_1">
  <metadata id="CorelCorpID_0Corel-Layer"/>

  <ellipse cx="107.256" cy="116.769" rx="49.036098" ry="49.036098" transform="translate(9.6761907,12.095238)" id="ellipse2993" style="fill:none"/>

  <ellipse cx="103.728" cy="116.769" rx="42.6861" ry="42.506802" transform="translate(9.6761907,12.095238)" id="ellipse2995" style="fill:none"/>

  <ellipse cx="100.553" cy="116.593" rx="35.630501" ry="35.806999" transform="translate(9.6761907,12.095238)" id="ellipse2997" style="fill:none"/>

  <path d="m 105.64349,100.64224 c -17.153099,-0.3265 -28.751499,12.617 -28.751499,28.3986 0,15.7816 13.8889,28.2223 29.280699,28.2223 15.3918,0 27.5165,-12.2643 27.3402,-28.0459 -0.1763,-15.7816 -10.7163,-28.2485 -27.8694,-28.575 z" id="path2999" style="fill:none"/>

  <path d="m 112.07519,134.28724 c -6.1357,16.885 -30.211099,9.8405 -28.842799,-6.2229 1.6482,-19.3493 24.357599,-17.3206 28.672599,-5.991 l 11.4653,0 c -6.1163,-15.119 -20.2503,-17.669 -30.064099,-13.0416 -7.8546,3.7037 -12.3715,12.3226 -12.0278,20.4238 0.1511,3.5639 1.2153,13.5425 11.7977,18.6272 11.149399,5.3571 30.310799,0.6066 31.176099,-19.8358 l -23.2599,-0.4192 -0.0235,6.9456 11.1064,-0.4861 z" id="path3001" style="fill:none"/>

  <path d="m 41.945791,221.00024 5.5268,0.6703 c 0.0941,0.6468 0.3057,1.0877 0.635,1.3288 0.4586,0.3469 1.1877,0.5174 2.1696,0.5174 1.2641,0 2.2107,-0.1882 2.8457,-0.5703 0.4233,-0.2528 0.7467,-0.6585 0.9643,-1.223 0.147,-0.3998 0.2234,-1.1406 0.2234,-2.2225 l 0,-2.6693 c -1.4464,1.9755 -3.2749,2.9633 -5.4798,2.9633 -2.4577,0 -4.4038,-1.0407 -5.8385,-3.1162 -1.123,-1.6463 -1.6874,-3.6865 -1.6874,-6.1324 0,-3.0692 0.7408,-5.4093 2.2166,-7.0321 1.4758,-1.6169 3.3102,-2.4282 5.5033,-2.4282 2.2578,0 4.1275,0.9936 5.5974,2.9809 l 0,-2.5635 4.5273,0 0,16.4159 c 0,2.1578 -0.1764,3.7688 -0.535,4.8389 -0.3528,1.0701 -0.8526,1.905 -1.4934,2.5165 -0.6468,0.6056 -1.5052,1.0819 -2.5753,1.4287 -1.076,0.3411 -2.4342,0.5175 -4.0746,0.5175 -3.1044,0 -5.3034,-0.5351 -6.5969,-1.5934 -1.2994,-1.0642 -1.9462,-2.4107 -1.9462,-4.0393 0,-0.1646 0.0059,-0.3587 0.0177,-0.588 z m 4.3215,-10.7303 c 0,1.9403 0.3763,3.3632 1.1289,4.2627 0.7526,0.8996 1.6757,1.3524 2.781,1.3524 1.1818,0 2.1814,-0.4645 2.9986,-1.3876 0.8114,-0.9231 1.223,-2.2931 1.223,-4.1099 0,-1.8932 -0.3939,-3.2985 -1.1759,-4.2157 -0.7761,-0.9231 -1.7639,-1.3817 -2.9575,-1.3817 -1.1641,0 -2.1166,0.4527 -2.8692,1.3523 -0.7526,0.9055 -1.1289,2.2754 -1.1289,4.1275 z" id="path3003" style="fill:#000000;fill-opacity:1;fill-rule:nonzero"/>

  <path d="m 68.574591,219.79524 -4.839,0 0,-18.2915 4.4921,0 0,2.5988 c 0.7702,-1.2288 1.464,-2.0402 2.0755,-2.4283 0.6173,-0.388 1.3111,-0.5879 2.0931,-0.5879 1.1054,0 2.1637,0.3057 3.1868,0.9172 l -1.4993,4.2157 c -0.8114,-0.5233 -1.5699,-0.7879 -2.2696,-0.7879 -0.682,0 -1.2523,0.1823 -1.7227,0.5586 -0.4763,0.3704 -0.8408,1.0465 -1.1113,2.0225 -0.2704,0.9761 -0.4056,3.0222 -0.4056,6.1325 l 0,5.6503 z" id="1" style="fill:#000000;fill-opacity:1;fill-rule:nonzero"/>

  <path d="m 81.286291,207.08324 -4.3921,-0.7938 c 0.4939,-1.7697 1.3406,-3.075 2.5459,-3.9276 1.2112,-0.8466 2.9986,-1.2758 5.3739,-1.2758 2.1637,0 3.7689,0.2587 4.8272,0.7702 1.0525,0.5115 1.7992,1.1583 2.2284,1.9461 0.4292,0.7879 0.6467,2.2284 0.6467,4.3333 l -0.0529,5.6503 c 0,1.6052 0.0765,2.7928 0.2352,3.5572 0.1529,0.7585 0.4469,1.5816 0.8702,2.4518 l -4.7919,0 c -0.1235,-0.3234 -0.2822,-0.7996 -0.4645,-1.4287 -0.0764,-0.2881 -0.1352,-0.4763 -0.1705,-0.5704 -0.829,0.8055 -1.711,1.4053 -2.6517,1.811 -0.9407,0.3998 -1.9461,0.5997 -3.0162,0.5997 -1.8815,0 -3.3691,-0.5116 -4.4509,-1.5287 -1.0877,-1.0231 -1.6287,-2.3166 -1.6287,-3.8806 0,-1.0289 0.247,-1.952 0.7409,-2.7634 0.4939,-0.8114 1.1877,-1.4287 2.0755,-1.858 0.8878,-0.4292 2.1754,-0.8055 3.8511,-1.1288 2.2578,-0.4234 3.8277,-0.8232 4.6978,-1.1877 l 0,-0.4822 c 0,-0.9348 -0.2293,-1.5933 -0.6879,-1.9931 -0.4586,-0.394 -1.3229,-0.5939 -2.5988,-0.5939 -0.8643,0 -1.5345,0.1705 -2.0167,0.5115 -0.4821,0.3352 -0.8702,0.929 -1.17,1.7816 z m 6.4734,3.9276 c -0.6173,0.2057 -1.5992,0.4527 -2.9457,0.7408 -1.3405,0.2881 -2.2166,0.5703 -2.634,0.8408 -0.6291,0.4527 -0.9466,1.0171 -0.9466,1.7051 0,0.682 0.2528,1.2641 0.7584,1.758 0.5057,0.4939 1.1466,0.7408 1.9285,0.7408 0.8761,0 1.7051,-0.2881 2.4989,-0.8584 0.5879,-0.4351 0.9701,-0.9702 1.1524,-1.6052 0.1293,-0.4115 0.1881,-1.1994 0.1881,-2.3577 l 0,-0.9642 z" id="12" style="fill:#000000;fill-opacity:1;fill-rule:nonzero"/>

  <path d="m 114.06519,219.79524 -4.4921,0 0,-2.687 c -0.7467,1.0466 -1.6286,1.8227 -2.6458,2.3342 -1.0172,0.5115 -2.0402,0.7644 -3.075,0.7644 -2.1049,0 -3.904099,-0.8467 -5.403399,-2.54 -1.4934,-1.6934 -2.246,-4.057 -2.246,-7.085 0,-3.1044 0.7291,-5.4621 2.1872,-7.0731 1.4581,-1.6111 3.304299,-2.4224 5.532699,-2.4224 2.0402,0 3.81,0.8525 5.3034,2.5517 l 0,-9.0958 4.839,0 0,25.253 z m -12.9176,-9.5426 c 0,1.952 0.2705,3.3631 0.8114,4.2392 0.7761,1.2582 1.8697,1.8932 3.2691,1.8932 1.1171,0 2.0637,-0.4762 2.8457,-1.4228 0.7761,-0.9467 1.1701,-2.3637 1.1701,-4.2451 0,-2.0991 -0.3822,-3.616 -1.1348,-4.5391 -0.7585,-0.9231 -1.7286,-1.3876 -2.9163,-1.3876 -1.1465,0 -2.1049,0.4586 -2.881,1.37 -0.7761,0.9113 -1.1642,2.2754 -1.1642,4.0922 z" id="123" style="fill:#000000;fill-opacity:1;fill-rule:nonzero"/>

  <path d="m 118.83919,199.02224 0,-4.4803 4.8389,0 0,4.4803 -4.8389,0 z m 0,20.7727 0,-18.2915 4.8389,0 0,18.2915 -4.8389,0 z" id="1234" style="fill:#000000;fill-opacity:1;fill-rule:nonzero"/>

  <path d="m 139.23019,213.97424 4.8272,0.8055 c -0.6233,1.7698 -1.5993,3.1162 -2.9398,4.0393 -1.3347,0.929 -3.0104,1.3876 -5.0212,1.3876 -3.1809,0 -5.5328,-1.0348 -7.0615,-3.1162 -1.2053,-1.664 -1.8109,-3.7689 -1.8109,-6.303 0,-3.0339 0.7938,-5.4092 2.3813,-7.1261 1.5816,-1.7168 3.5865,-2.5752 6.0089,-2.5752 2.7223,0 4.8684,0.8995 6.4441,2.6987 1.5699,1.7992 2.3224,4.5508 2.2578,8.2609 l -12.1297,0 c 0.0353,1.4346 0.4234,2.5517 1.1701,3.3455 0.7467,0.7996 1.6815,1.1994 2.7928,1.1994 0.7585,0 1.3935,-0.2058 1.9109,-0.6174 0.5174,-0.4174 0.9113,-1.0818 1.17,-1.999 z m 0.2763,-4.8919 c -0.0352,-1.4052 -0.3939,-2.4694 -1.0818,-3.1985 -0.6879,-0.729 -1.5287,-1.0936 -2.5165,-1.0936 -1.0583,0 -1.9285,0.3881 -2.6164,1.1583 -0.6879,0.7644 -1.0289,1.8109 -1.0172,3.1338 l 7.2319,0 z" id="12345" style="fill:#000000;fill-opacity:1;fill-rule:nonzero"/>

  <path d="m 164.90019,219.79524 -4.8389,0 0,-9.3368 c 0,-1.9756 -0.1058,-3.2515 -0.3116,-3.8335 -0.2058,-0.5762 -0.5468,-1.029 -1.0113,-1.3524 -0.4645,-0.3175 -1.0231,-0.4821 -1.6757,-0.4821 -0.8408,0 -1.5934,0.2293 -2.2578,0.6879 -0.6644,0.4645 -1.123,1.0701 -1.3699,1.8286 -0.247,0.7585 -0.3704,2.1578 -0.3704,4.2039 l 0,8.2844 -4.839,0 0,-18.2915 4.4921,0 0,2.687 c 1.5992,-2.0696 3.61,-3.1044 6.0325,-3.1044 1.0642,0 2.0461,0.194 2.928,0.5762 0.8819,0.388 1.5522,0.876 2.0049,1.4757 0.4528,0.5998 0.7703,1.2759 0.9467,2.0344 0.1822,0.7585 0.2704,1.8403 0.2704,3.2514 l 0,11.3712 z" id="123456" style="fill:#000000;fill-opacity:1;fill-rule:nonzero"/>

  <path d="m 178.19419,201.50324 0,3.857 -3.3043,0 0,7.3731 c 0,1.4934 0.0294,2.3636 0.0941,2.6105 0.0647,0.247 0.2058,0.4469 0.4292,0.6115 0.2234,0.1588 0.4998,0.2411 0.8173,0.2411 0.4527,0 1.0994,-0.1588 1.952,-0.4645 l 0.4116,3.7512 c -1.1289,0.4821 -2.3989,0.7232 -3.8277,0.7232 -0.8702,0 -1.658,-0.147 -2.3577,-0.4351 -0.6997,-0.294 -1.2112,-0.6762 -1.5405,-1.1407 -0.3292,-0.4645 -0.5526,-1.0936 -0.682,-1.8873 -0.0999,-0.5586 -0.1529,-1.6992 -0.1529,-3.4102 l 0,-7.9728 -2.2225,0 0,-3.857 2.2225,0 0,-3.6395 4.8566,-2.8222 0,6.4617 3.3043,0 z" id="1234567" style="fill:#000000;fill-opacity:1;fill-rule:nonzero"/>

  <path d="m 192.14619,213.97424 4.8272,0.8055 c -0.6233,1.7698 -1.5993,3.1162 -2.9398,4.0393 -1.3347,0.929 -3.0104,1.3876 -5.0212,1.3876 -3.1809,0 -5.5328,-1.0348 -7.0615,-3.1162 -1.2053,-1.664 -1.8109,-3.7689 -1.8109,-6.303 0,-3.0339 0.7938,-5.4092 2.3813,-7.1261 1.5816,-1.7168 3.5865,-2.5752 6.0089,-2.5752 2.7223,0 4.8684,0.8995 6.4441,2.6987 1.5699,1.7992 2.3224,4.5508 2.2578,8.2609 l -12.1297,0 c 0.0353,1.4346 0.4234,2.5517 1.1701,3.3455 0.7467,0.7996 1.6815,1.1994 2.7928,1.1994 0.7585,0 1.3935,-0.2058 1.9109,-0.6174 0.5174,-0.4174 0.9113,-1.0818 1.17,-1.999 z m 0.2763,-4.8919 c -0.0352,-1.4052 -0.3939,-2.4694 -1.0818,-3.1985 -0.6879,-0.729 -1.5287,-1.0936 -2.5165,-1.0936 -1.0583,0 -1.9285,0.3881 -2.6164,1.1583 -0.6879,0.7644 -1.0289,1.8109 -1.0172,3.1338 l 7.2319,0 z" id="12345678" style="fill:#000000;fill-opacity:1;fill-rule:nonzero"/>

  <path d="m 113.40419,86.357638 c 23.5749,0 42.6861,19.031102 42.6861,42.506902 0,23.4758 -19.1112,42.5067 -42.6861,42.5067 -23.574899,0 -42.686099,-19.0309 -42.686099,-42.5067 0,-23.4758 19.1112,-42.506902 42.686099,-42.506902 z M 67.895791,128.86434 c 0,27.0819 21.9542,49.0362 49.036299,49.0362 27.0819,0 49.036,-21.9543 49.036,-49.0362 0,-27.0817 -21.9541,-49.036002 -49.036,-49.036002 -27.082099,0 -49.036299,21.954302 -49.036299,49.036002 z" id="path3013" style="fill:#000000"/>

  <path d="m 145.86019,128.68824 c 0,-19.7758 -15.9523,-35.807002 -35.6305,-35.807002 -19.678299,0 -35.630599,16.031202 -35.630599,35.807002 0,19.7758 15.9523,35.807 35.630599,35.807 19.6782,0 35.6305,-16.0312 35.6305,-35.807 z m -40.2166,-28.0458 c 17.1531,0.3265 27.6931,12.7934 27.8694,28.575 0.1763,15.7816 -11.9484,28.0459 -27.3402,28.0459 -15.391799,0 -29.280699,-12.4407 -29.280699,-28.2223 0,-15.7816 11.5984,-28.7251 28.751499,-28.3986 z" id="path3015" style="fill:#000000"/>

  <path d="m 123.37019,122.07324 c -6.1163,-15.119 -20.2503,-17.669 -30.064099,-13.0416 -7.8546,3.7037 -12.3715,12.3226 -12.0278,20.4238 0.1511,3.5639 1.2153,13.5425 11.7977,18.6272 11.149399,5.3571 30.310799,0.6066 31.176099,-19.8358 l -23.2599,-0.4192 -0.0235,6.9456 11.1064,-0.4861 c -6.1357,16.885 -30.211099,9.8405 -28.842799,-6.2229 1.6482,-19.3493 24.357599,-17.3206 28.672599,-5.991 l 11.4653,0 z" id="path3017" style="fill:#000000"/>

 </g>
    </g>
  </g>
</svg>