<?xml version="1.0" encoding="windows-1252"?>
<!-- Generator: Adobe Illustrator 16.0.0, SVG Export Plug-In . SVG Version: 6.00 Build 0)  -->
<!DOCTYPE svg PUBLIC "-//W3C//DTD SVG 1.1//EN" "http://www.w3.org/Graphics/SVG/1.1/DTD/svg11.dtd">
<svg version="1.1" id="Capa_1" xmlns="http://www.w3.org/2000/svg" xmlns:xlink="http://www.w3.org/1999/xlink" x="0px" y="0px" width="487.037px" height="487.037px" viewBox="0 0 487.037 487.037" style="enable-background:new 0 0 487.037 487.037;" xml:space="preserve">
<g>
	<g id="_x33_3_4_">
		<g>
			<path d="M383.281,152.801l22.034-23.244c5.564-5.873,5.317-15.145-0.552-20.708l-17.719-16.796     c-5.872-5.565-15.143-5.317-20.707,0.556l-24.811,26.17c-18.408-11.097-38.841-19.152-60.597-23.504V63.474h28.504     c8.09,0,14.646-6.559,14.646-14.647v-34.18C324.08,6.556,317.523,0,309.434,0H183.707c-8.092,0-14.648,6.557-14.648,14.647v34.18     c0,8.089,6.557,14.647,14.648,14.647h22.682v31.701h0.249c-21.52,4.241-41.752,12.101-60.022,22.948l-27.231-25.816     c-5.872-5.564-15.143-5.318-20.708,0.555l-16.796,17.72c-5.563,5.869-5.317,15.142,0.555,20.707l21.965,20.82     c-31.799,34.043-51.294,79.716-51.294,129.864c0,86.971,58.606,160.508,138.4,183.193v11.504c0,5.727,4.641,10.367,10.369,10.367     h88.997c5.729,0,10.369-4.643,10.369-10.367v-13.236c76.86-24.506,132.688-96.582,132.688-181.461     C433.93,232.165,414.698,186.769,383.281,152.801z M243.518,438.229c-86.158,0-156.254-70.096-156.254-156.256     c0-86.16,70.096-156.256,156.254-156.256s156.254,70.097,156.254,156.256C399.772,368.133,329.676,438.229,243.518,438.229z"/>
			<path d="M321.492,229.258c-5.29-6.242-66.838,22.339-82.75,29.872c-1.127,0.438-2.187,0.968-3.234,1.55     c-0.217,0.102-0.545,0.262-0.545,0.262l0.015,0.021c-7.637,4.44-12.832,12.622-12.832,22.104     c0,14.177,11.487,25.666,25.664,25.666c5.662,0,10.844-1.891,15.086-4.985l0.028,0.044c0,0,0.226-0.232,0.32-0.334     c2.354-1.787,4.418-3.924,6.047-6.4C285.4,279.848,326.375,235.042,321.492,229.258z"/>
			<path d="M257.208,384.137h-22.744c-0.27,0-0.487,0.219-0.487,0.488v32.877c0,0.27,0.218,0.486,0.487,0.486h22.744     c0.27,0,0.488-0.219,0.488-0.486v-32.877C257.697,384.355,257.478,384.137,257.208,384.137z"/>
			<path d="M152.545,290.29v-22.242c0-0.271-0.218-0.487-0.487-0.487h-32.877c-0.27,0-0.488,0.219-0.488,0.487v22.242     c0,0.271,0.219,0.487,0.488,0.487h32.877C152.328,290.779,152.545,290.561,152.545,290.29z"/>
			<path d="M234.436,174.026h22.743c0.27,0,0.488-0.219,0.488-0.488v-32.877c0-0.27-0.219-0.488-0.488-0.488h-22.743     c-0.27,0-0.487,0.219-0.487,0.488v32.877C233.949,173.807,234.166,174.026,234.436,174.026z"/>
			<path d="M372.464,267.385h-32.877c-0.271,0-0.488,0.219-0.488,0.487v22.241c0,0.27,0.219,0.488,0.488,0.488h32.877     c0.27,0,0.487-0.22,0.487-0.488v-22.241C372.953,267.604,372.734,267.385,372.464,267.385z"/>
			<path d="M157.304,347.378c-0.19-0.19-0.5-0.19-0.69,0l-23.619,23.619c-0.091,0.091-0.143,0.215-0.143,0.345     c0,0.131,0.052,0.254,0.143,0.346l16.34,16.338c0.095,0.096,0.22,0.145,0.345,0.145s0.25-0.049,0.346-0.145l23.619-23.618     c0.091-0.091,0.143-0.216,0.143-0.345c0-0.131-0.052-0.254-0.143-0.346L157.304,347.378z"/>
			<path d="M158.233,180.805c-0.19-0.191-0.5-0.191-0.69,0l-15.979,15.979c-0.091,0.091-0.143,0.215-0.143,0.345     c0,0.13,0.052,0.254,0.143,0.345l23.619,23.619c0.095,0.096,0.22,0.144,0.345,0.144s0.25-0.048,0.346-0.144l15.979-15.979     c0.091-0.091,0.143-0.215,0.143-0.345s-0.052-0.254-0.143-0.345L158.233,180.805z"/>
			<path d="M324.581,212.736c0.096,0.096,0.221,0.144,0.346,0.144s0.25-0.048,0.345-0.144l23.619-23.619     c0.092-0.091,0.144-0.215,0.144-0.345s-0.052-0.254-0.144-0.345l-16.34-16.339c-0.189-0.191-0.5-0.191-0.689,0l-23.619,23.619     c-0.092,0.091-0.144,0.215-0.144,0.345c0,0.13,0.052,0.254,0.144,0.345L324.581,212.736z"/>
			<path d="M316.703,339.021c-0.188-0.19-0.5-0.19-0.688,0l-15.979,15.979c-0.189,0.19-0.189,0.499,0,0.688l23.619,23.619     c0.096,0.096,0.221,0.145,0.346,0.145s0.25-0.049,0.345-0.145l15.979-15.979c0.19-0.189,0.19-0.499,0-0.689L316.703,339.021z"/>
		</g>
	</g>
</g>
<g>
</g>
<g>
</g>
<g>
</g>
<g>
</g>
<g>
</g>
<g>
</g>
<g>
</g>
<g>
</g>
<g>
</g>
<g>
</g>
<g>
</g>
<g>
</g>
<g>
</g>
<g>
</g>
<g>
</g>
</svg>