<?xml version="1.0" encoding="windows-1252"?>
<!-- Generator: Adobe Illustrator 17.0.0, SVG Export Plug-In . SVG Version: 6.00 Build 0)  -->
<!DOCTYPE svg PUBLIC "-//W3C//DTD SVG 1.1//EN" "http://www.w3.org/Graphics/SVG/1.1/DTD/svg11.dtd">
<svg version="1.1" id="Layer_1" xmlns="http://www.w3.org/2000/svg" xmlns:xlink="http://www.w3.org/1999/xlink" x="0px" y="0px" width="123.177px" height="129.814px" viewBox="0 0 123.177 129.814" style="enable-background:new 0 0 123.177 129.814;" xml:space="preserve">
<rect x="-91" y="-191.786" style="display:none;stroke:#000000;stroke-miterlimit:10;" width="628" height="805.6"/>
<g>
	<defs>
		<rect id="SVGID_9_" x="-0.223" y="0" width="119.538" height="129.814"/>
	</defs>
	<clipPath id="SVGID_2_">
		<use xlink:href="#SVGID_9_" style="overflow:visible;"/>
	</clipPath>
	<path style="clip-path:url(#SVGID_2_);fill:#FFFFFF;" d="M59.467,11.235c0,0,22.575-1.891,42.035,17.569L90.307,39.518   c0,0-12.001-13.764-30.84-12.687V11.235z"/>
	<path style="clip-path:url(#SVGID_2_);fill:#A7A9AC;" d="M59.546,11.668c-32.189,0-58.377,26.188-58.377,58.377   s26.188,58.377,58.377,58.377s58.377-26.188,58.377-58.377S91.735,11.668,59.546,11.668 M59.546,129.814   c-32.957,0-59.769-26.812-59.769-59.769s26.812-59.769,59.769-59.769s59.769,26.812,59.769,59.769S92.503,129.814,59.546,129.814"/>
	<path style="clip-path:url(#SVGID_2_);fill:#A7A9AC;" d="M59.546,26.98c-23.746,0-43.065,19.319-43.065,43.065   s19.319,43.064,43.065,43.064s43.065-19.318,43.065-43.064S83.292,26.98,59.546,26.98 M59.546,114.501   c-24.513,0-44.456-19.943-44.456-44.456s19.943-44.457,44.456-44.457s44.456,19.944,44.456,44.457S84.059,114.501,59.546,114.501"/>
</g>
<rect x="44.012" y="60.583" transform="matrix(0.7071 -0.7071 0.7071 0.7071 -23.8605 66.0258)" style="fill:#FFFFFF;" width="47.516" height="2.464"/>
<g>
	<defs>
		<rect id="SVGID_11_" x="-0.223" y="0" width="119.538" height="129.814"/>
	</defs>
	<clipPath id="SVGID_4_">
		<use xlink:href="#SVGID_11_" style="overflow:visible;"/>
	</clipPath>
	<path style="clip-path:url(#SVGID_4_);fill:#A7A9AC;" d="M100.195,26.258c0.626,0.588,1.652,1.558,2.079,1.995   c0.422,0.432,1.387,1.501,1.971,2.152c0.861-0.776,2.331-1.957,3.285-1.959c0.677,0,2.378,0.793,3.417,1.31l4.157-4.157   l-10.086-10.086l-4.082,4.083c0.501,1.017,1.263,2.674,1.263,3.34C102.199,23.919,100.985,25.398,100.195,26.258 M104.164,32.405   l-0.484-0.543c-0.001-0.001-1.787-2.008-2.402-2.637c-0.622-0.638-2.546-2.431-2.546-2.431l-0.526-0.49l0.507-0.51   c1.116-1.121,2.094-2.457,2.094-2.858c-0.021-0.355-0.708-1.924-1.338-3.162l-0.229-0.451l5.778-5.777l12.054,12.053l-5.856,5.857   l-0.452-0.232c-1.268-0.652-2.872-1.364-3.239-1.386c-0.379,0.003-1.736,0.985-2.84,2.06L104.164,32.405z"/>
	<path style="clip-path:url(#SVGID_4_);fill:#FFFFFF;" d="M59.228,64.268c-1.627,0-3.156,0.633-4.306,1.784   c-1.151,1.15-1.784,2.679-1.784,4.306c0,1.626,0.633,3.155,1.784,4.306c1.15,1.15,2.679,1.783,4.306,1.783   c1.626,0,3.156-0.633,4.306-1.783c1.15-1.151,1.783-2.68,1.783-4.306c0-1.627-0.633-3.156-1.783-4.306   C62.384,64.901,60.854,64.268,59.228,64.268 M59.228,77.839c-1.998,0-3.877-0.778-5.29-2.191c-1.414-1.413-2.192-3.292-2.192-5.29   s0.778-3.877,2.192-5.29c1.413-1.414,3.292-2.192,5.29-2.192c1.998,0,3.876,0.778,5.29,2.192c1.413,1.413,2.191,3.292,2.191,5.29   s-0.778,3.877-2.191,5.29C63.104,77.061,61.226,77.839,59.228,77.839"/>
	<path style="clip-path:url(#SVGID_4_);fill:#A7A9AC;" d="M59.546,1.391c-1.423,0-2.58,1.158-2.58,2.581   c0,1.422,1.157,2.579,2.58,2.579c1.423,0,2.58-1.157,2.58-2.579C62.126,2.549,60.969,1.391,59.546,1.391 M59.546,7.943   c-2.19,0-3.971-1.782-3.971-3.971c0-2.19,1.781-3.973,3.971-3.973c2.19,0,3.971,1.783,3.971,3.973   C63.517,6.161,61.736,7.943,59.546,7.943"/>
</g>
</svg>