<?xml version="1.0" encoding="UTF-8"?>
<!-- Generator: Adobe Illustrator 17.0.0, SVG Export Plug-In . SVG Version: 6.00 Build 0)  -->
<!DOCTYPE svg PUBLIC "-//W3C//DTD SVG 1.1//EN" "http://www.w3.org/Graphics/SVG/1.1/DTD/svg11.dtd">
<svg version="1.1" id="Layer_1" xmlns="http://www.w3.org/2000/svg" xmlns:xlink="http://www.w3.org/1999/xlink" x="0px" y="0px" width="200px" height="200px" viewBox="0 0 200 200" enable-background="new 0 0 200 200" xml:space="preserve">
<g opacity="0.4">
	<circle fill="none" stroke="#2680B7" stroke-width="3" stroke-miterlimit="10" cx="100" cy="100.001" r="97.5"/>
</g>
<g>
	
		<text transform="matrix(1 0 0 1 95.7837 139.0953)" opacity="0.5" fill="#2680B7" font-family="'CenturyGothic-Bold'" font-size="10">6</text>
	<path fill-rule="evenodd" clip-rule="evenodd" fill="#2680B7" d="M90.695,67.64c-7.246-6.805-5.168-15.922-0.56-20.112   c5.401-4.908,13.232-4.879,18.477,0.075c4.781,4.51,6.285,13.635-0.667,20.013c13.615,3.248,23.675,10.996,29.762,23.582   c4.12,8.518,5.16,17.574,3.108,26.772c-4.461,19.984-21.012,33.42-41.254,33.635c-19.484,0.207-35.872-12.81-40.931-30.457   c-3.388-11.818-1.997-23.195,4.367-33.766C69.329,76.865,78.705,70.418,90.695,67.64z M134.995,109.149   c-0.061-20.404-17.4-37.148-38.659-35.468c-17.741,1.405-33.492,16.767-32.628,37.19c0.801,18.958,16.807,34.706,36.922,33.987   C119.886,144.174,135.005,128.337,134.995,109.149z M102.192,65.546c3.216-0.452,6.276-4.721,6.091-8.417   c-0.25-4.998-3.984-8.744-8.788-8.82c-4.576-0.075-8.659,3.445-9.058,7.808c-0.405,4.425,2.367,8.829,5.969,9.45   c0-1.728,0-3.453,0-5.313c-0.962,0-1.835,0-2.703,0c0-1.723,0-3.302,0-4.86c3.812,0,7.528,0,11.216,0c0,1.674,0,3.256,0,4.845   c-0.97,0.054-1.844,0.105-2.727,0.155C102.192,62.207,102.192,63.872,102.192,65.546z"/>
	<path fill-rule="evenodd" clip-rule="evenodd" fill="#2680B7" d="M129.92,72.216c0.782-0.729,1.544-1.438,2.42-2.254   c1.749,1.887,3.46,3.733,5.239,5.655c-0.816,0.75-1.599,1.471-2.571,2.363c-0.364-0.563-0.688-1.061-1.046-1.616   c-0.929,0.831-1.641,1.467-2.434,2.179c-0.876-0.953-1.694-1.846-2.566-2.797c0.743-0.692,1.418-1.328,2.176-2.04   C130.739,73.219,130.35,72.744,129.92,72.216z"/>
	<path fill-rule="evenodd" clip-rule="evenodd" fill="#2680B7" d="M110.631,109.603c-2.281,0-4.563,0.019-6.844-0.013   c-0.593-0.006-0.911,0.155-1.195,0.719c-0.855,1.698-2.669,2.639-4.323,2.357c-1.948-0.333-3.333-1.678-3.601-3.494   c-0.287-1.966,0.532-3.602,2.394-4.495c0.63-0.302,0.756-0.673,0.752-1.291c-0.017-4.34-0.009-8.676-0.007-13.015   c0-0.3,0.006-0.599,0.007-0.899c0.002-0.806,0.443-1.315,1.204-1.347c0.825-0.035,1.326,0.487,1.346,1.328   c0.034,1.46,0.021,2.917,0.021,4.375c0.004,3.254,0.015,6.508-0.011,9.763c-0.004,0.621,0.103,1.048,0.709,1.359   c0.416,0.215,0.867,0.565,1.054,0.969c0.462,1.007,1.227,1.067,2.182,1.057c4.226-0.041,8.453-0.017,12.679-0.017   c0.3,0,0.6-0.014,0.897,0.017c0.814,0.081,1.355,0.493,1.328,1.357c-0.027,0.864-0.593,1.258-1.41,1.264   C115.419,109.615,113.024,109.603,110.631,109.603z"/>
	<path opacity="0.5" fill-rule="evenodd" clip-rule="evenodd" fill="#2680B7" d="M127.208,122.987   c-0.365,0.609-0.647,1.081-0.963,1.607c-1.648-0.945-3.227-1.85-4.937-2.832c0.313-0.545,0.6-1.044,0.937-1.63   C123.894,121.079,125.496,122.003,127.208,122.987z"/>
	<path opacity="0.5" fill-rule="evenodd" clip-rule="evenodd" fill="#2680B7" d="M77.489,121.988   c-1.713,0.99-3.288,1.895-4.947,2.85c-0.312-0.522-0.612-1.017-0.962-1.605c1.644-0.953,3.236-1.875,4.936-2.859   C76.83,120.894,77.127,121.385,77.489,121.988z"/>
	<path opacity="0.5" fill-rule="evenodd" clip-rule="evenodd" fill="#2680B7" d="M114.418,135.88   c-0.97-1.674-1.878-3.242-2.864-4.941c0.524-0.309,1.016-0.599,1.617-0.955c0.946,1.634,1.868,3.223,2.861,4.936   C115.522,135.223,115.033,135.513,114.418,135.88z"/>
	<path opacity="0.5" fill-rule="evenodd" clip-rule="evenodd" fill="#2680B7" d="M85.707,130.129   c0.568,0.323,1.042,0.592,1.623,0.92c-0.948,1.645-1.867,3.238-2.853,4.959c-0.558-0.321-1.056-0.605-1.639-0.936   C83.801,133.41,84.728,131.815,85.707,130.129z"/>
	<path opacity="0.5" fill-rule="evenodd" clip-rule="evenodd" fill="#2680B7" d="M126.108,91.405   c0.321,0.547,0.597,1.019,0.952,1.626c-1.637,0.951-3.253,1.889-4.964,2.883c-0.303-0.539-0.574-1.015-0.916-1.62   C122.808,93.339,124.417,92.397,126.108,91.405z"/>
	<path opacity="0.5" fill-rule="evenodd" clip-rule="evenodd" fill="#2680B7" d="M77.325,94.508   c-0.334,0.588-0.62,1.084-0.935,1.634c-1.661-0.961-3.256-1.885-4.932-2.853c0.309-0.557,0.574-1.034,0.911-1.641   C74.016,92.598,75.63,93.53,77.325,94.508z"/>
	<path opacity="0.5" fill-rule="evenodd" clip-rule="evenodd" fill="#2680B7" d="M87.099,85.35c-0.57,0.329-1.045,0.601-1.622,0.934   c-0.947-1.628-1.877-3.225-2.874-4.936c0.53-0.311,1.027-0.603,1.621-0.953C85.175,82.037,86.101,83.632,87.099,85.35z"/>
	<path opacity="0.5" fill-rule="evenodd" clip-rule="evenodd" fill="#2680B7" d="M114.165,80.256   c0.632,0.367,1.108,0.644,1.622,0.943c-0.942,1.64-1.849,3.221-2.836,4.943c-0.538-0.305-1.036-0.59-1.628-0.922   C112.268,83.57,113.186,81.965,114.165,80.256z"/>
	
		<text transform="matrix(1 0 0 1 93.6125 85.1997)" opacity="0.5" fill="#2680B7" font-family="'CenturyGothic-Bold'" font-size="10">12</text>
	
		<text transform="matrix(1 0 0 1 125.2837 111.5858)" opacity="0.5" fill="#2680B7" font-family="'CenturyGothic-Bold'" font-size="10">3</text>
	
		<text transform="matrix(1 0 0 1 68.5337 111.5857)" opacity="0.5" fill="#2680B7" font-family="'CenturyGothic-Bold'" font-size="10">9</text>
</g>
</svg>