<?xml version="1.0" encoding="UTF-8"?>
<!-- Generator: Adobe Illustrator 16.0.0, SVG Export Plug-In . SVG Version: 6.00 Build 0)  -->
<!DOCTYPE svg PUBLIC "-//W3C//DTD SVG 1.1//EN" "http://www.w3.org/Graphics/SVG/1.1/DTD/svg11.dtd">
<svg version="1.1" id="Layer_1" xmlns="http://www.w3.org/2000/svg" xmlns:xlink="http://www.w3.org/1999/xlink" x="0px" y="0px" width="215px" height="215px" viewBox="0 0 215 215" enable-background="new 0 0 215 215" xml:space="preserve">
<g>
	<circle fill="#FFFFFF" cx="107.5" cy="107.5" r="96.875"/>
	<path fill-rule="evenodd" clip-rule="evenodd" fill="#F05E50" d="M115.478,51.771c-0.853,0.115-1.593,0.217-2.277,0.31   c-0.671,5.072-0.616,4.876,3.938,6.266c4.603,1.375,9.07,3.228,14.093,5.044c0.333-0.381,1.125-1.336,2.012-2.406   c-0.244-0.407-0.582-0.943-0.906-1.431c2.908-3.559,3.957-3.893,6.005-2.001c4.189,3.886,4.229,4.521,0.326,8.217   c-0.475-0.285-1.004-0.61-1.708-1.05c-0.666,0.63-1.37,1.287-2.286,2.154c10.684,9.72,15.361,21.768,13.49,35.995   c-1.417,10.648-6.617,19.373-15.185,25.921c-16.832,12.88-40.306,10.5-54.291-5.388c-13.733-15.592-13.66-41.133,4.359-56.758   c-0.501-0.604-1.023-1.2-1.654-1.925c-2.108,2.052-2.996-0.056-4.061-1.182c-1.153-1.253-0.922-2.589,0.297-3.747   c0.598-0.584,1.18-1.201,1.764-1.775c2.278-2.237,4.893-1.803,6.188,1.137c0.216,0.488-0.238,1.275-0.44,2.19   c0.596,0.481,1.443,1.146,1.999,1.6c5.613-1.993,11.294-3.993,17.225-6.095c0-1.212,0-2.859,0-4.704   c-0.773-0.122-1.559-0.257-2.318-0.387c-0.76-4.459,0.223-5.633,4.726-5.64c1.348,0,2.67-0.006,4.019,0   C115.073,46.145,115.979,47.182,115.478,51.771z M108.646,129.814c18.092,0.014,32.741-14.561,32.749-32.586   c0.006-17.936-14.833-32.795-32.714-32.741c-17.822,0.042-32.593,14.792-32.619,32.587   C76.02,115.139,90.608,129.809,108.646,129.814z"/>
	<path fill-rule="evenodd" clip-rule="evenodd" fill="#F05E50" d="M103.819,94.958c0.881-0.914,1.62-1.68,2.556-2.67   c6.805,7.625,13.42,15.049,20.03,22.45c-0.082,0.102-0.17,0.184-0.271,0.292C118.752,108.38,111.344,101.723,103.819,94.958z"/>
	<g>
		<g>
			<path fill="#747F84" d="M78.671,161.952c0,0.967-0.348,1.729-1.043,2.285c-0.696,0.557-1.664,0.835-2.904,0.835     c-1.143,0-2.153-0.215-3.032-0.645v-2.109c0.723,0.322,1.334,0.549,1.835,0.681c0.5,0.132,0.958,0.198,1.373,0.198     c0.498,0,0.88-0.095,1.146-0.286c0.266-0.19,0.399-0.474,0.399-0.85c0-0.21-0.059-0.396-0.176-0.56s-0.29-0.321-0.516-0.473     c-0.228-0.151-0.69-0.393-1.388-0.725c-0.654-0.308-1.145-0.603-1.472-0.886s-0.588-0.613-0.784-0.989s-0.293-0.815-0.293-1.318     c0-0.947,0.321-1.692,0.963-2.234c0.642-0.542,1.529-0.813,2.662-0.813c0.557,0,1.088,0.066,1.593,0.198     c0.506,0.132,1.034,0.317,1.586,0.557l-0.732,1.765c-0.571-0.234-1.044-0.398-1.417-0.491c-0.374-0.093-0.741-0.139-1.103-0.139     c-0.43,0-0.759,0.1-0.989,0.3s-0.344,0.461-0.344,0.784c0,0.2,0.046,0.375,0.139,0.524s0.24,0.293,0.443,0.432     c0.203,0.14,0.683,0.39,1.439,0.751c1.001,0.479,1.687,0.958,2.058,1.439S78.671,161.254,78.671,161.952z"/>
			<path fill="#747F84" d="M85.637,164.926l-0.432-1.113h-0.059c-0.376,0.474-0.763,0.802-1.161,0.985     c-0.398,0.183-0.917,0.274-1.557,0.274c-0.786,0-1.405-0.225-1.856-0.674c-0.452-0.449-0.678-1.089-0.678-1.919     c0-0.869,0.304-1.51,0.912-1.923c0.607-0.412,1.524-0.641,2.75-0.685l1.421-0.044v-0.359c0-0.83-0.425-1.245-1.274-1.245     c-0.654,0-1.423,0.198-2.307,0.593l-0.74-1.509c0.942-0.493,1.987-0.74,3.135-0.74c1.099,0,1.941,0.239,2.527,0.718     s0.879,1.206,0.879,2.183v5.457H85.637z M84.978,161.132l-0.864,0.029c-0.649,0.02-1.133,0.137-1.45,0.352     s-0.476,0.542-0.476,0.981c0,0.63,0.361,0.945,1.084,0.945c0.518,0,0.931-0.149,1.242-0.447c0.31-0.298,0.465-0.693,0.465-1.187     V161.132z"/>
			<path fill="#747F84" d="M91.445,164.926l-3.12-8.188h2.336l1.582,4.666c0.176,0.591,0.286,1.15,0.33,1.677h0.044     c0.024-0.469,0.134-1.028,0.33-1.677l1.575-4.666h2.336l-3.12,8.188H91.445z"/>
			<path fill="#747F84" d="M101.735,165.072c-1.318,0-2.349-0.364-3.091-1.091s-1.113-1.758-1.113-3.091     c0-1.372,0.343-2.433,1.029-3.182c0.686-0.75,1.634-1.125,2.845-1.125c1.157,0,2.058,0.33,2.703,0.989s0.967,1.57,0.967,2.732     v1.084h-5.281c0.024,0.635,0.212,1.13,0.564,1.487s0.845,0.535,1.479,0.535c0.493,0,0.959-0.051,1.399-0.154     s0.898-0.266,1.377-0.491v1.729c-0.391,0.195-0.808,0.34-1.252,0.436C102.917,165.024,102.375,165.072,101.735,165.072z      M101.42,158.173c-0.474,0-0.845,0.15-1.113,0.45c-0.269,0.301-0.422,0.727-0.461,1.278h3.135     c-0.01-0.552-0.154-0.978-0.432-1.278C102.27,158.323,101.894,158.173,101.42,158.173z"/>
			<path fill="#747F84" d="M115.095,164.926h-2.271v-8.818h-2.908v-1.89h8.086v1.89h-2.908V164.926z"/>
			<path fill="#747F84" d="M119.379,154.621c0-0.728,0.405-1.091,1.216-1.091s1.216,0.364,1.216,1.091     c0,0.347-0.102,0.617-0.304,0.809c-0.203,0.193-0.506,0.29-0.912,0.29C119.785,155.719,119.379,155.353,119.379,154.621z      M121.708,164.926h-2.234v-8.188h2.234V164.926z"/>
			<path fill="#747F84" d="M131.384,164.926h-2.234v-4.783c0-0.591-0.099-1.034-0.297-1.33c-0.197-0.295-0.509-0.443-0.934-0.443     c-0.571,0-0.986,0.21-1.245,0.63s-0.388,1.111-0.388,2.073v3.853h-2.234v-8.188h1.707l0.3,1.047h0.125     c0.22-0.376,0.537-0.67,0.952-0.882c0.415-0.213,0.891-0.319,1.428-0.319c1.226,0,2.056,0.4,2.49,1.201h0.198     c0.22-0.381,0.543-0.676,0.97-0.886s0.91-0.315,1.447-0.315c0.928,0,1.629,0.238,2.106,0.714     c0.476,0.476,0.714,1.239,0.714,2.289v5.339h-2.241v-4.783c0-0.591-0.099-1.034-0.297-1.33c-0.197-0.295-0.509-0.443-0.934-0.443     c-0.547,0-0.956,0.195-1.227,0.586c-0.271,0.391-0.407,1.011-0.407,1.86V164.926z"/>
			<path fill="#747F84" d="M142.487,165.072c-1.318,0-2.349-0.364-3.091-1.091s-1.113-1.758-1.113-3.091     c0-1.372,0.343-2.433,1.029-3.182c0.686-0.75,1.634-1.125,2.845-1.125c1.157,0,2.058,0.33,2.703,0.989s0.967,1.57,0.967,2.732     v1.084h-5.281c0.024,0.635,0.212,1.13,0.564,1.487s0.845,0.535,1.479,0.535c0.493,0,0.959-0.051,1.399-0.154     s0.898-0.266,1.377-0.491v1.729c-0.391,0.195-0.808,0.34-1.252,0.436C143.669,165.024,143.127,165.072,142.487,165.072z      M142.172,158.173c-0.474,0-0.845,0.15-1.113,0.45c-0.269,0.301-0.422,0.727-0.461,1.278h3.135     c-0.01-0.552-0.154-0.978-0.432-1.278C143.022,158.323,142.646,158.173,142.172,158.173z"/>
		</g>
	</g>
</g>
</svg>