<?xml version="1.0" encoding="UTF-8"?>
<!-- Generator: Adobe Illustrator 17.0.1, SVG Export Plug-In . SVG Version: 6.00 Build 0)  -->
<!DOCTYPE svg PUBLIC "-//W3C//DTD SVG 1.1//EN" "http://www.w3.org/Graphics/SVG/1.1/DTD/svg11.dtd">
<svg version="1.1" id="Слой_1" xmlns="http://www.w3.org/2000/svg" xmlns:xlink="http://www.w3.org/1999/xlink" x="0px" y="0px" width="409.091px" height="500px" viewBox="51.455 6 409.091 500" enable-background="new 51.455 6 409.091 500" xml:space="preserve">
<path fill="#B1B1B1" d="M267.363,333.504v24.769h-22.727v-24.769c-13.184-4.772-22.727-17.279-22.727-32.05  s9.543-27.276,22.727-32.049V153.727h22.727v115.678c13.184,4.772,22.728,17.278,22.728,32.049S280.547,328.731,267.363,333.504z   M256,119.636c-100.453,0-181.818,81.366-181.818,181.818c0,100.453,81.366,181.818,181.818,181.818  c100.453,0,181.818-81.365,181.818-181.818C437.818,201.002,356.453,119.636,256,119.636z M267.363,97.475  c107.622,5.915,193.183,94.893,193.183,203.979C460.546,414.414,368.948,506,256,506c-112.954,0-204.545-91.586-204.545-204.546  c0-109.086,85.566-198.064,193.182-203.979v-46.02h-34.091V6h34.091h22.727h34.091v45.455h-34.091v46.02H267.363z M394.295,103.612  l16.135-16.135l48.185,48.184l-16.135,16.136L394.295,103.612z"/>
</svg>