<svg xmlns="http://www.w3.org/2000/svg" width="492.468" height="492.468" viewBox="59.766 149.766 492.468 492.468" enable-background="new 59.766 149.766 492.468 492.468"><path fill="#404949" d="M306 149.766c-135.992 0-246.234 110.242-246.234 246.234 0 135.99 110.243 246.234 246.234 246.234 135.99 0 246.234-110.244 246.234-246.234 0-135.992-110.244-246.234-246.234-246.234zm0 438.679c-106.355 0-192.445-86.072-192.445-192.445 0-106.357 86.072-192.445 192.445-192.445 106.355 0 192.445 86.071 192.445 192.445 0 106.355-86.072 192.445-192.445 192.445zm151.585-180.749c2.045.354 3.539 2.129 3.539 4.205v.11c0 2.057-1.462 3.812-3.483 4.189-44.338 8.293-149.378 25.52-160.904 25.52-16.504 0-29.883-13.378-29.883-29.883 0-11.752 17.68-125.119 25.84-171.026.328-1.843 1.931-3.19 3.803-3.19h.01c2.042 0 3.782 1.486 4.102 3.505l22.63 143.323 134.346 23.247z"/></svg>