<?xml version="1.0" encoding="UTF-8"?>
<!-- Generator: Adobe Illustrator 17.0.2, SVG Export Plug-In . SVG Version: 6.00 Build 0)  -->
<!DOCTYPE svg PUBLIC "-//W3C//DTD SVG 1.1//EN" "http://www.w3.org/Graphics/SVG/1.1/DTD/svg11.dtd">
<svg version="1.1" id="Layer_1" xmlns="http://www.w3.org/2000/svg" xmlns:xlink="http://www.w3.org/1999/xlink" x="0px" y="0px" width="468.7px" height="455.91px" viewBox="0 0 468.7 455.91" enable-background="new 0 0 468.7 455.91" xml:space="preserve">
<g id="Layer_2">
	<g id="zWOgbo_1_">
	</g>
</g>
<g id="Layer_3">
</g>
<g id="Layer_6">
	<g id="_x34_GiiDm_1_">
	</g>
</g>
<g id="Layer_1_1_" opacity="0.7">
	<rect x="209.7" y="-469" fill="#1E1D1D" width="387" height="88"/>
	<g id="prAeu3_1_">
	</g>
	<g>
		<g>
			<path fill="#333333" d="M-435.948,54.452c0,49.45,0,98.899,0,148.349c0,4.643,0,9.285,0,13.928c0,12.897,20,12.897,20,0     c0-49.45,0-98.899,0-148.349c0-4.643,0-9.285,0-13.928C-415.948,41.554-435.948,41.554-435.948,54.452L-435.948,54.452z"/>
		</g>
	</g>
	<g>
		<g>
			<path fill="#333333" d="M-185.435,54.452c0,49.45,0,98.899,0,148.349c0,4.643,0,9.285,0,13.928c0,12.897,20,12.897,20,0     c0-49.45,0-98.899,0-148.349c0-4.643,0-9.285,0-13.928C-165.435,41.554-185.435,41.554-185.435,54.452L-185.435,54.452z"/>
		</g>
	</g>
	<g>
		<g>
			<path fill="#333333" d="M-178.984,206.729c-45.978,0-91.954,0-137.931,0c-36.344,0-72.689,0-109.033,0c-12.897,0-12.897,20,0,20     c45.977,0,91.953,0,137.931,0c36.345,0,72.688,0,109.033,0C-166.087,226.729-166.087,206.729-178.984,206.729L-178.984,206.729z"/>
		</g>
	</g>
	<g>
		<g>
			<path fill="#333333" d="M-288.734,356.69c0-44.782,0-89.563,0-134.346c0-0.013,0-0.026,0-0.039c0-19.346-30-19.346-30,0     c0,44.782,0,89.563,0,134.346c0,0.013,0,0.026,0,0.039C-318.734,376.037-288.734,376.037-288.734,356.69L-288.734,356.69z"/>
		</g>
	</g>
	<path fill="#333333" d="M-277.3,388.83c0,6.721-5.449,12.17-12.171,12.17h-28.658c-6.722,0-12.171-5.449-12.171-12.17v-91.658   c0-6.723,5.449-12.172,12.171-12.172h28.658c6.722,0,12.171,5.449,12.171,12.172V388.83z"/>
	<g id="_x36_q3va4_1_">
	</g>
	<circle fill="none" stroke="#333333" stroke-width="24" stroke-miterlimit="10" cx="234.958" cy="221.898" r="170.39"/>
	<g>
		<g>
			<path fill="#333333" d="M224.803,103.572c-0.073,45.925-0.147,91.85-0.221,137.774c-0.001,0.198-0.001,0.399-0.001,0.598     c-0.031,19.349,29.968,19.345,30,0c0.074-45.925,0.146-91.85,0.221-137.774c0-0.199,0-0.399,0.002-0.598     C254.833,84.224,224.833,84.227,224.803,103.572L224.803,103.572z"/>
		</g>
	</g>
	<g>
		<g>
			<path fill="#333333" d="M1569.088,73.671c-11.48,24.603-22.963,49.206-34.443,73.809c-2.709,5.805,5.908,10.887,8.635,5.047     c11.48-24.603,22.963-49.206,34.443-73.809C1580.432,72.913,1571.813,67.831,1569.088,73.671L1569.088,73.671z"/>
		</g>
	</g>
	<g>
		<g>
			<path fill="#333333" d="M1506.11,215.126c-7.303,32.059-14.604,64.118-21.904,96.177c-1.432,6.278,8.211,8.944,9.643,2.657     c7.303-32.059,14.604-64.117,21.904-96.176C1517.182,211.505,1507.542,208.839,1506.11,215.126L1506.11,215.126z"/>
		</g>
	</g>
	<g>
		<g>
			<path fill="#333333" d="M1535.522,242.509c-4.604,20.211-9.205,40.422-13.809,60.632c-1.43,6.278,8.211,8.944,9.643,2.657     c4.604-20.209,9.207-40.42,13.809-60.631C1546.594,238.89,1536.954,236.224,1535.522,242.509L1535.522,242.509z"/>
		</g>
	</g>
	<g>
		<g>
			<path fill="#333333" d="M1435.737,55.695c22.361,30.97,44.723,61.939,67.084,92.909c3.736,5.176,12.416,0.192,8.635-5.047     c-22.361-30.97-44.723-61.939-67.084-92.909C1440.635,45.473,1431.954,50.456,1435.737,55.695L1435.737,55.695z"/>
		</g>
	</g>
	<g>
		<g>
			<path fill="#333333" d="M151.16,256.238c29.553,0.101,59.109,0.204,88.667,0.305c8.183,0.028,14.774-7.497,14.535-15.454     c-0.249-8.381-7.294-14.508-15.454-14.535c-29.557-0.1-59.111-0.205-88.668-0.305c-8.183-0.028-14.771,7.497-14.537,15.455     C135.953,250.084,142.999,256.209,151.16,256.238L151.16,256.238z"/>
		</g>
	</g>
	<g id="TOIqaD_1_">
	</g>
	<path fill="none" stroke="#333333" stroke-width="13" stroke-miterlimit="10" d="M1696.2,358.33c0,6.723-5.449,12.17-12.17,12.17   h-310.658c-6.723,0-12.172-5.449-12.172-12.17V163.67c0-6.722,5.449-12.17,12.172-12.17h310.658c6.721,0,12.17,5.449,12.17,12.17   V358.33z"/>
	<path fill="none" stroke="#333333" stroke-width="13" stroke-miterlimit="10" d="M1615.2,335.472   c0,5.013-1.574,11.027-5.908,11.027h-200.805c-4.334,0-9.287-6.015-9.287-11.027V190.336c0-5.013,4.953-7.836,9.287-7.836h200.805   c4.334,0,5.908,2.823,5.908,7.836V335.472z"/>
	<circle fill="#333333" cx="1658.11" cy="286.378" r="12.17"/>
	<circle fill="#333333" cx="1658.11" cy="324.919" r="12.17"/>
	<rect x="1648.7" y="185" fill="#333333" width="17" height="61"/>
	<path fill="#C1272D" d="M206.896-576.179l386.493-10.455l2.973,88.962l-386.493,10.456L206.896-576.179z"/>
	<circle fill="#A1242E" cx="219.573" cy="-565.324" r="4.902"/>
	<g>
		<circle fill="#171617" cx="223.629" cy="-452.745" r="4.902"/>
		<circle fill="#171617" cx="223.629" cy="-437.531" r="4.902"/>
		<circle fill="#171617" cx="223.629" cy="-422.318" r="4.902"/>
		<circle fill="#171617" cx="223.629" cy="-406.09" r="4.902"/>
		<circle fill="#171617" cx="223.629" cy="-389.862" r="4.902"/>
		<circle fill="#171617" cx="239.857" cy="-460.858" r="4.901"/>
		<circle fill="#171617" cx="239.857" cy="-445.645" r="4.901"/>
		<circle fill="#171617" cx="239.857" cy="-430.432" r="4.901"/>
		<circle fill="#171617" cx="239.857" cy="-414.204" r="4.901"/>
		<circle fill="#171617" cx="239.857" cy="-397.976" r="4.901"/>
		<circle fill="#171617" cx="255.071" cy="-452.745" r="4.902"/>
		<circle fill="#171617" cx="255.071" cy="-437.531" r="4.902"/>
		<circle fill="#171617" cx="255.071" cy="-422.318" r="4.902"/>
		<circle fill="#171617" cx="255.071" cy="-406.09" r="4.902"/>
		<circle fill="#171617" cx="255.071" cy="-389.862" r="4.902"/>
		<circle fill="#171617" cx="271.297" cy="-460.858" r="4.902"/>
		<circle fill="#171617" cx="271.297" cy="-445.645" r="4.902"/>
		<circle fill="#171617" cx="271.297" cy="-430.432" r="4.902"/>
		<circle fill="#171617" cx="271.297" cy="-414.204" r="4.902"/>
		<circle fill="#171617" cx="271.297" cy="-397.976" r="4.902"/>
		<circle fill="#171617" cx="286.512" cy="-452.745" r="4.901"/>
		<circle fill="#171617" cx="286.512" cy="-437.531" r="4.901"/>
		<circle fill="#171617" cx="286.512" cy="-422.318" r="4.901"/>
		<circle fill="#171617" cx="286.512" cy="-406.09" r="4.901"/>
		<circle fill="#171617" cx="286.512" cy="-389.862" r="4.901"/>
		<circle fill="#171617" cx="302.741" cy="-460.858" r="4.902"/>
		<circle fill="#171617" cx="302.741" cy="-445.645" r="4.902"/>
		<circle fill="#171617" cx="302.741" cy="-430.432" r="4.902"/>
		<circle fill="#171617" cx="302.741" cy="-414.204" r="4.902"/>
		<circle fill="#171617" cx="302.741" cy="-397.976" r="4.902"/>
		<circle fill="#171617" cx="315.924" cy="-452.745" r="4.902"/>
		<circle fill="#171617" cx="315.924" cy="-437.531" r="4.902"/>
		<circle fill="#171617" cx="315.924" cy="-422.318" r="4.902"/>
		<circle fill="#171617" cx="315.924" cy="-406.09" r="4.902"/>
		<circle fill="#171617" cx="315.924" cy="-389.862" r="4.902"/>
		<circle fill="#171617" cx="332.153" cy="-460.858" r="4.902"/>
		<circle fill="#171617" cx="332.153" cy="-445.645" r="4.902"/>
		<circle fill="#171617" cx="332.153" cy="-430.432" r="4.902"/>
		<circle fill="#171617" cx="332.153" cy="-414.204" r="4.902"/>
		<circle fill="#171617" cx="332.153" cy="-397.976" r="4.902"/>
		<circle fill="#171617" cx="347.366" cy="-452.745" r="4.902"/>
		<circle fill="#171617" cx="347.366" cy="-437.531" r="4.902"/>
		<circle fill="#171617" cx="347.366" cy="-422.318" r="4.902"/>
		<circle fill="#171617" cx="347.366" cy="-406.09" r="4.902"/>
		<circle fill="#171617" cx="347.366" cy="-389.862" r="4.902"/>
		<circle fill="#171617" cx="363.592" cy="-460.858" r="4.902"/>
		<circle fill="#171617" cx="363.592" cy="-445.645" r="4.902"/>
		<circle fill="#171617" cx="363.592" cy="-430.432" r="4.902"/>
		<circle fill="#171617" cx="363.592" cy="-414.204" r="4.902"/>
		<circle fill="#171617" cx="363.592" cy="-397.976" r="4.902"/>
		<circle fill="#171617" cx="378.805" cy="-452.745" r="4.902"/>
		<circle fill="#171617" cx="378.805" cy="-437.531" r="4.902"/>
		<circle fill="#171617" cx="378.805" cy="-422.318" r="4.902"/>
		<circle fill="#171617" cx="378.805" cy="-406.09" r="4.902"/>
		<circle fill="#171617" cx="378.805" cy="-389.862" r="4.902"/>
		<circle fill="#171617" cx="395.034" cy="-460.858" r="4.901"/>
		<circle fill="#171617" cx="395.034" cy="-445.645" r="4.901"/>
		<circle fill="#171617" cx="395.034" cy="-430.432" r="4.901"/>
		<circle fill="#171617" cx="395.034" cy="-414.204" r="4.901"/>
		<circle fill="#171617" cx="395.034" cy="-397.976" r="4.901"/>
		<circle fill="#171617" cx="409.233" cy="-452.745" r="4.902"/>
		<circle fill="#171617" cx="409.233" cy="-437.531" r="4.902"/>
		<circle fill="#171617" cx="409.233" cy="-422.318" r="4.902"/>
		<circle fill="#171617" cx="409.233" cy="-406.09" r="4.902"/>
		<circle fill="#171617" cx="409.233" cy="-389.862" r="4.902"/>
		<circle fill="#171617" cx="425.461" cy="-460.858" r="4.901"/>
		<circle fill="#171617" cx="425.461" cy="-445.645" r="4.901"/>
		<circle fill="#171617" cx="425.461" cy="-430.432" r="4.901"/>
		<circle fill="#171617" cx="425.461" cy="-414.204" r="4.901"/>
		<circle fill="#171617" cx="425.461" cy="-397.976" r="4.901"/>
		<circle fill="#171617" cx="440.674" cy="-452.745" r="4.902"/>
		<circle fill="#171617" cx="440.674" cy="-437.531" r="4.902"/>
		<circle fill="#171617" cx="440.674" cy="-422.318" r="4.902"/>
		<circle fill="#171617" cx="440.674" cy="-406.09" r="4.902"/>
		<circle fill="#171617" cx="440.674" cy="-389.862" r="4.902"/>
		<circle fill="#171617" cx="456.903" cy="-460.858" r="4.902"/>
		<circle fill="#171617" cx="456.903" cy="-445.645" r="4.902"/>
		<circle fill="#171617" cx="456.903" cy="-430.432" r="4.902"/>
		<circle fill="#171617" cx="456.903" cy="-414.204" r="4.902"/>
		<circle fill="#171617" cx="456.903" cy="-397.976" r="4.902"/>
		<circle fill="#171617" cx="472.116" cy="-452.745" r="4.902"/>
		<circle fill="#171617" cx="472.116" cy="-437.531" r="4.902"/>
		<circle fill="#171617" cx="472.116" cy="-422.318" r="4.902"/>
		<circle fill="#171617" cx="472.116" cy="-406.09" r="4.902"/>
		<circle fill="#171617" cx="472.116" cy="-389.862" r="4.902"/>
		<circle fill="#171617" cx="488.342" cy="-460.858" r="4.902"/>
		<circle fill="#171617" cx="488.342" cy="-445.645" r="4.902"/>
		<circle fill="#171617" cx="488.342" cy="-430.432" r="4.902"/>
		<circle fill="#171617" cx="488.342" cy="-414.204" r="4.902"/>
		<circle fill="#171617" cx="488.342" cy="-397.976" r="4.902"/>
		<circle fill="#171617" cx="503.555" cy="-452.745" r="4.902"/>
		<circle fill="#171617" cx="503.555" cy="-437.531" r="4.902"/>
		<circle fill="#171617" cx="503.555" cy="-422.318" r="4.902"/>
		<circle fill="#171617" cx="503.555" cy="-406.09" r="4.902"/>
		<circle fill="#171617" cx="503.555" cy="-389.862" r="4.902"/>
		<circle fill="#171617" cx="519.784" cy="-460.858" r="4.902"/>
		<circle fill="#171617" cx="519.784" cy="-445.645" r="4.902"/>
		<circle fill="#171617" cx="519.784" cy="-430.432" r="4.902"/>
		<circle fill="#171617" cx="519.784" cy="-414.204" r="4.902"/>
		<circle fill="#171617" cx="519.784" cy="-397.976" r="4.902"/>
		<circle fill="#171617" cx="534.999" cy="-452.745" r="4.902"/>
		<circle fill="#171617" cx="534.999" cy="-437.531" r="4.902"/>
		<circle fill="#171617" cx="534.999" cy="-422.318" r="4.902"/>
		<circle fill="#171617" cx="534.999" cy="-406.09" r="4.902"/>
		<circle fill="#171617" cx="534.999" cy="-389.862" r="4.902"/>
		<circle fill="#171617" cx="551.225" cy="-460.858" r="4.902"/>
		<circle fill="#171617" cx="551.225" cy="-445.645" r="4.902"/>
		<circle fill="#171617" cx="551.225" cy="-430.432" r="4.902"/>
		<circle fill="#171617" cx="551.225" cy="-414.204" r="4.902"/>
		<circle fill="#171617" cx="551.225" cy="-397.976" r="4.902"/>
		<circle fill="#171617" cx="566.438" cy="-452.745" r="4.901"/>
		<circle fill="#171617" cx="566.438" cy="-437.531" r="4.901"/>
		<circle fill="#171617" cx="566.438" cy="-422.318" r="4.901"/>
		<circle fill="#171617" cx="566.438" cy="-406.09" r="4.901"/>
		<circle fill="#171617" cx="566.438" cy="-389.862" r="4.901"/>
		<circle fill="#171617" cx="582.667" cy="-460.858" r="4.902"/>
		<circle fill="#171617" cx="582.667" cy="-445.645" r="4.902"/>
		<circle fill="#171617" cx="582.667" cy="-430.432" r="4.902"/>
		<circle fill="#171617" cx="582.667" cy="-414.204" r="4.902"/>
		<circle fill="#171617" cx="582.667" cy="-397.976" r="4.902"/>
	</g>
	<g id="Jl2Qnq.tif">
	</g>
	<g id="w6ZTv3_1_">
	</g>
	<g id="UEnIaF_1_">
	</g>
	<g id="iAxBrl_1_">
	</g>
	<g>
		<g>
			<path fill="#FAA41A" d="M-4142.966,2179.642c29.044-5.916,57.718-14.248,86.099-22.693     c77.359-23.021,153.222-51.104,227.551-82.508c92.633-39.135,182.903-83.764,270.472-133.191     c5.614-3.168,0.576-11.809-5.047-8.635c-100.571,56.768-204.72,107.283-311.938,150.23     c-68.118,27.283-137.525,51.678-208.181,71.551c-20.361,5.729-40.874,11.379-61.613,15.604     C-4151.94,2171.285-4149.261,2180.923-4142.966,2179.642L-4142.966,2179.642z"/>
		</g>
	</g>
	<g>
		<g>
			<path fill="#FAA41A" d="M-3515.517,1936.181c16.111,20.33,33.938,39.434,51.855,58.156     c44.491,46.494,92.387,89.801,143.067,129.455c66.628,52.131,138.429,97.98,215.319,133.463     c83.791,38.666,175.136,65.781,267.689,70.465c24.548,1.24,48.698,1.758,73.133-1.674c38.861-5.457,75.909-20.215,108.991-41.135     c35.188-22.254,65.664-51.387,92.249-83.262c4.099-4.914-2.938-12.027-7.072-7.068c-34.15,40.945-74.712,76.996-123.239,99.883     c-31.159,14.693-65.14,22.781-99.521,24.227c-29.697,1.25-60.01-1.455-89.398-5.268c-46.447-6.027-92.199-17.334-136.536-32.33     c-83.569-28.268-161.997-70.555-234.593-120.398c-59.672-40.971-115.547-87.447-167.546-137.77     c-28.725-27.799-56.515-56.773-82.136-87.48c-1.749-2.096-3.496-4.193-5.191-6.334     C-3512.45,1924.058-3519.478,1931.185-3515.517,1936.181L-3515.517,1936.181z"/>
		</g>
	</g>
	<g>
		<g>
			<path fill="#FAA41A" d="M-2538.411,2203.46c6.529,16.184,14.205,31.957,22.219,47.445c16.448,31.795,35.352,62.594,58.254,90.176     c21.614,26.029,49.602,52.221,83.929,58.969c6.298,1.238,8.981-8.398,2.658-9.643c-33.905-6.664-60.594-33.27-81.672-59.014     c-22.371-27.322-40.557-58.141-56.585-89.523c-5.025-9.84-9.805-19.809-14.327-29.889c-1.315-2.934-2.604-5.877-3.86-8.834     c-0.539-1.268,0.397,0.951-0.203-0.482c-0.143-0.34-0.284-0.682-0.426-1.023c-0.115-0.279-0.23-0.561-0.344-0.84     C-2531.149,2194.9-2540.825,2197.476-2538.411,2203.46L-2538.411,2203.46z"/>
		</g>
	</g>
	<g>
		<g>
			<path fill="#FAA41A" d="M-3566.904,1915.501c0,27.223,0,54.447,0,81.672c0,60.527,0,121.055,0,181.582     c0,62.113,0,124.227,0,186.34c0,31.982,0,63.963,0,95.945c0,0.32,0,0.639,0,0.959c0,6.449,10,6.449,10,0     c0-27.225,0-54.447,0-81.672c0-60.527,0-121.055,0-181.582c0-62.113,0-124.229,0-186.34c0-31.982,0-63.963,0-95.945     c0-0.318,0-0.641,0-0.959C-3556.904,1909.052-3566.904,1909.052-3566.904,1915.501L-3566.904,1915.501z"/>
		</g>
	</g>
	<g>
		<g>
			<path fill="#FAA41A" d="M-3517.611,1908c0,26.941,0,53.883,0,80.824c0,60.227,0,120.455,0,180.684c0,62.621,0,125.244,0,187.867     c0,34.123,0,68.246,0,102.369c0,0.752,0,1.504,0,2.256c0,6.449,10,6.449,10,0c0-26.939,0-53.881,0-80.822     c0-60.229,0-120.457,0-180.684c0-62.623,0-125.246,0-187.867c0-34.123,0-68.248,0-102.371c0-0.752,0-1.504,0-2.256     C-3507.611,1901.55-3517.611,1901.55-3517.611,1908L-3517.611,1908z"/>
		</g>
	</g>
	<path fill="#FAA41A" d="M-3512.185,1937.869c0.774,5.893-0.736,10.953-3.376,11.299l-40.374,5.312   c-2.64,0.352-5.408-4.15-6.186-10.045l0,0c-0.773-5.893,0.737-10.955,3.377-11.303l40.373-5.309   C-3515.729,1927.474-3512.961,1931.97-3512.185,1937.869L-3512.185,1937.869z"/>
	<path fill="#FAA41A" d="M-3512.185,2010.734c0.774,5.895-0.736,10.955-3.376,11.301l-40.374,5.312   c-2.64,0.35-5.408-4.15-6.186-10.045l0,0c-0.773-5.893,0.737-10.955,3.377-11.303l40.373-5.309   C-3515.729,2000.341-3512.961,2004.837-3512.185,2010.734L-3512.185,2010.734z"/>
	<path fill="#FAA41A" d="M-3512.185,2091.101c0.774,5.896-0.736,10.955-3.376,11.303l-40.374,5.312   c-2.64,0.35-5.408-4.152-6.186-10.045l0,0c-0.773-5.895,0.737-10.955,3.377-11.305l40.373-5.311   C-3515.729,2080.708-3512.961,2085.205-3512.185,2091.101L-3512.185,2091.101z"/>
	<path fill="#FAA41A" d="M-3511.814,2190.261c0.496,7.697-1.254,14.08-3.911,14.248l-40.638,2.629   c-2.656,0.174-5.214-5.934-5.712-13.631l0,0c-0.497-7.699,1.253-14.082,3.912-14.256l40.635-2.621   C-3514.87,2176.457-3512.314,2182.558-3511.814,2190.261L-3511.814,2190.261z"/>
	<g>
		<g>
			<path fill="#FAA41A" d="M-3565.974,2317.123c16.072,20.719,32.146,41.436,48.219,62.152c3.949,5.09,10.973-2.043,7.072-7.072     c-16.074-20.717-32.146-41.434-48.221-62.15C-3562.853,2304.962-3569.875,2312.095-3565.974,2317.123L-3565.974,2317.123z"/>
		</g>
	</g>
	<g>
		<g>
			<path fill="#FAA41A" d="M-3519.072,2315.351c-15.048,20.732-30.096,41.467-45.144,62.197c-3.795,5.23,4.887,10.211,8.635,5.047     c15.048-20.73,30.096-41.465,45.144-62.197C-3506.642,2315.167-3515.324,2310.187-3519.072,2315.351L-3519.072,2315.351z"/>
		</g>
	</g>
	<g>
		<g>
			<path fill="#FAA41A" d="M-3561.904,2378.595c16.073,0,32.147,0,48.221,0c-1.439-2.508-2.878-5.016-4.317-7.521     c-15.717,20.537-31.433,41.074-47.149,61.613c-3.921,5.123,4.772,10.096,8.635,5.049c15.717-20.539,31.433-41.076,47.148-61.615     c2.393-3.125-0.884-7.523-4.316-7.523c-16.073,0-32.147,0-48.221,0C-3568.353,2368.595-3568.353,2378.595-3561.904,2378.595     L-3561.904,2378.595z"/>
		</g>
	</g>
	<path fill="none" stroke="#FAA41A" stroke-miterlimit="10" d="M-3562.438,2418.601"/>
	<g>
		<g>
			<path fill="#FAA41A" d="M-3559.898,2436.46c15.584,0,31.167,0,46.751,0c4.773,0,6.066-5.273,3.535-8.535     c-16.073-20.717-32.146-41.434-48.221-62.148c-3.949-5.092-10.972,2.043-7.07,7.068c16.073,20.719,32.146,41.436,48.221,62.15     c1.178-2.844,2.356-5.689,3.535-8.535c-15.584,0-31.167,0-46.751,0C-3566.347,2426.46-3566.347,2436.46-3559.898,2436.46     L-3559.898,2436.46z"/>
		</g>
	</g>
	<g>
		<g>
			<path fill="#FAA41A" d="M-4144.295,2273.054c38.906,0.805,77.808,1.832,116.708,2.887c98.989,2.684,197.967,5.852,296.927,9.455     c132.487,4.826,264.948,10.465,397.353,17.221c139.419,7.115,278.793,15.434,417.981,26.184     c119.89,9.26,239.86,19.877,359.001,36.369c44.162,6.113,88.279,13.049,131.889,22.383c30.266,6.479,59.944,15.152,89.526,24.119     c37.453,11.354,73.171,28.271,107.087,47.646c5.608,3.205,10.645-5.438,5.047-8.635     c-82.639-47.211-174.814-70.275-267.978-85.668c-110.538-18.26-222.343-29.127-333.908-38.801     c-136.963-11.879-274.183-20.76-411.44-28.414c-136.327-7.6-272.73-13.82-409.162-19.176     c-109.01-4.277-218.043-7.975-327.091-11.135c-55.069-1.596-110.144-3.08-165.224-4.291c-2.238-0.049-4.478-0.1-6.716-0.145     C-4150.747,2262.921-4150.734,2272.921-4144.295,2273.054L-4144.295,2273.054z"/>
		</g>
	</g>
	<g>
		<g>
			<path fill="#FAA41A" d="M-4144.295,2297.701c38.671,0.533,77.34,1.295,116.006,2.086c98.515,2.012,197.019,4.52,295.508,7.479     c132.113,3.965,264.204,8.768,396.244,14.709c139.488,6.277,278.938,13.793,418.213,23.779     c120.69,8.652,241.44,18.775,361.418,34.682c79.356,10.521,158.382,23.047,233.789,50.541     c24.246,8.842,50.371,16.348,73.294,28.342c5.707,2.986,10.762-5.645,5.047-8.635c-24.23-12.68-51.784-20.637-77.41-29.979     c-15.57-5.678-31.013-11.363-46.982-15.814c-37.434-10.434-75.837-17.436-114.158-23.684     c-110.668-18.045-222.615-28.51-334.312-37.717c-136.893-11.285-274.036-19.475-411.213-26.387     c-136.386-6.871-272.844-12.311-409.327-16.848c-109.541-3.641-219.104-6.674-328.677-9.146     c-56.417-1.273-112.837-2.424-169.262-3.285c-2.726-0.043-5.452-0.084-8.179-0.121     C-4150.747,2287.613-4150.738,2297.613-4144.295,2297.701L-4144.295,2297.701z"/>
		</g>
	</g>
	<g>
		<g>
			<path fill="#FAA41A" d="M-2569.179,2180.214c1.062,45.025,2.125,90.049,3.188,135.074c0.968,41.033,1.938,82.066,2.905,123.102     c0.121,5.15,8.122,5.162,8,0c-1.062-45.023-2.125-90.049-3.188-135.074c-0.968-41.033-1.937-82.066-2.905-123.102     C-2561.3,2175.062-2569.301,2175.052-2569.179,2180.214L-2569.179,2180.214z"/>
		</g>
	</g>
	<g>
		<g>
			<path fill="#FAA41A" d="M-2538.108,2180.214c1.064,45.025,2.129,90.049,3.193,135.074c0.97,41.033,1.94,82.066,2.91,123.102     c0.122,5.15,8.122,5.162,8,0c-1.064-45.023-2.129-90.049-3.193-135.074c-0.97-41.033-1.939-82.066-2.91-123.102     C-2530.23,2175.062-2538.23,2175.052-2538.108,2180.214L-2538.108,2180.214z"/>
		</g>
	</g>
	<g>
		<g>
			<path fill="#FAA41A" d="M-2562.623,2208.3c8.9-0.723,17.8-1.445,26.7-2.17c5.104-0.414,5.146-8.418,0-8     c-8.9,0.725-17.8,1.447-26.7,2.17C-2567.728,2200.716-2567.769,2208.718-2562.623,2208.3L-2562.623,2208.3z"/>
		</g>
	</g>
	<g>
		<g>
			<path fill="#FAA41A" d="M-2562.623,2242.591c8.9-0.723,17.8-1.447,26.7-2.17c5.104-0.414,5.146-8.418,0-8     c-8.9,0.723-17.8,1.447-26.7,2.17C-2567.728,2235.005-2567.769,2243.009-2562.623,2242.591L-2562.623,2242.591z"/>
		</g>
	</g>
	<g>
		<g>
			<path fill="#FAA41A" d="M-2562.623,2277.953c8.9-0.725,17.8-1.447,26.7-2.17c5.104-0.414,5.146-8.418,0-8     c-8.9,0.723-17.8,1.445-26.7,2.17C-2567.728,2270.367-2567.769,2278.371-2562.623,2277.953L-2562.623,2277.953z"/>
		</g>
	</g>
	<g>
		<g>
			<path fill="#FAA41A" d="M-2559.409,2325.101c9.451-0.533,18.901-1.066,28.354-1.602c5.128-0.289,5.157-8.291,0-8     c-9.451,0.535-18.901,1.066-28.354,1.602C-2564.538,2317.392-2564.565,2325.392-2559.409,2325.101L-2559.409,2325.101z"/>
		</g>
	</g>
	<polyline fill="none" stroke="#FAA41A" stroke-width="4" stroke-miterlimit="10" points="-2526.812,2439.841 -2559.409,2405    -2531.3,2405  "/>
	
		<line fill="none" stroke="#FAA41A" stroke-width="4" stroke-miterlimit="10" x1="-2558.917" y1="2440.046" x2="-2530.767" y2="2403.353"/>
	
		<line fill="none" stroke="#FAA41A" stroke-width="4" stroke-miterlimit="10" x1="-2556.773" y1="2405.207" x2="-2533.981" y2="2381.921"/>
	
		<line fill="none" stroke="#FAA41A" stroke-width="4" stroke-miterlimit="10" x1="-2533.736" y1="2403.888" x2="-2557.019" y2="2381.095"/>
	<line fill="none" stroke="#CB2030" stroke-width="4" stroke-miterlimit="10" x1="-4171.3" y1="2302" x2="-4171.3" y2="2421"/>
	<line fill="none" stroke="#FAA41A" stroke-width="4" stroke-miterlimit="10" x1="-4010.3" y1="2139" x2="-4010.3" y2="2274"/>
	<line fill="none" stroke="#FAA41A" stroke-width="4" stroke-miterlimit="10" x1="-3968.3" y1="2128" x2="-3968.3" y2="2270"/>
	<line fill="none" stroke="#FAA41A" stroke-width="4" stroke-miterlimit="10" x1="-3930.3" y1="2110" x2="-3930.3" y2="2270"/>
	<line fill="none" stroke="#FAA41A" stroke-width="4" stroke-miterlimit="10" x1="-4121.3" y1="2170" x2="-4121.3" y2="2271"/>
	<line fill="none" stroke="#FAA41A" stroke-width="4" stroke-miterlimit="10" x1="-4079.3" y1="2162" x2="-4079.3" y2="2268"/>
	<line fill="none" stroke="#FAA41A" stroke-width="4" stroke-miterlimit="10" x1="-4041.3" y1="2148" x2="-4041.3" y2="2268"/>
	<line fill="none" stroke="#FAA41A" stroke-width="4" stroke-miterlimit="10" x1="-3888.3" y1="2098" x2="-3888.3" y2="2271"/>
	<line fill="none" stroke="#FAA41A" stroke-width="4" stroke-miterlimit="10" x1="-3847.3" y1="2077" x2="-3847.3" y2="2273"/>
	<line fill="none" stroke="#FAA41A" stroke-width="4" stroke-miterlimit="10" x1="-3810.3" y1="2062" x2="-3810.3" y2="2274"/>
	<line fill="none" stroke="#FAA41A" stroke-width="4" stroke-miterlimit="10" x1="-3766.3" y1="2041" x2="-3766.3" y2="2276"/>
	<line fill="none" stroke="#FAA41A" stroke-width="4" stroke-miterlimit="10" x1="-3723.3" y1="2022" x2="-3723.3" y2="2276"/>
	<line fill="none" stroke="#FAA41A" stroke-width="4" stroke-miterlimit="10" x1="-3682.3" y1="2001" x2="-3682.3" y2="2277"/>
	<line fill="none" stroke="#FAA41A" stroke-width="4" stroke-miterlimit="10" x1="-3640.3" y1="1980" x2="-3640.3" y2="2279"/>
	<line fill="none" stroke="#FAA41A" stroke-width="4" stroke-miterlimit="10" x1="-3600.3" y1="1960" x2="-3600.3" y2="2281"/>
	<line fill="none" stroke="#FAA41A" stroke-width="4" stroke-miterlimit="10" x1="-3367.3" y1="2079" x2="-3367.3" y2="2292"/>
	<line fill="none" stroke="#FAA41A" stroke-width="4" stroke-miterlimit="10" x1="-3338.3" y1="2103" x2="-3338.3" y2="2296"/>
	<line fill="none" stroke="#FAA41A" stroke-width="4" stroke-miterlimit="10" x1="-3308.3" y1="2129" x2="-3308.3" y2="2300"/>
	<line fill="none" stroke="#FAA41A" stroke-width="4" stroke-miterlimit="10" x1="-3282.3" y1="2143" x2="-3282.3" y2="2300"/>
	<line fill="none" stroke="#FAA41A" stroke-width="4" stroke-miterlimit="10" x1="-3255.3" y1="2164" x2="-3255.3" y2="2300"/>
	<line fill="none" stroke="#FAA41A" stroke-width="4" stroke-miterlimit="10" x1="-3227.3" y1="2181" x2="-3227.3" y2="2300"/>
	<line fill="none" stroke="#FAA41A" stroke-width="4" stroke-miterlimit="10" x1="-3199.3" y1="2200" x2="-3199.3" y2="2300"/>
	<line fill="none" stroke="#FAA41A" stroke-width="4" stroke-miterlimit="10" x1="-3172.3" y1="2222" x2="-3172.3" y2="2310"/>
	<line fill="none" stroke="#FAA41A" stroke-width="4" stroke-miterlimit="10" x1="-3147.3" y1="2231" x2="-3147.3" y2="2310"/>
	<line fill="none" stroke="#FAA41A" stroke-width="4" stroke-miterlimit="10" x1="-3126.3" y1="2244" x2="-3126.3" y2="2310"/>
	<line fill="none" stroke="#FAA41A" stroke-width="4" stroke-miterlimit="10" x1="-3103.3" y1="2249" x2="-3103.3" y2="2314"/>
	<line fill="none" stroke="#FAA41A" stroke-width="4" stroke-miterlimit="10" x1="-3083.3" y1="2258" x2="-3083.3" y2="2310"/>
	<line fill="none" stroke="#FAA41A" stroke-width="4" stroke-miterlimit="10" x1="-3060.3" y1="2268" x2="-3060.3" y2="2310"/>
	<line fill="none" stroke="#FAA41A" stroke-width="4" stroke-miterlimit="10" x1="-2580.3" y1="2215" x2="-2580.3" y2="2353"/>
	
		<line fill="none" stroke="#FAA41A" stroke-width="4" stroke-miterlimit="10" x1="-2517.011" y1="2243.763" x2="-2514.216" y2="2365.544"/>
	
		<line fill="none" stroke="#FAA41A" stroke-width="4" stroke-miterlimit="10" x1="-2502.624" y1="2266.912" x2="-2500.285" y2="2368.759"/>
	
		<line fill="none" stroke="#FAA41A" stroke-width="4" stroke-miterlimit="10" x1="-2488.273" y1="2287.351" x2="-2486.404" y2="2368.759"/>
	
		<line fill="none" stroke="#FAA41A" stroke-width="4" stroke-miterlimit="10" x1="-2473.861" y1="2312.597" x2="-2472.474" y2="2373.046"/>
	
		<line fill="none" stroke="#FAA41A" stroke-width="4" stroke-miterlimit="10" x1="-2460.633" y1="2330.88" x2="-2459.614" y2="2375.189"/>
	
		<line fill="none" stroke="#FAA41A" stroke-width="4" stroke-miterlimit="10" x1="-2446.702" y1="2343.74" x2="-2445.957" y2="2376.253"/>
	<line fill="none" stroke="#FAA41A" stroke-width="4" stroke-miterlimit="10" x1="-2597.3" y1="2231" x2="-2597.3" y2="2353"/>
	<line fill="none" stroke="#FAA41A" stroke-width="4" stroke-miterlimit="10" x1="-2615.3" y1="2250" x2="-2615.3" y2="2353"/>
	<line fill="none" stroke="#FAA41A" stroke-width="4" stroke-miterlimit="10" x1="-2634.3" y1="2261" x2="-2634.3" y2="2353"/>
	<line fill="none" stroke="#FAA41A" stroke-width="4" stroke-miterlimit="10" x1="-2653.3" y1="2276" x2="-2653.3" y2="2353"/>
	<line fill="none" stroke="#FAA41A" stroke-width="4" stroke-miterlimit="10" x1="-2755.3" y1="2317" x2="-2755.3" y2="2341"/>
	<line fill="none" stroke="#FAA41A" stroke-width="4" stroke-miterlimit="10" x1="-2738.3" y1="2318" x2="-2738.3" y2="2342"/>
	<line fill="none" stroke="#FAA41A" stroke-width="4" stroke-miterlimit="10" x1="-2724.3" y1="2312" x2="-2724.3" y2="2342"/>
	<line fill="none" stroke="#FAA41A" stroke-width="4" stroke-miterlimit="10" x1="-2707.3" y1="2304" x2="-2707.3" y2="2342"/>
	<line fill="none" stroke="#FAA41A" stroke-width="4" stroke-miterlimit="10" x1="-2689.3" y1="2297" x2="-2689.3" y2="2342"/>
	<line fill="none" stroke="#FAA41A" stroke-width="4" stroke-miterlimit="10" x1="-2671.3" y1="2289" x2="-2671.3" y2="2342"/>
	<line fill="none" stroke="#FAA41A" stroke-width="4" stroke-miterlimit="10" x1="-3042.3" y1="2277" x2="-3042.3" y2="2311"/>
	<line fill="none" stroke="#FAA41A" stroke-width="4" stroke-miterlimit="10" x1="-3023.3" y1="2285" x2="-3023.3" y2="2314"/>
	<path fill="#8E6547" d="M-1684.282,1177.375c0,0-249.987-95.863-128.018-203.375c43.938-38.148,136.076-95.688,298.484-105.85   c124.918-8.961,538.139-26.188,544.516-26.258s519.936,14.092,538.421,36.594c18.485,22.502,99.944-0.852,290.203,103.07   c62.766,48.426,230.757,125.721,109.263,195.816c-36.271,13.395-123.844,32.617-128.453,33.609   c-4.609,0.99-109.748-122.98-238.135-153.49c-124.592-39.531-245.445-73.914-392.374-65.012   c-103.523,6.895-403.878,18.002-480.925,13.502c-94.975,7.344-245.211,4.367-310,43.02   C-1618.66,1067.419-1679.734,1090.779-1684.282,1177.375z"/>
	<line fill="none" stroke="#FAA41A" stroke-width="4" stroke-miterlimit="10" x1="-3006.3" y1="2287" x2="-3006.3" y2="2317"/>
	<line fill="none" stroke="#FAA41A" stroke-width="4" stroke-miterlimit="10" x1="-2985.3" y1="2299" x2="-2985.3" y2="2318"/>
	<line fill="none" stroke="#FAA41A" stroke-width="4" stroke-miterlimit="10" x1="-3400.3" y1="2050" x2="-3400.3" y2="2291"/>
	<line fill="none" stroke="#FAA41A" stroke-width="4" stroke-miterlimit="10" x1="-3434.3" y1="2015" x2="-3434.3" y2="2289"/>
	<line fill="none" stroke="#FAA41A" stroke-width="4" stroke-miterlimit="10" x1="-3469.3" y1="1980" x2="-3469.3" y2="2290"/>
	<g id="jkYEcq_1_">
	</g>
	<g id="cc9x0N_1_">
	</g>
	<path fill="none" stroke="#F79755" stroke-width="14" stroke-miterlimit="10" d="M-493.253,1281.287   c243.103-50.574,448.835-94.535,457.339-98.314c166.492-80.996-148.493-224.988-173.991-235.486   c-319.483-161.992-1075.446-89.996-1115.944-89.996c-611.969,8.998-508.475,212.988-508.475,212.988   c67.604,112.666,368.646,186.338,604.344,227.193C-1229.98,1297.671-1009.086,1388.601-493.253,1281.287z"/>
	<path fill="none" stroke="#F79755" stroke-width="14" stroke-miterlimit="10" d="M-1493.454,1241.175   c0,0,16.732-128.699,392.154-97.201c76.937,3,118.934,13.5,268.927-26.998c53.998-4.5,205.777-35.115,434.372,144.434"/>
	<path fill="#F79755" d="M-838.372,992.482"/>
	<path fill="none" stroke="#F79755" stroke-width="14" stroke-miterlimit="10" d="M-1683.202,1177.837   c0,0-41.626-176.355,391.853-164.355c107.994,0,424.132-15,536.05-21c59.42,3,350.405-8.998,587.394,211.49"/>
</g>
<g id="Layer_4">
	<rect x="-3269.3" y="896" fill="#513134" width="7" height="35"/>
	<rect x="-3284.3" y="896" fill="#513134" width="6" height="35"/>
	
		<line fill="none" stroke="#513134" stroke-width="2" stroke-miterlimit="10" x1="-3279.396" y1="895.5" x2="-3267.366" y2="909.279"/>
	
		<line fill="none" stroke="#513134" stroke-width="2" stroke-miterlimit="10" x1="-3279.666" y1="910.623" x2="-3269.108" y2="895.933"/>
	
		<line fill="none" stroke="#513134" stroke-width="2" stroke-miterlimit="10" x1="-3278.659" y1="924.402" x2="-3268.103" y2="909.712"/>
	
		<line fill="none" stroke="#513134" stroke-width="2" stroke-miterlimit="10" x1="-3279.396" y1="909.722" x2="-3267.366" y2="923.501"/>
	
		<line fill="none" stroke="#513134" stroke-width="2" stroke-miterlimit="10" x1="-3280.401" y1="909.722" x2="-3267.366" y2="909.279"/>
	
		<line fill="none" stroke="#513134" stroke-width="2" stroke-miterlimit="10" x1="-3281.282" y1="924.835" x2="-3266.192" y2="924.402"/>
	<path fill="#513134" d="M-3805.3,789v-54.666l-1-2.334v-41.998l-2-2.002c0,0,0-31.332,0-40.777c-8-10.777-9.562,1.576-9.562,1.576   s-15.563,1.91-16.229,1.578c-7.666-7-10.126,0.039-10.126,0.039l1.065,40.584l-1.521,1.334l-0.041,41.666l-2.585,1v52v2v62h44v-62   H-3805.3z M-3834.3,669c0,0-0.01-3.375,3.5-4.375c4.25-0.875,10.625-1.812,10.625-1.812s4.347-1.311,4.312,3.096   c-0.125,6.5,0.034,20.857,0.034,20.857s-0.25,2.859-5.987,3.742c-5.125,0.75-12.484,2.867-12.484-0.008S-3834.3,669-3834.3,669z    M-3834.3,711.478c0,0-0.01-3.629,3.5-4.703c4.25-0.941,10.625-1.949,10.625-1.949s4.347-1.41,4.312,3.326   c-0.125,6.988,0.034,22.43,0.034,22.43s-0.25,3.074-5.987,4.023c-5.125,0.807-12.484,3.084-12.484-0.01   C-3834.3,731.505-3834.3,711.478-3834.3,711.478z M-3834.3,785.916c0-3.682,0-27.535,0-27.535s-0.01-4.322,3.5-5.602   c4.25-1.121,10.625-2.322,10.625-2.322s4.347-1.68,4.312,3.963c-0.125,8.324-0.216,30.375-0.216,30.375s-0.234,1.865-5.972,2.996   C-3827.175,788.75-3834.3,789.597-3834.3,785.916z M-3820.05,849.31c-4.75,0.775-12.25,1.768-12.25-2.67s0-33.18,0-33.18   s-0.009-5.209,3.121-6.752c3.79-1.35,9.879-1.959,9.879-1.959s3.502,0.951,3.472,7.75c-0.111,10.031,0,28.377,0,28.377   S-3815.552,852.06-3820.05,849.31z"/>
	<path fill="#513134" d="M-3263.466,862.166l-0.668-24.127l-0.499-3.539l-0.166-15.166l-0.8-1.6c0,0-0.701-13.801-0.701-17.914   c-5-4.693-4.859,0.688-4.859,0.688s-7.505,0.83-7.82,0.686c-3.607-3.049-7.32-1.525-7.32-1.525V817v2.668l0.928,18.742l-0.927,0.59   l0.999,21.686v0.871l-0.332,28.775l23.332,2.49L-3263.466,862.166L-3263.466,862.166z M-3278.3,809.302c0,0-0.482-1.469,1.17-1.902   c2-0.383,4.762-0.789,4.762-0.789s1.925-0.572,1.91,1.346c-0.06,2.83-0.043,9.084-0.043,9.084s0.33,1.244-2.37,1.629   c-2.413,0.326-5.429,1.248-5.429-0.004S-3278.3,809.302-3278.3,809.302z M-3278.3,827.8c0,0-0.482-1.58,1.17-2.049   c2-0.408,4.762-0.848,4.762-0.848s1.925-0.615,1.91,1.447c-0.06,3.043-0.043,9.768-0.043,9.768s0.33,1.338-2.37,1.752   c-2.413,0.352-5.429,1.344-5.429-0.004S-3278.3,827.8-3278.3,827.8z M-3278.3,860.214c0-1.604,0-11.99,0-11.99   s-0.482-1.883,1.17-2.438c2-0.49,4.762-1.012,4.762-1.012s1.925-0.732,1.91,1.725c-0.06,3.625-0.16,13.227-0.16,13.227   s0.338,0.812-2.363,1.307C-3275.395,861.449-3278.3,861.816-3278.3,860.214z M-3272.54,887.818c-2.236,0.338-5.76,0.77-5.76-1.162   c0-1.934,0-14.449,0-14.449s-0.01-2.268,1.463-2.939c1.781-0.588,4.645-0.854,4.645-0.854s1.647,0.414,1.633,3.377   c-0.052,4.367,0.004,12.355,0.004,12.355S-3270.423,889.015-3272.54,887.818z"/>
	<path fill="none" stroke="#513134" stroke-width="2" stroke-miterlimit="10" d="M-4164.3,792.667   c0,0,226.703-79.211,320.353-131.939"/>
	<path fill="none" stroke="#513134" stroke-width="2" stroke-miterlimit="10" d="M-4164.3,783.667   c0,0,204.001-68.184,324.635-136.365"/>
	<path fill="none" stroke="#513134" stroke-width="2" stroke-miterlimit="10" d="M-3820.175,662.812   c0,0,341.572,341.912,536.723,153.217"/>
	<path fill="none" stroke="#513134" stroke-width="2" stroke-miterlimit="10" d="M-3811.634,642.81   c0,0,242.668,241.191,408.001,226.523c16-4,50.932-4.246,119.799-68.123"/>
	<path fill="none" stroke="#513134" stroke-width="2" stroke-miterlimit="10" d="M-3266.3,834.5c0,0,36.5,58.5,45,67.5"/>
	<path fill="none" stroke="#513134" stroke-width="2" stroke-miterlimit="10" d="M-3268.05,799.25c0,0,43.5,96.684,70,106.75"/>
	<line fill="none" stroke="#513134" stroke-miterlimit="10" x1="-4096.8" y1="760" x2="-4096.8" y2="839"/>
	<line fill="none" stroke="#513134" stroke-miterlimit="10" x1="-4087.8" y1="765" x2="-4087.8" y2="839"/>
	<line fill="none" stroke="#513134" stroke-miterlimit="10" x1="-4072.8" y1="751" x2="-4072.8" y2="839"/>
	<line fill="none" stroke="#513134" stroke-miterlimit="10" x1="-4064.8" y1="757" x2="-4064.8" y2="842"/>
	<line fill="none" stroke="#513134" stroke-miterlimit="10" x1="-4042.8" y1="747" x2="-4042.8" y2="841"/>
	<line fill="none" stroke="#513134" stroke-miterlimit="10" x1="-4030.8" y1="734" x2="-4030.8" y2="841"/>
	<line fill="none" stroke="#513134" stroke-miterlimit="10" x1="-4020.8" y1="739" x2="-4020.8" y2="842"/>
	<line fill="none" stroke="#513134" stroke-miterlimit="10" x1="-4009.8" y1="727" x2="-4009.8" y2="841"/>
	<line fill="none" stroke="#513134" stroke-miterlimit="10" x1="-3999.8" y1="731" x2="-3999.8" y2="843"/>
	<line fill="none" stroke="#513134" stroke-miterlimit="10" x1="-3989.8" y1="719" x2="-3989.8" y2="842"/>
	<line fill="none" stroke="#513134" stroke-miterlimit="10" x1="-3979.8" y1="724" x2="-3979.8" y2="842"/>
	<line fill="none" stroke="#513134" stroke-miterlimit="10" x1="-3970.8" y1="711" x2="-3970.8" y2="844"/>
	<line fill="none" stroke="#513134" stroke-miterlimit="10" x1="-3959.8" y1="715" x2="-3959.8" y2="843"/>
	<line fill="none" stroke="#513134" stroke-miterlimit="10" x1="-3952.8" y1="703" x2="-3952.8" y2="844"/>
	<line fill="none" stroke="#513134" stroke-miterlimit="10" x1="-3940.8" y1="707" x2="-3940.8" y2="845"/>
	<line fill="none" stroke="#513134" stroke-miterlimit="10" x1="-3934.8" y1="695" x2="-3934.8" y2="844"/>
	<line fill="none" stroke="#513134" stroke-miterlimit="10" x1="-3923.8" y1="700" x2="-3923.8" y2="847"/>
	<line fill="none" stroke="#513134" stroke-miterlimit="10" x1="-3916.8" y1="688" x2="-3916.8" y2="845"/>
	<line fill="none" stroke="#513134" stroke-miterlimit="10" x1="-3905.8" y1="692" x2="-3905.8" y2="844"/>
	<line fill="none" stroke="#513134" stroke-miterlimit="10" x1="-3900.8" y1="679" x2="-3900.8" y2="846"/>
	<line fill="none" stroke="#513134" stroke-miterlimit="10" x1="-3888.8" y1="684" x2="-3888.8" y2="847"/>
	<line fill="none" stroke="#513134" stroke-miterlimit="10" x1="-3884.8" y1="672" x2="-3884.8" y2="845"/>
	<line fill="none" stroke="#513134" stroke-miterlimit="10" x1="-3872.8" y1="676" x2="-3872.8" y2="847"/>
	<line fill="none" stroke="#513134" stroke-miterlimit="10" x1="-3868.8" y1="662" x2="-3868.8" y2="849"/>
	<line fill="none" stroke="#513134" stroke-miterlimit="10" x1="-3856.8" y1="668" x2="-3856.8" y2="849"/>
	<line fill="none" stroke="#513134" stroke-miterlimit="10" x1="-3853.8" y1="655" x2="-3853.8" y2="850"/>
	<line fill="none" stroke="#513134" stroke-miterlimit="10" x1="-4051.8" y1="744" x2="-4051.8" y2="841"/>
	<path fill="#513134" d="M-3158.328,930c0,0-32.597-36.326-290.097-47.5c-41.5-1.5-507.875-41.5-716.875-16c0-11.5,0-31.5,0-31.5   s812,18,1002.5,79c0,0,18.75,5,42.555,12.102C-3156.745,929.265-3158.328,930-3158.328,930z"/>
	<rect x="-3815.3" y="859" fill="#513134" width="12" height="79"/>
	<rect x="-3845.3" y="859" fill="#513134" width="12" height="79"/>
	<line fill="none" stroke="#513134" stroke-width="4" stroke-miterlimit="10" x1="-3835.55" y1="857.5" x2="-3811.634" y2="888.5"/>
	
		<line fill="none" stroke="#513134" stroke-width="4" stroke-miterlimit="10" x1="-3836.087" y1="891.525" x2="-3815.097" y2="858.474"/>
	
		<line fill="none" stroke="#513134" stroke-width="4" stroke-miterlimit="10" x1="-3834.087" y1="922.525" x2="-3813.097" y2="889.474"/>
	<line fill="none" stroke="#513134" stroke-width="4" stroke-miterlimit="10" x1="-3835.55" y1="889.5" x2="-3811.634" y2="920.5"/>
	<line fill="none" stroke="#513134" stroke-width="4" stroke-miterlimit="10" x1="-3837.55" y1="889.5" x2="-3811.634" y2="888.5"/>
	<line fill="none" stroke="#513134" stroke-width="4" stroke-miterlimit="10" x1="-3839.3" y1="923.5" x2="-3809.3" y2="922.525"/>
	<line fill="none" stroke="#513134" stroke-miterlimit="10" x1="-3795.8" y1="657" x2="-3795.8" y2="854"/>
	<line fill="none" stroke="#513134" stroke-miterlimit="10" x1="-3782.8" y1="670" x2="-3782.8" y2="851"/>
	<line fill="none" stroke="#513134" stroke-miterlimit="10" x1="-3769.8" y1="682" x2="-3769.8" y2="854"/>
	<line fill="none" stroke="#513134" stroke-miterlimit="10" x1="-3758.8" y1="718" x2="-3758.8" y2="858"/>
	<line fill="none" stroke="#513134" stroke-miterlimit="10" x1="-3755.8" y1="694" x2="-3755.8" y2="854"/>
	<line fill="none" stroke="#513134" stroke-miterlimit="10" x1="-3745.8" y1="728" x2="-3745.8" y2="858"/>
	<line fill="none" stroke="#513134" stroke-miterlimit="10" x1="-3742.8" y1="703" x2="-3742.8" y2="858"/>
	<line fill="none" stroke="#513134" stroke-miterlimit="10" x1="-3733.8" y1="737" x2="-3733.8" y2="858"/>
	<line fill="none" stroke="#513134" stroke-miterlimit="10" x1="-3729.8" y1="854" x2="-3729.8" y2="715"/>
	<line fill="none" stroke="#513134" stroke-miterlimit="10" x1="-3722.8" y1="746" x2="-3722.8" y2="858"/>
	<line fill="none" stroke="#513134" stroke-miterlimit="10" x1="-3717.8" y1="858" x2="-3717.8" y2="724"/>
	<line fill="none" stroke="#513134" stroke-miterlimit="10" x1="-3710.8" y1="754" x2="-3710.8" y2="858"/>
	<line fill="none" stroke="#513134" stroke-miterlimit="10" x1="-3705.8" y1="858" x2="-3705.8" y2="735"/>
	<line fill="none" stroke="#513134" stroke-miterlimit="10" x1="-3699.8" y1="763" x2="-3699.8" y2="859"/>
	<line fill="none" stroke="#513134" stroke-miterlimit="10" x1="-3695.8" y1="858" x2="-3695.8" y2="742"/>
	<line fill="none" stroke="#513134" stroke-miterlimit="10" x1="-3689.8" y1="770" x2="-3689.8" y2="864"/>
	<line fill="none" stroke="#513134" stroke-miterlimit="10" x1="-3683.8" y1="858" x2="-3683.8" y2="750"/>
	<line fill="none" stroke="#513134" stroke-miterlimit="10" x1="-3678.8" y1="776" x2="-3678.8" y2="858"/>
	<line fill="none" stroke="#513134" stroke-miterlimit="10" x1="-3672.8" y1="858" x2="-3672.8" y2="759"/>
	<line fill="none" stroke="#513134" stroke-miterlimit="10" x1="-3668.8" y1="784" x2="-3668.8" y2="860"/>
	<line fill="none" stroke="#513134" stroke-miterlimit="10" x1="-3661.8" y1="858" x2="-3661.8" y2="766"/>
	<line fill="none" stroke="#513134" stroke-miterlimit="10" x1="-3657.8" y1="791" x2="-3657.8" y2="866"/>
	<line fill="none" stroke="#513134" stroke-miterlimit="10" x1="-3651.8" y1="858" x2="-3651.8" y2="774"/>
	<line fill="none" stroke="#513134" stroke-miterlimit="10" x1="-3647.8" y1="797" x2="-3647.8" y2="860"/>
	<line fill="none" stroke="#513134" stroke-miterlimit="10" x1="-3642.8" y1="860" x2="-3642.8" y2="781"/>
	<line fill="none" stroke="#513134" stroke-miterlimit="10" x1="-3638.8" y1="802" x2="-3638.8" y2="866"/>
	<line fill="none" stroke="#513134" stroke-miterlimit="10" x1="-3632.8" y1="860" x2="-3632.8" y2="788"/>
	<line fill="none" stroke="#513134" stroke-miterlimit="10" x1="-3630.8" y1="807" x2="-3630.8" y2="862"/>
	<line fill="none" stroke="#513134" stroke-miterlimit="10" x1="-3623.8" y1="862" x2="-3623.8" y2="793"/>
	<line fill="none" stroke="#513134" stroke-miterlimit="10" x1="-3619.8" y1="813" x2="-3619.8" y2="862"/>
	<line fill="none" stroke="#513134" stroke-miterlimit="10" x1="-3613.8" y1="860" x2="-3613.8" y2="799"/>
	<line fill="none" stroke="#513134" stroke-miterlimit="10" x1="-3610.8" y1="817" x2="-3610.8" y2="864"/>
	<line fill="none" stroke="#513134" stroke-miterlimit="10" x1="-3606.8" y1="862" x2="-3606.8" y2="803"/>
	<line fill="none" stroke="#513134" stroke-miterlimit="10" x1="-3602.8" y1="822" x2="-3602.8" y2="860"/>
	<line fill="none" stroke="#513134" stroke-miterlimit="10" x1="-3595.8" y1="860" x2="-3595.8" y2="809"/>
	<line fill="none" stroke="#513134" stroke-miterlimit="10" x1="-3587.8" y1="815" x2="-3587.8" y2="862"/>
	<line fill="none" stroke="#513134" stroke-miterlimit="10" x1="-3578.8" y1="862" x2="-3578.8" y2="819"/>
	<line fill="none" stroke="#513134" stroke-miterlimit="10" x1="-3569.8" y1="824" x2="-3569.8" y2="868"/>
	<line fill="none" stroke="#513134" stroke-miterlimit="10" x1="-3562.8" y1="829" x2="-3562.8" y2="865"/>
	<line fill="none" stroke="#513134" stroke-miterlimit="10" x1="-3553.8" y1="833" x2="-3553.8" y2="866"/>
	<line fill="none" stroke="#513134" stroke-miterlimit="10" x1="-3547.8" y1="835" x2="-3547.8" y2="866"/>
	<line fill="none" stroke="#513134" stroke-miterlimit="10" x1="-3538.8" y1="839" x2="-3538.8" y2="866"/>
	<line fill="none" stroke="#513134" stroke-miterlimit="10" x1="-3532.8" y1="842" x2="-3532.8" y2="867"/>
	<line fill="none" stroke="#513134" stroke-miterlimit="10" x1="-3523.8" y1="846" x2="-3523.8" y2="870"/>
	<line fill="none" stroke="#513134" stroke-miterlimit="10" x1="-3517.8" y1="848" x2="-3517.8" y2="873"/>
	<line fill="none" stroke="#513134" stroke-miterlimit="10" x1="-3510.8" y1="851" x2="-3510.8" y2="868"/>
	<line fill="none" stroke="#513134" stroke-miterlimit="10" x1="-3503.8" y1="854" x2="-3503.8" y2="871"/>
	<line fill="none" stroke="#513134" stroke-miterlimit="10" x1="-3495.8" y1="856" x2="-3495.8" y2="873"/>
	<line fill="none" stroke="#513134" stroke-miterlimit="10" x1="-3489.8" y1="858" x2="-3489.8" y2="871"/>
	<line fill="none" stroke="#513134" stroke-miterlimit="10" x1="-3481.8" y1="861" x2="-3481.8" y2="873"/>
	<line fill="none" stroke="#513134" stroke-miterlimit="10" x1="-3477.8" y1="862" x2="-3477.8" y2="872"/>
	<line fill="none" stroke="#513134" stroke-miterlimit="10" x1="-3469.8" y1="863" x2="-3469.8" y2="873"/>
	<line fill="none" stroke="#513134" stroke-miterlimit="10" x1="-3473.8" y1="863" x2="-3473.8" y2="873"/>
	<line fill="none" stroke="#513134" stroke-miterlimit="10" x1="-3465.8" y1="865" x2="-3465.8" y2="875"/>
	<line fill="none" stroke="#513134" stroke-miterlimit="10" x1="-3460.8" y1="866" x2="-3460.8" y2="876"/>
	<line fill="none" stroke="#513134" stroke-miterlimit="10" x1="-3456.8" y1="867" x2="-3456.8" y2="877"/>
	<line fill="none" stroke="#513134" stroke-miterlimit="10" x1="-3452.8" y1="867" x2="-3452.8" y2="877"/>
	<line fill="none" stroke="#513134" stroke-miterlimit="10" x1="-3450.8" y1="867" x2="-3450.8" y2="877"/>
	<line fill="none" stroke="#513134" stroke-miterlimit="10" x1="-3448.8" y1="867" x2="-3448.8" y2="877"/>
	<line fill="none" stroke="#513134" stroke-miterlimit="10" x1="-3445.8" y1="867" x2="-3445.8" y2="877"/>
	<line fill="none" stroke="#513134" stroke-miterlimit="10" x1="-3440.8" y1="869" x2="-3440.8" y2="879"/>
	<line fill="none" stroke="#513134" stroke-miterlimit="10" x1="-3434.8" y1="869" x2="-3434.8" y2="879"/>
	<line fill="none" stroke="#513134" stroke-miterlimit="10" x1="-3427.8" y1="870" x2="-3427.8" y2="880"/>
	<line fill="none" stroke="#513134" stroke-miterlimit="10" x1="-3420.8" y1="870" x2="-3420.8" y2="880"/>
	<line fill="none" stroke="#513134" stroke-miterlimit="10" x1="-3411.8" y1="870" x2="-3411.8" y2="880"/>
	<line fill="none" stroke="#513134" stroke-miterlimit="10" x1="-3405.8" y1="869" x2="-3405.8" y2="879"/>
	<line fill="none" stroke="#513134" stroke-miterlimit="10" x1="-3399.8" y1="869" x2="-3399.8" y2="879"/>
	<path fill="none" stroke="#513134" stroke-miterlimit="10" d="M-3394.8,878"/>
	<path fill="none" stroke="#513134" stroke-miterlimit="10" d="M-3394.8,868"/>
	<line fill="none" stroke="#513134" stroke-miterlimit="10" x1="-3394.8" y1="867" x2="-3394.8" y2="877"/>
	<line fill="none" stroke="#513134" stroke-miterlimit="10" x1="-3389.8" y1="867" x2="-3389.8" y2="881"/>
	<line fill="none" stroke="#513134" stroke-miterlimit="10" x1="-3385.8" y1="865" x2="-3385.8" y2="880"/>
	<line fill="none" stroke="#513134" stroke-miterlimit="10" x1="-3380.8" y1="864" x2="-3380.8" y2="881"/>
	<line fill="none" stroke="#513134" stroke-miterlimit="10" x1="-3375.8" y1="863" x2="-3375.8" y2="881"/>
	<line fill="none" stroke="#513134" stroke-miterlimit="10" x1="-3372.8" y1="867" x2="-3372.8" y2="880"/>
	<line fill="none" stroke="#513134" stroke-miterlimit="10" x1="-3368.8" y1="860" x2="-3368.8" y2="883"/>
	<line fill="none" stroke="#513134" stroke-miterlimit="10" x1="-3363.8" y1="858" x2="-3363.8" y2="883"/>
	<line fill="none" stroke="#513134" stroke-miterlimit="10" x1="-3358.8" y1="856" x2="-3358.8" y2="886"/>
	<line fill="none" stroke="#513134" stroke-miterlimit="10" x1="-3354.8" y1="854" x2="-3354.8" y2="880"/>
	<line fill="none" stroke="#513134" stroke-miterlimit="10" x1="-3349.8" y1="851" x2="-3349.8" y2="886"/>
	<line fill="none" stroke="#513134" stroke-miterlimit="10" x1="-3344.8" y1="848" x2="-3344.8" y2="886"/>
	<line fill="none" stroke="#513134" stroke-miterlimit="10" x1="-3341.8" y1="846" x2="-3341.8" y2="887"/>
	<line fill="none" stroke="#513134" stroke-miterlimit="10" x1="-3336.3" y1="845.5" x2="-3336.3" y2="845.5"/>
	<line fill="none" stroke="#513134" stroke-miterlimit="10" x1="-3336.8" y1="844" x2="-3336.8" y2="888"/>
	<line fill="none" stroke="#513134" stroke-miterlimit="10" x1="-3331.8" y1="841" x2="-3331.8" y2="886"/>
	<line fill="none" stroke="#513134" stroke-miterlimit="10" x1="-3327.8" y1="838" x2="-3327.8" y2="884"/>
	<line fill="none" stroke="#513134" stroke-miterlimit="10" x1="-3322.8" y1="833" x2="-3322.8" y2="886"/>
	<line fill="none" stroke="#513134" stroke-miterlimit="10" x1="-3317.8" y1="830" x2="-3317.8" y2="886"/>
	<line fill="none" stroke="#513134" stroke-miterlimit="10" x1="-3312.8" y1="826" x2="-3312.8" y2="892"/>
	<line fill="none" stroke="#513134" stroke-miterlimit="10" x1="-3306.8" y1="822" x2="-3306.8" y2="887"/>
	<line fill="none" stroke="#513134" stroke-miterlimit="10" x1="-3301.8" y1="817" x2="-3301.8" y2="889"/>
	<line fill="none" stroke="#513134" stroke-miterlimit="10" x1="-3296.8" y1="813" x2="-3296.8" y2="889"/>
	<line fill="none" stroke="#513134" stroke-miterlimit="10" x1="-3289.8" y1="807" x2="-3289.8" y2="889"/>
	<line fill="none" stroke="#513134" stroke-miterlimit="10" x1="-3273.8" y1="805" x2="-3273.8" y2="892"/>
	<line fill="none" stroke="#513134" stroke-miterlimit="10" x1="-3262.8" y1="811" x2="-3262.8" y2="896"/>
	<line fill="none" stroke="#513134" stroke-miterlimit="10" x1="-3257.8" y1="819" x2="-3257.8" y2="896"/>
	<line fill="none" stroke="#513134" stroke-miterlimit="10" x1="-3253.8" y1="828" x2="-3253.8" y2="896"/>
	<line fill="none" stroke="#513134" stroke-miterlimit="10" x1="-3249.8" y1="835" x2="-3249.8" y2="896"/>
	<line fill="none" stroke="#513134" stroke-miterlimit="10" x1="-3245.8" y1="843" x2="-3245.8" y2="898"/>
	<line fill="none" stroke="#513134" stroke-miterlimit="10" x1="-3241.8" y1="850" x2="-3241.8" y2="899"/>
	<line fill="none" stroke="#513134" stroke-miterlimit="10" x1="-3235.8" y1="860" x2="-3235.8" y2="900"/>
	<line fill="none" stroke="#513134" stroke-miterlimit="10" x1="-3230.8" y1="869" x2="-3230.8" y2="898"/>
	<line fill="none" stroke="#513134" stroke-miterlimit="10" x1="-3226.8" y1="875" x2="-3226.8" y2="899"/>
	<line fill="none" stroke="#513134" stroke-miterlimit="10" x1="-3222.8" y1="881" x2="-3222.8" y2="902"/>
	<line fill="none" stroke="#513134" stroke-miterlimit="10" x1="-3217.8" y1="887" x2="-3217.8" y2="903"/>
	<line fill="none" stroke="#513134" stroke-miterlimit="10" x1="-3212.8" y1="895" x2="-3212.8" y2="903"/>
</g>
<g id="Layer_5">
	<rect x="-3148.3" y="2108" fill="#B2B3B3" width="18" height="396"/>
	<rect x="-3090.3" y="2106" fill="#B2B3B3" width="18" height="396"/>
	<rect x="-3033.3" y="2108" fill="#B2B3B3" width="18" height="396"/>
	<rect x="-2453.3" y="2122" fill="#B2B3B3" width="18" height="396"/>
	<rect x="-2395.3" y="2120" fill="#B2B3B3" width="18" height="396"/>
	<rect x="-2338.3" y="2122" fill="#B2B3B3" width="18" height="396"/>
	<rect x="-2008.3" y="2190" fill="#B2B3B3" width="18" height="396"/>
	<rect x="-1950.3" y="2188" fill="#B2B3B3" width="18" height="396"/>
	<rect x="-1893.3" y="2190" fill="#B2B3B3" width="18" height="396"/>
	<rect x="-3745.3" y="2087" fill="#B2B3B3" width="18" height="396"/>
	<rect x="-3687.3" y="2085" fill="#B2B3B3" width="18" height="396"/>
	<rect x="-3630.3" y="2087" fill="#B2B3B3" width="18" height="396"/>
	<path fill="#333333" d="M-2195.077,1235c0,0,2.777-300.807-2.223-299.869c-5,0.939-93,1.553-159-0.322   c-135-6.094-345-7.496-391-7.141c-58,0.355-294-3.158-341-3.627c-115,0.469-392.544,1.668-449.541,2.369   c-197.989,1.406-627.459,4.961-627.459,4.961l1,288.629C-4164.3,1220-3075.3,871-2195.077,1235z"/>
	<line fill="none" stroke="#333333" stroke-width="3" stroke-miterlimit="10" x1="-2977.8" y1="935" x2="-2977.8" y2="868"/>
	<line fill="none" stroke="#333333" stroke-width="3" stroke-miterlimit="10" x1="-2958.8" y1="935" x2="-2958.8" y2="868"/>
	<line fill="none" stroke="#333333" stroke-width="3" stroke-miterlimit="10" x1="-2958.8" y1="935" x2="-2958.8" y2="868"/>
	<line fill="none" stroke="#333333" stroke-width="3" stroke-miterlimit="10" x1="-2941.8" y1="935" x2="-2941.8" y2="868"/>
	<rect x="-2988.3" y="865" fill="#333333" width="57" height="9"/>
	<rect x="-2988.3" y="878" fill="#333333" width="57" height="9"/>
	<line fill="none" stroke="#333333" stroke-width="3" stroke-miterlimit="10" x1="-2757.8" y1="937" x2="-2757.8" y2="870"/>
	<line fill="none" stroke="#333333" stroke-width="3" stroke-miterlimit="10" x1="-2738.8" y1="937" x2="-2738.8" y2="870"/>
	<line fill="none" stroke="#333333" stroke-width="3" stroke-miterlimit="10" x1="-2738.8" y1="937" x2="-2738.8" y2="870"/>
	<line fill="none" stroke="#333333" stroke-width="3" stroke-miterlimit="10" x1="-2721.8" y1="937" x2="-2721.8" y2="870"/>
	<rect x="-2768.3" y="867" fill="#333333" width="57" height="9"/>
	<rect x="-2768.3" y="880" fill="#333333" width="57" height="9"/>
	<line fill="none" stroke="#333333" stroke-width="3" stroke-miterlimit="10" x1="-2544.8" y1="939" x2="-2544.8" y2="857"/>
	<line fill="none" stroke="#333333" stroke-width="3" stroke-miterlimit="10" x1="-2521.8" y1="939" x2="-2521.8" y2="857"/>
	<rect x="-2560.3" y="852" fill="#333333" width="57" height="9"/>
	<rect x="-2560.3" y="866" fill="#333333" width="57" height="9"/>
	<line fill="none" stroke="#333333" stroke-width="3" stroke-miterlimit="10" x1="-3642.8" y1="940" x2="-3642.8" y2="883"/>
	<line fill="none" stroke="#333333" stroke-width="3" stroke-miterlimit="10" x1="-3623.8" y1="940" x2="-3623.8" y2="883"/>
	<line fill="none" stroke="#333333" stroke-width="3" stroke-miterlimit="10" x1="-3623.8" y1="940" x2="-3623.8" y2="883"/>
	<line fill="none" stroke="#333333" stroke-width="3" stroke-miterlimit="10" x1="-3606.8" y1="940" x2="-3606.8" y2="883"/>
	<rect x="-3653.3" y="880" fill="#333333" width="57" height="9"/>
	<rect x="-3653.3" y="893" fill="#333333" width="57" height="9"/>
	<line fill="none" stroke="#333333" stroke-width="3" stroke-miterlimit="10" x1="-3381.8" y1="926" x2="-3381.8" y2="869"/>
	<line fill="none" stroke="#333333" stroke-width="3" stroke-miterlimit="10" x1="-3362.8" y1="926" x2="-3362.8" y2="869"/>
	<line fill="none" stroke="#333333" stroke-width="3" stroke-miterlimit="10" x1="-3362.8" y1="926" x2="-3362.8" y2="869"/>
	<line fill="none" stroke="#333333" stroke-width="3" stroke-miterlimit="10" x1="-3345.8" y1="926" x2="-3345.8" y2="869"/>
	<rect x="-3392.3" y="866" fill="#333333" width="57" height="9"/>
	<rect x="-3392.3" y="879" fill="#333333" width="57" height="9"/>
	<rect x="-2510.3" y="2094" fill="#B2B3B3" width="237" height="47"/>
	<rect x="-2510.3" y="2164" fill="#B2B3B3" width="237" height="44"/>
	<rect x="-2060.3" y="2169" fill="#B2B3B3" width="237" height="47"/>
	<rect x="-2060.3" y="2239" fill="#B2B3B3" width="237" height="44"/>
	<rect x="-3206.3" y="2096" fill="#B2B3B3" width="237" height="47"/>
	<rect x="-3206.3" y="2166" fill="#B2B3B3" width="237" height="44"/>
	<rect x="-3800.3" y="2057" fill="#B2B3B3" width="242" height="48"/>
	<rect x="-3800.3" y="2129" fill="#B2B3B3" width="242" height="44"/>
	<path fill="#C5655F" d="M-7808.295,3740.689c-136.995-104.311-17.005-206.141-17.005-206.141S-7582.03,3323-6618.665,3329   c111.957,1.787,658.277,3.572,1064.45,157.775c0,0,209.915,82.225,156.915,254.225"/>
	<path fill="#333333" d="M-1691.3,2795"/>
	<g id="_x35_2Gyr1_1_">
	</g>
	<path fill="#DDDEE2" d="M-1671.3,2733.951c0-198.779-553.15-359.92-1235.5-359.92c-682.348,0-1235.5,161.141-1235.5,359.92"/>
	<g id="NpmoTC_1_">
	</g>
	<rect x="-3286.3" y="2542" fill="#588D49" width="742" height="271"/>
	<g id="o6DZvz_1_">
	</g>
	<g id="XggWos_1_">
	</g>
	<rect x="-4142.3" y="2729" fill="#DDDEE2" width="50" height="38"/>
	<rect x="-4105.3" y="2687" fill="#DDDEE2" width="54" height="89"/>
	<rect x="-4005.3" y="2672" fill="#DDDEE2" width="54" height="148"/>
	<rect x="-3956.3" y="2639" fill="#DDDEE2" width="54" height="163"/>
	<rect x="-4052.3" y="2687" fill="#DDDEE2" width="54" height="102"/>
	<rect x="-3758.3" y="2687" fill="#DDDEE2" width="54" height="191"/>
	<rect x="-3907.3" y="2672" fill="#DDDEE2" width="54" height="148"/>
	<rect x="-3861.3" y="2639" fill="#DDDEE2" width="54" height="159"/>
	<rect x="-3812.3" y="2687" fill="#DDDEE2" width="54" height="154"/>
	<rect x="-3705.3" y="2654" fill="#DDDEE2" width="54" height="204"/>
	<rect x="-3605.3" y="2620" fill="#DDDEE2" width="54" height="263"/>
	<rect x="-3652.3" y="2654" fill="#DDDEE2" width="54" height="187"/>
	<rect x="-2934.3" y="2542" fill="#6DAA5A" width="54" height="312"/>
	<rect x="-2880.3" y="2748" fill="#588D49" width="47" height="135"/>
	<rect x="-3181.3" y="2748" fill="#588D49" width="54" height="118"/>
	<rect x="-3234.3" y="2542" fill="#6DAA5A" width="53" height="281"/>
	<rect x="-3080.3" y="2710" fill="#588D49" width="54" height="117"/>
	<rect x="-2982.3" y="2542" fill="#588D49" width="48" height="271"/>
	<rect x="-3032.3" y="2542" fill="#6DAA5A" width="54" height="312"/>
	<rect x="-3128.3" y="2542" fill="#6DAA5A" width="54" height="341"/>
	<rect x="-3286.3" y="2722" fill="#588D49" width="52" height="136"/>
	<rect x="-3501.3" y="2599" fill="#DDDEE2" width="54" height="259"/>
	<rect x="-3404.3" y="2639" fill="#DDDEE2" width="64" height="219"/>
	<rect x="-3341.3" y="2708" fill="#DDDEE2" width="54" height="184"/>
	<rect x="-3554.3" y="2679" fill="#DDDEE2" width="54" height="217"/>
	<rect x="-3448.3" y="2643" fill="#DDDEE2" width="54" height="240"/>
	<rect x="-1728.3" y="2729" fill="#DDDEE2" width="57" height="38"/>
	<rect x="-1780.3" y="2688" fill="#DDDEE2" width="54" height="89"/>
	<rect x="-1880.3" y="2673" fill="#DDDEE2" width="54" height="148"/>
	<rect x="-1929.3" y="2640" fill="#DDDEE2" width="54" height="163"/>
	<rect x="-1833.3" y="2688" fill="#DDDEE2" width="54" height="102"/>
	<rect x="-2127.3" y="2688" fill="#DDDEE2" width="54" height="191"/>
	<rect x="-1978.3" y="2673" fill="#DDDEE2" width="54" height="148"/>
	<rect x="-2024.3" y="2640" fill="#DDDEE2" width="54" height="159"/>
	<rect x="-2073.3" y="2688" fill="#DDDEE2" width="54" height="154"/>
	<rect x="-2180.3" y="2655" fill="#DDDEE2" width="54" height="204"/>
	<rect x="-2280.3" y="2621" fill="#DDDEE2" width="54" height="263"/>
	<rect x="-2233.3" y="2655" fill="#DDDEE2" width="54" height="187"/>
	<rect x="-2384.3" y="2600" fill="#DDDEE2" width="54" height="259"/>
	<rect x="-2491.3" y="2640" fill="#DDDEE2" width="64" height="219"/>
	<rect x="-2544.3" y="2709" fill="#DDDEE2" width="54" height="184"/>
	<rect x="-2331.3" y="2680" fill="#DDDEE2" width="54" height="217"/>
	<rect x="-2437.3" y="2644" fill="#DDDEE2" width="54" height="240"/>
	<rect x="-2834.3" y="2542" fill="#6DAA5A" width="54" height="300"/>
	<rect x="-2733.3" y="2542" fill="#6DAA5A" width="54" height="289"/>
	<rect x="-2780.3" y="2725" fill="#588D49" width="47" height="135"/>
	<rect x="-2598.3" y="2713" fill="#588D49" width="54" height="118"/>
	<rect x="-2679.3" y="2760" fill="#588D49" width="46" height="117"/>
	<rect x="-2633.3" y="2542" fill="#6DAA5A" width="49" height="309"/>
	<path fill="#C4C5C5" d="M-3896.3,2677.019c0,0,237.77-192.814,1049-195.418c64.155,0.398,690.723,20.359,988,214.398   C-2009.067,2650.017-2846.238,2388.992-3896.3,2677.019z"/>
</g>
</svg>