<?xml version="1.0" encoding="UTF-8"?>
<!-- Generator: Adobe Illustrator 16.0.4, SVG Export Plug-In . SVG Version: 6.00 Build 0)  -->
<!DOCTYPE svg PUBLIC "-//W3C//DTD SVG 1.1//EN" "http://www.w3.org/Graphics/SVG/1.1/DTD/svg11.dtd">
<svg version="1.1" xmlns="http://www.w3.org/2000/svg" xmlns:xlink="http://www.w3.org/1999/xlink" x="0px" y="0px" width="299.565px" height="299.812px" viewBox="0 0 299.565 299.812" enable-background="new 0 0 299.565 299.812" xml:space="preserve">
<g id="Media_play_icon" display="none">
	<polygon display="inline" points="275.467,149.905 24.098,295.035 24.098,4.777  "/>
</g>
<g id="Document_icon" display="none">
	
		<rect x="39.839" y="8.755" display="inline" stroke="#FFFFFF" stroke-width="1.1959" stroke-miterlimit="10" width="219.887" height="282.301"/>
	
		<line display="inline" fill="none" stroke="#FFFFFF" stroke-width="9.567" stroke-miterlimit="10" x1="80.113" y1="50.573" x2="219.953" y2="50.573"/>
	
		<line display="inline" fill="none" stroke="#FFFFFF" stroke-width="9.567" stroke-miterlimit="10" x1="80.113" y1="76.612" x2="183.306" y2="76.612"/>
	
		<line display="inline" fill="none" stroke="#FFFFFF" stroke-width="9.567" stroke-miterlimit="10" x1="80.113" y1="102.651" x2="196.769" y2="102.651"/>
	
		<line display="inline" fill="none" stroke="#FFFFFF" stroke-width="9.567" stroke-miterlimit="10" x1="80.113" y1="128.69" x2="219.953" y2="128.69"/>
	
		<line display="inline" fill="none" stroke="#FFFFFF" stroke-width="9.567" stroke-miterlimit="10" x1="80.113" y1="154.729" x2="138.44" y2="154.729"/>
	
		<line display="inline" fill="none" stroke="#FFFFFF" stroke-width="9.567" stroke-miterlimit="10" x1="80.113" y1="180.769" x2="183.306" y2="180.769"/>
	
		<line display="inline" fill="none" stroke="#FFFFFF" stroke-width="9.567" stroke-miterlimit="10" x1="80.113" y1="206.808" x2="196.769" y2="206.808"/>
</g>
<g id="Contact_icon" display="none">
	
		<rect x="7.066" y="40.977" display="inline" stroke="#FFFFFF" stroke-width="0.9229" stroke-miterlimit="10" width="285.798" height="217.859"/>
	<polyline display="inline" fill="none" stroke="#FFFFFF" stroke-width="9.2289" stroke-miterlimit="10" points="281.701,50.92    149.965,153.629 18.975,50.92  "/>
</g>
<g id="Image_icon" display="none">
	
		<rect x="12.43" y="8.4" display="inline" stroke="#FFFFFF" stroke-width="1.3383" stroke-miterlimit="10" width="274.705" height="283.013"/>
	<rect x="38.99" y="37.335" display="inline" fill="#FFFFFF" width="220.487" height="220.485"/>
	<polygon display="inline" opacity="0.7" stroke="#FFFFFF" stroke-width="1.494" stroke-miterlimit="10" points="185.934,244.3    48.486,244.134 117.353,125.183  "/>
	<polygon display="inline" opacity="0.7" stroke="#FFFFFF" stroke-width="0.9492" stroke-miterlimit="10" points="238.599,243.734    151.278,243.629 195.028,168.06  "/>
	
		<circle display="inline" opacity="0.7" stroke="#FFFFFF" stroke-width="0.9492" stroke-miterlimit="10" cx="182.949" cy="101.279" r="23.904"/>
</g>
<g id="Map_icon" display="none">
	<circle display="inline" cx="149.783" cy="103.753" r="99.167"/>
	<polygon display="inline" points="149.783,295.812 77.252,170.186 222.314,170.186  "/>
	<circle display="inline" fill="#FFFFFF" cx="149.783" cy="102.812" r="34.309"/>
</g>
<g id="Calendar_icon" display="none">
	
		<rect x="29.294" y="31.049" display="inline" fill="none" stroke="#000000" stroke-width="23.0795" stroke-miterlimit="10" width="241.264" height="248.561"/>
	
		<text transform="matrix(1 0 0 1 50.4731 227.0176)" display="inline" stroke="#000000" stroke-miterlimit="10" font-family="'Futura-Medium'" font-size="172.5264">31</text>
	<polyline display="inline" points="192.095,261.638 250.843,261.638 250.843,202.89  "/>
	<rect x="17.95" y="8.812" display="inline" width="263.667" height="66.441"/>
	<circle display="inline" fill="#FFFFFF" stroke="#000000" stroke-miterlimit="10" cx="98.379" cy="43.781" r="11.889"/>
	<circle display="inline" fill="#FFFFFF" stroke="#000000" stroke-miterlimit="10" cx="199.089" cy="42.032" r="11.889"/>
</g>
<g id="Company_icon" display="none">
	<circle display="inline" stroke="#000000" stroke-width="19.9759" stroke-miterlimit="10" cx="149.783" cy="78.525" r="51.453"/>
	<path display="inline" stroke="#000000" stroke-width="20.4762" stroke-miterlimit="10" d="M59.361,286.74   c0-81.142,40.483-146.92,90.422-146.92s90.422,65.778,90.422,146.92"/>
	<polygon display="inline" stroke="#000000" stroke-miterlimit="10" points="88.715,286.877 102.336,286.963 95.887,230.312  "/>
	<polygon display="inline" stroke="#000000" stroke-miterlimit="10" points="201.571,287.043 215.192,287.129 208.743,230.478  "/>
</g>
<g id="Layer_8">
	<g id="BOOUm1.tif">
		<g>
			<path d="M109.144,72.673c6.383,0,12.766,0,19.149,0c4.06,3.578,6.36,8.052,7.117,13.416c0.707,5.009,3.783,8.212,8.325,10.115     c3.308,1.386,6.859,2.339,9.925,4.13c7.791,4.549,14.845,2.686,21.89-1.644c7.033-4.322,9.181-4.039,15.118,1.642     c1.584,1.516,3.118,3.084,4.657,4.646c6.347,6.439,6.792,10.75,1.645,18.416c-1.929,2.872-4.181,5.883-3.342,9.3     c1.995,8.133,4.812,16.164,9.485,23.09c3.256,4.826,9.39,5.563,14.89,6.735c5.83,1.242,7.562,5.82,7.271,10.86     c-0.427,7.339,3.166,15.98-5.617,21.067c-1.312,0.76-3.101,0.652-4.624,1.102c-4.211,1.245-8.574,2.38-11.703,5.676     c-8.454,8.907-10.068,24.513-3.352,35.145c2.974,4.707,2.455,8.582-0.95,12.465c-1.706,1.944-3.56,3.764-5.397,5.592     c-7.153,7.113-11.009,7.695-19.332,2.108c-4.991-3.351-9.916-3.703-15.269-1.461c-2.573,1.077-5.068,2.486-7.747,3.144     c-9.6,2.361-14.266,8.801-15.625,18.15c-0.829,5.697-4.34,8.241-9.84,8.438c-2.39,0.086-4.784,0.066-7.176,0.064     c-10.788-0.011-13.83-2.423-15.738-12.882c-0.523-2.869-1.344-5.602-3.628-7.319c-6.951-5.232-15.124-8.21-23.36-10.241     c-5.331-1.315-10.343,2.387-14.78,5.417c-4.446,3.035-8.253,2.129-11.948-1.003c-1.973-1.671-3.771-3.555-5.602-5.387     c-7.538-7.546-8.031-10.979-2.086-19.733c3.115-4.589,3.535-9.155,1.547-14.138c-1.182-2.962-2.747-5.821-3.529-8.882     c-2.462-9.624-9.221-13.958-18.362-15.524c-2.667-0.457-4.956-1.327-6.486-3.74c-6.563-10.351-0.674-26.054,11.043-28.67     c5.66-1.264,9.211-4.307,11.16-9.61c0.961-2.617,1.844-5.324,3.243-7.707c5.103-8.683,3.77-16.747-1.994-24.452     c-3.37-4.504-2.389-8.556,1.054-12.394c1.729-1.927,3.58-3.748,5.418-5.573c7.03-6.973,11.075-7.537,19.395-1.942     c4.757,3.199,9.379,3.968,14.601,1.549c2.89-1.338,5.809-2.792,8.874-3.543c9.507-2.329,13.729-9.066,15.099-17.95     C103.227,76.834,105.479,74.354,109.144,72.673z M118.916,215.996c21.028,0.012,37.85-16.75,37.681-37.547     c-0.166-20.354-17.233-37.196-37.684-37.187c-20.516,0.009-37.115,16.78-37.085,37.471     C81.858,199.698,98.067,215.984,118.916,215.996z"/>
		</g>
	</g>
	<g id="BOOUm1.tif_1_">
		<g>
			<path d="M213.561,13.114c2.767-1.046,5.533-2.091,8.3-3.137c2.346,0.886,4.076,2.449,5.283,4.649     c1.127,2.055,2.985,2.94,5.265,3.02c1.662,0.059,3.356-0.109,4.979,0.165c4.122,0.695,6.875-1.268,9.219-4.298     c2.34-3.026,3.318-3.254,6.822-1.765c0.935,0.397,1.856,0.826,2.779,1.251c3.806,1.751,4.705,3.547,3.729,7.713     c-0.366,1.561-0.849,3.235,0.075,4.578c2.197,3.199,4.733,6.219,7.893,8.455c2.202,1.559,4.982,0.874,7.558,0.48     c2.731-0.417,4.231,1.284,4.93,3.517c1.018,3.251,3.99,6.408,1.016,10.051c-0.444,0.544-1.236,0.791-1.823,1.235     c-1.622,1.229-3.326,2.436-4.143,4.377c-2.205,5.245-0.348,12.274,4.305,15.782c2.06,1.553,2.47,3.318,1.629,5.558     c-0.42,1.123-0.926,2.215-1.423,3.308c-1.935,4.255-3.511,5.139-8.034,4.081c-2.712-0.635-4.904,0.019-6.857,1.868     c-0.939,0.888-1.79,1.908-2.843,2.632c-3.774,2.596-4.742,6.151-3.8,10.426c0.574,2.605-0.531,4.283-2.883,5.269     c-1.021,0.429-2.062,0.812-3.1,1.204c-4.678,1.763-6.391,1.216-8.932-3.005c-0.697-1.158-1.5-2.208-2.772-2.578     c-3.87-1.13-7.9-1.082-11.803-0.613c-2.526,0.303-4.092,2.729-5.52,4.77c-1.43,2.043-3.228,2.274-5.343,1.522     c-1.129-0.401-2.217-0.923-3.311-1.417c-4.502-2.036-5.279-3.444-4.137-8.212c0.599-2.499,0.033-4.547-1.645-6.381     c-0.997-1.09-2.144-2.074-2.985-3.272c-2.644-3.768-6.283-4.54-10.501-3.721c-1.23,0.238-2.365,0.236-3.424-0.559     c-4.54-3.411-4.56-11.183,0.09-14.236c2.247-1.476,3.288-3.375,3.264-5.993c-0.012-1.292-0.074-2.61,0.143-3.872     c0.79-4.599-1.109-7.876-4.869-10.271c-2.199-1.4-2.437-3.317-1.574-5.544c0.434-1.119,0.938-2.211,1.436-3.303     c1.905-4.174,3.566-5.081,8.088-4.019c2.586,0.607,4.715,0.183,6.583-1.721c1.034-1.053,2.061-2.162,3.267-2.989     c3.739-2.567,4.465-6.179,3.604-10.253C211.678,15.887,212.248,14.443,213.561,13.114z M241.274,73.636     c9.117-3.439,13.662-13.459,10.183-22.447c-3.406-8.795-13.563-13.299-22.426-9.945c-8.891,3.365-13.339,13.354-9.937,22.317     C222.542,72.642,232.235,77.046,241.274,73.636z"/>
		</g>
	</g>
</g>
</svg>