<?xml version="1.0" encoding="UTF-8"?>
<!-- Generator: Adobe Illustrator 18.1.0, SVG Export Plug-In . SVG Version: 6.00 Build 0)  -->
<!DOCTYPE svg PUBLIC "-//W3C//DTD SVG 1.1//EN" "http://www.w3.org/Graphics/SVG/1.1/DTD/svg11.dtd">
<svg version="1.1" xmlns="http://www.w3.org/2000/svg" xmlns:xlink="http://www.w3.org/1999/xlink" x="0px" y="0px" width="216px" height="216px" viewBox="0 0 216 216" style="enable-background:new 0 0 216 216;" xml:space="preserve">
<style type="text/css">
	.st0{fill:#034EA2;}
	.st1{fill:#B0D235;}
	.st2{fill:#010101;}
	.st3{fill-rule:evenodd;clip-rule:evenodd;}
	.st4{fill-rule:evenodd;clip-rule:evenodd;stroke:#004B85;stroke-width:1.019;stroke-miterlimit:2.6131;}
</style>
<g id="Layer_1">
</g>
<g id="Tool_For_Saving_Money">
</g>
<g id="Volume_Bars">
</g>
<g id="Dollar_Analysis_Bars_Chart">
</g>
<g id="Angry_Man_In_Suit">
</g>
<g id="Settings_Gears">
	<g>
		<path class="st0" d="M29.5,83.4c0.9,3.2,2.3,6.4,3.9,9.3l-4.7,6c-1.5,2-1.4,4.7,0.4,6.5l8.1,8.1c1.8,1.8,4.5,1.9,6.5,0.4l5.9-4.7    c3.1,1.8,6.3,3.1,9.7,4.1l0.9,7.6c0.3,2.5,2.4,4.3,4.8,4.3h11.5c2.5,0,4.6-1.9,4.8-4.3l0.8-7.4c3.6-0.9,7.1-2.4,10.4-4.2l5.7,4.5    c2,1.5,4.7,1.4,6.5-0.4l8.1-8.1c1.8-1.8,1.9-4.5,0.4-6.5l-4.5-5.7c1.9-3.2,3.3-6.6,4.3-10.2L120,82c2.5-0.3,4.3-2.4,4.3-4.8V65.7    c0-2.5-1.9-4.6-4.3-4.8l-6.8-0.8c-0.9-3.5-2.3-6.9-4.1-10.1l4.2-5.3c1.5-2,1.4-4.7-0.4-6.5l-8.1-8.1c-1.8-1.8-4.5-1.9-6.5-0.4    l-5.1,4.1c-3.3-2-6.9-3.4-10.6-4.4l-0.8-6.6c-0.3-2.5-2.4-4.3-4.8-4.3H65.5c-2.5,0-4.6,1.9-4.8,4.3l-0.8,6.6    c-3.8,1-7.5,2.6-10.9,4.6l-5.3-4.2c-2-1.5-4.7-1.4-6.5,0.4L29,38.2c-1.8,1.8-1.9,4.5-0.4,6.5l4.4,5.6c-1.8,3.2-3.1,6.6-4,10.2    L22,61.3c-2.5,0.3-4.3,2.4-4.3,4.8v11.5c0,2.5,1.9,4.6,4.3,4.8L29.5,83.4z M71.2,52.2c10.5,0,19.1,8.6,19.1,19.1    s-8.6,19.1-19.1,19.1s-19.1-8.6-19.1-19.1S60.7,52.2,71.2,52.2z"/>
		<path class="st1" d="M185.2,86.2l-6.1-5.1c-1.9-1.6-4.6-1.5-6.4,0.2l-3.4,3.1c-2.8-1.4-5.9-2.3-9-2.9l-0.9-4.6    c-0.5-2.4-2.7-4.1-5.1-3.9l-7.9,0.7c-2.4,0.2-4.3,2.2-4.4,4.7l-0.2,4.7c-3.1,1.1-5.9,2.6-8.6,4.5l-4-2.7c-2-1.4-4.8-1-6.4,0.9    l-5.1,6.1c-1.6,1.9-1.5,4.6,0.2,6.4l3.5,3.7c-1.2,2.7-2.1,5.6-2.6,8.6l-5,1c-2.4,0.5-4.1,2.7-3.9,5.1l0.7,7.9    c0.2,2.4,2.2,4.3,4.7,4.4l5.4,0.2c1,2.6,2.3,5,3.8,7.3l-3,4.6c-1.4,2-1,4.8,0.9,6.4l6.1,5.1c1.9,1.6,4.6,1.5,6.4-0.2l4-3.7    c2.6,1.2,5.3,2.1,8.2,2.7l1.1,5.4c0.5,2.4,2.7,4.1,5.1,3.9l7.9-0.7c2.4-0.2,4.3-2.2,4.4-4.7l0.2-5.3c2.9-1,5.6-2.4,8.2-4.1    l4.4,2.9c2,1.4,4.8,1,6.4-0.9l5.1-6.1c1.6-1.9,1.5-4.6-0.2-6.4l-3.5-3.7c1.3-2.7,2.2-5.6,2.8-8.6l4.8-1c2.4-0.5,4.1-2.7,3.9-5.1    l-0.7-7.9c-0.2-2.4-2.2-4.3-4.7-4.4l-4.8-0.2c-1-2.8-2.4-5.5-4-8l2.6-4C187.5,90.5,187.1,87.8,185.2,86.2z M155.3,132.1    c-8.6,0.7-16.1-5.7-16.9-14.2c-0.7-8.6,5.7-16.1,14.2-16.9c8.6-0.7,16.1,5.7,16.9,14.2C170.3,123.8,163.9,131.4,155.3,132.1z"/>
		<path class="st0" d="M57.2,153.5c-2.4,0.3-4.3,2.3-4.3,4.8l-0.1,4.9c0,2.5,1.8,4.5,4.2,4.8l3.6,0.5c0.6,2.2,1.4,4.3,2.5,6.2    l-2.3,2.9c-1.5,1.9-1.4,4.7,0.3,6.4l3.4,3.5c1.7,1.8,4.5,2,6.4,0.4l2.9-2.2c2,1.2,4.2,2.1,6.4,2.8l0.4,3.7    c0.3,2.4,2.3,4.3,4.8,4.3l4.9,0.1c2.5,0,4.5-1.8,4.8-4.2l0.4-3.5c2.4-0.6,4.8-1.5,7-2.7l2.7,2.2c1.9,1.5,4.7,1.4,6.4-0.3l3.5-3.4    c1.8-1.7,2-4.5,0.4-6.4l-2.1-2.7c1.3-2.1,2.3-4.4,2.9-6.8l3.2-0.3c2.4-0.3,4.3-2.3,4.3-4.8l0.1-4.9c0-2.5-1.8-4.5-4.2-4.8    l-3.1-0.4c-0.6-2.4-1.5-4.6-2.6-6.8l2-2.4c1.5-1.9,1.4-4.7-0.3-6.4l-3.4-3.5c-1.7-1.8-4.5-2-6.4-0.4l-2.3,1.8    c-2.2-1.3-4.6-2.4-7-3.1l-0.3-3c-0.3-2.4-2.3-4.3-4.8-4.3l-4.9-0.1c-2.5,0-4.5,1.8-4.8,4.2l-0.4,3c-2.5,0.7-5,1.7-7.3,3l-2.4-2    c-1.9-1.5-4.7-1.4-6.4,0.3l-3.5,3.4c-1.8,1.7-2,4.5-0.4,6.4l2.1,2.7c-1.2,2.1-2.1,4.4-2.8,6.8L57.2,153.5z M88.8,147.9    c7,0.1,12.6,5.9,12.6,12.9s-5.9,12.6-12.9,12.6s-12.6-5.9-12.6-12.9S81.8,147.9,88.8,147.9z"/>
	</g>
</g>
<g id="Cloud_Data_Distribution_Symbol">
</g>
<g id="Electrocardiogram_Inside_Heart">
</g>
<g id="Computer_Analytics">
</g>
<g id="Analytics_Graphic_On_Screen">
</g>
<g id="Runner_Moving_Fast">
</g>
<g id="Looking_For_A_Footprint">
</g>
<g id="Man_Sitting_Searching_Online_Job_With_A_Laptop">
</g>
<g id="Data_Management_Interface_Symbol_With_Gears_And_Binary_Code_Numbers">
</g>
</svg>