<?xml version="1.0" encoding="UTF-8"?>
<!-- Generator: Adobe Illustrator 18.1.1, SVG Export Plug-In . SVG Version: 6.00 Build 0)  -->
<svg version="1.1" id="resources_x5F_rfptools" xmlns="http://www.w3.org/2000/svg" xmlns:xlink="http://www.w3.org/1999/xlink" x="0px" y="0px" width="140px" height="140px" viewBox="0 0 140 140" enable-background="new 0 0 140 140" xml:space="preserve">
<g>
	<circle fill="#002C76" cx="70" cy="69.8" r="70"/>
	<g>
		<path fill="#FFFFFF" d="M104.5,45.9c0-5.4-3.1-10.2-7.6-12.5v15.8H83.7V33.3c-4.5,2.4-7.6,7.1-7.6,12.5c0,5.7,3.4,10.7,8.3,12.9    l-2.8,40.8c0,4.8,3.9,8.7,8.7,8.7s8.7-3.9,8.7-8.7c0,0,0,0,0-0.1l-2.8-40.7C101.1,56.5,104.5,51.6,104.5,45.9z M90.3,104.4    c-2.7,0-4.9-2.2-4.9-4.9c0-2.7,2.2-4.9,4.9-4.9c2.7,0,4.9,2.2,4.9,4.9C95.2,102.2,93,104.4,90.3,104.4z"/>
		<path fill="#FFFFFF" d="M62,36c-1,0-2.4,0-4.5,0v-2.2h-8.7v2.5c-16.4,2.2-17.2,17-17.2,17c-0.5,2.7,1.2,4.8,3.8,2.3    C36.7,52,42.3,47,48.5,47c0.1,0,0.2,0,0.3,0v22.8h-0.2c-2.4,0-4.4,2-4.4,4.4V103c0,2.4,2,4.4,4.4,4.4h9.1c2.4,0,4.4-2,4.4-4.4    V74.3c0-2.4-2-4.4-4.4-4.4h-0.2V47c1.7,0,3.3,0,4.5,0v2h10.5V33.8H62V36L62,36z"/>
	</g>
</g>
</svg>