<?xml version="1.0" encoding="UTF-8"?>
<svg width="793.7007874015749" height="1122.5196850393702" xmlns="http://www.w3.org/2000/svg">

 <g>
  <title>Layer 1</title>
  <g id="layer1">
   <path fill="#a00808" fill-rule="evenodd" stroke-width="3.805844" stroke-linecap="round" stroke-linejoin="round" stroke-miterlimit="4" stroke-dasharray="7.6116890 7.6116890 " stroke-dashoffset="0" stroke-opacity="0.841176" marker-start="none" marker-mid="none" marker-end="none" id="path8" d="m181.553513,667.3125c-51.863617,0 -93.959763,-42.096863 -93.959763,-93.959778c0,-25.831116 10.484558,-49.189331 27.377861,-66.170868l0.079544,0.079529c3.415131,-4.714813 8.931137,-7.80899 15.193718,-7.80896c10.372574,0 18.799911,8.414001 18.799911,18.786652c0,6.360474 -3.180725,11.965637 -8.021118,15.366028l0.066284,0.066345c-10.150742,10.223145 -16.506256,24.18158 -16.506256,39.681274c0,31.268188 25.502304,56.651672 56.916779,56.651672c31.414474,0 56.903519,-25.383484 56.903519,-56.651672c0,-14.145813 -5.320343,-26.974182 -13.960709,-36.88385c-5.139755,-3.354431 -8.564697,-9.132935 -8.564697,-15.72406c0,-10.372589 8.427338,-18.799896 18.799896,-18.799896c5.070953,0 9.651154,2.047729 13.032654,5.316467l0.265167,-0.265137c16.992416,16.994354 27.523697,40.439789 27.523697,66.356476c0,51.862915 -42.082886,93.959778 -93.946487,93.959778zm-0.01326,-93.31012c-10.410187,0 -18.786652,-8.528564 -18.786652,-19.131348l0,-75.796234c0,-10.602783 8.376465,-19.131348 18.786652,-19.131348c10.410172,0 18.799896,8.528534 18.799896,19.131348l0,75.796234c0,10.602783 -8.38974,19.131348 -18.799896,19.131348z"/>
  </g>
 </g>
</svg>