<?xml version="1.0" encoding="UTF-8" standalone="no"?>
<svg width="1024px" height="1024px" viewBox="0 0 1024 1024" version="1.1" xmlns="http://www.w3.org/2000/svg" xmlns:xlink="http://www.w3.org/1999/xlink">
    <defs/>
    <g stroke="none" stroke-width="1" fill="none" fill-rule="evenodd">
        <g>
            <rect fill="#E20000" x="0" y="0" width="1024" height="1024"/>
            <path d="M423.705672,250.732529 C309.150686,288.108746 225.883665,394.916442 225.883515,521.861295 C225.883815,679.847745 354.256468,808.000499 512.514194,808.000649 C670.77192,808.000199 799.144723,679.847745 799.144874,521.861295 C799.144573,394.902933 715.475931,288.085029 600.85283,250.732529 L600.85283,352.992167 C662.00993,385.050582 704.697715,448.168158 704.697715,521.861295 C704.697866,627.629958 618.464622,713.715387 512.514194,713.715387 C406.563767,713.715537 320.330673,627.630108 320.330673,521.861295 C320.330372,448.210488 362.563157,385.06079 423.705672,352.992167 L423.705672,250.732529 L423.705672,250.732529 Z" fill="#FFFFFF"/>
            <path d="M464.115899,166.623498 L464.115899,556.448284 L560.912489,556.448284 L560.912489,166.623498 L464.115899,166.623498 L464.115899,166.623498 Z" fill="#FFFFFF"/>
        </g>
    </g>
</svg>