<?xml version="1.0" encoding="windows-1252"?>
<!-- Generator: Adobe Illustrator 16.0.0, SVG Export Plug-In . SVG Version: 6.00 Build 0)  -->
<!DOCTYPE svg PUBLIC "-//W3C//DTD SVG 1.1//EN" "http://www.w3.org/Graphics/SVG/1.1/DTD/svg11.dtd">
<svg version="1.1" id="Capa_1" xmlns="http://www.w3.org/2000/svg" xmlns:xlink="http://www.w3.org/1999/xlink" x="0px" y="0px" width="477.909px" height="477.909px" viewBox="0 0 477.909 477.909" style="enable-background:new 0 0 477.909 477.909;" xml:space="preserve">
<g>
	<g>
		<path d="M124.256,348.874h248.513V157.71H124.256V348.874z M356.042,265.1c-10.212,4.317-20.441,8.556-30.714,12.761    c-1.181-3.851-3.169-7.365-4.448-11.164c10.286-4.047,20.349-8.662,30.7-12.508C353.209,257.764,354.698,261.408,356.042,265.1z     M324.609,218.73c3.141,2.098,6.31,5.252,8.424,8.387c-7.687,7.819-15.495,15.524-23.219,23.291    c-2.692-2.959-5.582-5.713-8.462-8.48C309.091,234.186,316.801,226.41,324.609,218.73z M286.661,195.743    c3.706,1.281,7.318,2.854,10.912,4.406c-3.93,10.333-8.462,20.437-12.536,30.721c-3.743-1.386-7.327-3.201-11.136-4.459    C278.073,216.163,282.293,205.921,286.661,195.743z M242.534,189.444c3.977-0.537,8.022-0.483,11.999-0.021    c0.037,11.047,0.019,22.075,0,33.12c-4.028-0.2-8.056-0.224-12.069,0.11C242.642,211.576,242.474,200.503,242.534,189.444z     M248.027,298.208c1.04,0,2.044,0.121,3.015,0.327l34.975-22.542l-23.662,36.721c-0.098,7.845-6.463,14.169-14.327,14.169    c-7.916,0-14.335-6.413-14.335-14.337C233.692,304.63,240.116,298.208,248.027,298.208z M210.403,195.691    c4.382,10.202,8.608,20.486,12.781,30.77c-3.862,1.125-7.399,3.068-11.166,4.422c-4.042-10.289-8.597-20.379-12.515-30.716    C203.106,198.61,206.714,197.057,210.403,195.691z M172.425,218.525c7.622,8.018,15.814,15.493,23.293,23.623    c-3.113,2.474-5.703,5.488-8.527,8.279c-7.646-7.841-15.474-15.485-23.153-23.275    C166.083,223.853,169.415,221.101,172.425,218.525z M145.494,254.188c10.352,3.836,20.393,8.461,30.667,12.508    c-1.242,3.799-3.302,7.299-4.396,11.173c-10.256-4.252-20.54-8.462-30.782-12.76C142.374,261.423,143.912,257.791,145.494,254.188    z"/>
		<circle cx="300.126" cy="135.726" r="11.469"/>
		<path d="M331.671,147.195c6.318,0,11.462-5.141,11.462-11.469c0-6.326-5.144-11.469-11.462-11.469    c-6.324,0-11.473,5.143-11.473,11.469C320.198,142.055,325.347,147.195,331.671,147.195z"/>
		<circle cx="363.211" cy="135.726" r="11.469"/>
		<path d="M238.954,0C106.985,0,0,106.984,0,238.955c0,131.971,106.985,238.954,238.954,238.954    c131.967,0,238.955-106.983,238.955-238.954C477.909,106.984,370.921,0,238.954,0z M391.885,350.778    c0,9.512-7.7,17.212-17.202,17.212H122.345c-9.502,0-17.205-7.7-17.205-17.212v-218.87c0-9.507,7.703-17.21,17.205-17.21h252.338    c9.502,0,17.202,7.703,17.202,17.21V350.778z"/>
	</g>
</g>
<g>
</g>
<g>
</g>
<g>
</g>
<g>
</g>
<g>
</g>
<g>
</g>
<g>
</g>
<g>
</g>
<g>
</g>
<g>
</g>
<g>
</g>
<g>
</g>
<g>
</g>
<g>
</g>
<g>
</g>
</svg>