<?xml version="1.0" encoding="UTF-8"?>
<!-- Generator: Adobe Illustrator 18.1.1, SVG Export Plug-In . SVG Version: 6.00 Build 0)  -->
<!DOCTYPE svg PUBLIC "-//W3C//DTD SVG 1.1//EN" "http://www.w3.org/Graphics/SVG/1.1/DTD/svg11.dtd">
<svg version="1.1" id="Calque_1" xmlns="http://www.w3.org/2000/svg" xmlns:xlink="http://www.w3.org/1999/xlink" x="0px" y="0px" width="80px" height="80px" viewBox="17 -18 80 80" enable-background="new 17 -18 80 80" xml:space="preserve">
<g>
	<path d="M57-2.8c-13.8,0-25,11.2-25,25s11.2,25,25,25s25-11.2,25-25S70.8-2.8,57-2.8z M57,45.3c-12.7,0-23-10.3-23-23   c0-12.7,10.3-23,23-23c12.7,0,23,10.3,23,23C80,34.9,69.7,45.3,57,45.3z"/>
	<path d="M57.7,18.1C57.5,18,57.3,18,57,18c-2.3,0-4.2,1.9-4.2,4.2s1.9,4.2,4.2,4.2s4.2-1.9,4.2-4.2c0-0.3,0-0.5-0.1-0.7   c3.5-4.6,10-13.4,10-13.4S62.4,14.6,57.7,18.1z"/>
</g>
</svg>