<!DOCTYPE svg PUBLIC "-//W3C//DTD SVG 1.1//EN" "http://www.w3.org/Graphics/SVG/1.1/DTD/svg11.dtd" [
	<!ENTITY ns_flows "http://ns.adobe.com/Flows/1.0/">
]>
<svg xmlns="http://www.w3.org/2000/svg" width="512" height="512" viewBox="-10.4 -23.1 512 512" enable-background="new -10.4 -23.1 512 512"><circle fill-rule="evenodd" clip-rule="evenodd" fill="#E8F5FC" stroke="#E9F5FC" stroke-width=".903" stroke-miterlimit="10" cx="245.6" cy="232.9" r="189"/><path fill-rule="evenodd" clip-rule="evenodd" fill="#0079C0" d="M245.6 24.8C130.7 24.8 37.5 118 37.5 232.9c0 114.9 93.2 208.1 208.1 208.1 114.9 0 208.1-93.2 208.1-208.1 0-114.9-93.1-208.1-208.1-208.1zm0 378.9c-94.3 0-170.7-76.4-170.7-170.7 0-94.3 76.4-170.7 170.7-170.7 94.3 0 170.7 76.4 170.7 170.7 0 94.2-76.4 170.7-170.7 170.7zM342.3 200.7s-18.2-77.6-82.1-74c6.1 48 82.1 74 82.1 74z"/><path fill-rule="evenodd" clip-rule="evenodd" fill="#00A9E2" d="M227.5 133c46.5 3 83.2 22.3 109.9 58.1 29.9-3.2 39.8 26.8 53 51.3-2.9 4.7-6.2 13.1-12 15.6-9.5 3.9-20.7.8-29.2 3.9-19.2 6.9-19.8 26.5-38.7 33.1-17.9-20.1-32-49.2-51.3-67.9-11.9-11.5-29.7-20.6-52.1-11.2 38.1-7 54.4 24.9 73.5 52.9 13.8 20.4 17.8 33.3 28.5 50.7 16.4 3.1 26-6.8 31.3 14.8-11.1 1.4-5.6.4-16.4 1.6-10.1 1-22.6 4.4-31.2 2.7-5.8-1.1-4.9-4.8-10.6-9.1-20.4-15.4-42.1-31.1-61.5-45-37.8 5.9-66.4-9.3-73.1-51.4-4.9-1.5-11.7.1-17-.8-3.4-14.4 9.2-21.6 19.2-30.7 14.2-12.9 22.5-25.1 48.2-28.7 19.4-2.8 38.5 8.5 55.2 16.4 10.2 4.9 24.5 12.3 37.2 18.4 3.7 1.7 11.4 6.4 12.4 6.1 2.8-.7 4.4-10.5 7.5-10.2-34.8-11.5-63-34.1-82.8-70.6zM364 234c9.9-.8 7.2-18-3.1-12.6-8.2 4.1-1.9 13 3.1 12.6z"/><path fill-rule="evenodd" clip-rule="evenodd" fill="#0079C0" d="M210.2 319.9c10.5-2.6 23.7.5 31-6.9 5.6 2.4 13.1 7.1 15.4 11.3-14.1 7.8-42.3 17.4-46.4-4.4z"/><path fill-rule="evenodd" clip-rule="evenodd" fill="#00A9E2" d="M174 189l-73.1 8.1 73.1 8.1h26.9V189zM174 254l-73.1 8.1 73.1 8.1h26.9V254zM174 221.5l-89.4 8.1 89.4 8.1h26.9v-16.2z"/><circle fill-rule="evenodd" clip-rule="evenodd" fill="#F6F6F6" stroke="#E9F5FC" stroke-width=".903" stroke-miterlimit="10" cx="245.6" cy="232.9" r="189"/><path fill-rule="evenodd" clip-rule="evenodd" fill="#9C9E9F" d="M245.6 24.8C130.7 24.8 37.5 118 37.5 232.9c0 114.9 93.2 208.1 208.1 208.1 114.9 0 208.1-93.2 208.1-208.1 0-114.9-93.1-208.1-208.1-208.1zm0 378.9c-94.3 0-170.7-76.4-170.7-170.7 0-94.3 76.4-170.7 170.7-170.7 94.3 0 170.7 76.4 170.7 170.7 0 94.2-76.4 170.7-170.7 170.7z"/><path fill-rule="evenodd" clip-rule="evenodd" fill="#87888A" d="M342.3 200.7s-18.2-77.6-82.1-74c6.1 48 82.1 74 82.1 74z"/><path fill-rule="evenodd" clip-rule="evenodd" fill="#B1B3B4" d="M227.5 133c46.5 3 83.2 22.3 109.9 58.1 29.9-3.2 39.8 26.8 53 51.3-2.9 4.7-6.2 13.1-12 15.6-9.5 3.9-20.7.8-29.2 3.9-19.2 6.9-19.8 26.5-38.7 33.1-17.9-20.1-32-49.2-51.3-67.9-11.9-11.5-29.7-20.6-52.1-11.2 38.1-7 54.4 24.9 73.5 52.9 13.8 20.4 17.8 33.3 28.5 50.7 16.4 3.1 26-6.8 31.3 14.8-11.1 1.4-5.6.4-16.4 1.6-10.1 1-22.6 4.4-31.2 2.7-5.8-1.1-4.9-4.8-10.6-9.1-20.4-15.4-42.1-31.1-61.5-45-37.8 5.9-66.4-9.3-73.1-51.4-4.9-1.5-11.7.1-17-.8-3.4-14.4 9.2-21.6 19.2-30.7 14.2-12.9 22.5-25.1 48.2-28.7 19.4-2.8 38.5 8.5 55.2 16.4 10.2 4.9 24.5 12.3 37.2 18.4 3.7 1.7 11.4 6.4 12.4 6.1 2.8-.7 4.4-10.5 7.5-10.2-34.8-11.5-63-34.1-82.8-70.6zM364 234c9.9-.8 7.2-18-3.1-12.6-8.2 4.1-1.9 13 3.1 12.6z"/><path fill-rule="evenodd" clip-rule="evenodd" fill="#87888A" d="M210.2 319.9c10.5-2.6 23.7.5 31-6.9 5.6 2.4 13.1 7.1 15.4 11.3-14.1 7.8-42.3 17.4-46.4-4.4z"/><path fill-rule="evenodd" clip-rule="evenodd" fill="#B1B3B4" d="M174 189l-73.1 8.1 73.1 8.1h26.9V189zM174 254l-73.1 8.1 73.1 8.1h26.9V254zM174 221.5l-89.4 8.1 89.4 8.1h26.9v-16.2z"/></svg>