<svg version="1.1" id="Layer_1" xmlns="http://www.w3.org/2000/svg" xmlns:xlink="http://www.w3.org/1999/xlink" x="0px" y="0px" width="300px" height="300px" viewBox="0 0 300 300" enable-background="new 0 0 300 300" xml:space="preserve">
<g>
	<g>
		<linearGradient id="SVGID_1_" gradientUnits="userSpaceOnUse" x1="150.0005" y1="299" x2="150.0005" y2="1.0005">
			<stop offset="0" style="stop-color:#000000"/>
			<stop offset="1" style="stop-color:#4D4D4D"/>
		</linearGradient>
		<path fill="url(#SVGID_1_)" d="M1,150C1,67.705,67.705,1,150,1c82.294,0,149,66.705,149,149c0,82.296-66.705,149-149,149    C67.705,299,1,232.296,1,150z"/>
		<path fill="#1A1A1A" d="M150,23.082c-70.1,0-126.919,56.819-126.919,126.918c0,70.1,56.819,126.918,126.919,126.918    c70.1,0,126.918-56.818,126.918-126.918C276.919,79.901,220.101,23.082,150,23.082z M150,275.263    c-69.183,0-125.273-56.07-125.273-125.263c0-69.181,56.09-125.273,125.273-125.273c69.192,0,125.262,56.092,125.262,125.273    C275.263,219.192,219.192,275.263,150,275.263z"/>
	</g>
	<g>
		<g>
			<g>
				<path fill="#FAFAFA" d="M24.175,150C24.175,80.506,80.506,24.174,150,24.174c69.494,0,125.813,56.332,125.813,125.826      c0,69.495-56.319,125.814-125.813,125.814C80.506,275.814,24.175,219.495,24.175,150z"/>
			</g>
			<path fill="#CCCCCC" d="M154.893,175.978c12.759-1.066,22.21-12.294,21.122-25.052c-0.227-2.87-0.999-5.583-2.177-8.042     l77.396-55.479c1.106-0.764,1.379-2.285,0.604-3.381c-0.775-1.106-2.284-1.378-3.39-0.614l-78.89,53.343     c-4.672-4.812-11.385-7.569-18.586-6.959c-12.758,1.088-22.221,12.304-21.143,25.063     C130.917,167.594,142.134,177.066,154.893,175.978z"/>
		</g>
		<g>
			<linearGradient id="SVGID_2_" gradientUnits="userSpaceOnUse" x1="32.7817" y1="128.2988" x2="250.5059" y2="128.2988">
				<stop offset="0" style="stop-color:#8CC63F"/>
				<stop offset="0.5394" style="stop-color:#F7931E"/>
				<stop offset="1" style="stop-color:#ED1C24"/>
			</linearGradient>
			<path fill="url(#SVGID_2_)" d="M58.946,223.815C42.062,202.992,32.782,176.857,32.782,150C32.782,85.37,85.37,32.782,150,32.782     c20.941,0,41.499,5.595,59.422,16.172c16.849,9.927,31.024,23.973,41.083,40.716l-24.483,14.146     c-18.875-28.341-50.254-45.202-84.36-45.202c-55.868,0-101.327,45.448-101.327,101.316c0,22.652,7.272,43.979,21.054,61.837     L58.946,223.815z"/>
			<g>
				<linearGradient id="SVGID_3_" gradientUnits="userSpaceOnUse" x1="30.8022" y1="128.7065" x2="253.249" y2="128.7065">
					<stop offset="0" style="stop-color:#7CB62F"/>
					<stop offset="0.5394" style="stop-color:#E7830E"/>
					<stop offset="1" style="stop-color:#DD0C14"/>
				</linearGradient>
				<path fill="url(#SVGID_3_)" d="M32.782,150C32.782,85.37,85.37,32.782,150,32.782c20.941,0,41.499,5.595,59.422,16.172      c16.849,9.927,31.024,23.973,41.083,40.716l2.743,0.718C232.634,54.774,194.125,30.803,150,30.803      C84.172,30.803,30.802,84.172,30.802,150c0,29.171,10.487,55.896,27.885,76.61l0.258-2.795      C42.062,202.992,32.782,176.857,32.782,150z"/>
				<polygon fill="#7BAD38" points="58.946,223.815 58.688,226.61 64.143,222.053 61.389,221.768     "/>
				<linearGradient id="SVGID_4_" gradientUnits="userSpaceOnUse" x1="40.3354" y1="140.3335" x2="226.0225" y2="140.3335">
					<stop offset="0" style="stop-color:#75AF28"/>
					<stop offset="0.5394" style="stop-color:#E07C07"/>
					<stop offset="1" style="stop-color:#D6050D"/>
				</linearGradient>
				<path fill="url(#SVGID_4_)" d="M141.663,58.614c-55.868,0-101.327,45.448-101.327,101.316c0,22.652,7.272,43.979,21.054,61.837      l2.753,0.285c-13.649-17.021-21.817-38.612-21.817-62.122c0-54.86,44.477-99.326,99.337-99.326      c35.169,0,66.071,18.279,83.727,45.869l0.633-2.657C207.147,75.476,175.769,58.614,141.663,58.614z"/>
				<polygon fill="#CF191F" points="250.506,89.67 226.022,103.816 225.39,106.474 253.249,90.388     "/>
			</g>
		</g>
		<g>
			<g>
				<path fill="#333333" d="M152.316,153.315l95.991-68.802c1.106-0.765,1.37-2.286,0.604-3.381      c-0.774-1.106-2.284-1.378-3.392-0.604l-97.835,66.146c-1.839,1.281-2.291,3.801-1.01,5.642      C147.955,154.146,150.476,154.606,152.316,153.315z"/>
				<path fill="#1A1A1A" d="M152.316,153.315l95.991-68.802c1.106-0.765,1.37-2.286,0.604-3.381      c-5.676,3.948-97.446,67.89-102.237,71.183C147.955,154.146,150.476,154.606,152.316,153.315z"/>
			</g>
			<g>
				<path fill="#303030" d="M173.087,148.045c1.089,12.748-8.363,23.975-21.132,25.042c-12.749,1.088-23.964-8.363-25.053-21.121      c-1.078-12.76,8.385-23.975,21.143-25.064C160.794,125.824,172.02,135.287,173.087,148.045z"/>
				<g>
					<g>
						<path fill="#454545" d="M148.257,129.46c11.094-0.947,20.896,7.318,21.833,18.412c0.936,11.104-7.318,20.884-18.422,21.843        c-11.095,0.937-20.886-7.317-21.833-18.433C128.898,140.198,137.163,130.396,148.257,129.46z M151.614,169.04        c10.727-0.908,18.729-10.369,17.821-21.106c-0.908-10.736-10.391-18.728-21.127-17.82        c-10.725,0.918-18.716,10.391-17.809,21.116C131.408,161.966,140.879,169.969,151.614,169.04z"/>
					</g>
					<g>
						<path fill="#1A1A1A" d="M148.289,129.878c11.096-0.947,20.896,7.317,21.833,18.412s-7.317,20.896-18.412,21.833        c-11.104,0.937-20.895-7.318-21.832-18.412C128.931,140.605,137.195,130.814,148.289,129.878z M151.647,169.468        c10.747-0.908,18.729-10.391,17.82-21.116c-0.908-10.736-10.391-18.728-21.116-17.82        c-10.736,0.907-18.728,10.391-17.819,21.127C131.44,162.395,140.922,170.376,151.647,169.468z"/>
					</g>
				</g>
			</g>
		</g>
		<g>
			<g>
				<path fill="#333333" d="M127.582,185.16h18.783l0.135,0.149l-1.287,7.287l-0.187,0.171h-10.695l-1.442,8.176h8.754l0.124,0.172      l-1.457,8.251l-0.187,0.171h-8.745l-2.729,15.462l-0.188,0.151h-7.939l-0.125-0.151l6.995-39.689L127.582,185.16z"/>
				<path fill="#333333" d="M156.367,185.217h11.089c2.138,0,3.697,1.185,4.637,3.557c0.224,0.902,0.244,1.863,0.063,2.84      l-5.891,33.443l-0.198,0.149h-7.764l-0.14-0.149l2.561-14.499h-6.56l-2.559,14.499l-0.188,0.149h-7.693l-0.134-0.149      l6.007-34.086c0.398-2.247,2.036-4.051,4.928-5.433C155.344,185.317,155.954,185.217,156.367,185.217z M157.189,193.393      l-1.518,8.593h6.561l1.509-8.593H157.189z"/>
				<path fill="#333333" d="M183.142,185.18h10.598c2.406,0,3.982,1.406,4.777,4.2c0.077,0.752,0.041,1.591-0.133,2.518      l-1.016,5.829l-0.198,0.171h-7.779l-0.124-0.171l0.779-4.372h-6.076l-1.156,6.568c0.057,0.101,3.673,1.582,10.866,4.447      c1.48,1.086,2.056,2.567,1.726,4.446l-1.689,9.558c-0.587,3.325-2.496,5.515-5.771,6.529c-0.744,0.172-1.793,0.247-3.104,0.247      h-6.89c-3.002,0-4.867-0.669-5.551-2.025c-0.928-1.149-1.269-2.404-1.044-3.786l1.158-6.547l0.197-0.172h7.684l0.145,0.172      l-0.752,4.2h6.075l1.091-6.15c0.018-0.101-3.577-1.557-10.804-4.372c-1.462-1.197-2.073-2.458-1.833-3.805l2.067-11.733      c0.388-2.245,2.036-4.05,4.927-5.432C182.112,185.279,182.724,185.18,183.142,185.18z"/>
				<path fill="#333333" d="M203.834,185.18h22.749l0.145,0.149l-1.298,7.286l-0.176,0.172h-7.136l-5.668,32.212l-0.197,0.151      h-8.424l-0.132-0.151l5.677-32.212h-6.89l-0.123-0.172l1.275-7.286L203.834,185.18z"/>
			</g>
			<g>
				<path fill="#333333" d="M118.808,234.436h7.669c0.99,0,1.703,0.549,2.138,1.647c0.103,0.406,0.113,0.852,0.028,1.294      l-2.201,12.487c-0.241,1.351-1.058,2.289-2.475,2.838c-0.365,0.093-0.899,0.138-1.592,0.138h-6.821l-0.058-0.068l3.219-18.268      L118.808,234.436z M121.792,238.2l-1.917,10.876h2.976l1.927-10.876H121.792z"/>
				<path fill="#333333" d="M133.696,234.443h5.105c0.99,0,1.702,0.549,2.138,1.647c0.093,0.407,0.102,0.853,0.028,1.294      l-2.2,12.488c-0.241,1.351-1.066,2.286-2.473,2.829c-0.376,0.093-0.9,0.138-1.593,0.138h-3.388      c-1.391,0-2.244-0.309-2.561-0.927c-0.43-0.526-0.587-1.107-0.473-1.742l2.309-13.083c0.179-1.02,0.932-1.854,2.26-2.485      C133.229,234.489,133.513,234.443,133.696,234.443z M134.114,238.209l-1.917,10.897h2.977l1.917-10.897H134.114z"/>
				<path fill="#333333" d="M147.178,234.436c0.075,0-0.002,0.893-0.252,2.678c-0.225,2.238-0.546,5.133-0.975,8.688l-0.006,0.035      h0.034c1.518-3.063,2.466-4.962,2.866-5.655h1.384c0.057,0,0.335,1.878,0.82,5.655h0.037c1.816-7.601,2.743-11.4,2.797-11.4      h3.797l-0.006,0.033c-2.93,11.578-4.506,17.702-4.729,18.371h-3.239c-0.081,0-0.222-0.731-0.427-2.221l-0.779-4.451h-0.045      c-1.858,3.85-2.976,6.06-3.338,6.672h-3.422c-0.097,0,0.009-1.281,0.308-3.869l1.36-14.502l0.051-0.033H147.178z"/>
				<path fill="#333333" d="M159.64,234.443h3.331c0.043,0.046,0.438,1.647,1.205,4.784l1.151,4.865h0.035l1.692-9.58l0.082-0.069      h3.641l0.078,0.069l-3.219,18.268l-0.103,0.068h-3.308c-0.075,0-0.322-0.938-0.742-2.816c-0.627-2.488-1.175-4.754-1.623-6.797      h-0.033l-1.688,9.545l-0.084,0.068h-3.659l-0.058-0.068l3.219-18.268L159.64,234.443z"/>
				<path fill="#333333" d="M172.813,234.443h3.767l0.078,0.069l-2.585,14.662h4.36l0.057,0.068l-0.62,3.528l-0.103,0.068h-8.195      l-0.057-0.068l3.217-18.259L172.813,234.443z"/>
				<path fill="#333333" d="M185.618,234.443h5.116c0.979,0,1.703,0.549,2.126,1.647c0.115,0.407,0.125,0.853,0.029,1.294      l-2.189,12.488c-0.24,1.351-1.069,2.286-2.483,2.829c-0.366,0.093-0.901,0.138-1.582,0.138h-3.399      c-1.392,0-2.223-0.309-2.561-0.927c-0.42-0.526-0.588-1.107-0.462-1.742l2.308-13.083c0.168-1.02,0.933-1.854,2.271-2.485      C185.163,234.489,185.446,234.443,185.618,234.443z M186.048,238.209l-1.928,10.897h2.997l1.907-10.897H186.048z"/>
				<path fill="#333333" d="M197.951,234.461h5.095c1.001,0,1.702,0.549,2.147,1.647c0.093,0.406,0.102,0.853,0.029,1.295      l-2.729,15.394l-0.081,0.091h-3.571l-0.057-0.091l1.175-6.673h-3.032l-1.176,6.673l-0.081,0.091h-3.536l-0.057-0.091      l2.755-15.691c0.189-1.02,0.932-1.854,2.271-2.485C197.475,234.507,197.758,234.461,197.951,234.461z M198.324,238.227      l-0.688,3.96h3.012l0.688-3.96H198.324z"/>
				<path fill="#333333" d="M207.694,234.436h7.69c0.98,0,1.682,0.549,2.127,1.647c0.094,0.406,0.104,0.852,0.028,1.294      l-2.188,12.487c-0.241,1.351-1.068,2.289-2.485,2.838c-0.365,0.093-0.9,0.138-1.582,0.138h-6.832l-0.058-0.068l3.219-18.268      L207.694,234.436z M210.699,238.2l-1.927,10.876h2.976l1.928-10.876H210.699z"/>
			</g>
		</g>
	</g>
</g>
</svg>