<?xml version="1.0" encoding="UTF-8" standalone="no"?>
<svg width="1026px" height="1026px" viewBox="0 0 1026 1026" version="1.1" xmlns="http://www.w3.org/2000/svg" xmlns:xlink="http://www.w3.org/1999/xlink" xmlns:sketch="http://www.bohemiancoding.com/sketch/ns">
    <!-- Generator: Sketch 3.1 (8751) - http://www.bohemiancoding.com/sketch -->
    <title>Group</title>
    <desc>Created with Sketch.</desc>
    <defs/>
    <g id="Page-1" stroke="none" stroke-width="1" fill="none" fill-rule="evenodd" sketch:type="MSPage">
        <g id="Group" sketch:type="MSLayerGroup" transform="translate(1.000000, 1.000000)">
            <path d="M315.736,0 C204.473,0 133.934,0.431 67.259,67.101 C0.422,133.937 0,204.814 0,315.736 L0,708.273 C0,819.541 0.437,890.086 67.101,956.75 C133.972,1023.62 204.819,1024.008 315.736,1024.008 L708.273,1024.008 C819.541,1024.008 890.065,1023.592 956.75,956.907 C1023.574,890.082 1024.008,819.189 1024.008,708.272 L1024.008,315.736 C1024.008,204.472 1023.58,133.931 956.907,67.259 C890.042,0.392 819.19,0 708.273,0 L315.736,0 Z" id="1024---iTunesArtwork@2x" stroke="#000000" fill="#FFFFFF" sketch:type="MSShapeGroup"/>
            <path d="M512,957 C757.766714,957 957,757.766714 957,512 C957,266.233286 757.766714,67 512,67 C266.233286,67 67,266.233286 67,512 C67,757.766714 266.233286,957 512,957 Z" id="Oval-2" fill="#E47120" sketch:type="MSShapeGroup"/>
            <path d="M512,898 C724.629629,898 897,725.405771 897,512.5 C897,299.594229 724.629629,127 512,127 C299.370371,127 127,299.594229 127,512.5 C127,725.405771 299.370371,898 512,898 Z" id="Oval-2" stroke="#FFFFFF" stroke-width="30" sketch:type="MSShapeGroup"/>
            <path d="M484.870251,160.021906 L457.046875,187.845282 L443.546875,174.345282 L425.046875,192.845282 L408.546875,176.345282 L374.046875,210.845282 L362.546875,199.345282 L323.046875,238.845282 L307.046875,222.845282 L307.046875,222.845282 L272.046875,257.845282 L221.135187,206.933594 L272.046875,156.021906 L288.046875,172.021906 L323.046875,137.021906 L334.546875,148.521906 L334.546875,148.521906 L374.046875,109.021906 L390.546875,125.521906 L425.046875,91.0219055 L438.546875,104.521906 L438.546875,104.521906 L457.046875,86.0219055 L462.046875,91.0219055 L464,91.0219055 L464,91 L511,91 L511,160 L508.135187,160 L508.135187,160.021906 L484.870251,160.021906 Z" id="Rectangle-1" fill="#E47120" sketch:type="MSShapeGroup"/>
            <g id="Oval-11-+-Oval-10" transform="translate(442.552092, 443.162223) rotate(-45.000000) translate(-442.552092, -443.162223) translate(364.052092, 267.162223)" stroke="#FFFFFF" stroke-width="25" sketch:type="MSShapeGroup">
                <path d="M78.5,352 C121.854353,352 157,316.854353 157,273.5 C157,230.145647 78.5,0.278945923 78.5,0.278945923 C78.5,0.278945923 -1.13686838e-13,230.145647 -1.13686838e-13,273.5 C-1.13686838e-13,316.854353 35.1456471,352 78.5,352 Z" id="Oval-11" fill="#FFFFFF"/>
                <circle id="Oval-10" fill="#E47120" cx="78.5" cy="273.5" r="78.5"/>
            </g>
            <rect id="Rectangle-8" fill="#FFFFFF" sketch:type="MSShapeGroup" x="511" y="129" width="30" height="60"/>
        </g>
    </g>
</svg>