<?xml version="1.0" encoding="UTF-8"?>
<!-- Generator: Adobe Illustrator 16.0.0, SVG Export Plug-In . SVG Version: 6.00 Build 0)  -->
<!DOCTYPE svg PUBLIC "-//W3C//DTD SVG 1.1//EN" "http://www.w3.org/Graphics/SVG/1.1/DTD/svg11.dtd">
<svg version="1.1" id="Layer_1" xmlns="http://www.w3.org/2000/svg" xmlns:xlink="http://www.w3.org/1999/xlink" x="0px" y="0px" width="182px" height="134px" viewBox="-53.515 -25.516 182 134" enable-background="new -53.515 -25.516 182 134" xml:space="preserve">
<g>
	
		<linearGradient id="SVGID_1_" gradientUnits="userSpaceOnUse" x1="7.614" y1="64.5737" x2="20.3362" y2="64.5737" gradientTransform="matrix(1 -4.000000e-04 4.000000e-04 1 -4.4501 0.3746)">
		<stop offset="0" style="stop-color:#3C5BA6"/>
		<stop offset="0.1401" style="stop-color:#3867B0"/>
		<stop offset="0.397" style="stop-color:#2F89C9"/>
		<stop offset="0.4666" style="stop-color:#2C93D1"/>
		<stop offset="1" style="stop-color:#2AB5B1"/>
	</linearGradient>
	<path fill="url(#SVGID_1_)" d="M15.908,65.324l-5.154-1.709L9.16,58.582c0,0-6.717,1.102-5.904,12.656   C14.814,72.042,15.908,65.324,15.908,65.324z"/>
	
		<linearGradient id="SVGID_2_" gradientUnits="userSpaceOnUse" x1="-2951.9167" y1="4506.6685" x2="-2932.1472" y2="4506.6685" gradientTransform="matrix(0.7071 0.7071 -0.7071 0.7071 5330.9561 -1101.4275)">
		<stop offset="0" style="stop-color:#3C5BA6"/>
		<stop offset="0.1401" style="stop-color:#3867B0"/>
		<stop offset="0.397" style="stop-color:#2F89C9"/>
		<stop offset="0.4666" style="stop-color:#2C93D1"/>
		<stop offset="1" style="stop-color:#2AB5B1"/>
	</linearGradient>
	<path fill="url(#SVGID_2_)" d="M75.317,7.569c0.062-0.646,0.123-1.295,0.174-1.955c0.004-0.047,0.006-0.088,0.01-0.137   c-7.619,3.578-16.492,2.543-23.059-2.324c-0.311,0.092-0.633,0.176-0.938,0.27C57.959,9.151,67.221,10.825,75.317,7.569z"/>
	
		<linearGradient id="SVGID_3_" gradientUnits="userSpaceOnUse" x1="-2953.4792" y1="4510.6597" x2="-2928.5984" y2="4510.6597" gradientTransform="matrix(0.7071 0.7071 -0.7071 0.7071 5330.9561 -1101.4275)">
		<stop offset="0" style="stop-color:#3C5BA6"/>
		<stop offset="0.1401" style="stop-color:#3867B0"/>
		<stop offset="0.397" style="stop-color:#2F89C9"/>
		<stop offset="0.4666" style="stop-color:#2C93D1"/>
		<stop offset="1" style="stop-color:#2AB5B1"/>
	</linearGradient>
	<path fill="url(#SVGID_3_)" d="M74.559,13.347c0.105-0.641,0.199-1.268,0.287-1.881c-9.262,2.834-19.453,0.109-26.029-7.148   c-0.205,0.072-0.422,0.137-0.625,0.209C54.553,12.515,64.981,15.792,74.559,13.347z"/>
	
		<linearGradient id="SVGID_4_" gradientUnits="userSpaceOnUse" x1="-2954.0867" y1="4512.6196" x2="-2926.9861" y2="4512.6196" gradientTransform="matrix(0.7071 0.7071 -0.7071 0.7071 5330.9561 -1101.4275)">
		<stop offset="0" style="stop-color:#3C5BA6"/>
		<stop offset="0.1401" style="stop-color:#3867B0"/>
		<stop offset="0.397" style="stop-color:#2F89C9"/>
		<stop offset="0.4666" style="stop-color:#2C93D1"/>
		<stop offset="1" style="stop-color:#2AB5B1"/>
	</linearGradient>
	<path fill="url(#SVGID_4_)" d="M74.061,16.124c0.123-0.611,0.236-1.221,0.342-1.816c-9.934,2.379-20.631-1.145-27.105-9.451   c-0.158,0.061-0.314,0.123-0.475,0.18C53.051,14.015,63.871,18.081,74.061,16.124z"/>
	
		<linearGradient id="SVGID_5_" gradientUnits="userSpaceOnUse" x1="-2952.7429" y1="4508.6948" x2="-2930.321" y2="4508.6948" gradientTransform="matrix(0.7071 0.7071 -0.7071 0.7071 5330.9561 -1101.4275)">
		<stop offset="0" style="stop-color:#3C5BA6"/>
		<stop offset="0.1401" style="stop-color:#3867B0"/>
		<stop offset="0.397" style="stop-color:#2F89C9"/>
		<stop offset="0.4666" style="stop-color:#2C93D1"/>
		<stop offset="1" style="stop-color:#2AB5B1"/>
	</linearGradient>
	<path fill="url(#SVGID_5_)" d="M74.983,10.485c0.002-0.025,0.006-0.057,0.012-0.084c0.062-0.465,0.117-0.936,0.172-1.404   c0.016-0.146,0.031-0.285,0.045-0.43c-8.496,3.217-18.088,1.297-24.688-4.816c-0.256,0.084-0.514,0.168-0.77,0.254   C56.203,10.897,66.104,13.37,74.983,10.485z"/>
	
		<linearGradient id="SVGID_6_" gradientUnits="userSpaceOnUse" x1="-2949.4988" y1="4502.4097" x2="-2936.2546" y2="4502.4097" gradientTransform="matrix(0.7071 0.7071 -0.7071 0.7071 5330.9561 -1101.4275)">
		<stop offset="0" style="stop-color:#3C5BA6"/>
		<stop offset="0.1401" style="stop-color:#3867B0"/>
		<stop offset="0.397" style="stop-color:#2F89C9"/>
		<stop offset="0.4666" style="stop-color:#2C93D1"/>
		<stop offset="1" style="stop-color:#2AB5B1"/>
	</linearGradient>
	<path fill="url(#SVGID_6_)" d="M75.719,1.358c0.029-1.064,0.021-1.676,0.021-1.676c-0.197-0.014-0.402-0.016-0.605-0.027   c-5.225,3.307-11.436,3.846-16.9,1.998c-0.682,0.15-1.352,0.311-2.016,0.475C62.242,5.124,69.598,5.05,75.719,1.358z"/>
	
		<linearGradient id="SVGID_7_" gradientUnits="userSpaceOnUse" x1="-2954.655" y1="4514.6206" x2="-2925.489" y2="4514.6206" gradientTransform="matrix(0.7071 0.7071 -0.7071 0.7071 5330.9561 -1101.4275)">
		<stop offset="0" style="stop-color:#3C5BA6"/>
		<stop offset="0.1401" style="stop-color:#3867B0"/>
		<stop offset="0.397" style="stop-color:#2F89C9"/>
		<stop offset="0.4666" style="stop-color:#2C93D1"/>
		<stop offset="1" style="stop-color:#2AB5B1"/>
	</linearGradient>
	<path fill="url(#SVGID_7_)" d="M73.487,18.815c0.137-0.578,0.258-1.15,0.377-1.725c-10.5,1.869-21.58-2.424-27.916-11.721   c-0.139,0.055-0.281,0.105-0.422,0.16c0.133,0.215,0.244,0.436,0.381,0.648C52.059,15.667,62.965,20.239,73.487,18.815z"/>
	
		<linearGradient id="SVGID_8_" gradientUnits="userSpaceOnUse" x1="-2947.3308" y1="4501.521" x2="-2939.1335" y2="4501.521" gradientTransform="matrix(0.7071 0.7071 -0.7071 0.7071 5330.9561 -1101.4275)">
		<stop offset="0" style="stop-color:#3C5BA6"/>
		<stop offset="0.1401" style="stop-color:#3867B0"/>
		<stop offset="0.397" style="stop-color:#2F89C9"/>
		<stop offset="0.4666" style="stop-color:#2C93D1"/>
		<stop offset="1" style="stop-color:#2AB5B1"/>
	</linearGradient>
	<path fill="url(#SVGID_8_)" d="M73.387-0.382c-3.369,0.018-7.074,0.492-10.609,1.154c-0.891,0.145-1.758,0.32-2.625,0.488   C64.502,2.31,69.209,1.829,73.387-0.382z"/>
	
		<linearGradient id="SVGID_9_" gradientUnits="userSpaceOnUse" x1="-2950.8953" y1="4504.604" x2="-2934.1726" y2="4504.604" gradientTransform="matrix(0.7071 0.7071 -0.7071 0.7071 5330.9561 -1101.4275)">
		<stop offset="0" style="stop-color:#3C5BA6"/>
		<stop offset="0.1401" style="stop-color:#3867B0"/>
		<stop offset="0.397" style="stop-color:#2F89C9"/>
		<stop offset="0.4666" style="stop-color:#2C93D1"/>
		<stop offset="1" style="stop-color:#2AB5B1"/>
	</linearGradient>
	<path fill="url(#SVGID_9_)" d="M54.881,2.458c-0.457,0.123-0.902,0.258-1.352,0.385c6.375,4.422,14.844,5.193,22.043,1.605   c0.025-0.324,0.041-0.639,0.059-0.932c0.008-0.184,0.02-0.365,0.027-0.549c0.008-0.189,0.018-0.363,0.025-0.539   C69.067,6.173,61.172,5.983,54.881,2.458z"/>
	
		<linearGradient id="SVGID_10_" gradientUnits="userSpaceOnUse" x1="-2956.032" y1="4520.562" x2="-2921.6882" y2="4520.562" gradientTransform="matrix(0.7071 0.7071 -0.7071 0.7071 5330.9561 -1101.4275)">
		<stop offset="0" style="stop-color:#3C5BA6"/>
		<stop offset="0.1401" style="stop-color:#3867B0"/>
		<stop offset="0.397" style="stop-color:#2F89C9"/>
		<stop offset="0.4666" style="stop-color:#2C93D1"/>
		<stop offset="1" style="stop-color:#2AB5B1"/>
	</linearGradient>
	<path fill="url(#SVGID_10_)" d="M48.561,15.608c-1.557-1.555-2.971-3.295-4.213-5.213c-0.746-1.148-1.396-2.334-1.98-3.537   c-0.068,0.031-0.137,0.062-0.209,0.092c0.709,1.65,1.555,3.256,2.555,4.801c6.051,9.324,16.131,14.496,26.49,14.723   c0.191-0.523,0.379-1.045,0.555-1.568C63.229,25.062,54.781,21.827,48.561,15.608z"/>
	
		<linearGradient id="SVGID_11_" gradientUnits="userSpaceOnUse" x1="-2957.0925" y1="4526.4644" x2="-2918.7419" y2="4526.4644" gradientTransform="matrix(0.7071 0.7071 -0.7071 0.7071 5330.9561 -1101.4275)">
		<stop offset="0" style="stop-color:#3C5BA6"/>
		<stop offset="0.1401" style="stop-color:#3867B0"/>
		<stop offset="0.397" style="stop-color:#2F89C9"/>
		<stop offset="0.4666" style="stop-color:#2C93D1"/>
		<stop offset="1" style="stop-color:#2AB5B1"/>
	</linearGradient>
	<path fill="url(#SVGID_11_)" d="M68.451,33.392c0.211-0.48,0.408-0.928,0.586-1.346c-10.219-1.23-19.84-6.807-25.859-16.092   c-1.594-2.459-2.84-5.055-3.773-7.719c-0.02,0.008-0.039,0.018-0.057,0.025c0.975,3.16,2.359,6.199,4.193,9.023   C49.387,26.296,58.586,31.851,68.451,33.392z"/>
	
		<linearGradient id="SVGID_12_" gradientUnits="userSpaceOnUse" x1="-2956.7722" y1="4524.5093" x2="-2919.6375" y2="4524.5093" gradientTransform="matrix(0.7071 0.7071 -0.7071 0.7071 5330.9561 -1101.4275)">
		<stop offset="0" style="stop-color:#3C5BA6"/>
		<stop offset="0.1401" style="stop-color:#3867B0"/>
		<stop offset="0.397" style="stop-color:#2F89C9"/>
		<stop offset="0.4666" style="stop-color:#2C93D1"/>
		<stop offset="1" style="stop-color:#2AB5B1"/>
	</linearGradient>
	<path fill="url(#SVGID_12_)" d="M69.401,31.177c0.24-0.574,0.43-1.057,0.582-1.447c-10.395-0.793-20.324-6.243-26.422-15.647   c-1.307-2.016-2.35-4.137-3.191-6.312c-0.051,0.023-0.1,0.047-0.152,0.074c0.916,2.629,2.148,5.188,3.723,7.611   C49.86,24.591,59.35,30.041,69.401,31.177z"/>
	
		<linearGradient id="SVGID_13_" gradientUnits="userSpaceOnUse" x1="-2957.4226" y1="4528.3843" x2="-2917.9324" y2="4528.3843" gradientTransform="matrix(0.7071 0.7071 -0.7071 0.7071 5330.9561 -1101.4275)">
		<stop offset="0" style="stop-color:#3C5BA6"/>
		<stop offset="0.1401" style="stop-color:#3867B0"/>
		<stop offset="0.397" style="stop-color:#2F89C9"/>
		<stop offset="0.4666" style="stop-color:#2C93D1"/>
		<stop offset="1" style="stop-color:#2AB5B1"/>
	</linearGradient>
	<path fill="url(#SVGID_13_)" d="M66.905,35.416c0.186,0.041,0.375,0.068,0.562,0.105c0.209-0.438,0.406-0.859,0.594-1.268   c-10.018-1.631-19.338-7.311-25.283-16.473c-1.852-2.857-3.283-5.914-4.281-9.102c-0.021,0.016-0.051,0.027-0.074,0.041   c1.02,3.605,2.578,7.078,4.676,10.311C48.582,27.489,57.039,33.312,66.905,35.416z"/>
	
		<linearGradient id="SVGID_14_" gradientUnits="userSpaceOnUse" x1="-2956.406" y1="4522.5493" x2="-2920.6394" y2="4522.5493" gradientTransform="matrix(0.7071 0.7071 -0.7071 0.7071 5330.9561 -1101.4275)">
		<stop offset="0" style="stop-color:#3C5BA6"/>
		<stop offset="0.1401" style="stop-color:#3867B0"/>
		<stop offset="0.397" style="stop-color:#2F89C9"/>
		<stop offset="0.4666" style="stop-color:#2C93D1"/>
		<stop offset="1" style="stop-color:#2AB5B1"/>
	</linearGradient>
	<path fill="url(#SVGID_14_)" d="M70.315,28.845c0.051-0.141,0.076-0.213,0.076-0.213c0.113-0.309,0.236-0.607,0.348-0.918   c0.045-0.117,0.086-0.232,0.131-0.348c-10.539-0.332-20.762-5.633-26.918-15.121c-1.027-1.582-1.887-3.234-2.613-4.928   c-0.045,0.023-0.096,0.045-0.143,0.066c0.822,2.139,1.842,4.225,3.129,6.207C50.315,22.825,60.098,28.147,70.315,28.845z"/>
	
		<linearGradient id="SVGID_15_" gradientUnits="userSpaceOnUse" x1="-2955.6179" y1="4518.5913" x2="-2922.8289" y2="4518.5913" gradientTransform="matrix(0.7071 0.7071 -0.7071 0.7071 5330.9561 -1101.4275)">
		<stop offset="0" style="stop-color:#3C5BA6"/>
		<stop offset="0.1401" style="stop-color:#3867B0"/>
		<stop offset="0.397" style="stop-color:#2F89C9"/>
		<stop offset="0.4666" style="stop-color:#2C93D1"/>
		<stop offset="1" style="stop-color:#2AB5B1"/>
	</linearGradient>
	<path fill="url(#SVGID_15_)" d="M72.049,24.015c0.172-0.539,0.338-1.078,0.492-1.619c-10.732,0.736-21.549-4.209-27.803-13.842   c-0.461-0.711-0.887-1.438-1.279-2.17c-0.08,0.033-0.164,0.064-0.246,0.098c0.564,1.162,1.178,2.309,1.896,3.42   C51.203,19.308,61.582,24.312,72.049,24.015z"/>
	
		<linearGradient id="SVGID_16_" gradientUnits="userSpaceOnUse" x1="-2955.157" y1="4516.605" x2="-2924.0896" y2="4516.605" gradientTransform="matrix(0.7071 0.7071 -0.7071 0.7071 5330.9561 -1101.4275)">
		<stop offset="0" style="stop-color:#3C5BA6"/>
		<stop offset="0.1401" style="stop-color:#3867B0"/>
		<stop offset="0.397" style="stop-color:#2F89C9"/>
		<stop offset="0.4666" style="stop-color:#2C93D1"/>
		<stop offset="1" style="stop-color:#2AB5B1"/>
	</linearGradient>
	<path fill="url(#SVGID_16_)" d="M72.809,21.472c0.154-0.572,0.301-1.141,0.439-1.705c-10.75,1.312-21.834-3.416-28.105-13.092   c-0.168-0.262-0.309-0.533-0.467-0.797c-0.117,0.049-0.236,0.096-0.354,0.145c0.369,0.688,0.752,1.371,1.182,2.035   C51.635,17.521,62.287,22.315,72.809,21.472z"/>
	<g>
		<defs>
			<path id="SVGID_17_" d="M44.323,39.837c0,4.568-3.703,8.271-8.27,8.268c-4.568,0.004-8.266-3.699-8.266-8.266     c0-4.568,3.697-8.266,8.27-8.266C40.621,31.576,44.323,35.271,44.323,39.837z"/>
		</defs>
		<clipPath id="SVGID_18_">
			<use xlink:href="#SVGID_17_" overflow="visible"/>
		</clipPath>
		<g clip-path="url(#SVGID_18_)">
			<g>
				<linearGradient id="SVGID_19_" gradientUnits="userSpaceOnUse" x1="72.5217" y1="2.2573" x2="75.1799" y2="2.2573">
					<stop offset="0" style="stop-color:#3C5BA6"/>
					<stop offset="0.1401" style="stop-color:#3867B0"/>
					<stop offset="0.397" style="stop-color:#2F89C9"/>
					<stop offset="0.4666" style="stop-color:#2C93D1"/>
					<stop offset="1" style="stop-color:#2AB5B1"/>
				</linearGradient>
				<path fill="url(#SVGID_19_)" d="M74.877,2.778c-0.02,0-0.039-0.002-0.059-0.006L72.76,2.341      c-0.096-0.02-0.176-0.084-0.215-0.174c-0.037-0.088-0.031-0.191,0.02-0.273c0.064-0.111,0.201-0.18,0.326-0.15l2.051,0.436      C75.08,2.21,75.18,2.331,75.18,2.474c0,0.09-0.041,0.178-0.111,0.234C75.016,2.753,74.946,2.778,74.877,2.778z"/>
			</g>
			<g>
				<linearGradient id="SVGID_20_" gradientUnits="userSpaceOnUse" x1="76.6184" y1="3.1382" x2="79.2805" y2="3.1382">
					<stop offset="0" style="stop-color:#3C5BA6"/>
					<stop offset="0.1401" style="stop-color:#3867B0"/>
					<stop offset="0.397" style="stop-color:#2F89C9"/>
					<stop offset="0.4666" style="stop-color:#2C93D1"/>
					<stop offset="1" style="stop-color:#2AB5B1"/>
				</linearGradient>
				<path fill="url(#SVGID_20_)" d="M78.981,3.659c-0.02,0-0.041-0.002-0.061-0.006L76.856,3.21      c-0.162-0.035-0.266-0.193-0.23-0.355s0.188-0.266,0.355-0.23l2.059,0.438c0.059,0.012,0.109,0.039,0.15,0.08      c0.094,0.094,0.119,0.242,0.055,0.359C79.19,3.599,79.09,3.659,78.981,3.659z"/>
			</g>
			<g>
				<linearGradient id="SVGID_21_" gradientUnits="userSpaceOnUse" x1="9.7039" y1="23.2939" x2="79.2825" y2="23.2939">
					<stop offset="0" style="stop-color:#3C5BA6"/>
					<stop offset="0.1401" style="stop-color:#3867B0"/>
					<stop offset="0.397" style="stop-color:#2F89C9"/>
					<stop offset="0.4666" style="stop-color:#2C93D1"/>
					<stop offset="1" style="stop-color:#2AB5B1"/>
				</linearGradient>
				<path fill="url(#SVGID_21_)" d="M39.985,51.087c-2.117,0-4.25-0.225-6.37-0.678c-7.891-1.684-14.654-6.338-19.043-13.105      s-5.877-14.84-4.191-22.733c1.66-7.807,6.246-14.52,12.918-18.916c0.018-0.031,0.039-0.059,0.068-0.08      c0.125-0.098,0.287-0.107,0.393,0.018l0.006,0.008c0.033,0.027,0.062,0.064,0.082,0.107c0.018,0.039,0.049,0.131,0.049,0.174      c0,0.129-0.08,0.24-0.195,0.283c-1.697,1.109-2.953,2.713-3.852,3.984c-0.943,1.463-1.598,3.029-1.938,4.646      c-1.594,7.482,3.195,14.867,10.674,16.461c0.379,0.082,0.791,0.146,1.229,0.191c0.205,0.025,0.412,0.043,0.613,0.061      c0.264,0.021,0.467,0.035,0.678,0.039l0.113,0.004c0.08,0.002,0.164,0.012,0.248-0.002c0.254,0.01,0.463,0,0.68-0.01      l0.152-0.008c0.42-0.029,0.83-0.094,1.281-0.168c0,0,0.074-0.012,0.076-0.012c0.205-0.031,0.436-0.066,0.678-0.113      c0.4-0.092,0.807-0.184,1.209-0.309c1.502-0.496,3.042-1.385,3.27-1.518c0.014-0.012,0.027-0.023,0.043-0.031      c0.012-0.008,0.078-0.037,0.09-0.041c1.041-0.725,2.064-1.617,3.01-2.639c0.152-0.23,0.355-0.492,0.553-0.744l0.105-0.123      c0.062-0.072,0.125-0.145,0.176-0.217c0.037-0.072,0.088-0.162,0.143-0.252l0.07-0.123c0.16-0.268,0.324-0.521,0.5-0.756      c0.025-0.064,0.076-0.182,0.127-0.299c0.059-0.133,0.115-0.266,0.18-0.393c0.041-0.09,0.094-0.182,0.146-0.271      c0.07-0.117,0.135-0.227,0.16-0.328c0.062-0.184,0.119-0.336,0.172-0.479l0.068-0.184c0.078-0.211,0.152-0.4,0.238-0.578      c0.012-0.068,0.039-0.182,0.062-0.287l0.033-0.146c0.145-0.609,0.27-0.955,0.275-0.969L47.91-3.269      c0.006-0.025,0.014-0.049,0.025-0.072c0.061-0.123,0.203-0.191,0.332-0.164l2.062,0.438c0.145,0.031,0.244,0.16,0.238,0.307      c-0.002,0.041-0.012,0.08-0.027,0.113L47.6,11.118c0,0.014-0.002,0.029-0.006,0.043l-0.078,0.355      c-0.012,0.047-0.033,0.09-0.062,0.127c-0.049,0.164-0.105,0.357-0.17,0.594c-0.033,0.162-0.08,0.361-0.133,0.564      c-0.094,0.236-0.18,0.441-0.268,0.674l-0.088,0.244c-0.055,0.152-0.111,0.312-0.178,0.477c-0.045,0.178-0.148,0.355-0.25,0.527      c-0.049,0.086-0.1,0.172-0.145,0.266c-0.102,0.215-0.211,0.453-0.318,0.691l-0.062,0.139c-0.164,0.238-0.291,0.439-0.418,0.643      l-0.146,0.23c-0.086,0.139-0.17,0.279-0.254,0.43c-0.078,0.111-0.141,0.188-0.203,0.262c-0.051,0.062-0.102,0.123-0.15,0.188      c-0.236,0.283-0.445,0.568-0.664,0.871c-0.932,1.031-2.008,1.986-3.219,2.863c-0.043,0.033-0.09,0.072-0.137,0.109      c-0.082,0.068-0.164,0.135-0.254,0.195c-0.055,0.035-0.08,0.051-0.111,0.066c-0.008,0.004-0.016,0.008-0.023,0.012      c-7.12,4.58-16.653,2.529-21.268-4.584c-1.523-2.35-2.348-5.043-2.455-7.768c-0.043,3.059,0.801,6.145,2.566,8.867      c4.77,7.357,14.643,9.475,22.008,4.713c0.039-0.041,0.08-0.061,0.129-0.07c0.051-0.035,0.092-0.064,0.131-0.094      c0.074-0.055,0.15-0.109,0.229-0.162c1.24-0.887,2.434-1.951,3.539-3.158c0.223-0.318,0.482-0.656,0.729-0.971l0.07-0.084      c0.104-0.123,0.201-0.234,0.285-0.367c0.107-0.162,0.197-0.322,0.289-0.486l0.248-0.383c0.129-0.201,0.256-0.396,0.383-0.584      l0.432-0.902c0.057-0.121,0.119-0.234,0.178-0.346c0.092-0.17,0.178-0.332,0.225-0.482c0.121-0.312,0.219-0.578,0.307-0.832      l0.297-0.725l0.146-0.609c0.135-0.523,0.244-0.893,0.297-1.076l0.031-0.104v-0.002l2.951-13.885      c0.016-0.078,0.062-0.146,0.131-0.189c0.066-0.043,0.146-0.061,0.225-0.041l2.062,0.441c0.162,0.033,0.266,0.193,0.23,0.355      l-3.043,14.227c-0.008,0.043-0.025,0.08-0.049,0.113c-0.062,0.213-0.145,0.512-0.24,0.885c-0.049,0.174-0.09,0.352-0.137,0.543      l-0.037,0.158l-0.117,0.299c-0.07,0.172-0.143,0.35-0.217,0.537l-0.33,0.91c-0.074,0.213-0.18,0.416-0.285,0.613      c-0.062,0.121-0.129,0.246-0.186,0.375c-0.158,0.311-0.307,0.617-0.459,0.934l-0.066,0.133      c-0.189,0.291-0.357,0.557-0.529,0.824l-0.496,0.812c-0.088,0.129-0.174,0.234-0.262,0.342c-0.057,0.07-0.113,0.141-0.172,0.219      c-0.281,0.359-0.559,0.723-0.844,1.1c-1.234,1.371-2.65,2.631-4.109,3.66c-0.166,0.125-0.283,0.211-0.402,0.283      c-0.021,0.018-0.043,0.033-0.061,0.041c-0.057,0.047-0.121,0.068-0.193,0.061c-8.145,5.168-18.983,2.82-24.235-5.279      c-0.988-1.525-1.721-3.172-2.193-4.881c0.451,2.121,1.291,4.174,2.514,6.059c5.383,8.303,16.504,10.704,24.834,5.379      c0.021-0.033,0.053-0.062,0.088-0.082c0.051-0.031,0.078-0.047,0.109-0.059c0.045-0.039,0.146-0.115,0.246-0.188l0.08-0.059      c1.613-1.127,3.15-2.494,4.451-3.959l0.17-0.219c0.254-0.326,0.506-0.652,0.744-0.971c0.166-0.203,0.318-0.383,0.436-0.572      c0.141-0.205,0.266-0.406,0.377-0.596c0.168-0.271,0.334-0.527,0.492-0.775l0.258-0.398c0.082-0.182,0.188-0.391,0.291-0.596      c0.092-0.184,0.184-0.365,0.268-0.543c0.068-0.154,0.15-0.309,0.232-0.459c0.105-0.199,0.207-0.387,0.271-0.576      c0.104-0.305,0.215-0.594,0.32-0.869l0.139-0.367c0.09-0.234,0.174-0.461,0.254-0.664l0.193-0.744      c0.25-0.941,0.402-1.482,0.402-1.482l2.955-13.846c0.018-0.078,0.064-0.152,0.131-0.195c0.068-0.045,0.15-0.066,0.229-0.047      l2.047,0.439c0.092,0.02,0.172,0.084,0.211,0.172c0.031,0.07,0.033,0.148,0.008,0.221l-3.016,14.188      c-0.01,0.047-0.029,0.088-0.057,0.125c-0.053,0.18-0.115,0.412-0.193,0.695l-0.125,0.455c-0.061,0.246-0.135,0.535-0.217,0.848      l-0.107,0.283c-0.086,0.225-0.178,0.461-0.268,0.705l-0.162,0.43c-0.082,0.221-0.166,0.447-0.26,0.684      c-0.084,0.256-0.217,0.514-0.346,0.764c-0.07,0.137-0.141,0.275-0.205,0.416l-0.266,0.523c-0.127,0.246-0.254,0.496-0.383,0.754      c-0.148,0.25-0.293,0.477-0.439,0.707c-0.125,0.197-0.252,0.398-0.377,0.602l-0.42,0.674c-0.113,0.164-0.234,0.316-0.354,0.465      l-1.168,1.521c-1.52,1.689-3.203,3.182-5.023,4.457l-0.121,0.086c-0.094,0.068-0.186,0.137-0.283,0.197l0,0      c-0.016,0.018-0.031,0.031-0.049,0.045c-9.12,5.907-21.317,3.305-27.211-5.787c-1.471-2.271-2.426-4.756-2.871-7.301      c0.369,2.934,1.391,5.818,3.086,8.432c6.014,9.266,18.441,11.934,27.727,5.963c0.021-0.023,0.047-0.045,0.076-0.061      c0.023-0.025,0.045-0.035,0.074-0.053c0.08-0.043,0.152-0.098,0.227-0.15l0.152-0.107c1.91-1.319,3.758-2.959,5.336-4.741      c0.377-0.475,0.74-0.943,1.098-1.416c0.076-0.1,0.154-0.197,0.23-0.295c0.104-0.129,0.205-0.256,0.295-0.387      c0.084-0.139,0.176-0.285,0.268-0.43l0.531-0.846c0.18-0.285,0.355-0.564,0.531-0.836l0.268-0.549      c0.133-0.27,0.264-0.531,0.385-0.791c0.076-0.16,0.156-0.312,0.234-0.465c0.143-0.271,0.275-0.527,0.365-0.787      c0.164-0.422,0.314-0.818,0.445-1.193l0.143-0.363c0.096-0.242,0.186-0.475,0.275-0.697c0.033-0.152,0.084-0.342,0.131-0.521      l0.092-0.357c0.297-1.111,0.477-1.752,0.477-1.752l2.945-13.83c0.006-0.055,0.029-0.109,0.064-0.152      c0.072-0.088,0.176-0.133,0.293-0.107l2.059,0.436c0.092,0.02,0.168,0.08,0.209,0.164c0.039,0.084,0.039,0.182-0.002,0.264      l-3.01,14.17c-0.012,0.045-0.031,0.086-0.059,0.119c-0.082,0.322-0.205,0.799-0.377,1.42c-0.043,0.148-0.084,0.307-0.127,0.473      c-0.045,0.166-0.092,0.34-0.143,0.521l-0.436,1.148c-0.061,0.164-0.125,0.332-0.191,0.506c-0.098,0.25-0.197,0.51-0.291,0.775      c-0.102,0.301-0.252,0.596-0.396,0.881c-0.088,0.17-0.176,0.346-0.258,0.525c-0.168,0.326-0.33,0.648-0.5,0.98l-0.258,0.508      c-0.201,0.334-0.4,0.652-0.604,0.975L55.676,23.8c-0.109,0.174-0.221,0.35-0.34,0.527c-0.119,0.186-0.262,0.365-0.408,0.551      l-0.283,0.363c-0.355,0.463-0.713,0.928-1.086,1.398c-1.729,1.953-3.77,3.766-5.916,5.254c-0.088,0.053-0.162,0.107-0.234,0.162      l-0.158,0.115c-0.012,0.01-0.025,0.018-0.039,0.023c-0.014,0.014-0.027,0.027-0.045,0.037      c-10.051,6.504-23.534,3.627-30.051-6.418c-1.734-2.678-2.82-5.629-3.266-8.645c0.344,3.393,1.471,6.74,3.422,9.754      c6.66,10.268,20.434,13.209,30.704,6.557c0.014-0.008,0.086-0.049,0.1-0.057c0.053-0.035,0.123-0.088,0.193-0.143      c0.059-0.043,0.115-0.086,0.17-0.125c2.262-1.545,4.369-3.404,6.264-5.532c0.322-0.428,0.664-0.867,1-1.297l0.27-0.35      c0.078-0.104,0.164-0.215,0.248-0.324c0.123-0.156,0.244-0.311,0.348-0.465l0.742-1.17c0.271-0.438,0.535-0.865,0.799-1.277      l0.312-0.629c0.162-0.324,0.318-0.639,0.471-0.939c0.088-0.189,0.188-0.383,0.285-0.574c0.154-0.299,0.299-0.58,0.4-0.861      l0.572-1.521c0.148-0.383,0.289-0.74,0.408-1.076l0.277-1.041c0.34-1.287,0.539-2.018,0.539-2.018l2.945-13.844      c0.006-0.029,0.018-0.059,0.033-0.086c0.064-0.113,0.207-0.18,0.326-0.152l2.049,0.432c0.119,0.025,0.209,0.117,0.232,0.236      c0.008,0.039,0.01,0.086,0,0.125l-3.025,14.219c-0.01,0.043-0.027,0.08-0.051,0.113l-0.025,0.094      c-0.098,0.365-0.242,0.906-0.42,1.607c-0.1,0.346-0.207,0.729-0.316,1.139l-0.49,1.324c-0.121,0.309-0.24,0.621-0.363,0.945      l-0.197,0.521c-0.129,0.352-0.303,0.695-0.471,1.029c-0.096,0.188-0.191,0.379-0.283,0.576      c-0.281,0.553-0.568,1.119-0.857,1.697c-0.359,0.578-0.723,1.16-1.096,1.762c-0.182,0.285-0.375,0.588-0.555,0.889      c-0.121,0.166-0.229,0.303-0.334,0.439c-0.115,0.146-0.23,0.293-0.344,0.449c-0.359,0.469-0.727,0.938-1.098,1.412l-0.281,0.359      c-2.002,2.266-4.359,4.35-6.828,6.042c-0.064,0.045-0.125,0.088-0.186,0.135c-0.066,0.049-0.135,0.1-0.203,0.146      c-0.006,0.006-0.014,0.014-0.02,0.02c-0.016,0.016-0.045,0.043-0.062,0.055c-11.043,7.146-25.846,3.984-33-7.049      c-1.959-3.023-3.156-6.334-3.623-9.699c0.377,3.744,1.633,7.451,3.816,10.819c7.285,11.225,22.327,14.455,33.561,7.217      c0.025-0.033,0.059-0.061,0.096-0.08c0.082-0.051,0.133-0.088,0.182-0.125c0.084-0.064,0.17-0.127,0.256-0.18      c2.605-1.785,5.082-3.975,7.146-6.322c0.484-0.615,0.969-1.245,1.443-1.868l0.236-0.301c0.158-0.197,0.316-0.396,0.459-0.604      l0.141-0.221c0.152-0.24,0.301-0.477,0.445-0.711l1.15-1.838l0.902-1.789c0.092-0.199,0.195-0.404,0.297-0.607      c0.18-0.357,0.35-0.695,0.467-1.031l0.1-0.254c0.176-0.457,0.35-0.902,0.498-1.312c0.168-0.418,0.309-0.799,0.438-1.152      l0.154-0.492c0.088-0.332,0.172-0.641,0.254-0.93l0.373-1.402c0.127-0.479,0.203-0.768,0.219-0.836      c0.002-0.006,0.002-0.012,0.004-0.018l2.955-13.871c0.016-0.076,0.062-0.145,0.127-0.188c0.066-0.045,0.152-0.062,0.234-0.049      l2.053,0.43c0.139,0.029,0.238,0.152,0.238,0.293L68.039,15.88c-0.008,0.045-0.025,0.084-0.051,0.119      c-0.068,0.252-0.162,0.605-0.279,1.053l-0.588,2.201l-0.562,1.49c-0.098,0.27-0.205,0.549-0.316,0.838      c-0.1,0.264-0.203,0.537-0.309,0.818c-0.152,0.41-0.35,0.799-0.559,1.211c-0.1,0.193-0.199,0.393-0.297,0.596      c-0.305,0.619-0.627,1.258-0.969,1.922l-0.49,0.785c-0.242,0.387-0.488,0.779-0.736,1.182l-0.639,1.004      c-0.156,0.229-0.318,0.438-0.479,0.649c-0.092,0.117-0.182,0.234-0.27,0.354c-0.514,0.652-1.029,1.316-1.555,2.002      c-2.299,2.598-4.971,4.953-7.738,6.828l-0.377,0.281l-0.016-0.012c-0.021,0.029-0.047,0.055-0.078,0.074      c-12.01,7.773-28.114,4.334-35.897-7.666c-2.008-3.096-3.275-6.5-3.828-9.983c0.473,3.865,1.803,7.664,4.027,11.096      c7.914,12.201,24.286,15.699,36.499,7.795c0.01-0.006,0.02-0.01,0.029-0.014c0.033-0.02,0.061-0.033,0.082-0.041l0.061-0.047      c0.102-0.072,0.207-0.148,0.316-0.219c2.939-2.006,5.725-4.469,8.049-7.119c0.545-0.705,1.092-1.4,1.639-2.092      c0.088-0.119,0.182-0.244,0.277-0.367c0.164-0.215,0.33-0.43,0.479-0.654c0.229-0.35,0.445-0.696,0.67-1.055      c0.439-0.699,0.869-1.383,1.281-2.055c0.35-0.664,0.689-1.346,1.012-1.996c0.092-0.191,0.188-0.381,0.283-0.568      c0.223-0.443,0.436-0.861,0.596-1.283c0.146-0.406,0.297-0.801,0.443-1.184l0.215-0.57c0.111-0.285,0.213-0.559,0.311-0.82      c0.094-0.252,0.184-0.494,0.273-0.727l0.133-0.488c0.078-0.289,0.154-0.564,0.217-0.816c0.238-0.885,0.414-1.557,0.527-1.99      c0.084-0.32,0.125-0.477,0.15-0.561l2.951-13.865c0.033-0.162,0.199-0.262,0.355-0.232l2.059,0.432      c0.078,0.018,0.146,0.064,0.189,0.131s0.059,0.148,0.041,0.227l-3.037,14.225c-0.006,0.025-0.014,0.047-0.023,0.068      c-0.086,0.309-0.215,0.803-0.387,1.457l-0.619,2.246c-0.156,0.445-0.324,0.891-0.504,1.367l-0.109,0.289      c-0.207,0.572-0.447,1.191-0.707,1.854c-0.176,0.473-0.408,0.936-0.654,1.426c-0.094,0.188-0.189,0.377-0.281,0.572      l-0.104,0.205c-0.309,0.625-0.629,1.273-0.984,1.934c-0.252,0.414-0.504,0.818-0.76,1.23l-0.594,0.956      c-0.184,0.291-0.373,0.582-0.559,0.871l-0.164,0.25c-0.182,0.279-0.385,0.541-0.59,0.807l-0.232,0.303      c-0.43,0.566-0.873,1.131-1.32,1.701l-0.414,0.525c-2.506,2.857-5.488,5.49-8.639,7.625c-0.082,0.053-0.152,0.105-0.223,0.158      c-0.055,0.043-0.109,0.084-0.166,0.123c-0.008,0.006-0.057,0.037-0.064,0.041c-13,8.416-30.397,4.701-38.807-8.266      c-2.07-3.193-3.424-6.672-4.078-10.229c0.582,4.023,2.023,7.87,4.27,11.334c8.547,13.178,26.219,16.947,39.391,8.398      l0.008,0.012c0.037-0.025,0.076-0.041,0.115-0.051l0.066-0.049c0.102-0.08,0.207-0.16,0.32-0.221      c3.262-2.219,6.361-4.955,8.938-7.895c0.621-0.775,1.221-1.541,1.809-2.312l0.289-0.383c0.191-0.25,0.381-0.498,0.559-0.754      l0.746-1.162c0.438-0.695,0.859-1.377,1.266-2.034l0.15-0.242c0.385-0.748,0.764-1.506,1.111-2.209      c0.102-0.211,0.205-0.418,0.307-0.621c0.248-0.498,0.484-0.969,0.662-1.443l0.148-0.377c0.213-0.545,0.418-1.066,0.596-1.559      l0.209-0.566c0.148-0.402,0.287-0.781,0.414-1.141c0.156-0.523,0.295-1.027,0.408-1.469c0.486-1.77,0.721-2.746,0.732-2.803      l2.959-13.881c0.018-0.078,0.064-0.146,0.131-0.189s0.146-0.061,0.227-0.041l2.062,0.443c0.162,0.033,0.266,0.193,0.23,0.355      l-2.955,13.783c0.002,0.029,0,0.059-0.006,0.088l-0.084,0.355c-0.004,0.016-0.01,0.031-0.016,0.045      c-0.084,0.342-0.227,0.893-0.42,1.631l-0.244,0.941c-0.146,0.475-0.293,0.996-0.453,1.566c-0.162,0.424-0.318,0.855-0.482,1.307      l-0.182,0.506c-0.123,0.322-0.248,0.648-0.377,0.984c-0.133,0.34-0.268,0.689-0.404,1.053c-0.188,0.492-0.426,0.971-0.676,1.477      c-0.117,0.24-0.238,0.484-0.355,0.734l-0.051,0.102c-0.363,0.721-0.74,1.473-1.143,2.25c-0.479,0.797-0.979,1.596-1.5,2.404      c-0.262,0.414-0.521,0.816-0.793,1.236c-0.264,0.387-0.553,0.777-0.916,1.232c-0.613,0.801-1.248,1.617-1.906,2.432      c-2.898,3.318-6.334,6.324-9.938,8.701l-0.133,0.064c-0.029,0.016-0.061,0.023-0.094,0.027      C51.244,49.472,45.668,51.087,39.985,51.087z M10.338,22.347c0.248,5.16,1.854,10.184,4.738,14.631      c4.301,6.633,10.93,11.193,18.664,12.846c7.698,1.646,15.581,0.207,22.198-4.059c0.051-0.033,0.105-0.049,0.162-0.049h0.004      c3.514-2.324,6.898-5.289,9.75-8.551c0.646-0.803,1.279-1.615,1.893-2.416c0.357-0.447,0.639-0.826,0.889-1.195      c0.268-0.412,0.525-0.812,0.789-1.227c0.518-0.807,1.014-1.6,1.48-2.375c0.393-0.758,0.768-1.508,1.129-2.227l0.047-0.096      c0.117-0.246,0.238-0.492,0.359-0.736c0.244-0.494,0.475-0.961,0.652-1.424c0.137-0.363,0.271-0.715,0.404-1.055      c0.129-0.336,0.254-0.66,0.373-0.977l0.182-0.502c0.166-0.457,0.322-0.891,0.477-1.293c0.154-0.549,0.303-1.076,0.447-1.541      l0.24-0.928c0.201-0.77,0.348-1.334,0.43-1.67c0.002-0.014,0.008-0.027,0.012-0.041l0.055-0.23      c-0.002-0.025,0-0.051,0.006-0.076l2.91-13.566l-1.479-0.318l-2.895,13.582c-0.004,0.047-0.283,1.176-0.742,2.838      c-0.111,0.441-0.254,0.953-0.414,1.5c-0.133,0.377-0.275,0.758-0.424,1.162l-0.209,0.566c-0.18,0.494-0.385,1.021-0.6,1.57      l-0.146,0.373c-0.188,0.5-0.43,0.984-0.688,1.498c-0.098,0.199-0.201,0.404-0.303,0.613c-0.35,0.711-0.73,1.471-1.129,2.242      l-0.162,0.264c-0.406,0.657-0.828,1.34-1.268,2.038l-0.756,1.176c-0.189,0.271-0.383,0.527-0.578,0.783l-0.289,0.381      c-0.592,0.777-1.195,1.547-1.828,2.336c-2.617,2.988-5.756,5.76-9.086,8.023c-0.111,0.061-0.188,0.121-0.262,0.18l-0.117,0.09      c-0.021,0.016-0.045,0.027-0.07,0.037c-0.008,0.01-0.029,0.023-0.053,0.035c-0.033,0.016-0.068,0.025-0.105,0.029      c-13.439,8.631-31.405,4.77-40.108-8.648C12.25,31.826,10.695,27.185,10.338,22.347z M11.385,21.476      c0.363,4.41,1.801,8.778,4.35,12.708c8.229,12.688,25.252,16.322,37.952,8.104l0.205,0.229l-0.135-0.27l0.15-0.111      c0.082-0.062,0.164-0.125,0.254-0.182c3.102-2.104,6.045-4.701,8.508-7.508l0.402-0.514c0.447-0.568,0.887-1.129,1.314-1.691      l0.236-0.309c0.195-0.252,0.389-0.502,0.562-0.766l0.16-0.25c0.188-0.287,0.375-0.574,0.555-0.863l0.594-0.956      c0.254-0.408,0.506-0.812,0.75-1.211c0.342-0.641,0.66-1.281,0.967-1.9l0.1-0.203c0.094-0.195,0.191-0.389,0.287-0.578      c0.238-0.475,0.463-0.924,0.629-1.371c0.26-0.66,0.5-1.275,0.705-1.846l0.109-0.295c0.18-0.471,0.346-0.912,0.494-1.336      l0.611-2.217c0.182-0.693,0.316-1.209,0.402-1.514c0.004-0.012,0.008-0.023,0.012-0.033L74.524,2.71l-1.471-0.307l-2.891,13.576      c-0.002,0.018-0.008,0.033-0.014,0.049c-0.016,0.053-0.064,0.236-0.141,0.533c-0.115,0.436-0.291,1.109-0.527,1.992      c-0.064,0.252-0.141,0.529-0.223,0.824l-0.139,0.516c-0.1,0.26-0.188,0.498-0.281,0.746c-0.1,0.268-0.201,0.543-0.312,0.828      l-0.215,0.57c-0.145,0.379-0.293,0.771-0.443,1.178c-0.172,0.455-0.391,0.887-0.621,1.346c-0.094,0.184-0.188,0.371-0.281,0.561      c-0.324,0.656-0.666,1.344-1.027,2.029c-0.424,0.691-0.855,1.377-1.295,2.076c-0.225,0.362-0.445,0.711-0.678,1.069      c-0.156,0.236-0.33,0.461-0.502,0.688c-0.094,0.121-0.186,0.242-0.277,0.365c-0.551,0.699-1.098,1.393-1.652,2.109      c-2.369,2.701-5.193,5.199-8.182,7.24c-0.107,0.068-0.203,0.137-0.293,0.203l-0.09,0.064c-0.016,0.012-0.062,0.035-0.08,0.043      c-0.025,0.02-0.055,0.035-0.084,0.045c-12.471,8.047-29.188,4.461-37.274-8.006C13.215,29.472,11.844,25.507,11.385,21.476z       M12.58,21.407c0.531,3.445,1.775,6.814,3.76,9.875c7.596,11.709,23.301,15.074,35.026,7.514      c0.012-0.012,0.025-0.021,0.037-0.029c0.037-0.027,0.08-0.055,0.139-0.078l0.32-0.25c2.732-1.852,5.365-4.174,7.617-6.717      c0.514-0.672,1.031-1.338,1.541-1.984c0.084-0.115,0.178-0.236,0.27-0.356c0.154-0.201,0.311-0.404,0.455-0.617l0.631-0.99      c0.246-0.398,0.494-0.793,0.734-1.18l0.479-0.764c0.328-0.639,0.648-1.275,0.951-1.887c0.098-0.205,0.199-0.406,0.301-0.605      c0.201-0.396,0.391-0.771,0.531-1.148c0.105-0.283,0.209-0.557,0.312-0.822c0.107-0.287,0.215-0.564,0.312-0.834l0.555-1.463      l0.578-2.174c0.135-0.508,0.236-0.896,0.307-1.152c0.008-0.027,0.02-0.053,0.033-0.076l0.049-0.254L70.42,1.827l-1.473-0.307      l-2.895,13.584l-0.004-0.002c-0.021,0.119-0.084,0.354-0.225,0.885l-0.375,1.408c-0.082,0.291-0.166,0.598-0.254,0.926      l-0.17,0.543c-0.131,0.359-0.273,0.746-0.439,1.16c-0.146,0.404-0.32,0.854-0.5,1.314l-0.096,0.244      c-0.127,0.365-0.312,0.736-0.494,1.094c-0.098,0.197-0.197,0.395-0.291,0.598l-0.92,1.824l-1.164,1.857      c-0.143,0.236-0.295,0.475-0.447,0.717l-0.146,0.232c-0.158,0.229-0.324,0.438-0.492,0.646l-0.229,0.291      c-0.475,0.623-0.963,1.256-1.459,1.885c-2.107,2.398-4.623,4.621-7.283,6.443c-0.084,0.053-0.15,0.104-0.219,0.154      c-0.059,0.043-0.115,0.086-0.174,0.127l-0.004-0.002c-0.027,0.035-0.062,0.064-0.1,0.084      c-11.518,7.447-26.954,4.145-34.426-7.373C14.359,27.413,13.181,24.442,12.58,21.407z M13.248,17.181      c0.242,3.875,1.459,7.736,3.709,11.209c6.955,10.731,21.336,13.823,32.09,6.922c0.018-0.027,0.043-0.053,0.072-0.072      c0.008-0.008,0.064-0.039,0.074-0.045c0.064-0.043,0.127-0.088,0.188-0.133c0.068-0.051,0.139-0.102,0.207-0.148      c2.428-1.664,4.746-3.715,6.703-5.928l0.27-0.346c0.371-0.473,0.734-0.941,1.088-1.402c0.115-0.156,0.234-0.309,0.352-0.461      c0.104-0.131,0.207-0.264,0.309-0.4c0.168-0.283,0.363-0.59,0.547-0.877c0.371-0.598,0.734-1.182,1.082-1.734      c0.275-0.555,0.562-1.123,0.84-1.666c0.088-0.193,0.188-0.391,0.287-0.586c0.168-0.332,0.326-0.645,0.443-0.967l0.199-0.525      c0.125-0.326,0.244-0.643,0.363-0.945l0.479-1.293c0.104-0.389,0.211-0.773,0.309-1.113c0.178-0.695,0.324-1.24,0.422-1.607      l0.051-0.189c0.008-0.029,0.02-0.059,0.037-0.084l0.053-0.254l2.891-13.576l-1.467-0.311l-2.889,13.576      c-0.004,0.016-0.203,0.744-0.541,2.031l-0.285,1.062c-0.129,0.363-0.27,0.729-0.422,1.115l-0.568,1.512      c-0.111,0.312-0.266,0.613-0.43,0.93c-0.094,0.182-0.189,0.369-0.277,0.561c-0.158,0.311-0.314,0.623-0.475,0.945l-0.33,0.658      c-0.275,0.436-0.539,0.861-0.809,1.297l-0.752,1.182c-0.113,0.172-0.242,0.338-0.373,0.506      c-0.082,0.105-0.164,0.211-0.242,0.316l-0.277,0.357c-0.334,0.426-0.674,0.863-1.01,1.309c-1.943,2.182-4.086,4.075-6.385,5.645      l-0.148,0.109c-0.08,0.061-0.162,0.123-0.248,0.18c-0.016,0.01-0.055,0.029-0.07,0.037c-10.561,6.84-24.706,3.816-31.545-6.727      C14.754,24.14,13.595,20.683,13.248,17.181z M14.416,16.892c0.416,3,1.48,5.936,3.203,8.596      c6.328,9.752,19.411,12.557,29.178,6.268c0.018-0.016,0.037-0.031,0.057-0.043c0.018-0.014,0.043-0.033,0.078-0.049l0.119-0.088      c0.086-0.064,0.174-0.131,0.264-0.186c2.094-1.451,4.098-3.231,5.785-5.137c0.359-0.453,0.715-0.916,1.068-1.377l0.289-0.371      c0.135-0.168,0.266-0.332,0.377-0.508c0.121-0.178,0.229-0.348,0.332-0.516l0.516-0.818c0.201-0.322,0.4-0.637,0.588-0.947      l0.248-0.488c0.168-0.334,0.332-0.658,0.494-0.969c0.076-0.176,0.172-0.357,0.262-0.537c0.141-0.279,0.275-0.543,0.365-0.807      c0.096-0.275,0.199-0.539,0.297-0.795c0.066-0.17,0.131-0.336,0.189-0.496l0.428-1.127c0.045-0.154,0.088-0.326,0.131-0.488      c0.045-0.172,0.088-0.334,0.131-0.484c0.172-0.619,0.295-1.098,0.377-1.416l0.027-0.107c0.01-0.041,0.029-0.078,0.053-0.109      l0.057-0.236l2.881-13.578l-1.463-0.311l-2.895,13.584c-0.004,0.02-0.184,0.656-0.479,1.758l-0.092,0.359      c-0.047,0.176-0.096,0.361-0.141,0.553c-0.104,0.262-0.193,0.492-0.287,0.73l-0.139,0.355c-0.129,0.371-0.281,0.773-0.445,1.193      c-0.1,0.289-0.25,0.576-0.395,0.855c-0.076,0.145-0.152,0.293-0.225,0.443c-0.123,0.264-0.256,0.529-0.391,0.803l-0.283,0.574      c-0.191,0.301-0.365,0.578-0.543,0.861l-0.533,0.846c-0.09,0.143-0.182,0.287-0.27,0.436c-0.109,0.158-0.219,0.297-0.332,0.438      c-0.072,0.092-0.146,0.184-0.219,0.281c-0.361,0.477-0.729,0.949-1.117,1.439c-1.623,1.83-3.506,3.504-5.459,4.854l-0.141,0.098      c-0.08,0.059-0.162,0.115-0.248,0.166c-0.027,0.025-0.057,0.043-0.084,0.059c-9.62,6.205-22.428,3.461-28.625-6.086      C15.894,22.034,14.902,19.493,14.416,16.892z M15.248,14.351c0.324,2.865,1.303,5.688,2.951,8.232      c5.703,8.793,17.49,11.329,26.303,5.662c0.035-0.043,0.078-0.074,0.131-0.092c0.088-0.062,0.17-0.123,0.25-0.182l0.133-0.096      c1.783-1.248,3.434-2.711,4.904-4.348l1.162-1.514c0.111-0.139,0.225-0.277,0.32-0.422l0.412-0.656      c0.125-0.205,0.254-0.408,0.381-0.607c0.143-0.227,0.285-0.451,0.42-0.674c0.117-0.238,0.246-0.492,0.373-0.738l0.258-0.51      c0.064-0.141,0.141-0.287,0.215-0.432c0.123-0.24,0.238-0.467,0.314-0.697c0.1-0.248,0.182-0.471,0.262-0.686l0.162-0.432      c0.09-0.244,0.184-0.482,0.271-0.711l0.096-0.248c0.07-0.279,0.145-0.566,0.207-0.816l0.127-0.463      c0.094-0.346,0.168-0.619,0.229-0.812c0.006-0.023,0.018-0.047,0.029-0.068l0.049-0.252l2.896-13.586L56.645-1.11l-2.898,13.584      c-0.006,0.02-0.156,0.557-0.404,1.488l-0.201,0.777c-0.092,0.236-0.176,0.461-0.264,0.693l-0.141,0.369      c-0.104,0.27-0.211,0.553-0.314,0.848c-0.078,0.236-0.197,0.455-0.311,0.666c-0.074,0.139-0.148,0.277-0.215,0.426      c-0.09,0.189-0.182,0.373-0.275,0.561c-0.102,0.203-0.205,0.408-0.305,0.617l-0.277,0.436c-0.156,0.244-0.32,0.498-0.482,0.76      c-0.115,0.193-0.248,0.406-0.387,0.611c-0.129,0.209-0.297,0.41-0.459,0.604c-0.24,0.324-0.496,0.65-0.752,0.98l-0.18,0.234      c-1.346,1.516-2.92,2.914-4.564,4.064l-0.074,0.055c-0.104,0.074-0.209,0.154-0.312,0.225l-0.002-0.002      c-0.021,0.027-0.051,0.055-0.078,0.074c-8.614,5.573-20.165,3.102-25.745-5.506C16.58,19.259,15.656,16.841,15.248,14.351z       M15.959,10.392c0.004,3.234,0.926,6.445,2.732,9.232c5.092,7.854,15.623,10.108,23.5,5.039c0.023-0.02,0.049-0.037,0.078-0.051      c0.043-0.02,0.092-0.023,0.145-0.027c0.086-0.057,0.168-0.117,0.25-0.18l0.062-0.047c1.43-1.008,2.809-2.236,3.998-3.557      c0.271-0.359,0.551-0.725,0.832-1.082c0.057-0.078,0.121-0.156,0.182-0.232c0.078-0.094,0.152-0.186,0.221-0.285l0.496-0.814      c0.174-0.27,0.344-0.537,0.516-0.797l0.047-0.098c0.152-0.318,0.305-0.631,0.457-0.93c0.057-0.129,0.127-0.264,0.195-0.396      c0.096-0.178,0.188-0.352,0.25-0.535l0.336-0.92c0.078-0.199,0.15-0.379,0.223-0.553l0.125-0.367      c0.049-0.201,0.092-0.389,0.143-0.561c0.109-0.434,0.203-0.77,0.271-0.992c0.006-0.025,0.016-0.049,0.029-0.07l2.961-13.84      l-1.475-0.316l-2.891,13.592c-0.006,0.033-0.02,0.078-0.041,0.15c-0.053,0.18-0.16,0.543-0.293,1.053l-0.158,0.646l-0.303,0.754      c-0.086,0.244-0.188,0.514-0.303,0.816c-0.059,0.188-0.158,0.373-0.262,0.57c-0.055,0.1-0.111,0.205-0.164,0.316l-0.455,0.941      c-0.148,0.227-0.271,0.418-0.398,0.613l-0.238,0.369c-0.088,0.158-0.186,0.33-0.301,0.506c-0.1,0.152-0.209,0.281-0.328,0.424      l-0.062,0.074c-0.234,0.301-0.488,0.631-0.729,0.971c-1.156,1.266-2.383,2.357-3.666,3.277c-0.08,0.053-0.146,0.102-0.213,0.15      c-0.062,0.045-0.125,0.09-0.188,0.133c-0.029,0.021-0.066,0.047-0.117,0.07c-0.014,0.006-0.025,0.012-0.039,0.016      c-7.637,4.896-17.844,2.693-22.784-4.926C16.974,16.021,16.101,13.214,15.959,10.392z M17.172,9.87      c0.186,2.43,0.965,4.811,2.326,6.908c4.439,6.846,13.627,8.814,20.477,4.381c0.018-0.012,0.039-0.023,0.061-0.031      c0.027-0.018,0.049-0.029,0.068-0.039c0.031-0.025,0.1-0.082,0.166-0.137c0.053-0.043,0.107-0.088,0.164-0.129      c1.18-0.855,2.223-1.783,3.105-2.756c0.207-0.291,0.426-0.588,0.66-0.867c0.043-0.059,0.102-0.129,0.16-0.199      c0.055-0.066,0.107-0.131,0.158-0.199c0.068-0.129,0.158-0.277,0.252-0.43l0.146-0.23c0.135-0.213,0.268-0.424,0.41-0.623      l0.033-0.086c0.107-0.24,0.217-0.482,0.322-0.701c0.053-0.111,0.111-0.211,0.168-0.311c0.088-0.15,0.164-0.279,0.199-0.412      c0.072-0.189,0.127-0.344,0.182-0.492l0.09-0.252c0.092-0.242,0.18-0.453,0.264-0.652c0.035-0.152,0.08-0.344,0.115-0.514      c0.084-0.316,0.154-0.547,0.209-0.729c0.01-0.031,0.025-0.062,0.045-0.09l0.045-0.209c0.002-0.012,0.004-0.025,0.006-0.037      l2.9-13.578l-1.477-0.312L45.539,10.72c-0.012,0.043-0.131,0.371-0.266,0.941l-0.033,0.141      c-0.025,0.113-0.053,0.234-0.088,0.365c-0.098,0.213-0.164,0.385-0.234,0.574l-0.068,0.186c-0.053,0.141-0.107,0.287-0.16,0.438      c-0.037,0.162-0.133,0.324-0.217,0.467c-0.043,0.072-0.088,0.145-0.123,0.223c-0.062,0.127-0.115,0.25-0.17,0.375      c-0.055,0.123-0.109,0.246-0.168,0.369c-0.193,0.268-0.346,0.504-0.492,0.748l-0.07,0.123c-0.049,0.084-0.1,0.168-0.148,0.258      c-0.076,0.119-0.154,0.209-0.234,0.303l-0.092,0.105c-0.184,0.234-0.377,0.484-0.551,0.74c-1,1.084-2.053,2.004-3.156,2.77      c-0.027,0.039-0.064,0.072-0.109,0.096c-0.035,0.018-0.074,0.027-0.113,0.031c-0.396,0.23-1.85,1.047-3.319,1.531      c-0.424,0.131-0.844,0.227-1.27,0.324c-0.26,0.049-0.498,0.086-0.709,0.119c-0.52,0.084-0.961,0.154-1.416,0.186l-0.158,0.008      c-0.236,0.01-0.463,0.02-0.686,0.008c-0.061,0.014-0.18,0.01-0.297,0.004l-0.098-0.004c-0.223-0.004-0.438-0.018-0.654-0.035      c-0.271-0.023-0.484-0.043-0.693-0.068c-0.453-0.047-0.887-0.113-1.285-0.201C22.418,20.556,18.06,15.646,17.172,9.87z"/>
			</g>
		</g>
	</g>
	<linearGradient id="SVGID_22_" gradientUnits="userSpaceOnUse" x1="-6.5764" y1="45.4263" x2="67.0588" y2="45.4263">
		<stop offset="0" style="stop-color:#3C5BA6"/>
		<stop offset="0.1401" style="stop-color:#3867B0"/>
		<stop offset="0.397" style="stop-color:#2F89C9"/>
		<stop offset="0.4666" style="stop-color:#2C93D1"/>
		<stop offset="1" style="stop-color:#2AB5B1"/>
	</linearGradient>
	<path fill="url(#SVGID_22_)" d="M66.715,36.304c-7.395-1.576-14.016-5.193-19.236-10.415c-1.914-1.912-3.639-4.041-5.146-6.365   c-2.109-3.256-3.697-6.748-4.74-10.379c-7.709,3.984-13.698,8.518-17.784,12.113c-1.457,1.193-2.271,1.928-2.271,1.928   c-0.445,0.332-1.16,1.072-1.555,1.383c-0.037,0.027-0.078,0.059-0.111,0.086c-0.084,0.062-0.166,0.139-0.25,0.209   c-0.133,0.109-0.268,0.219-0.393,0.328c-0.004,0.006-0.014,0.012-0.014,0.012c-0.029,0.029-0.055,0.051-0.078,0.07l-6.129-0.004   L-6.576,40.402l13.52,2.26l0.197,0.209l-1.52,8.246l17.998,17.973l8.137-1.742l0.238,0.25l1.871,14.109l14.668-14.818l0.707-6.16   c0.074-0.068,0.156-0.148,0.236-0.221c8.484-7.516,14.279-17.383,17.582-24.139C66.944,36.345,66.828,36.33,66.715,36.304z    M17.601,23.194l0.072,0.006C17.599,23.272,17.601,23.231,17.601,23.194z M27.974,36.625l0.018,0.023   c-0.039,0.012-0.078,0.033-0.117,0.047C27.91,36.671,27.941,36.648,27.974,36.625z M36.052,48.105   c-4.566,0.002-8.266-3.701-8.266-8.268s3.699-8.266,8.27-8.266c4.567,0.002,8.268,3.697,8.268,8.264   C44.324,44.404,40.621,48.107,36.052,48.105z"/>
</g>
</svg>