<svg xmlns="http://www.w3.org/2000/svg" width="125.432" height="125.432" viewBox="0 0 125.432 125.432"><path fill="#010101" d="M62.672 67.44l-1.74-9.39 40.17-3.597.356 1.924L62.672 67.44zm.586-7.625l.954 5.142 26.71-7.618-27.664 2.475z"/><circle fill="#010101" cx="62.716" cy="62.716" r="6.291"/><path fill="#010101" d="M62.716 125.432C28.134 125.432 0 97.298 0 62.716S28.134 0 62.716 0c34.58 0 62.716 28.134 62.716 62.716s-28.135 62.716-62.716 62.716zm0-123.466c-33.498 0-60.75 27.252-60.75 60.75s27.252 60.75 60.75 60.75 60.75-27.252 60.75-60.75-27.252-60.75-60.75-60.75z"/><path fill="#010101" d="M62.716 114.225c-28.402 0-51.51-23.107-51.51-51.51 0-28.4 23.107-51.508 51.51-51.508s51.51 23.107 51.51 51.51h-7.864c0-24.067-19.578-43.647-43.646-43.647S19.07 38.65 19.07 62.716s19.578 43.646 43.646 43.646v7.863z"/><g fill="#010101"><path d="M62.716 101.447c-.2 0-.403-.002-.605-.005l.033-1.967c.19.003.38.005.573.005v1.967zM53.28 100.29c-.394-.1-.787-.205-1.18-.316l.538-1.89c.37.104.745.204 1.12.298l-.477 1.907zm-9.404-3.726c-.354-.198-.706-.402-1.054-.61l1.01-1.687c.332.2.665.392 1 .58l-.956 1.717zm-8.112-6.035c-.293-.284-.58-.57-.86-.86l1.41-1.37c.268.277.54.548.817.817l-1.366 1.412zm-6.285-7.92c-.208-.346-.41-.697-.61-1.05l1.717-.96c.188.337.383.67.58 1l-1.688 1.01zm-4.02-9.272c-.11-.39-.216-.78-.312-1.174l1.904-.48c.094.374.194.746.3 1.117l-1.892.538zm-1.47-10.002c-.003-.207-.004-.413-.004-.62 0-.2 0-.398.003-.595l1.966.028c-.004.188-.005.377-.005.566 0 .197.002.394.006.59l-1.966.032zm3.058-9.564l-1.908-.477c.098-.394.204-.786.314-1.175l1.89.537c-.104.37-.203.74-.296 1.115zm71.323-.057c-.093-.374-.192-.746-.3-1.115l1.89-.54c.113.39.22.78.317 1.175l-1.906.48zM30.58 44.85l-1.72-.957c.2-.355.403-.708.61-1.056l1.687 1.01c-.197.332-.39.664-.577 1.002zm64.248-.05c-.188-.336-.38-.67-.577-.998l1.683-1.013c.21.346.413.695.61 1.05l-1.717.96zm-58.523-7.656l-1.412-1.368c.282-.292.57-.58.86-.86l1.368 1.412c-.276.267-.548.54-.815.816zm52.79-.04c-.268-.275-.54-.546-.817-.814l1.368-1.414c.29.282.578.57.86.86l-1.41 1.37zm-45.278-5.93l-1.012-1.685c.348-.21.697-.412 1.052-.61l.958 1.717c-.336.188-.667.38-.998.578zm37.754-.027c-.33-.197-.665-.39-1.004-.578l.958-1.72c.354.2.706.4 1.054.61l-1.01 1.687zm-28.956-3.79l-.537-1.892c.388-.11.78-.216 1.174-.315l.48 1.907c-.374.094-.746.194-1.116.3zm20.145-.017c-.37-.105-.742-.204-1.116-.297l.476-1.907c.394.098.785.202 1.175.312l-.536 1.892zm-10.653-1.383l-.032-1.967c.405-.006.812-.006 1.217 0l-.027 1.966c-.386-.007-.773-.007-1.158 0zM101.445 62.716H99.48c0-.192 0-.383-.005-.575l1.966-.03c.004.202.005.403.005.606z"/></g></svg>