<?xml version="1.0" encoding="UTF-8"?>
<!-- Generator: Adobe Illustrator 16.0.0, SVG Export Plug-In . SVG Version: 6.00 Build 0)  -->
<!DOCTYPE svg PUBLIC "-//W3C//DTD SVG 1.1//EN" "http://www.w3.org/Graphics/SVG/1.1/DTD/svg11.dtd">
<svg version="1.1" id="Layer_1" xmlns="http://www.w3.org/2000/svg" xmlns:xlink="http://www.w3.org/1999/xlink" x="0px" y="0px" width="142px" height="142px" viewBox="0 0 142 142" enable-background="new 0 0 142 142" xml:space="preserve">
<g>
	<path fill="#FB821C" d="M141.202,61.3c-0.102-0.801-0.201-1.5-0.4-2.301c-1.199-7-3.398-13.6-6.496-19.701   c-5.195-10.5-12.99-19.5-22.484-26.199C102.63,6.4,91.538,2,79.546,0.599C76.747,0.2,73.849,0,70.952,0   C51.065,0,33.079,8.199,20.187,21.399c-0.1,0.101-0.299,0.3-0.398,0.399c-9.594,10-16.289,22.9-18.787,37.201   c-0.699,3.898-1,7.898-1,11.998c0,8.801,1.598,17.301,4.596,25.102l0,0c1.199,3.098,2.498,6.1,4.098,8.9   c6.494,11.898,16.287,21.699,28.08,28.199l0,0c10.193,5.6,21.785,8.799,34.275,8.799c0,0,0,0,0.1,0   c39.174,0,70.852-31.799,70.852-71C141.901,67.7,141.7,64.5,141.202,61.3z M60.958,59l41.77,37.102l0,0L60.958,59z"/>
	<g id="backgound_vector_14_">
		<g>
			<g>
				<path fill="#FB7303" d="M79.546,0.599C76.747,0.2,73.849,0,70.95,0C51.063,0,33.077,8.199,20.187,21.399h82.643L79.546,0.599z"/>
			</g>
			<g>
				<path fill="#FB7608" d="M111.923,13.099C102.628,6.4,91.536,2,79.546,0.599l23.182,20.9L111.923,13.099z"/>
			</g>
			<g>
				<path fill="#FB7608" d="M102.829,21.4H20.187c-0.1,0.102-0.301,0.3-0.4,0.4L60.958,59L102.829,21.4z"/>
			</g>
			<g>
				<path fill="#FB7D14" d="M134.407,39.298c-5.197-10.5-12.992-19.5-22.484-26.199l-9.195,8.3L60.958,59h77.846h1.998      C139.702,52,137.505,45.4,134.407,39.298z"/>
			</g>
			<g>
				<path fill="#FB7200" d="M19.786,21.8C10.192,31.8,3.497,44.7,0.999,59h59.959L19.786,21.8z"/>
			</g>
			<g>
				<path fill="#FB790D" d="M60.958,59H0.999c-0.699,3.899-1,7.899-1,12c0,8.801,1.6,17.301,4.598,25.102h14.189L60.958,59z"/>
			</g>
			<g>
				<path fill="#FB7200" d="M4.597,96.102c1.199,3.098,2.498,6.1,4.098,8.9l10.094-8.9H4.597z"/>
			</g>
			<g>
				<path fill="#FC8726" d="M102.329,96.102H19.087h-0.299l-10.094,8.9c6.494,11.896,16.287,21.697,28.08,28.197h24.184      L102.329,96.102z"/>
			</g>
			<g>
				<path fill="#FB821C" d="M36.675,133.199C46.868,138.801,58.46,142,70.952,142c0,0,0,0,0.1,0l-9.994-8.801H36.675z"/>
			</g>
			<g>
				<path fill="#FC8D30" d="M141.901,71c0-3.3-0.199-6.5-0.699-9.699l-38.475,34.801l0,0h-0.299l-41.471,37.1L70.95,142      C110.124,142,141.901,110.199,141.901,71z"/>
			</g>
			<g>
				<polygon fill="#FB7A0F" points="60.958,59 18.788,96.102 102.728,96.102     "/>
			</g>
			<g>
				<path fill="#FB821C" d="M60.958,59l41.77,37.102L141.202,61.3c-0.1-0.801-0.199-1.5-0.398-2.301h-2H60.958L60.958,59z"/>
			</g>
		</g>
	</g>
</g>
<g>
	<g>
		<defs>
			<path id="SVGID_1_" d="M142.002,70.995c0,39.218-31.787,71.003-71,71.003c-39.211,0-71-31.785-71-71.003     c0-39.205,31.789-70.992,71-70.992C110.215,0.002,142.002,31.79,142.002,70.995z"/>
		</defs>
		<clipPath id="SVGID_2_">
			<use xlink:href="#SVGID_1_" overflow="visible"/>
		</clipPath>
		<path clip-path="url(#SVGID_2_)" fill="#FF7200" d="M318.716,245.178c-0.047-0.273-0.252-0.492-0.52-0.559    c-0.064-0.244-0.252-0.438-0.5-0.5c-0.064-0.244-0.252-0.438-0.5-0.5c-0.064-0.244-0.252-0.438-0.5-0.5    c-0.064-0.244-0.252-0.438-0.5-0.5c-0.064-0.244-0.252-0.438-0.5-0.5c-0.064-0.244-0.252-0.438-0.5-0.5    c-0.064-0.244-0.252-0.438-0.5-0.5c-0.064-0.244-0.252-0.438-0.5-0.5c-0.064-0.244-0.252-0.438-0.5-0.5    c-0.064-0.244-0.252-0.438-0.5-0.5c-0.064-0.244-0.252-0.438-0.5-0.5c-0.064-0.244-0.252-0.438-0.5-0.5    c-0.064-0.244-0.252-0.438-0.5-0.5c-0.064-0.244-0.252-0.438-0.5-0.5c-0.064-0.244-0.252-0.438-0.5-0.5    c-0.064-0.244-0.252-0.438-0.5-0.5c-0.064-0.244-0.252-0.438-0.5-0.5c-0.064-0.244-0.252-0.438-0.5-0.5    c-0.064-0.244-0.252-0.438-0.5-0.5c-0.064-0.244-0.252-0.438-0.5-0.5c-0.064-0.244-0.252-0.438-0.5-0.5    c-0.064-0.244-0.252-0.438-0.5-0.5c-0.064-0.244-0.252-0.438-0.5-0.5c-0.064-0.244-0.252-0.438-0.5-0.5    c-0.064-0.244-0.252-0.438-0.5-0.5c-0.064-0.244-0.252-0.438-0.5-0.5c-0.064-0.244-0.252-0.438-0.5-0.5    c-0.064-0.244-0.252-0.438-0.5-0.5c-0.064-0.244-0.252-0.438-0.5-0.5c-0.064-0.244-0.252-0.438-0.5-0.5    c-0.064-0.244-0.252-0.438-0.5-0.5c-0.064-0.244-0.252-0.438-0.5-0.5c-0.064-0.244-0.252-0.438-0.5-0.5    c-0.064-0.244-0.252-0.438-0.5-0.5c-0.064-0.244-0.252-0.438-0.5-0.5c-0.064-0.244-0.252-0.438-0.5-0.5    c-0.064-0.244-0.252-0.438-0.5-0.5c-0.064-0.244-0.252-0.438-0.5-0.5c-0.064-0.244-0.252-0.438-0.5-0.5    c-0.064-0.244-0.252-0.438-0.5-0.5c-0.064-0.244-0.252-0.438-0.5-0.5c-0.064-0.244-0.252-0.438-0.5-0.5    c-0.064-0.244-0.252-0.438-0.5-0.5c-0.064-0.244-0.252-0.438-0.5-0.5c-0.064-0.244-0.252-0.438-0.5-0.5    c-0.064-0.244-0.252-0.438-0.5-0.5c-0.064-0.244-0.252-0.438-0.5-0.5c-0.064-0.244-0.252-0.438-0.5-0.5    c-0.064-0.244-0.252-0.438-0.5-0.5c-0.064-0.244-0.252-0.438-0.5-0.5c-0.064-0.244-0.252-0.438-0.5-0.5    c-0.064-0.244-0.252-0.438-0.5-0.5c-0.064-0.244-0.252-0.438-0.5-0.5c-0.064-0.244-0.252-0.438-0.5-0.5    c-0.064-0.244-0.252-0.438-0.5-0.5c-0.064-0.244-0.252-0.438-0.5-0.5c-0.064-0.244-0.252-0.438-0.5-0.5    c-0.064-0.244-0.252-0.438-0.5-0.5c-0.064-0.244-0.252-0.438-0.5-0.5c-0.064-0.244-0.252-0.438-0.5-0.5    c-0.064-0.244-0.252-0.438-0.5-0.5c-0.064-0.244-0.252-0.438-0.5-0.5c-0.064-0.244-0.252-0.438-0.5-0.5    c-0.064-0.244-0.252-0.438-0.5-0.5c-0.064-0.244-0.252-0.438-0.5-0.5c-0.064-0.244-0.252-0.438-0.5-0.5    c-0.064-0.244-0.252-0.438-0.5-0.5c-0.064-0.244-0.252-0.438-0.5-0.5c-0.064-0.244-0.252-0.438-0.5-0.5    c-0.064-0.244-0.252-0.438-0.5-0.5c-0.064-0.244-0.252-0.438-0.5-0.5c-0.064-0.244-0.252-0.438-0.5-0.5    c-0.064-0.244-0.252-0.438-0.5-0.5c-0.064-0.244-0.252-0.438-0.5-0.5c-0.064-0.244-0.252-0.438-0.5-0.5    c-0.064-0.244-0.252-0.438-0.5-0.5c-0.064-0.244-0.252-0.438-0.5-0.5c-0.064-0.244-0.252-0.438-0.5-0.5    c-0.064-0.244-0.252-0.438-0.5-0.5c-0.064-0.244-0.252-0.438-0.5-0.5c-0.064-0.244-0.252-0.438-0.5-0.5    c-0.064-0.244-0.252-0.438-0.5-0.5c-0.064-0.244-0.252-0.438-0.5-0.5c-0.064-0.244-0.252-0.438-0.5-0.5    c-0.064-0.244-0.252-0.438-0.5-0.5c-0.064-0.244-0.252-0.438-0.5-0.5c-0.064-0.244-0.252-0.438-0.5-0.5    c-0.064-0.244-0.252-0.438-0.5-0.5c-0.064-0.244-0.252-0.438-0.5-0.5c-0.064-0.244-0.252-0.438-0.5-0.5    c-0.064-0.244-0.252-0.438-0.5-0.5c-0.064-0.244-0.252-0.438-0.5-0.5c-0.064-0.244-0.252-0.438-0.5-0.5    c-0.064-0.244-0.252-0.438-0.5-0.5c-0.064-0.244-0.252-0.438-0.5-0.5c-0.064-0.244-0.252-0.438-0.5-0.5    c-0.064-0.244-0.252-0.438-0.5-0.5c-0.064-0.244-0.252-0.438-0.5-0.5c-0.064-0.244-0.252-0.438-0.5-0.5    c-0.064-0.244-0.252-0.438-0.5-0.5c-0.064-0.244-0.252-0.438-0.5-0.5c-0.064-0.244-0.252-0.438-0.5-0.5    c-0.064-0.244-0.252-0.438-0.5-0.5c-0.064-0.244-0.252-0.438-0.5-0.5c-0.064-0.244-0.252-0.438-0.5-0.5    c-0.064-0.244-0.252-0.438-0.5-0.5c-0.064-0.244-0.252-0.438-0.5-0.5c-0.064-0.244-0.252-0.438-0.5-0.5    c-0.064-0.244-0.252-0.438-0.5-0.5c-0.064-0.244-0.252-0.438-0.5-0.5c-0.064-0.244-0.252-0.438-0.5-0.5    c-0.064-0.244-0.252-0.438-0.5-0.5c-0.064-0.244-0.252-0.438-0.5-0.5c-0.064-0.244-0.252-0.438-0.5-0.5    c-0.064-0.244-0.252-0.438-0.5-0.5c-0.064-0.244-0.252-0.438-0.5-0.5c-0.064-0.244-0.252-0.438-0.5-0.5    c-0.064-0.244-0.252-0.438-0.5-0.5c-0.064-0.244-0.252-0.438-0.5-0.5c-0.064-0.244-0.252-0.438-0.5-0.5    c-0.064-0.244-0.252-0.438-0.5-0.5c-0.064-0.244-0.252-0.438-0.5-0.5c-0.064-0.244-0.252-0.438-0.5-0.5    c-0.064-0.244-0.252-0.438-0.5-0.5c-0.064-0.244-0.252-0.438-0.5-0.5c-0.064-0.244-0.252-0.438-0.5-0.5    c-0.064-0.244-0.252-0.438-0.5-0.5c-0.064-0.244-0.252-0.438-0.5-0.5c-0.064-0.244-0.252-0.438-0.5-0.5    c-0.064-0.244-0.252-0.438-0.5-0.5c-0.064-0.244-0.252-0.438-0.5-0.5c-0.064-0.244-0.252-0.438-0.5-0.5    c-0.064-0.244-0.252-0.438-0.5-0.5c-0.064-0.244-0.252-0.438-0.5-0.5c-0.064-0.244-0.252-0.438-0.5-0.5    c-0.064-0.244-0.252-0.438-0.5-0.5c-0.064-0.244-0.252-0.438-0.5-0.5c-0.064-0.244-0.252-0.438-0.5-0.5    c-0.064-0.244-0.252-0.438-0.5-0.5c-0.064-0.244-0.252-0.438-0.5-0.5c-0.064-0.244-0.252-0.438-0.5-0.5    c-0.064-0.244-0.252-0.438-0.5-0.5c-0.064-0.244-0.252-0.438-0.5-0.5c-0.064-0.244-0.252-0.438-0.5-0.5    c-0.064-0.244-0.252-0.438-0.5-0.5c-0.064-0.244-0.252-0.438-0.5-0.5c-0.064-0.244-0.252-0.438-0.5-0.5    c-0.064-0.244-0.252-0.438-0.5-0.5c-0.064-0.244-0.252-0.438-0.5-0.5c-0.064-0.244-0.252-0.438-0.5-0.5    c-0.064-0.244-0.252-0.438-0.5-0.5c-0.064-0.244-0.252-0.438-0.5-0.5c-0.064-0.244-0.252-0.438-0.5-0.5    c-0.064-0.244-0.252-0.438-0.5-0.5c-0.064-0.244-0.252-0.438-0.5-0.5c-0.064-0.244-0.252-0.438-0.5-0.5    c-0.064-0.244-0.252-0.438-0.5-0.5c-0.064-0.244-0.252-0.438-0.5-0.5c-0.064-0.244-0.252-0.438-0.5-0.5    c-0.064-0.244-0.252-0.438-0.5-0.5c-0.064-0.244-0.252-0.438-0.5-0.5c-0.064-0.244-0.252-0.438-0.5-0.5    c-0.064-0.244-0.252-0.438-0.5-0.5c-0.064-0.244-0.252-0.438-0.5-0.5c-0.064-0.244-0.252-0.438-0.5-0.5    c-0.064-0.244-0.252-0.438-0.5-0.5c-0.064-0.244-0.252-0.438-0.5-0.5c-0.064-0.244-0.252-0.438-0.5-0.5    c-0.064-0.244-0.252-0.438-0.5-0.5c-0.064-0.244-0.252-0.438-0.5-0.5c-0.064-0.244-0.252-0.438-0.5-0.5    c-0.064-0.244-0.252-0.438-0.5-0.5c-0.064-0.244-0.252-0.438-0.5-0.5c-0.064-0.244-0.251-0.438-0.499-0.5    c-0.064-0.244-0.252-0.438-0.5-0.5c-0.064-0.244-0.252-0.438-0.5-0.5c-0.064-0.244-0.252-0.438-0.5-0.5    c-0.064-0.244-0.252-0.438-0.5-0.5c-0.064-0.244-0.252-0.438-0.5-0.5c-0.064-0.244-0.252-0.438-0.5-0.5    c-0.064-0.244-0.252-0.438-0.5-0.5c-0.064-0.244-0.252-0.438-0.5-0.5c-0.064-0.244-0.252-0.438-0.5-0.5    c-0.064-0.244-0.252-0.438-0.5-0.5c-0.064-0.244-0.252-0.438-0.5-0.5c-0.064-0.244-0.252-0.438-0.5-0.5    c-0.064-0.244-0.252-0.438-0.5-0.5c-0.064-0.244-0.252-0.438-0.5-0.5c-0.064-0.244-0.252-0.438-0.5-0.5    c-0.064-0.244-0.252-0.438-0.5-0.5c-0.064-0.244-0.252-0.438-0.5-0.5c-0.064-0.244-0.252-0.438-0.5-0.5    c-0.064-0.244-0.252-0.438-0.5-0.5c-0.064-0.244-0.252-0.438-0.5-0.5c-0.064-0.244-0.252-0.438-0.5-0.5    c-0.064-0.244-0.252-0.438-0.5-0.5c-0.064-0.244-0.252-0.438-0.5-0.5c-0.064-0.244-0.252-0.438-0.5-0.5    c-0.064-0.244-0.252-0.438-0.5-0.5c-0.064-0.244-0.252-0.438-0.5-0.5c-0.064-0.244-0.252-0.438-0.5-0.5    c-0.064-0.244-0.252-0.438-0.5-0.5c-0.064-0.244-0.252-0.438-0.5-0.5c-0.064-0.244-0.252-0.438-0.5-0.5    c-0.064-0.244-0.252-0.438-0.5-0.5c-0.064-0.244-0.252-0.438-0.5-0.5c-0.064-0.244-0.252-0.438-0.5-0.5    c-0.064-0.244-0.252-0.438-0.5-0.5c-0.064-0.244-0.252-0.438-0.5-0.5c-0.064-0.244-0.252-0.438-0.5-0.5    c-0.064-0.244-0.252-0.438-0.5-0.5c-0.064-0.244-0.252-0.438-0.5-0.5c-0.064-0.244-0.252-0.438-0.5-0.5    c-0.064-0.244-0.252-0.438-0.5-0.5c-0.064-0.244-0.252-0.438-0.5-0.5c-0.064-0.244-0.252-0.438-0.5-0.5    c-0.064-0.244-0.252-0.438-0.5-0.5c-0.064-0.244-0.252-0.438-0.5-0.5c-0.064-0.244-0.252-0.438-0.5-0.5    c-0.064-0.244-0.252-0.438-0.5-0.5c-0.064-0.244-0.252-0.438-0.5-0.5c-0.064-0.244-0.252-0.438-0.5-0.5    c-0.064-0.244-0.252-0.438-0.5-0.5c-0.064-0.244-0.252-0.438-0.5-0.5c-0.064-0.244-0.252-0.438-0.5-0.5    c-0.064-0.244-0.252-0.438-0.5-0.5c-0.064-0.244-0.252-0.438-0.5-0.5c-0.064-0.244-0.252-0.438-0.5-0.5    c-0.064-0.244-0.252-0.438-0.5-0.5c-0.064-0.244-0.252-0.438-0.5-0.5c-0.064-0.244-0.252-0.438-0.5-0.5    c-0.064-0.244-0.252-0.438-0.5-0.5c-0.064-0.244-0.252-0.438-0.5-0.5c-0.064-0.244-0.252-0.438-0.5-0.5    c-0.064-0.244-0.252-0.438-0.5-0.5c-0.064-0.244-0.252-0.438-0.5-0.5c-0.064-0.244-0.252-0.438-0.5-0.5    c-0.064-0.244-0.252-0.438-0.5-0.5c-0.064-0.244-0.252-0.438-0.5-0.5c-0.064-0.244-0.252-0.438-0.5-0.5    c-0.064-0.244-0.252-0.438-0.5-0.5c-0.064-0.244-0.252-0.438-0.5-0.5c-0.064-0.244-0.252-0.438-0.5-0.5    c-0.064-0.244-0.252-0.438-0.5-0.5c-0.064-0.244-0.252-0.438-0.5-0.5c-0.064-0.244-0.252-0.438-0.5-0.5    c-0.064-0.244-0.252-0.438-0.5-0.5c-0.064-0.244-0.252-0.438-0.5-0.5c-0.064-0.244-0.252-0.438-0.5-0.5    c-0.064-0.244-0.252-0.438-0.5-0.5c-0.064-0.244-0.252-0.438-0.5-0.5c-0.064-0.244-0.252-0.438-0.5-0.5    c-0.064-0.244-0.252-0.438-0.5-0.5c-0.064-0.244-0.252-0.438-0.5-0.5c-0.064-0.244-0.252-0.438-0.5-0.5    c-0.064-0.244-0.252-0.438-0.5-0.5c-0.064-0.244-0.252-0.438-0.5-0.5c-0.064-0.244-0.252-0.438-0.5-0.5    c-0.064-0.244-0.252-0.438-0.5-0.5c-0.064-0.244-0.252-0.438-0.5-0.5c-0.064-0.244-0.252-0.438-0.5-0.5    c-0.064-0.244-0.252-0.438-0.5-0.5c-0.064-0.244-0.252-0.438-0.5-0.5c-0.064-0.244-0.252-0.438-0.5-0.5    c-0.064-0.244-0.252-0.438-0.5-0.5c-0.064-0.244-0.252-0.438-0.5-0.5c-0.064-0.244-0.252-0.438-0.5-0.5    c-0.064-0.244-0.252-0.438-0.5-0.5c-0.064-0.244-0.252-0.438-0.5-0.5c-0.064-0.244-0.252-0.438-0.5-0.5    c-0.064-0.244-0.252-0.438-0.5-0.5c-0.064-0.244-0.252-0.438-0.5-0.5c-0.064-0.244-0.252-0.438-0.5-0.5    c-0.064-0.244-0.252-0.438-0.5-0.5c-0.064-0.244-0.252-0.438-0.5-0.5c-0.064-0.244-0.252-0.438-0.5-0.5    c-0.064-0.244-0.252-0.438-0.5-0.5c-0.064-0.244-0.252-0.438-0.5-0.5c-0.064-0.244-0.252-0.438-0.5-0.5    c-0.064-0.244-0.252-0.438-0.5-0.5c-0.064-0.244-0.252-0.438-0.5-0.5c-0.064-0.244-0.252-0.438-0.5-0.5    c-0.064-0.244-0.252-0.438-0.5-0.5c-0.064-0.244-0.252-0.438-0.5-0.5c-0.064-0.244-0.252-0.438-0.5-0.5    c-0.064-0.244-0.252-0.438-0.5-0.5c-0.064-0.244-0.252-0.438-0.5-0.5c-0.064-0.244-0.252-0.438-0.5-0.5    c-0.064-0.244-0.252-0.438-0.5-0.5c-0.064-0.244-0.252-0.438-0.5-0.5c-0.064-0.244-0.252-0.438-0.5-0.5    c-0.064-0.244-0.252-0.438-0.5-0.5c-0.064-0.244-0.252-0.438-0.5-0.5c-0.064-0.244-0.252-0.438-0.5-0.5    c-0.064-0.244-0.252-0.438-0.5-0.5c-0.064-0.244-0.252-0.438-0.5-0.5c-0.064-0.244-0.252-0.438-0.5-0.5    c-0.064-0.244-0.252-0.438-0.5-0.5c-0.064-0.244-0.252-0.438-0.5-0.5c-0.064-0.244-0.252-0.438-0.5-0.5    c-0.064-0.244-0.252-0.438-0.5-0.5c-0.064-0.244-0.252-0.438-0.5-0.5c-0.064-0.244-0.252-0.438-0.5-0.5    c-0.064-0.244-0.252-0.438-0.5-0.5c-0.064-0.244-0.252-0.438-0.5-0.5c-0.064-0.244-0.252-0.438-0.5-0.5    c-0.064-0.244-0.252-0.438-0.5-0.5c-0.064-0.244-0.252-0.438-0.5-0.5c-0.064-0.244-0.252-0.438-0.5-0.5    c-0.064-0.244-0.252-0.438-0.5-0.5c-0.064-0.244-0.252-0.438-0.5-0.5c-0.064-0.244-0.252-0.438-0.5-0.5    c-0.064-0.244-0.252-0.438-0.5-0.5c-0.064-0.244-0.252-0.438-0.5-0.5c-0.064-0.244-0.252-0.438-0.5-0.5    c-0.064-0.244-0.252-0.438-0.5-0.5c-0.064-0.244-0.252-0.438-0.5-0.5c-0.064-0.244-0.252-0.438-0.5-0.5    c-0.064-0.244-0.252-0.438-0.5-0.5c-0.064-0.244-0.252-0.438-0.5-0.5c-0.064-0.244-0.252-0.438-0.5-0.5    c-0.064-0.244-0.252-0.438-0.5-0.5c-0.064-0.244-0.252-0.438-0.5-0.5c-0.064-0.244-0.252-0.438-0.5-0.5    c-0.064-0.244-0.252-0.438-0.5-0.5c-0.064-0.244-0.252-0.438-0.5-0.5c-0.064-0.244-0.252-0.438-0.5-0.5    c-0.064-0.244-0.252-0.438-0.5-0.5c-0.064-0.244-0.252-0.438-0.5-0.5c-0.064-0.244-0.252-0.438-0.5-0.5    c-0.064-0.244-0.252-0.438-0.5-0.5c-0.064-0.244-0.252-0.438-0.5-0.5c-0.064-0.244-0.252-0.438-0.5-0.5    c-0.064-0.244-0.252-0.438-0.5-0.5c-0.064-0.244-0.252-0.438-0.5-0.5c-0.064-0.244-0.252-0.438-0.5-0.5    c-0.064-0.244-0.252-0.438-0.5-0.5c-0.064-0.244-0.252-0.438-0.5-0.5c-0.064-0.244-0.252-0.438-0.5-0.5    c-0.064-0.244-0.252-0.438-0.5-0.5c-0.064-0.244-0.252-0.438-0.5-0.5c-0.064-0.244-0.252-0.438-0.5-0.5    c-0.064-0.244-0.252-0.438-0.5-0.5c-0.064-0.244-0.252-0.438-0.5-0.5c-0.064-0.244-0.252-0.438-0.5-0.5    c-0.064-0.244-0.252-0.438-0.5-0.5c-0.064-0.244-0.252-0.438-0.5-0.5c-0.064-0.244-0.252-0.438-0.5-0.5    c-0.064-0.244-0.252-0.438-0.5-0.5c-0.064-0.244-0.252-0.438-0.5-0.5c-0.064-0.244-0.252-0.438-0.5-0.5    c-0.064-0.244-0.252-0.438-0.5-0.5c-0.064-0.244-0.252-0.438-0.5-0.5c-0.064-0.244-0.252-0.438-0.5-0.5    c-0.064-0.244-0.252-0.438-0.5-0.5c-0.064-0.244-0.252-0.438-0.5-0.5c-0.064-0.244-0.252-0.438-0.5-0.5    c-0.064-0.244-0.252-0.438-0.5-0.5c-0.064-0.244-0.252-0.438-0.5-0.5c-0.064-0.244-0.252-0.438-0.5-0.5    c-0.064-0.244-0.252-0.438-0.5-0.5c-0.064-0.244-0.252-0.438-0.5-0.5c-0.064-0.244-0.252-0.438-0.5-0.5    c-0.064-0.244-0.252-0.438-0.5-0.5c-0.064-0.244-0.252-0.438-0.5-0.5c-0.064-0.244-0.252-0.438-0.5-0.5    c-0.064-0.244-0.252-0.438-0.5-0.5c-0.064-0.244-0.252-0.438-0.5-0.5c-0.064-0.244-0.252-0.438-0.5-0.5    c-0.064-0.244-0.252-0.438-0.5-0.5c-0.064-0.244-0.252-0.438-0.5-0.5c-0.064-0.244-0.252-0.438-0.5-0.5    c-0.064-0.244-0.252-0.438-0.5-0.5c-0.064-0.244-0.252-0.438-0.5-0.5c-0.064-0.244-0.252-0.438-0.5-0.5    c-0.064-0.244-0.252-0.438-0.5-0.5c-0.064-0.244-0.252-0.438-0.5-0.5c-0.064-0.244-0.252-0.438-0.5-0.5    c-0.064-0.244-0.252-0.438-0.5-0.5c-0.064-0.244-0.252-0.438-0.5-0.5c-0.064-0.244-0.252-0.438-0.5-0.5    c-0.064-0.244-0.252-0.438-0.5-0.5c-0.064-0.244-0.252-0.438-0.5-0.5c-0.064-0.244-0.252-0.438-0.5-0.5    c-0.064-0.244-0.252-0.438-0.5-0.5c-0.064-0.244-0.252-0.438-0.5-0.5c-0.064-0.244-0.252-0.438-0.5-0.5    c-0.064-0.244-0.252-0.438-0.5-0.5c-0.064-0.244-0.252-0.438-0.5-0.5c-0.064-0.244-0.252-0.438-0.5-0.5    c-0.064-0.244-0.252-0.438-0.5-0.5c-0.064-0.244-0.252-0.438-0.5-0.5c-0.064-0.244-0.252-0.438-0.5-0.5    c-0.064-0.244-0.252-0.438-0.5-0.5c-0.064-0.244-0.252-0.438-0.5-0.5c-0.064-0.244-0.252-0.438-0.5-0.5    c-0.064-0.244-0.252-0.438-0.5-0.5c-0.064-0.244-0.252-0.438-0.5-0.5c-0.064-0.244-0.252-0.438-0.5-0.5    c-0.064-0.244-0.252-0.438-0.5-0.5c-0.064-0.244-0.252-0.438-0.5-0.5c-0.064-0.244-0.252-0.438-0.5-0.5    c-0.064-0.244-0.252-0.438-0.5-0.5c-0.064-0.244-0.252-0.438-0.5-0.5c-0.064-0.244-0.252-0.438-0.5-0.5    c-0.064-0.244-0.252-0.438-0.5-0.5c-0.064-0.244-0.252-0.438-0.5-0.5c-0.064-0.244-0.252-0.438-0.5-0.5    c-0.064-0.244-0.252-0.438-0.5-0.5c-0.064-0.244-0.252-0.438-0.5-0.5c-0.064-0.244-0.252-0.438-0.5-0.5    c-0.064-0.244-0.252-0.438-0.5-0.5c-0.064-0.244-0.252-0.438-0.5-0.5c-0.064-0.244-0.252-0.438-0.5-0.5    c-0.064-0.244-0.252-0.438-0.5-0.5c-0.064-0.244-0.252-0.438-0.5-0.5c-0.064-0.244-0.252-0.438-0.5-0.5    c-0.064-0.244-0.252-0.438-0.5-0.5c-0.064-0.244-0.252-0.438-0.5-0.5c-0.066-0.252-0.262-0.451-0.518-0.508    c-0.051-0.01-1.17-0.256-3.199-0.256c-6.168,0-18.965,2.174-35.334,16.74c-2.842,2.529-5.396,5.096-7.588,7.633l-11.66,2.084    c-0.148,0.027-0.281,0.1-0.385,0.207l-8.851,9.299c-0.164,0.172-0.229,0.414-0.177,0.645c0.054,0.23,0.22,0.418,0.441,0.5    l0.07,0.025c0.061,0.217,0.217,0.396,0.43,0.475l0.07,0.025c0.061,0.217,0.217,0.396,0.43,0.475l0.07,0.025    c0.061,0.217,0.217,0.396,0.43,0.475l0.07,0.025c0.061,0.217,0.217,0.396,0.43,0.475l0.07,0.025    c0.061,0.217,0.217,0.396,0.43,0.475l0.07,0.025c0.061,0.217,0.217,0.396,0.43,0.475l0.07,0.025    c0.061,0.217,0.217,0.396,0.43,0.475l0.07,0.025c0.061,0.217,0.217,0.396,0.43,0.475l0.07,0.025    c0.061,0.217,0.217,0.396,0.43,0.475l0.07,0.025c0.061,0.217,0.217,0.396,0.43,0.475l0.07,0.025    c0.061,0.217,0.217,0.396,0.43,0.475l0.07,0.025c0.061,0.217,0.217,0.396,0.43,0.475l0.07,0.025    c0.061,0.217,0.217,0.396,0.43,0.475l0.07,0.025c0.061,0.217,0.217,0.396,0.43,0.475l0.07,0.025    c0.061,0.217,0.217,0.396,0.43,0.475l0.07,0.025c0.061,0.217,0.217,0.396,0.43,0.475l0.07,0.025    c0.061,0.217,0.217,0.396,0.43,0.475l0.07,0.025c0.061,0.217,0.217,0.396,0.43,0.475l0.07,0.025    c0.061,0.217,0.217,0.396,0.43,0.475l0.07,0.025c0.061,0.217,0.217,0.396,0.43,0.475l0.07,0.025    c0.061,0.217,0.217,0.396,0.43,0.475l0.07,0.025c0.061,0.217,0.217,0.396,0.43,0.475l0.07,0.025    c0.061,0.217,0.217,0.396,0.43,0.475l0.07,0.025c0.027,0.096,0.072,0.182,0.133,0.256L48.75,87.26    c-0.104,0.094-0.162,0.221-0.195,0.355L48.39,87.51c-0.045-0.137-0.121-0.26-0.246-0.338L47.89,87.01    c-0.045-0.137-0.121-0.26-0.246-0.338L47.39,86.51c-0.045-0.137-0.121-0.26-0.246-0.338L46.89,86.01    c-0.045-0.137-0.121-0.26-0.246-0.338l-3.647-2.313c-0.24-0.152-0.562-0.123-0.769,0.08l-8.914,8.689    c-0.121,0.113-0.188,0.275-0.188,0.441v6.086c0,0.252,0.15,0.48,0.381,0.574c0.049,0.021,0.1,0.023,0.15,0.031    c0.037,0.205,0.154,0.389,0.35,0.469c0.049,0.021,0.1,0.023,0.15,0.031c0.037,0.205,0.154,0.389,0.35,0.469    c0.049,0.021,0.1,0.023,0.15,0.031c0.037,0.205,0.154,0.389,0.35,0.469c0.049,0.021,0.1,0.023,0.15,0.031    c0.035,0.193,0.145,0.361,0.324,0.447l-2.185,2.307c-0.108,0.117-0.172,0.365-0.172,0.525v2.98c0,0.309,0.228,0.551,0.521,0.602    c0.045,0.26,0.242,0.455,0.5,0.5c0.045,0.26,0.242,0.455,0.5,0.5c0.045,0.26,0.242,0.455,0.5,0.5c0.045,0.26,0.242,0.455,0.5,0.5    c0.045,0.26,0.242,0.455,0.5,0.5c0.045,0.26,0.242,0.455,0.5,0.5c0.045,0.26,0.242,0.455,0.5,0.5c0.045,0.26,0.242,0.455,0.5,0.5    c0.045,0.26,0.242,0.455,0.5,0.5c0.045,0.26,0.242,0.455,0.5,0.5c0.045,0.26,0.242,0.455,0.5,0.5c0.045,0.26,0.242,0.455,0.5,0.5    c0.045,0.26,0.242,0.455,0.5,0.5c0.045,0.26,0.242,0.455,0.5,0.5c0.045,0.26,0.242,0.455,0.5,0.5c0.045,0.26,0.242,0.455,0.5,0.5    c0.045,0.26,0.242,0.455,0.5,0.5c0.045,0.26,0.242,0.455,0.5,0.5c0.045,0.26,0.242,0.455,0.5,0.5c0.045,0.26,0.242,0.455,0.5,0.5    c0.045,0.26,0.242,0.455,0.5,0.5c0.045,0.26,0.242,0.455,0.5,0.5c0.045,0.26,0.242,0.455,0.5,0.5c0.045,0.26,0.242,0.455,0.5,0.5    c0.045,0.26,0.242,0.455,0.5,0.5c0.045,0.26,0.242,0.455,0.5,0.5c0.045,0.26,0.242,0.455,0.5,0.5c0.045,0.26,0.242,0.455,0.5,0.5    c0.045,0.26,0.242,0.455,0.5,0.5c0.045,0.26,0.242,0.455,0.5,0.5c0.045,0.26,0.242,0.455,0.5,0.5c0.045,0.26,0.242,0.455,0.5,0.5    c0.045,0.26,0.242,0.455,0.5,0.5c0.045,0.26,0.242,0.455,0.5,0.5c0.045,0.26,0.242,0.455,0.5,0.5c0.045,0.26,0.242,0.455,0.5,0.5    c0.045,0.26,0.242,0.455,0.5,0.5c0.045,0.26,0.242,0.455,0.5,0.5c0.045,0.26,0.242,0.455,0.5,0.5c0.045,0.26,0.242,0.455,0.5,0.5    c0.045,0.26,0.242,0.455,0.5,0.5c0.045,0.26,0.242,0.455,0.5,0.5c0.045,0.26,0.242,0.455,0.5,0.5c0.045,0.26,0.242,0.455,0.5,0.5    c0.045,0.26,0.242,0.455,0.5,0.5c0.045,0.26,0.242,0.455,0.5,0.5c0.045,0.26,0.242,0.455,0.5,0.5c0.045,0.26,0.242,0.455,0.5,0.5    c0.045,0.26,0.242,0.455,0.5,0.5c0.045,0.26,0.242,0.455,0.5,0.5c0.045,0.26,0.242,0.455,0.5,0.5c0.045,0.26,0.242,0.455,0.5,0.5    c0.045,0.26,0.242,0.455,0.5,0.5c0.045,0.26,0.242,0.455,0.5,0.5c0.045,0.26,0.242,0.455,0.5,0.5c0.045,0.26,0.242,0.455,0.5,0.5    c0.045,0.26,0.242,0.455,0.5,0.5c0.045,0.26,0.242,0.455,0.5,0.5c0.045,0.26,0.242,0.455,0.5,0.5c0.045,0.26,0.242,0.455,0.5,0.5    c0.045,0.26,0.242,0.455,0.5,0.5c0.045,0.26,0.242,0.455,0.5,0.5c0.045,0.26,0.242,0.455,0.5,0.5c0.045,0.26,0.242,0.455,0.5,0.5    c0.045,0.26,0.242,0.455,0.5,0.5c0.045,0.26,0.242,0.455,0.5,0.5c0.045,0.26,0.242,0.455,0.5,0.5c0.045,0.26,0.242,0.455,0.5,0.5    c0.045,0.26,0.242,0.455,0.5,0.5c0.045,0.26,0.242,0.455,0.5,0.5c0.045,0.26,0.242,0.455,0.5,0.5c0.045,0.26,0.242,0.455,0.5,0.5    c0.045,0.26,0.242,0.455,0.5,0.5c0.045,0.26,0.242,0.455,0.5,0.5c0.045,0.26,0.242,0.455,0.5,0.5c0.045,0.26,0.242,0.455,0.5,0.5    c0.045,0.26,0.242,0.455,0.5,0.5c0.045,0.26,0.242,0.455,0.5,0.5c0.045,0.26,0.242,0.455,0.5,0.5c0.045,0.26,0.242,0.455,0.5,0.5    c0.045,0.26,0.242,0.455,0.5,0.5c0.045,0.26,0.242,0.455,0.5,0.5c0.045,0.26,0.242,0.455,0.5,0.5c0.045,0.26,0.242,0.455,0.5,0.5    c0.045,0.26,0.242,0.455,0.5,0.5c0.045,0.26,0.242,0.455,0.5,0.5c0.045,0.26,0.242,0.455,0.5,0.5c0.045,0.26,0.242,0.455,0.5,0.5    c0.045,0.26,0.242,0.455,0.5,0.5c0.045,0.26,0.242,0.455,0.5,0.5c0.045,0.26,0.242,0.455,0.5,0.5c0.045,0.26,0.242,0.455,0.5,0.5    c0.045,0.26,0.242,0.455,0.5,0.5c0.045,0.26,0.242,0.455,0.5,0.5c0.045,0.26,0.242,0.455,0.5,0.5c0.045,0.26,0.242,0.455,0.5,0.5    c0.045,0.26,0.242,0.455,0.5,0.5c0.045,0.26,0.242,0.455,0.5,0.5c0.045,0.26,0.242,0.455,0.5,0.5c0.045,0.26,0.242,0.455,0.5,0.5    c0.045,0.26,0.242,0.455,0.5,0.5c0.045,0.26,0.242,0.455,0.5,0.5c0.045,0.26,0.242,0.455,0.5,0.5c0.045,0.26,0.242,0.455,0.5,0.5    c0.045,0.26,0.242,0.455,0.5,0.5c0.045,0.26,0.242,0.455,0.5,0.5c0.045,0.26,0.242,0.455,0.5,0.5c0.045,0.26,0.242,0.455,0.5,0.5    c0.045,0.26,0.242,0.455,0.5,0.5c0.045,0.26,0.242,0.455,0.5,0.5c0.045,0.26,0.242,0.455,0.5,0.5c0.045,0.26,0.242,0.455,0.5,0.5    c0.045,0.26,0.242,0.455,0.5,0.5c0.045,0.26,0.242,0.455,0.5,0.5c0.045,0.26,0.242,0.455,0.5,0.5c0.045,0.26,0.242,0.455,0.5,0.5    c0.045,0.26,0.242,0.455,0.5,0.5c0.045,0.26,0.242,0.455,0.5,0.5c0.045,0.26,0.242,0.455,0.5,0.5c0.045,0.26,0.242,0.455,0.5,0.5    c0.045,0.26,0.242,0.455,0.5,0.5c0.045,0.26,0.242,0.455,0.5,0.5c0.045,0.26,0.242,0.455,0.5,0.5c0.045,0.26,0.242,0.455,0.5,0.5    c0.045,0.26,0.242,0.455,0.5,0.5c0.045,0.26,0.242,0.455,0.5,0.5c0.045,0.26,0.242,0.455,0.5,0.5c0.045,0.26,0.242,0.455,0.5,0.5    c0.045,0.26,0.242,0.455,0.5,0.5c0.045,0.26,0.242,0.455,0.5,0.5c0.045,0.26,0.242,0.455,0.5,0.5c0.045,0.26,0.242,0.455,0.5,0.5    c0.045,0.26,0.242,0.455,0.5,0.5c0.045,0.26,0.242,0.455,0.5,0.5c0.045,0.26,0.242,0.455,0.5,0.5c0.045,0.26,0.242,0.455,0.5,0.5    c0.045,0.26,0.242,0.455,0.5,0.5c0.045,0.26,0.242,0.455,0.5,0.5c0.045,0.26,0.242,0.455,0.5,0.5c0.045,0.26,0.242,0.455,0.5,0.5    c0.045,0.26,0.242,0.455,0.5,0.5c0.045,0.26,0.242,0.455,0.5,0.5c0.045,0.26,0.242,0.455,0.5,0.5c0.045,0.26,0.242,0.455,0.5,0.5    c0.045,0.26,0.242,0.455,0.5,0.5c0.045,0.26,0.242,0.455,0.5,0.5c0.045,0.26,0.242,0.455,0.5,0.5c0.045,0.26,0.242,0.455,0.5,0.5    c0.045,0.26,0.242,0.455,0.5,0.5c0.045,0.26,0.242,0.455,0.5,0.5c0.045,0.26,0.242,0.455,0.5,0.5c0.045,0.26,0.242,0.455,0.5,0.5    c0.045,0.26,0.242,0.455,0.5,0.5c0.045,0.26,0.242,0.455,0.5,0.5c0.045,0.26,0.242,0.455,0.5,0.5c0.045,0.26,0.242,0.455,0.5,0.5    c0.045,0.26,0.242,0.455,0.5,0.5c0.045,0.26,0.242,0.455,0.5,0.5c0.045,0.26,0.242,0.455,0.5,0.5c0.045,0.26,0.242,0.455,0.5,0.5    c0.045,0.26,0.242,0.455,0.5,0.5c0.045,0.26,0.242,0.455,0.5,0.5c0.045,0.26,0.242,0.455,0.5,0.5c0.045,0.26,0.242,0.455,0.5,0.5    c0.045,0.26,0.242,0.455,0.5,0.5c0.045,0.26,0.242,0.455,0.5,0.5c0.045,0.26,0.242,0.455,0.5,0.5c0.045,0.26,0.242,0.455,0.5,0.5    c0.045,0.26,0.242,0.455,0.5,0.5c0.045,0.26,0.242,0.455,0.5,0.5c0.045,0.26,0.242,0.455,0.5,0.5c0.045,0.26,0.242,0.455,0.5,0.5    c0.045,0.26,0.242,0.455,0.5,0.5c0.045,0.26,0.242,0.455,0.5,0.5c0.045,0.26,0.242,0.455,0.5,0.5c0.045,0.26,0.242,0.455,0.5,0.5    c0.045,0.26,0.242,0.455,0.5,0.5c0.045,0.26,0.242,0.455,0.5,0.5c0.045,0.26,0.242,0.455,0.5,0.5c0.045,0.26,0.242,0.455,0.5,0.5    c0.045,0.26,0.242,0.455,0.5,0.5c0.045,0.26,0.242,0.455,0.5,0.5c0.045,0.26,0.242,0.455,0.5,0.5c0.045,0.26,0.242,0.455,0.5,0.5    c0.045,0.26,0.242,0.455,0.5,0.5c0.045,0.26,0.242,0.455,0.5,0.5c0.045,0.26,0.242,0.455,0.5,0.5c0.045,0.26,0.242,0.455,0.5,0.5    c0.045,0.26,0.242,0.455,0.5,0.5c0.045,0.26,0.242,0.455,0.5,0.5c0.045,0.26,0.242,0.455,0.5,0.5c0.045,0.26,0.242,0.455,0.5,0.5    c0.045,0.26,0.242,0.455,0.5,0.5c0.045,0.26,0.242,0.455,0.5,0.5c0.045,0.26,0.242,0.455,0.5,0.5c0.045,0.26,0.242,0.455,0.5,0.5    c0.045,0.26,0.242,0.455,0.5,0.5c0.045,0.26,0.242,0.455,0.5,0.5c0.045,0.26,0.242,0.455,0.5,0.5c0.045,0.26,0.242,0.455,0.5,0.5    c0.045,0.26,0.242,0.455,0.5,0.5c0.045,0.26,0.242,0.455,0.5,0.5c0.045,0.26,0.242,0.455,0.5,0.5c0.045,0.26,0.242,0.455,0.5,0.5    c0.045,0.26,0.242,0.455,0.5,0.5c0.045,0.26,0.242,0.455,0.5,0.5c0.045,0.26,0.242,0.455,0.5,0.5c0.045,0.26,0.242,0.455,0.5,0.5    c0.045,0.26,0.242,0.455,0.5,0.5c0.045,0.26,0.242,0.455,0.5,0.5c0.045,0.26,0.242,0.455,0.5,0.5c0.045,0.26,0.242,0.455,0.5,0.5    c0.045,0.26,0.242,0.455,0.5,0.5c0.045,0.26,0.242,0.455,0.5,0.5c0.045,0.26,0.242,0.455,0.5,0.5c0.045,0.26,0.242,0.455,0.5,0.5    c0.045,0.26,0.242,0.455,0.5,0.5c0.045,0.26,0.242,0.455,0.5,0.5c0.045,0.26,0.242,0.455,0.5,0.5c0.045,0.26,0.242,0.455,0.5,0.5    c0.045,0.26,0.242,0.455,0.5,0.5c0.045,0.26,0.242,0.455,0.5,0.5c0.045,0.26,0.242,0.455,0.5,0.5c0.045,0.26,0.242,0.455,0.5,0.5    c0.045,0.26,0.242,0.455,0.5,0.5c0.045,0.26,0.242,0.455,0.5,0.5c0.045,0.26,0.242,0.455,0.5,0.5c0.045,0.26,0.242,0.455,0.5,0.5    c0.045,0.26,0.242,0.455,0.5,0.5c0.045,0.26,0.242,0.455,0.5,0.5c0.045,0.26,0.242,0.455,0.5,0.5c0.045,0.26,0.242,0.455,0.5,0.5    c0.045,0.26,0.242,0.455,0.5,0.5c0.045,0.26,0.242,0.455,0.5,0.5c0.045,0.26,0.242,0.455,0.5,0.5c0.045,0.26,0.242,0.455,0.5,0.5    c0.045,0.26,0.242,0.455,0.5,0.5c0.045,0.26,0.242,0.455,0.5,0.5c0.045,0.26,0.242,0.455,0.5,0.5c0.045,0.26,0.242,0.455,0.5,0.5    c0.045,0.26,0.242,0.455,0.5,0.5c0.045,0.26,0.242,0.455,0.5,0.5c0.045,0.26,0.242,0.455,0.5,0.5c0.045,0.26,0.242,0.455,0.5,0.5    c0.045,0.26,0.242,0.455,0.5,0.5c0.045,0.26,0.242,0.455,0.5,0.5c0.045,0.26,0.242,0.455,0.5,0.5c0.045,0.26,0.242,0.455,0.5,0.5    c0.045,0.26,0.242,0.455,0.5,0.5c0.045,0.26,0.242,0.455,0.5,0.5c0.045,0.26,0.242,0.455,0.5,0.5c0.045,0.26,0.242,0.455,0.5,0.5    c0.045,0.26,0.242,0.455,0.5,0.5c0.045,0.26,0.242,0.455,0.5,0.5c0.045,0.26,0.242,0.455,0.5,0.5c0.045,0.26,0.242,0.455,0.5,0.5    c0.045,0.26,0.242,0.455,0.5,0.5c0.045,0.26,0.242,0.455,0.5,0.5c0.045,0.26,0.242,0.455,0.5,0.5c0.045,0.26,0.242,0.455,0.5,0.5    c0.045,0.26,0.242,0.455,0.5,0.5c0.045,0.26,0.242,0.455,0.5,0.5c0.045,0.26,0.242,0.455,0.5,0.5c0.045,0.26,0.242,0.455,0.5,0.5    c0.045,0.26,0.242,0.455,0.5,0.5c0.045,0.26,0.242,0.455,0.5,0.5c0.045,0.26,0.242,0.455,0.5,0.5c0.045,0.26,0.242,0.455,0.5,0.5    c0.045,0.26,0.242,0.455,0.5,0.5c0.045,0.26,0.242,0.455,0.5,0.5c0.045,0.26,0.242,0.455,0.5,0.5c0.045,0.26,0.242,0.455,0.5,0.5    c0.045,0.26,0.242,0.455,0.5,0.5c0.045,0.26,0.242,0.455,0.5,0.5c0.045,0.26,0.242,0.455,0.5,0.5c0.045,0.26,0.242,0.455,0.5,0.5    c0.045,0.26,0.242,0.455,0.5,0.5c0.045,0.26,0.242,0.455,0.5,0.5c0.045,0.26,0.242,0.455,0.5,0.5c0.045,0.26,0.242,0.455,0.5,0.5    c0.045,0.26,0.242,0.455,0.5,0.5c0.045,0.26,0.242,0.455,0.5,0.5c0.045,0.26,0.242,0.455,0.5,0.5c0.045,0.26,0.242,0.455,0.5,0.5    c0.045,0.26,0.242,0.455,0.5,0.5c0.045,0.26,0.242,0.455,0.5,0.5c0.045,0.26,0.242,0.455,0.5,0.5c0.045,0.26,0.242,0.455,0.5,0.5    c0.045,0.26,0.242,0.455,0.5,0.5c0.045,0.26,0.242,0.455,0.5,0.5c0.045,0.26,0.242,0.455,0.5,0.5c0.045,0.26,0.242,0.455,0.5,0.5    c0.045,0.26,0.242,0.455,0.5,0.5c0.045,0.26,0.242,0.455,0.5,0.5c0.045,0.26,0.242,0.455,0.5,0.5c0.045,0.26,0.242,0.455,0.5,0.5    c0.045,0.26,0.242,0.455,0.5,0.5c0.045,0.26,0.242,0.455,0.5,0.5c0.045,0.26,0.242,0.455,0.5,0.5c0.045,0.26,0.242,0.455,0.5,0.5    c0.045,0.26,0.242,0.455,0.5,0.5c0.045,0.26,0.242,0.455,0.5,0.5c0.045,0.26,0.242,0.455,0.5,0.5c0.045,0.26,0.242,0.455,0.5,0.5    c0.045,0.26,0.242,0.455,0.5,0.5c0.045,0.26,0.242,0.455,0.5,0.5c0.045,0.26,0.242,0.455,0.5,0.5c0.045,0.26,0.242,0.455,0.5,0.5    c0.045,0.26,0.242,0.455,0.5,0.5c0.045,0.26,0.242,0.455,0.5,0.5c0.045,0.26,0.242,0.455,0.5,0.5c0.045,0.26,0.242,0.455,0.5,0.5    c0.045,0.26,0.242,0.455,0.5,0.5c0.045,0.26,0.242,0.455,0.5,0.5c0.045,0.26,0.242,0.455,0.5,0.5c0.045,0.26,0.242,0.455,0.5,0.5    c0.045,0.26,0.242,0.455,0.5,0.5c0.045,0.26,0.242,0.455,0.5,0.5c0.045,0.26,0.242,0.455,0.5,0.5c0.045,0.26,0.242,0.455,0.5,0.5    c0.045,0.26,0.242,0.455,0.5,0.5c0.045,0.26,0.242,0.455,0.5,0.5c0.045,0.26,0.242,0.455,0.5,0.5c0.045,0.26,0.242,0.455,0.5,0.5    c0.045,0.26,0.242,0.455,0.5,0.5c0.045,0.26,0.242,0.455,0.5,0.5c0.045,0.26,0.242,0.455,0.5,0.5c0.045,0.26,0.242,0.455,0.5,0.5    c0.045,0.26,0.242,0.455,0.5,0.5c0.045,0.26,0.242,0.455,0.5,0.5c0.045,0.26,0.242,0.455,0.5,0.5c0.045,0.26,0.242,0.455,0.5,0.5    c0.045,0.26,0.242,0.455,0.5,0.5c0.045,0.26,0.242,0.455,0.5,0.5c0.045,0.26,0.242,0.455,0.5,0.5c0.045,0.26,0.242,0.455,0.5,0.5    c0.045,0.26,0.242,0.455,0.5,0.5c0.045,0.26,0.242,0.455,0.5,0.5c0.045,0.26,0.242,0.455,0.5,0.5c0.045,0.26,0.242,0.455,0.5,0.5    c0.045,0.26,0.242,0.455,0.5,0.5c0.045,0.26,0.242,0.455,0.5,0.5c0.045,0.26,0.242,0.455,0.5,0.5c0.045,0.26,0.242,0.455,0.5,0.5    c0.045,0.26,0.242,0.455,0.5,0.5c0.045,0.26,0.242,0.455,0.5,0.5c0.045,0.26,0.242,0.455,0.5,0.5c0.045,0.26,0.242,0.455,0.5,0.5    c0.045,0.26,0.242,0.455,0.5,0.5c0.045,0.26,0.242,0.455,0.5,0.5c0.045,0.26,0.242,0.455,0.5,0.5c0.045,0.26,0.242,0.455,0.5,0.5    c0.045,0.26,0.242,0.455,0.5,0.5c0.045,0.26,0.242,0.455,0.5,0.5c0.045,0.26,0.242,0.455,0.5,0.5c0.045,0.26,0.242,0.455,0.5,0.5    c0.045,0.26,0.242,0.455,0.5,0.5c0.045,0.26,0.242,0.455,0.5,0.5c0.045,0.26,0.242,0.455,0.5,0.5c0.045,0.26,0.242,0.455,0.5,0.5    c0.045,0.26,0.242,0.455,0.5,0.5c0.045,0.26,0.242,0.455,0.5,0.5c0.045,0.26,0.242,0.455,0.5,0.5c0.045,0.26,0.242,0.455,0.5,0.5    c0.045,0.26,0.242,0.455,0.5,0.5c0.045,0.26,0.242,0.455,0.5,0.5c0.045,0.26,0.242,0.455,0.5,0.5c0.045,0.26,0.242,0.455,0.5,0.5    c0.045,0.26,0.242,0.455,0.5,0.5c0.045,0.26,0.242,0.455,0.5,0.5c0.045,0.26,0.242,0.455,0.5,0.5c0.045,0.26,0.242,0.455,0.5,0.5    c0.045,0.26,0.242,0.455,0.5,0.5c0.045,0.26,0.242,0.455,0.5,0.5c0.045,0.26,0.242,0.455,0.5,0.5c0.045,0.26,0.242,0.455,0.5,0.5    c0.045,0.26,0.242,0.455,0.5,0.5c0.045,0.26,0.242,0.455,0.5,0.5c0.045,0.26,0.242,0.455,0.5,0.5c0.045,0.26,0.242,0.455,0.5,0.5    c0.045,0.26,0.242,0.455,0.5,0.5c0.045,0.26,0.242,0.455,0.5,0.5c0.045,0.26,0.242,0.455,0.5,0.5c0.045,0.26,0.242,0.455,0.5,0.5    c0.045,0.26,0.242,0.455,0.5,0.5c0.045,0.26,0.242,0.455,0.5,0.5c0.045,0.26,0.242,0.455,0.5,0.5c0.045,0.26,0.242,0.455,0.5,0.5    c0.045,0.26,0.242,0.455,0.5,0.5c0.045,0.26,0.242,0.455,0.5,0.5c0.045,0.26,0.242,0.455,0.5,0.5c0.045,0.26,0.242,0.455,0.5,0.5    c0.045,0.26,0.242,0.455,0.5,0.5c0.045,0.26,0.242,0.455,0.5,0.5c0.045,0.26,0.242,0.455,0.5,0.5    c0.045,0.26,0.242,0.455,0.499,0.5c0.045,0.26,0.242,0.455,0.5,0.5c0.045,0.26,0.242,0.455,0.5,0.5    c0.045,0.26,0.242,0.455,0.5,0.5c0.045,0.26,0.242,0.455,0.5,0.5c0.045,0.26,0.242,0.455,0.5,0.5c0.045,0.26,0.242,0.455,0.5,0.5    c0.045,0.26,0.242,0.455,0.5,0.5c0.045,0.26,0.242,0.455,0.5,0.5c0.045,0.26,0.242,0.455,0.5,0.5c0.045,0.26,0.242,0.455,0.5,0.5    c0.045,0.26,0.242,0.455,0.5,0.5c0.045,0.26,0.242,0.455,0.5,0.5c0.045,0.26,0.242,0.455,0.5,0.5c0.045,0.26,0.242,0.455,0.5,0.5    c0.045,0.26,0.242,0.455,0.5,0.5c0.045,0.26,0.242,0.455,0.5,0.5c0.045,0.26,0.242,0.455,0.5,0.5c0.045,0.26,0.242,0.455,0.5,0.5    c0.045,0.26,0.242,0.455,0.5,0.5c0.045,0.26,0.242,0.455,0.5,0.5c0.045,0.26,0.242,0.455,0.5,0.5c0.045,0.26,0.242,0.455,0.5,0.5    c0.045,0.26,0.242,0.455,0.5,0.5c0.051,0.295,0.295,0.521,0.604,0.521h0.621h2.041c0.166,0,0.326-0.066,0.443-0.188l2.354-2.406    c0.07,0.043,0.146,0.064,0.229,0.078c0.008,0.043-0.004,0.086,0.014,0.127c0.084,0.205,0.27,0.342,0.486,0.373    c0.008,0.043-0.004,0.086,0.014,0.127c0.084,0.205,0.27,0.342,0.486,0.373c0.008,0.043-0.004,0.086,0.014,0.127    c0.084,0.205,0.27,0.342,0.486,0.373c0.008,0.043-0.004,0.086,0.014,0.127c0.084,0.205,0.27,0.342,0.486,0.373    c0.008,0.043-0.004,0.086,0.014,0.127c0.096,0.23,0.322,0.387,0.576,0.387h6.438c0.16,0,0.313-0.063,0.432-0.172l7.635-7.299    c0.174-0.166,0.236-0.42,0.16-0.648l-1.609-4.783c-0.068-0.201-0.236-0.354-0.443-0.406c-0.008-0.002-0.018,0.002-0.025,0    l-0.029-0.094c-0.068-0.201-0.236-0.354-0.443-0.406c-0.008-0.002-0.018,0.002-0.025,0l-0.031-0.094    c-0.068-0.201-0.236-0.354-0.443-0.406c-0.008-0.002-0.018,0.002-0.023,0l-0.031-0.094c-0.068-0.201-0.236-0.354-0.443-0.406    c-0.008-0.002-0.018,0.002-0.025,0l-0.031-0.094c-0.068-0.201-0.236-0.354-0.443-0.406c-0.008-0.002-0.018,0.002-0.023,0    l-0.031-0.094c-0.043-0.127-0.135-0.223-0.244-0.299c0.223,0.074,0.475,0.045,0.668-0.113l2.498-2.051    c0.082,0.084,0.182,0.15,0.299,0.186c0.008,0.004,0.018,0.002,0.025,0.004l0.006,0.021c0.064,0.227,0.242,0.404,0.469,0.475    c0.008,0.004,0.018,0.002,0.025,0.004l0.006,0.021c0.064,0.227,0.242,0.404,0.469,0.475c0.008,0.004,0.018,0.002,0.025,0.004    l0.006,0.021c0.064,0.227,0.242,0.404,0.469,0.475c0.008,0.004,0.018,0.002,0.025,0.004l0.006,0.021    c0.064,0.227,0.242,0.404,0.469,0.475c0.008,0.004,0.018,0.002,0.025,0.004l0.006,0.021c0.064,0.227,0.242,0.404,0.469,0.475    c0.008,0.004,0.018,0.002,0.025,0.004l0.006,0.021c0.064,0.227,0.242,0.404,0.469,0.475c0.008,0.004,0.018,0.002,0.025,0.004    l0.006,0.021c0.064,0.227,0.242,0.404,0.469,0.475c0.008,0.004,0.018,0.002,0.025,0.004l0.006,0.021    c0.064,0.227,0.242,0.404,0.469,0.475c0.008,0.004,0.018,0.002,0.025,0.004l0.006,0.021c0.064,0.227,0.242,0.404,0.469,0.475    c0.008,0.004,0.018,0.002,0.025,0.004l0.006,0.021c0.064,0.227,0.242,0.404,0.469,0.475c0.008,0.004,0.018,0.002,0.025,0.004    l0.006,0.021c0.064,0.227,0.242,0.404,0.469,0.475c0.008,0.004,0.018,0.002,0.025,0.004l0.006,0.021    c0.064,0.227,0.242,0.404,0.469,0.475c0.008,0.004,0.018,0.002,0.025,0.004l0.006,0.021c0.064,0.227,0.242,0.404,0.469,0.475    c0.008,0.004,0.018,0.002,0.025,0.004l0.006,0.021c0.064,0.227,0.242,0.404,0.469,0.475c0.008,0.004,0.018,0.002,0.025,0.004    l0.006,0.021c0.064,0.227,0.242,0.404,0.469,0.475c0.008,0.004,0.018,0.002,0.025,0.004l0.006,0.021    c0.064,0.227,0.242,0.404,0.469,0.475c0.008,0.004,0.018,0.002,0.025,0.004l0.006,0.021c0.064,0.227,0.242,0.404,0.469,0.475    c0.008,0.004,0.018,0.002,0.025,0.004l0.006,0.021c0.064,0.227,0.242,0.404,0.469,0.475c0.008,0.004,0.018,0.002,0.025,0.004    l0.006,0.021c0.064,0.227,0.242,0.404,0.469,0.475c0.008,0.004,0.018,0.002,0.025,0.004l0.006,0.021    c0.064,0.227,0.242,0.404,0.469,0.475c0.008,0.004,0.018,0.002,0.025,0.004l0.006,0.021c0.064,0.227,0.242,0.404,0.469,0.475    c0.008,0.004,0.018,0.002,0.025,0.004l0.006,0.021c0.064,0.227,0.242,0.404,0.469,0.475c0.008,0.004,0.018,0.002,0.025,0.004    l0.006,0.021c0.064,0.227,0.242,0.404,0.469,0.475c0.008,0.004,0.018,0.002,0.025,0.004l0.006,0.021    c0.064,0.227,0.242,0.404,0.469,0.475c0.068,0.021,0.137,0.031,0.207,0.031c0.16,0,0.318-0.057,0.447-0.162l9.869-8.209    c0.109-0.092,0.189-0.213,0.229-0.352l3.209-11.539c4.227-3.143,7.238-6.063,7.27-6.092    C321.503,263.172,318.841,245.902,318.716,245.178z M261.638,301.336c-0.008-0.002-0.018,0.002-0.025,0l-0.01-0.027    c0.008,0.006,0.02,0.012,0.025,0.02L261.638,301.336z M257.103,296.809c0.008,0.006,0.02,0.012,0.025,0.02l0.01,0.01    c-0.008-0.002-0.018,0.002-0.025,0L257.103,296.809z M257.603,297.309c0.008,0.006,0.02,0.012,0.025,0.02l0.01,0.01    c-0.008-0.002-0.018,0.002-0.025,0L257.603,297.309z M258.103,297.809c0.008,0.006,0.02,0.012,0.025,0.02l0.01,0.01    c-0.008-0.002-0.018,0.002-0.025,0L258.103,297.809z M258.603,298.309c0.008,0.006,0.02,0.012,0.025,0.02l0.01,0.01    c-0.008-0.002-0.018,0.002-0.025,0L258.603,298.309z M259.103,298.809c0.008,0.006,0.02,0.012,0.025,0.02l0.01,0.01    c-0.008-0.002-0.018,0.002-0.025,0L259.103,298.809z M259.603,299.309c0.008,0.006,0.02,0.012,0.025,0.02l0.01,0.01    c-0.008-0.002-0.018,0.002-0.025,0L259.603,299.309z M260.103,299.809c0.008,0.006,0.02,0.012,0.025,0.02l0.01,0.01    c-0.008-0.002-0.018,0.002-0.025,0L260.103,299.809z M260.603,300.309c0.008,0.006,0.02,0.012,0.025,0.02l0.01,0.01    c-0.008-0.002-0.018,0.002-0.025,0L260.603,300.309z M261.103,300.809c0.008,0.006,0.02,0.012,0.025,0.02l0.01,0.01    c-0.008-0.002-0.018,0.002-0.025,0L261.103,300.809z M262.138,301.836c-0.008-0.002-0.018,0.002-0.025,0l-0.01-0.027    c0.02,0.014,0.035,0.025,0.053,0.037C262.149,301.844,262.144,301.838,262.138,301.836z"/>
	</g>
</g>
<g>
	<path fill="#FFFFFF" d="M89.033,75.643c22.471-22.471,19.809-39.74,19.684-40.465c-0.049-0.279-0.26-0.504-0.537-0.566   c-0.049-0.01-1.168-0.256-3.199-0.256c-6.168,0-18.965,2.174-35.334,16.74c-2.842,2.529-5.395,5.096-7.588,7.633l-11.66,2.084   c-0.147,0.027-0.28,0.1-0.385,0.207l-8.85,9.299c-0.164,0.172-0.23,0.414-0.176,0.645c0.053,0.23,0.219,0.418,0.441,0.5   l11.432,4.173c-0.726,3.928-0.041,6.508,0.338,7.545l-4.447,4.078c-0.141,0.127-0.223,0.305-0.229,0.494   c-0.006,0.188,0.063,0.371,0.19,0.508l3.336,3.51c0.257,0.27,0.67,0.291,0.955,0.061l4.492-3.691   c1.795,1.232,3.976,1.799,6.444,1.699l3.392,11.652c0.065,0.227,0.241,0.404,0.469,0.475c0.068,0.021,0.138,0.031,0.207,0.031   c0.16,0,0.318-0.057,0.447-0.162l9.869-8.209c0.111-0.094,0.191-0.213,0.23-0.354l3.209-11.539   C85.99,78.592,89.002,75.672,89.033,75.643z M73.625,62.093c0-3.91,3.168-7.08,7.078-7.08s7.078,3.17,7.078,7.08   c0,3.91-3.168,7.078-7.078,7.078S73.625,66.003,73.625,62.093z"/>
	<path fill="#FFFFFF" d="M41.595,106.576c-0.182,0.176-0.238,0.445-0.145,0.682c0.096,0.232,0.324,0.387,0.578,0.387l0,0h6.436l0,0   c0.16,0,0.314-0.063,0.432-0.172l7.635-7.299c0.175-0.166,0.236-0.42,0.16-0.648l-1.608-4.783   c-0.067-0.201-0.235-0.354-0.442-0.406c-0.207-0.051-0.429,0.01-0.58,0.16L41.595,106.576z"/>
	<path fill="#FFFFFF" d="M33.3,103.518c-0.109,0.117-0.172,0.365-0.172,0.525v2.98c0,0.344,0.279,0.623,0.623,0.623h0.621h2.041l0,0   c0.166,0,0.326-0.066,0.443-0.188L49.195,94.85c0.227-0.229,0.236-0.598,0.024-0.842l-2.768-3.393   c-0.115-0.133-0.279-0.404-0.455-0.404h-0.015c-0.168,0-0.334,0.26-0.451,0.381L33.3,103.518z"/>
	<path fill="#FFFFFF" d="M33.128,92.57v6.088c0,0.252,0.15,0.479,0.381,0.574c0.076,0.033,0.158,0.049,0.238,0.049   c0.16,0,0.32-0.063,0.439-0.18l12.564-12.463c0.135-0.133,0.199-0.32,0.182-0.51c-0.021-0.189-0.127-0.355-0.287-0.457   l-3.647-2.314c-0.24-0.15-0.562-0.123-0.769,0.08l-8.914,8.689C33.195,92.244,33.128,92.404,33.128,92.57z"/>
</g>
</svg>