<?xml version="1.0" encoding="UTF-8"?>
<!-- Generator: Adobe Illustrator 15.0.2, SVG Export Plug-In . SVG Version: 6.00 Build 0)  -->
<!DOCTYPE svg PUBLIC "-//W3C//DTD SVG 1.1//EN" "http://www.w3.org/Graphics/SVG/1.1/DTD/svg11.dtd">
<svg version="1.1" id="Layer_1" xmlns="http://www.w3.org/2000/svg" xmlns:xlink="http://www.w3.org/1999/xlink" x="0px" y="0px" width="512px" height="505.9px" viewBox="0 0 512 505.9" enable-background="new 0 0 512 505.9" xml:space="preserve">
<g>
	<path d="M511.932,158.925c-0.407-6.031-5.376-10.808-11.506-10.808h-82.982l0,0l0,0V11.581C417.443,5.176,412.252,0,405.862,0   H106.146c-6.396,0-11.581,5.176-11.581,11.581v136.536l0,0H11.593h-0.012c-6.134,0-11.099,4.776-11.504,10.808H0V391.6   c0,6.39,5.182,11.581,11.581,11.581l0,0h82.984v-96.914l0,0h31.561h259.751h31.554l0,0v96.914h82.988   c6.396,0,11.581-5.191,11.581-11.581V158.925H511.932z M385.877,199.993H126.126V43.138c0-6.402,5.182-11.578,11.581-11.578l0,0   h236.589c6.396,0,11.581,5.176,11.581,11.578V199.993L385.877,199.993z"/>
	<path d="M126.923,494.319c0,6.415,5.182,11.581,11.581,11.581h235.001c6.396,0,11.581-5.166,11.581-11.581V338.404H126.923V494.319   z"/>
</g>
</svg>