<?xml version="1.0" encoding="UTF-8"?>
<!-- Generator: Adobe Illustrator 15.1.0, SVG Export Plug-In . SVG Version: 6.00 Build 0)  -->
<!DOCTYPE svg PUBLIC "-//W3C//DTD SVG 1.1//EN" "http://www.w3.org/Graphics/SVG/1.1/DTD/svg11.dtd">
<svg version="1.1" id="Layer_1" xmlns="http://www.w3.org/2000/svg" xmlns:xlink="http://www.w3.org/1999/xlink" x="0px" y="0px" width="800px" height="400px" viewBox="0 0 800 400" enable-background="new 0 0 800 400" xml:space="preserve">
<g id="Printer_2_">
	<defs>
		<rect id="SVGID_1_" x="333.746" y="121.327" width="135.507" height="146.347"/>
	</defs>
	<clipPath id="SVGID_2_">
		<use xlink:href="#SVGID_1_" overflow="visible"/>
	</clipPath>
	<path clip-path="url(#SVGID_2_)" fill="#929292" d="M458.411,164.689h-16.26v-21.682l-21.681-21.681h-59.623v43.362h-16.261   c-5.866,0-10.841,4.854-10.841,10.84v48.783c0,5.986,4.975,10.84,10.841,10.84h16.261v32.521h81.304v-32.521h16.26   c5.865,0,10.842-4.854,10.842-10.84v-48.783C469.253,169.542,464.276,164.689,458.411,164.689z M420.471,128.992l14.016,14.016   h-14.016V128.992z M366.268,126.747h48.782v21.682h21.681v27.101h-70.463V126.747z M436.73,262.254h-70.463v-54.203h70.463V262.254   z M463.832,224.312c0,2.984-2.499,5.42-5.421,5.42h-16.26v-27.102h-81.304v27.102h-16.261c-2.922,0-5.421-2.436-5.421-5.42v-48.783   c0-2.991,2.499-5.42,5.421-5.42h16.261v10.841h81.304v-10.841h16.26c2.922,0,5.421,2.43,5.421,5.42V224.312z"/>
</g>
</svg>